<svg xmlns="http://www.w3.org/2000/svg" xmlns:xlink="http://www.w3.org/1999/xlink" width="128" zoomAndPan="magnify" viewBox="0 0 96 95.999999" height="128" preserveAspectRatio="xMidYMid meet" version="1.2"><defs><clipPath id="90f8b35049"><path d="M 16 15.097656 L 84.875 15.097656 L 84.875 75.097656 L 16 75.097656 Z M 16 15.097656 "/></clipPath></defs><g id="3e6f8ff4b5"><path style=" stroke:none;fill-rule:nonzero;fill:#ffffff;fill-opacity:1;" d="M 95.699219 48 C 95.699219 74.34375 74.34375 95.699219 48 95.699219 C 21.65625 95.699219 0.300781 74.34375 0.300781 48 C 0.300781 21.65625 21.65625 0.300781 48 0.300781 C 74.34375 0.300781 95.699219 21.65625 95.699219 48 Z M 95.699219 48 "/><path style=" stroke:none;fill-rule:nonzero;fill:#000000;fill-opacity:1;" d="M 48 0 C 21.53125 0 0 21.53125 0 48 C 0 74.46875 21.53125 96 48 96 C 74.46875 96 96 74.46875 96 48 C 96 21.53125 74.46875 0 48 0 Z M 48 95.394531 C 21.863281 95.394531 0.605469 74.136719 0.605469 48 C 0.605469 21.863281 21.863281 0.605469 48 0.605469 C 74.136719 0.605469 95.394531 21.863281 95.394531 48 C 95.394531 74.136719 74.136719 95.394531 48 95.394531 Z M 48 95.394531 "/><g clip-rule="nonzero" clip-path="url(#90f8b35049)"><path style=" stroke:none;fill-rule:nonzero;fill:#000000;fill-opacity:1;" d="M 83.507812 58.152344 C 82.839844 58.734375 82.132812 59.273438 81.414062 59.792969 C 79.660156 61.019531 77.945312 62.355469 75.957031 63.21875 C 72.332031 64.734375 68.167969 64.675781 64.453125 63.503906 C 64.136719 49.632812 49.523438 50.726562 44.367188 37.0625 C 44.339844 37.023438 44.324219 36.980469 44.3125 36.9375 C 44.84375 36.046875 45.191406 35.011719 45.3125 33.929688 C 45.9375 30.074219 45.828125 25.933594 44.21875 22.324219 C 43.15625 20.035156 41.511719 17.863281 39.34375 16.539062 C 36.664062 15.109375 33.402344 15.789062 30.675781 16.757812 C 28.675781 17.644531 27.207031 19.554688 24.976562 19.953125 C 24.199219 20.136719 23.433594 20.089844 22.667969 20.039062 C 21.839844 19.988281 21.011719 19.9375 20.160156 20.175781 C 17.53125 20.960938 16.683594 24.199219 17.640625 26.5625 C 18.328125 28.382812 19.523438 30 20.875 31.378906 C 23.53125 34.007812 27.535156 35.089844 31.367188 35.371094 C 30.742188 36.140625 30.167969 36.949219 29.667969 37.804688 C 27.6875 41.15625 26.941406 45.113281 27.125 48.976562 C 27.046875 53.273438 27.621094 59.296875 25.574219 63.117188 C 24.222656 64.894531 21.699219 64.71875 19.769531 65.414062 C 16.890625 66.066406 15.878906 69.570312 18.304688 71.421875 C 19.953125 72.742188 22.132812 72.683594 24.132812 72.503906 C 28.222656 72.175781 31.898438 69.941406 34.8125 67.144531 C 36.386719 69.511719 38.671875 71.417969 41.140625 72.789062 C 41.203125 72.820312 41.265625 72.832031 41.332031 72.832031 C 41.53125 72.832031 41.730469 72.703125 41.808594 72.519531 C 41.980469 72.082031 41.597656 71.878906 41.273438 71.671875 C 40.863281 71.386719 40.410156 71.035156 39.964844 70.679688 C 38.363281 69.402344 36.796875 68.011719 35.738281 66.230469 C 38.121094 63.6875 39.929688 60.433594 40.273438 56.921875 C 40.617188 54.097656 38.773438 49.417969 35.277344 51.261719 C 33.53125 52.289062 32.789062 54.355469 32.394531 56.246094 C 31.6875 59.503906 32.324219 63.011719 34.03125 65.863281 C 30.523438 69.402344 25.390625 72 20.339844 70.851562 C 18.867188 70.476562 17.660156 68.714844 18.980469 67.46875 C 20.046875 66.644531 21.484375 66.582031 22.746094 66.246094 C 26.589844 65.601562 27.765625 63.191406 28.285156 59.597656 C 29.171875 54.226562 28.109375 48.730469 29.070312 43.378906 C 29.488281 41.261719 30.289062 39.214844 31.503906 37.425781 C 31.761719 36.835938 32.828125 36.109375 32.660156 35.4375 C 33.382812 35.460938 34.089844 35.453125 34.773438 35.429688 C 35.40625 37.585938 36.957031 39.890625 39.421875 39.925781 C 41.191406 39.855469 42.660156 39.035156 43.691406 37.804688 C 43.929688 38.628906 44.410156 39.433594 44.722656 40.183594 C 49.640625 51.222656 62.933594 51.125 63.242188 63.085938 C 59.535156 61.75 56.085938 59.667969 52.242188 58.738281 C 50.542969 58.550781 48.714844 58.671875 47.230469 59.59375 C 45.460938 60.609375 43.667969 62.070312 43.425781 64.234375 C 43.046875 65.828125 43.492188 67.457031 44.011719 68.964844 C 45.207031 72.339844 48.398438 74.960938 52.019531 75.078125 C 52.160156 75.082031 52.300781 75.085938 52.441406 75.085938 C 54.503906 75.085938 56.5 74.335938 58.304688 73.375 C 61.539062 71.722656 64.039062 68.585938 64.394531 64.902344 C 68.160156 65.988281 72.316406 65.957031 75.992188 64.539062 C 79.019531 63.238281 81.679688 61.164062 84.246094 59.113281 C 84.878906 58.640625 84.109375 57.660156 83.503906 58.152344 Z M 33.859375 56.542969 C 34.234375 54.945312 34.8125 52.730469 36.65625 52.347656 C 38.183594 52.371094 38.609375 54.335938 38.746094 55.570312 C 38.921875 59.019531 37.292969 62.390625 34.992188 64.878906 C 33.785156 62.308594 33.304688 59.347656 33.859375 56.542969 Z M 44.175781 31.023438 C 43.945312 34.207031 43.449219 37.804688 39.703125 38.429688 C 36.234375 38.320312 35.828125 33.710938 35.339844 31.0625 C 35.148438 30.339844 35.464844 28.867188 34.394531 28.867188 C 34.378906 28.867188 34.363281 28.867188 34.347656 28.867188 C 33.214844 29.085938 33.996094 30.890625 33.972656 31.695312 C 34.121094 32.714844 34.308594 33.730469 34.574219 34.726562 C 30.347656 34.550781 25.460938 33.875 22.144531 31.023438 C 20.300781 29.199219 18.367188 26.84375 18.417969 24.113281 C 18.484375 22.820312 19.347656 21.496094 20.667969 21.25 C 21.359375 21.160156 22.0625 21.203125 22.761719 21.242188 C 23.78125 21.300781 24.796875 21.363281 25.785156 21.023438 C 27.730469 20.535156 29.15625 19.046875 30.882812 18.121094 C 33.054688 17.226562 35.636719 16.726562 37.917969 17.480469 C 39.675781 18.175781 40.839844 19.722656 41.972656 21.183594 C 43.882812 24.0625 44.425781 27.621094 44.175781 31.023438 Z M 53.082031 73.527344 C 50.0625 73.757812 47.128906 71.9375 45.863281 69.195312 C 45.105469 67.523438 44.582031 65.609375 45.175781 63.804688 C 45.601562 62.589844 46.660156 61.796875 47.683594 61.097656 C 48.664062 60.382812 49.867188 60.097656 51.066406 60.097656 C 51.453125 60.097656 51.839844 60.128906 52.222656 60.183594 C 56.035156 61.191406 59.496094 63.226562 63.214844 64.523438 C 62.785156 69.640625 57.875 73.035156 53.082031 73.527344 Z M 53.082031 73.527344 "/></g></g></svg>