<svg xmlns="http://www.w3.org/2000/svg" xmlns:xlink="http://www.w3.org/1999/xlink" width="500" zoomAndPan="magnify" viewBox="0 0 375 374.999991" height="500" preserveAspectRatio="xMidYMid meet" version="1.2"><defs><clipPath id="6c491a2338"><path d="M 109 94 L 257 94 L 257 223.113281 L 109 223.113281 Z M 109 94 "/></clipPath><clipPath id="9de423ebb1"><path d="M 234 212 L 256 212 L 256 231.460938 L 234 231.460938 Z M 234 212 "/></clipPath></defs><g id="49afc3ad85"><rect x="0" width="375" y="0" height="374.999991" style="fill:#ffffff;fill-opacity:1;stroke:none;"/><rect x="0" width="375" y="0" height="374.999991" style="fill:#f4f5f0;fill-opacity:1;stroke:none;"/><g clip-rule="nonzero" clip-path="url(#6c491a2338)"><path style=" stroke:none;fill-rule:nonzero;fill:#556b2f;fill-opacity:1;" d="M 254.367188 186.476562 C 252.914062 187.734375 251.378906 188.902344 249.820312 190.027344 C 246.015625 192.679688 242.296875 195.574219 237.976562 197.4375 C 230.105469 200.722656 221.074219 200.589844 213.007812 198.054688 C 212.316406 168.050781 180.601562 170.414062 169.40625 140.847656 C 169.351562 140.765625 169.3125 140.675781 169.285156 140.582031 C 170.441406 138.652344 171.195312 136.417969 171.460938 134.070312 C 172.8125 125.734375 172.578125 116.773438 169.085938 108.96875 C 166.777344 104.015625 163.210938 99.316406 158.503906 96.449219 C 152.679688 93.355469 145.605469 94.828125 139.6875 96.925781 C 135.347656 98.84375 132.15625 102.976562 127.3125 103.835938 C 125.625 104.238281 123.964844 104.132812 122.304688 104.027344 C 120.507812 103.914062 118.710938 103.800781 116.859375 104.320312 C 111.152344 106.015625 109.316406 113.019531 111.390625 118.136719 C 112.878906 122.070312 115.480469 125.570312 118.410156 128.558594 C 124.179688 134.242188 132.871094 136.585938 141.183594 137.195312 C 139.832031 138.855469 138.582031 140.609375 137.496094 142.457031 C 133.199219 149.710938 131.578125 158.269531 131.980469 166.628906 C 131.804688 175.921875 133.058594 188.953125 128.613281 197.214844 C 125.679688 201.066406 120.203125 200.6875 116.011719 202.191406 C 109.765625 203.601562 107.566406 211.179688 112.835938 215.183594 C 116.410156 218.039062 121.140625 217.914062 125.480469 217.523438 C 134.363281 216.8125 142.335938 211.984375 148.660156 205.933594 C 152.085938 211.058594 157.042969 215.175781 162.402344 218.144531 C 162.535156 218.210938 162.675781 218.242188 162.816406 218.242188 C 163.25 218.242188 163.683594 217.960938 163.851562 217.558594 C 164.230469 216.617188 163.390625 216.175781 162.6875 215.730469 C 161.796875 215.109375 160.8125 214.351562 159.851562 213.582031 C 156.371094 210.816406 152.976562 207.808594 150.671875 203.953125 C 155.84375 198.449219 159.773438 191.414062 160.519531 183.8125 C 161.265625 177.703125 157.257812 167.578125 149.671875 171.566406 C 145.882812 173.789062 144.269531 178.261719 143.414062 182.351562 C 141.886719 189.398438 143.261719 196.992188 146.96875 203.160156 C 139.355469 210.820312 128.214844 216.433594 117.25 213.957031 C 114.050781 213.140625 111.433594 209.328125 114.300781 206.632812 C 116.617188 204.851562 119.734375 204.714844 122.476562 203.984375 C 130.820312 202.597656 133.367188 197.378906 134.496094 189.605469 C 136.417969 177.984375 134.121094 166.09375 136.199219 154.515625 C 137.109375 149.933594 138.847656 145.507812 141.484375 141.636719 C 142.042969 140.359375 144.359375 138.789062 143.996094 137.335938 C 145.5625 137.382812 147.097656 137.371094 148.585938 137.316406 C 149.957031 141.980469 153.320312 146.96875 158.671875 147.042969 C 162.515625 146.894531 165.695312 145.125 167.9375 142.460938 C 168.457031 144.242188 169.496094 145.980469 170.179688 147.601562 C 180.855469 171.492188 209.703125 171.273438 210.371094 197.15625 C 202.328125 194.257812 194.84375 189.761719 186.5 187.746094 C 182.816406 187.34375 178.839844 187.601562 175.625 189.601562 C 171.777344 191.796875 167.890625 194.953125 167.359375 199.640625 C 166.542969 203.082031 167.507812 206.609375 168.636719 209.871094 C 171.226562 217.171875 178.160156 222.84375 186.015625 223.09375 C 186.320312 223.109375 186.625 223.117188 186.929688 223.117188 C 191.410156 223.117188 195.746094 221.492188 199.660156 219.410156 C 206.679688 215.839844 212.101562 209.054688 212.875 201.082031 C 221.050781 203.429688 230.070312 203.363281 238.050781 200.296875 C 244.628906 197.480469 250.398438 192.992188 255.96875 188.5625 C 257.34375 187.53125 255.675781 185.414062 254.359375 186.476562 Z M 146.59375 183 C 147.414062 179.542969 148.667969 174.746094 152.664062 173.917969 C 155.988281 173.972656 156.90625 178.222656 157.203125 180.890625 C 157.582031 188.351562 154.050781 195.648438 149.054688 201.035156 C 146.433594 195.472656 145.390625 189.0625 146.59375 183 Z M 168.988281 127.785156 C 168.488281 134.671875 167.410156 142.457031 159.28125 143.804688 C 151.75 143.574219 150.867188 133.601562 149.8125 127.875 C 149.398438 126.304688 150.078125 123.117188 147.761719 123.117188 C 147.726562 123.117188 147.6875 123.117188 147.652344 123.117188 C 145.195312 123.597656 146.890625 127.5 146.839844 129.242188 C 147.164062 131.449219 147.574219 133.644531 148.148438 135.800781 C 138.96875 135.414062 128.367188 133.953125 121.167969 127.789062 C 117.160156 123.84375 112.96875 118.746094 113.078125 112.832031 C 113.226562 110.042969 115.097656 107.171875 117.960938 106.640625 C 119.464844 106.445312 120.988281 106.535156 122.511719 106.625 C 124.714844 106.753906 126.921875 106.882812 129.074219 106.148438 C 133.296875 105.089844 136.390625 101.875 140.132812 99.875 C 144.847656 97.933594 150.449219 96.855469 155.40625 98.488281 C 159.222656 99.988281 161.75 103.335938 164.207031 106.503906 C 168.355469 112.730469 169.53125 120.425781 168.988281 127.78125 Z M 188.324219 219.738281 C 181.765625 220.242188 175.402344 216.300781 172.65625 210.371094 C 171.011719 206.753906 169.875 202.609375 171.160156 198.710938 C 172.082031 196.082031 174.382812 194.359375 176.601562 192.851562 C 178.734375 191.308594 181.34375 190.6875 183.945312 190.6875 C 184.789062 190.6875 185.628906 190.753906 186.453125 190.871094 C 194.730469 193.054688 202.242188 197.457031 210.316406 200.261719 C 209.382812 211.335938 198.730469 218.671875 188.324219 219.738281 Z M 188.324219 219.738281 "/></g><path style=" stroke:none;fill-rule:nonzero;fill:#556b2f;fill-opacity:1;" d="M 209.929688 115.0625 C 210.585938 118.234375 209.816406 120.976562 206.796875 121.96875 C 203.398438 123.082031 202.582031 119.867188 200.105469 122.496094 C 196.136719 126.714844 191.746094 123.699219 190.777344 119.050781 C 189.804688 114.394531 193.035156 108.410156 198.324219 107.304688 C 203.613281 106.195312 208.960938 110.40625 209.929688 115.0625 Z M 209.929688 115.0625 "/><path style=" stroke:none;fill-rule:nonzero;fill:#556b2f;fill-opacity:1;" d="M 190.507812 107.308594 C 190.777344 107.671875 190.976562 108.0625 191.105469 108.488281 C 191.238281 108.914062 191.285156 109.335938 191.257812 109.757812 C 191.226562 110.179688 191.117188 110.566406 190.929688 110.921875 C 190.742188 111.277344 190.492188 111.574219 190.179688 111.808594 C 189.867188 112.042969 189.511719 112.199219 189.117188 112.28125 C 188.726562 112.359375 188.320312 112.351562 187.90625 112.261719 C 187.496094 112.171875 187.101562 112.007812 186.734375 111.761719 C 186.363281 111.519531 186.042969 111.214844 185.769531 110.855469 C 185.5 110.492188 185.300781 110.097656 185.171875 109.675781 C 185.039062 109.25 184.992188 108.828125 185.023438 108.40625 C 185.050781 107.984375 185.160156 107.597656 185.347656 107.242188 C 185.535156 106.886719 185.785156 106.589844 186.097656 106.355469 C 186.410156 106.121094 186.765625 105.964844 187.160156 105.882812 C 187.554688 105.804688 187.957031 105.8125 188.371094 105.902344 C 188.785156 105.992188 189.175781 106.15625 189.546875 106.402344 C 189.914062 106.644531 190.234375 106.949219 190.507812 107.308594 Z M 190.507812 107.308594 "/><path style=" stroke:none;fill-rule:nonzero;fill:#556b2f;fill-opacity:1;" d="M 196.21875 102.058594 C 196.382812 102.476562 196.472656 102.910156 196.488281 103.351562 C 196.5 103.796875 196.4375 104.21875 196.296875 104.617188 C 196.15625 105.015625 195.949219 105.363281 195.675781 105.65625 C 195.402344 105.949219 195.082031 106.167969 194.71875 106.3125 C 194.351562 106.457031 193.96875 106.515625 193.570312 106.484375 C 193.167969 106.457031 192.78125 106.347656 192.40625 106.152344 C 192.03125 105.957031 191.695312 105.691406 191.402344 105.359375 C 191.109375 105.027344 190.882812 104.648438 190.714844 104.230469 C 190.550781 103.808594 190.460938 103.378906 190.445312 102.933594 C 190.433594 102.492188 190.496094 102.070312 190.636719 101.671875 C 190.777344 101.273438 190.984375 100.925781 191.257812 100.632812 C 191.53125 100.339844 191.851562 100.117188 192.214844 99.976562 C 192.582031 99.832031 192.964844 99.773438 193.363281 99.800781 C 193.765625 99.828125 194.152344 99.941406 194.527344 100.136719 C 194.902344 100.332031 195.238281 100.59375 195.53125 100.929688 C 195.824219 101.261719 196.050781 101.636719 196.21875 102.058594 Z M 196.21875 102.058594 "/><path style=" stroke:none;fill-rule:nonzero;fill:#556b2f;fill-opacity:1;" d="M 209.472656 101.488281 C 209.851562 101.578125 210.199219 101.746094 210.515625 102 C 210.828125 102.25 211.082031 102.5625 211.277344 102.9375 C 211.472656 103.3125 211.597656 103.71875 211.648438 104.160156 C 211.699219 104.601562 211.671875 105.042969 211.566406 105.480469 C 211.464844 105.921875 211.292969 106.324219 211.050781 106.699219 C 210.808594 107.070312 210.515625 107.378906 210.171875 107.625 C 209.828125 107.875 209.460938 108.039062 209.070312 108.125 C 208.675781 108.210938 208.289062 108.207031 207.90625 108.117188 C 207.527344 108.027344 207.179688 107.855469 206.867188 107.605469 C 206.554688 107.351562 206.296875 107.039062 206.101562 106.664062 C 205.90625 106.292969 205.78125 105.882812 205.730469 105.441406 C 205.679688 105.003906 205.707031 104.5625 205.8125 104.121094 C 205.914062 103.683594 206.089844 103.277344 206.328125 102.90625 C 206.570312 102.535156 206.863281 102.226562 207.207031 101.976562 C 207.550781 101.730469 207.917969 101.5625 208.3125 101.480469 C 208.703125 101.394531 209.089844 101.398438 209.472656 101.488281 Z M 209.472656 101.488281 "/><path style=" stroke:none;fill-rule:nonzero;fill:#556b2f;fill-opacity:1;" d="M 204.414062 101.375 C 204.429688 101.824219 204.371094 102.261719 204.234375 102.683594 C 204.101562 103.105469 203.898438 103.480469 203.632812 103.8125 C 203.367188 104.140625 203.054688 104.398438 202.699219 104.582031 C 202.34375 104.765625 201.96875 104.867188 201.578125 104.878906 C 201.1875 104.894531 200.804688 104.820312 200.4375 104.660156 C 200.070312 104.5 199.742188 104.265625 199.453125 103.957031 C 199.164062 103.648438 198.9375 103.285156 198.773438 102.875 C 198.609375 102.464844 198.519531 102.03125 198.503906 101.582031 C 198.488281 101.128906 198.546875 100.691406 198.683594 100.269531 C 198.820312 99.847656 199.019531 99.472656 199.285156 99.144531 C 199.550781 98.8125 199.863281 98.558594 200.21875 98.371094 C 200.574219 98.1875 200.949219 98.085938 201.339844 98.074219 C 201.734375 98.058594 202.113281 98.132812 202.480469 98.292969 C 202.847656 98.453125 203.175781 98.6875 203.464844 98.996094 C 203.753906 99.304688 203.980469 99.667969 204.144531 100.078125 C 204.308594 100.492188 204.398438 100.921875 204.414062 101.375 Z M 204.414062 101.375 "/><path style=" stroke:none;fill-rule:nonzero;fill:#8f9e8b;fill-opacity:1;" d="M 242.332031 144.03125 C 241.890625 144.03125 241.457031 143.96875 241.015625 143.847656 C 238.75 143.207031 236.890625 140.914062 236.28125 137.996094 C 235.765625 135.519531 236.320312 132.707031 237.796875 130.269531 C 239.367188 127.683594 241.707031 125.960938 244.382812 125.398438 C 247.058594 124.847656 249.894531 125.496094 252.363281 127.234375 C 254.6875 128.875 256.324219 131.234375 256.835938 133.710938 C 257.644531 137.605469 256.324219 140.425781 253.222656 141.449219 C 251.453125 142.027344 250.234375 141.578125 249.335938 141.242188 C 248.324219 140.867188 247.859375 140.691406 246.828125 141.789062 C 245.464844 143.261719 243.894531 144.03125 242.332031 144.03125 Z M 246.28125 126.648438 C 245.746094 126.648438 245.214844 126.707031 244.6875 126.808594 C 242.402344 127.289062 240.398438 128.78125 239.039062 131.023438 C 237.761719 133.117188 237.265625 135.617188 237.699219 137.707031 C 238.195312 140.105469 239.65625 141.972656 241.417969 142.46875 C 242.875 142.878906 244.390625 142.308594 245.800781 140.808594 C 247.492188 139.015625 248.75 139.488281 249.863281 139.90625 C 250.707031 140.21875 251.507812 140.511719 252.796875 140.097656 C 254.464844 139.542969 256.285156 138.046875 255.449219 134.023438 C 255.015625 131.9375 253.558594 129.847656 251.554688 128.4375 C 249.90625 127.257812 248.078125 126.648438 246.28125 126.648438 Z M 246.28125 126.648438 "/><path style=" stroke:none;fill-rule:nonzero;fill:#8f9e8b;fill-opacity:1;" d="M 234.117188 130.792969 C 232.882812 130.792969 231.601562 130.175781 230.742188 129.027344 C 230.09375 128.164062 229.773438 127.121094 229.851562 126.097656 C 229.933594 125.039062 230.414062 124.117188 231.214844 123.515625 C 232.015625 122.914062 233.035156 122.707031 234.070312 122.929688 C 235.070312 123.148438 235.984375 123.746094 236.632812 124.613281 C 237.996094 126.433594 237.785156 128.910156 236.160156 130.117188 C 235.558594 130.574219 234.847656 130.792969 234.117188 130.792969 Z M 233.265625 124.292969 C 232.828125 124.292969 232.417969 124.421875 232.082031 124.675781 C 231.617188 125.023438 231.335938 125.566406 231.296875 126.199219 C 231.246094 126.875 231.464844 127.570312 231.90625 128.164062 C 232.792969 129.351562 234.316406 129.710938 235.300781 128.972656 C 236.289062 128.234375 236.367188 126.671875 235.488281 125.488281 C 235.046875 124.894531 234.4375 124.492188 233.773438 124.347656 C 233.605469 124.308594 233.425781 124.292969 233.265625 124.292969 Z M 233.265625 124.292969 "/><path style=" stroke:none;fill-rule:nonzero;fill:#8f9e8b;fill-opacity:1;" d="M 239.308594 124.964844 C 238.742188 124.964844 238.171875 124.820312 237.625 124.542969 C 236.714844 124.070312 236 123.25 235.597656 122.242188 C 235.199219 121.230469 235.175781 120.148438 235.511719 119.179688 C 235.863281 118.179688 236.578125 117.425781 237.507812 117.054688 C 239.390625 116.3125 241.609375 117.425781 242.441406 119.546875 C 243.277344 121.664062 242.417969 123.996094 240.535156 124.742188 C 240.144531 124.886719 239.726562 124.964844 239.308594 124.964844 Z M 238.734375 118.257812 C 238.5 118.257812 238.261719 118.296875 238.035156 118.386719 C 237.5 118.59375 237.082031 119.042969 236.875 119.652344 C 236.648438 120.292969 236.671875 121.023438 236.945312 121.703125 C 237.21875 122.386719 237.699219 122.9375 238.300781 123.25 C 238.867188 123.546875 239.476562 123.59375 240.015625 123.378906 C 241.160156 122.929688 241.648438 121.441406 241.113281 120.0625 C 240.664062 118.964844 239.695312 118.257812 238.734375 118.257812 Z M 238.734375 118.257812 "/><path style=" stroke:none;fill-rule:nonzero;fill:#8f9e8b;fill-opacity:1;" d="M 254.054688 126.648438 C 253.800781 126.648438 253.542969 126.617188 253.285156 126.5625 C 252.308594 126.328125 251.5 125.6875 251.011719 124.742188 C 250.539062 123.835938 250.410156 122.753906 250.65625 121.695312 C 250.90625 120.636719 251.5 119.734375 252.332031 119.132812 C 253.199219 118.507812 254.207031 118.289062 255.1875 118.523438 C 256.164062 118.753906 256.972656 119.394531 257.460938 120.34375 C 257.933594 121.246094 258.0625 122.328125 257.8125 123.386719 C 257.566406 124.445312 256.972656 125.351562 256.140625 125.953125 C 255.507812 126.417969 254.785156 126.648438 254.054688 126.648438 Z M 254.425781 119.886719 C 254 119.886719 253.566406 120.03125 253.183594 120.308594 C 252.628906 120.703125 252.238281 121.320312 252.066406 122.03125 C 251.898438 122.746094 251.980469 123.476562 252.292969 124.078125 C 252.589844 124.644531 253.0625 125.03125 253.621094 125.160156 C 254.183594 125.292969 254.777344 125.160156 255.296875 124.78125 C 255.851562 124.390625 256.242188 123.773438 256.410156 123.058594 C 256.582031 122.34375 256.5 121.617188 256.1875 121.015625 C 255.890625 120.445312 255.417969 120.0625 254.855469 119.933594 C 254.714844 119.902344 254.570312 119.886719 254.425781 119.886719 Z M 254.425781 119.886719 "/><path style=" stroke:none;fill-rule:nonzero;fill:#8f9e8b;fill-opacity:1;" d="M 247.035156 123.347656 C 245.054688 123.347656 243.414062 121.574219 243.332031 119.347656 C 243.292969 118.265625 243.628906 117.230469 244.269531 116.429688 C 244.9375 115.605469 245.855469 115.125 246.859375 115.09375 C 248.886719 115.019531 250.601562 116.816406 250.683594 119.089844 C 250.761719 121.367188 249.175781 123.273438 247.148438 123.347656 C 247.109375 123.347656 247.066406 123.347656 247.035156 123.347656 Z M 246.980469 116.535156 C 246.957031 116.535156 246.9375 116.535156 246.914062 116.535156 C 246.339844 116.558594 245.800781 116.839844 245.390625 117.335938 C 244.96875 117.867188 244.742188 118.5625 244.765625 119.292969 C 244.816406 120.773438 245.855469 121.9375 247.097656 121.898438 C 248.332031 121.855469 249.296875 120.613281 249.238281 119.132812 C 249.191406 117.6875 248.179688 116.535156 246.980469 116.535156 Z M 246.980469 116.535156 "/><path style=" stroke:none;fill-rule:nonzero;fill:#556b2f;fill-opacity:1;" d="M 226.335938 171.351562 C 226.992188 174.527344 226.222656 177.265625 223.203125 178.261719 C 219.804688 179.375 218.984375 176.160156 216.507812 178.789062 C 212.542969 183.003906 208.152344 179.992188 207.179688 175.34375 C 206.210938 170.695312 209.441406 164.699219 214.730469 163.601562 C 220.019531 162.503906 225.363281 166.703125 226.335938 171.351562 Z M 226.335938 171.351562 "/><path style=" stroke:none;fill-rule:nonzero;fill:#556b2f;fill-opacity:1;" d="M 206.910156 163.609375 C 207.183594 163.972656 207.382812 164.363281 207.511719 164.789062 C 207.640625 165.210938 207.691406 165.636719 207.660156 166.058594 C 207.628906 166.480469 207.523438 166.867188 207.335938 167.222656 C 207.148438 167.578125 206.898438 167.875 206.585938 168.109375 C 206.269531 168.34375 205.917969 168.5 205.523438 168.578125 C 205.128906 168.65625 204.726562 168.652344 204.3125 168.5625 C 203.898438 168.472656 203.507812 168.308594 203.136719 168.0625 C 202.765625 167.820312 202.445312 167.515625 202.175781 167.152344 C 201.90625 166.792969 201.707031 166.398438 201.574219 165.976562 C 201.445312 165.550781 201.394531 165.128906 201.425781 164.707031 C 201.457031 164.285156 201.566406 163.894531 201.753906 163.539062 C 201.9375 163.183594 202.1875 162.890625 202.503906 162.65625 C 202.816406 162.421875 203.171875 162.261719 203.5625 162.183594 C 203.957031 162.105469 204.363281 162.113281 204.773438 162.199219 C 205.1875 162.289062 205.578125 162.457031 205.949219 162.703125 C 206.320312 162.945312 206.640625 163.25 206.910156 163.609375 Z M 206.910156 163.609375 "/><path style=" stroke:none;fill-rule:nonzero;fill:#556b2f;fill-opacity:1;" d="M 212.628906 158.355469 C 212.796875 158.773438 212.886719 159.207031 212.898438 159.648438 C 212.914062 160.09375 212.847656 160.515625 212.707031 160.914062 C 212.566406 161.3125 212.359375 161.660156 212.085938 161.953125 C 211.8125 162.246094 211.496094 162.464844 211.128906 162.609375 C 210.765625 162.753906 210.382812 162.8125 209.980469 162.78125 C 209.582031 162.753906 209.195312 162.644531 208.820312 162.449219 C 208.441406 162.253906 208.109375 161.988281 207.816406 161.65625 C 207.523438 161.324219 207.292969 160.945312 207.128906 160.527344 C 206.964844 160.105469 206.875 159.675781 206.859375 159.230469 C 206.847656 158.789062 206.910156 158.367188 207.050781 157.96875 C 207.191406 157.570312 207.398438 157.222656 207.671875 156.929688 C 207.945312 156.636719 208.265625 156.417969 208.628906 156.273438 C 208.996094 156.128906 209.375 156.070312 209.777344 156.097656 C 210.175781 156.125 210.566406 156.238281 210.941406 156.433594 C 211.316406 156.628906 211.648438 156.890625 211.941406 157.226562 C 212.234375 157.558594 212.464844 157.933594 212.628906 158.355469 Z M 212.628906 158.355469 "/><path style=" stroke:none;fill-rule:nonzero;fill:#556b2f;fill-opacity:1;" d="M 225.878906 157.789062 C 226.257812 157.878906 226.605469 158.050781 226.921875 158.300781 C 227.234375 158.554688 227.488281 158.867188 227.683594 159.242188 C 227.878906 159.617188 228.003906 160.023438 228.054688 160.464844 C 228.105469 160.90625 228.078125 161.34375 227.972656 161.785156 C 227.871094 162.222656 227.699219 162.628906 227.457031 163 C 227.214844 163.371094 226.921875 163.683594 226.578125 163.929688 C 226.234375 164.175781 225.867188 164.34375 225.476562 164.425781 C 225.082031 164.511719 224.695312 164.511719 224.3125 164.421875 C 223.933594 164.328125 223.585938 164.160156 223.273438 163.90625 C 222.960938 163.65625 222.703125 163.34375 222.507812 162.96875 C 222.3125 162.59375 222.1875 162.1875 222.136719 161.746094 C 222.085938 161.304688 222.113281 160.867188 222.21875 160.425781 C 222.320312 159.988281 222.496094 159.582031 222.734375 159.210938 C 222.976562 158.835938 223.269531 158.527344 223.613281 158.28125 C 223.957031 158.035156 224.324219 157.867188 224.71875 157.78125 C 225.109375 157.699219 225.496094 157.699219 225.878906 157.789062 Z M 225.878906 157.789062 "/><path style=" stroke:none;fill-rule:nonzero;fill:#556b2f;fill-opacity:1;" d="M 220.820312 157.671875 C 220.835938 158.125 220.777344 158.5625 220.640625 158.984375 C 220.503906 159.40625 220.304688 159.78125 220.039062 160.109375 C 219.773438 160.441406 219.460938 160.695312 219.105469 160.882812 C 218.75 161.066406 218.375 161.167969 217.984375 161.179688 C 217.589844 161.195312 217.210938 161.121094 216.84375 160.960938 C 216.476562 160.800781 216.148438 160.566406 215.859375 160.257812 C 215.570312 159.949219 215.34375 159.585938 215.179688 159.175781 C 215.015625 158.761719 214.925781 158.332031 214.910156 157.878906 C 214.894531 157.429688 214.953125 156.992188 215.089844 156.570312 C 215.222656 156.148438 215.425781 155.773438 215.691406 155.441406 C 215.957031 155.113281 216.269531 154.855469 216.625 154.671875 C 216.980469 154.484375 217.355469 154.386719 217.746094 154.371094 C 218.136719 154.359375 218.519531 154.433594 218.886719 154.59375 C 219.253906 154.753906 219.582031 154.988281 219.871094 155.296875 C 220.160156 155.605469 220.386719 155.96875 220.550781 156.378906 C 220.714844 156.789062 220.804688 157.222656 220.820312 157.671875 Z M 220.820312 157.671875 "/><path style=" stroke:none;fill-rule:nonzero;fill:#556b2f;fill-opacity:1;" d="M 278.804688 181.464844 C 279.460938 184.640625 278.691406 187.378906 275.671875 188.375 C 272.273438 189.488281 271.453125 186.273438 268.976562 188.902344 C 265.011719 193.117188 260.621094 190.105469 259.648438 185.457031 C 258.679688 180.808594 261.910156 174.8125 267.199219 173.714844 C 272.488281 172.617188 277.832031 176.816406 278.804688 181.464844 Z M 278.804688 181.464844 "/><path style=" stroke:none;fill-rule:nonzero;fill:#556b2f;fill-opacity:1;" d="M 259.390625 173.722656 C 259.660156 174.085938 259.859375 174.476562 259.992188 174.902344 C 260.121094 175.324219 260.171875 175.75 260.140625 176.171875 C 260.109375 176.59375 260 176.980469 259.8125 177.335938 C 259.628906 177.691406 259.378906 177.988281 259.0625 178.222656 C 258.75 178.457031 258.394531 178.613281 258 178.691406 C 257.609375 178.769531 257.203125 178.765625 256.792969 178.675781 C 256.378906 178.585938 255.984375 178.421875 255.617188 178.175781 C 255.246094 177.933594 254.925781 177.628906 254.65625 177.265625 C 254.382812 176.90625 254.183594 176.511719 254.054688 176.089844 C 253.925781 175.664062 253.875 175.242188 253.90625 174.820312 C 253.933594 174.398438 254.042969 174.007812 254.230469 173.652344 C 254.417969 173.296875 254.667969 173.003906 254.980469 172.769531 C 255.296875 172.535156 255.648438 172.375 256.042969 172.296875 C 256.4375 172.21875 256.839844 172.226562 257.253906 172.3125 C 257.667969 172.402344 258.058594 172.570312 258.429688 172.816406 C 258.796875 173.058594 259.117188 173.363281 259.390625 173.722656 Z M 259.390625 173.722656 "/><path style=" stroke:none;fill-rule:nonzero;fill:#556b2f;fill-opacity:1;" d="M 265.097656 168.476562 C 265.265625 168.898438 265.355469 169.328125 265.367188 169.773438 C 265.382812 170.214844 265.316406 170.636719 265.175781 171.035156 C 265.035156 171.433594 264.828125 171.78125 264.554688 172.074219 C 264.28125 172.367188 263.964844 172.585938 263.597656 172.730469 C 263.234375 172.875 262.851562 172.933594 262.449219 172.90625 C 262.050781 172.878906 261.664062 172.765625 261.289062 172.570312 C 260.914062 172.375 260.578125 172.109375 260.285156 171.777344 C 259.992188 171.445312 259.761719 171.070312 259.597656 170.648438 C 259.433594 170.226562 259.34375 169.796875 259.328125 169.351562 C 259.316406 168.910156 259.378906 168.488281 259.519531 168.089844 C 259.660156 167.691406 259.867188 167.34375 260.140625 167.050781 C 260.414062 166.757812 260.734375 166.539062 261.097656 166.394531 C 261.464844 166.25 261.84375 166.191406 262.246094 166.21875 C 262.648438 166.25 263.035156 166.359375 263.410156 166.554688 C 263.785156 166.75 264.117188 167.015625 264.410156 167.347656 C 264.703125 167.679688 264.933594 168.058594 265.097656 168.476562 Z M 265.097656 168.476562 "/><path style=" stroke:none;fill-rule:nonzero;fill:#556b2f;fill-opacity:1;" d="M 278.351562 167.898438 C 278.730469 167.988281 279.078125 168.160156 279.390625 168.410156 C 279.703125 168.664062 279.960938 168.976562 280.15625 169.351562 C 280.351562 169.726562 280.476562 170.132812 280.527344 170.574219 C 280.578125 171.015625 280.550781 171.453125 280.445312 171.894531 C 280.34375 172.332031 280.167969 172.738281 279.929688 173.109375 C 279.6875 173.480469 279.394531 173.792969 279.050781 174.039062 C 278.707031 174.285156 278.339844 174.453125 277.945312 174.535156 C 277.554688 174.621094 277.167969 174.621094 276.785156 174.53125 C 276.40625 174.441406 276.058594 174.269531 275.746094 174.015625 C 275.429688 173.765625 275.175781 173.453125 274.980469 173.078125 C 274.785156 172.703125 274.660156 172.296875 274.609375 171.855469 C 274.558594 171.414062 274.585938 170.976562 274.691406 170.535156 C 274.792969 170.097656 274.964844 169.691406 275.207031 169.320312 C 275.449219 168.945312 275.742188 168.636719 276.085938 168.390625 C 276.429688 168.144531 276.796875 167.976562 277.1875 167.890625 C 277.582031 167.808594 277.96875 167.808594 278.351562 167.898438 Z M 278.351562 167.898438 "/><path style=" stroke:none;fill-rule:nonzero;fill:#556b2f;fill-opacity:1;" d="M 273.289062 167.785156 C 273.304688 168.238281 273.246094 168.675781 273.109375 169.097656 C 272.976562 169.519531 272.773438 169.894531 272.507812 170.222656 C 272.242188 170.550781 271.933594 170.808594 271.574219 170.996094 C 271.21875 171.179688 270.84375 171.28125 270.453125 171.292969 C 270.0625 171.308594 269.683594 171.234375 269.3125 171.074219 C 268.945312 170.914062 268.617188 170.679688 268.328125 170.371094 C 268.039062 170.0625 267.8125 169.699219 267.648438 169.289062 C 267.484375 168.875 267.394531 168.445312 267.378906 167.992188 C 267.363281 167.542969 267.421875 167.105469 267.558594 166.683594 C 267.695312 166.261719 267.894531 165.886719 268.160156 165.554688 C 268.425781 165.226562 268.738281 164.96875 269.09375 164.785156 C 269.449219 164.597656 269.824219 164.5 270.214844 164.484375 C 270.605469 164.472656 270.988281 164.546875 271.355469 164.707031 C 271.722656 164.867188 272.050781 165.101562 272.339844 165.410156 C 272.628906 165.71875 272.855469 166.078125 273.019531 166.492188 C 273.183594 166.902344 273.273438 167.335938 273.289062 167.785156 Z M 273.289062 167.785156 "/><g clip-rule="nonzero" clip-path="url(#9de423ebb1)"><path style=" stroke:none;fill-rule:nonzero;fill:#8f9e8b;fill-opacity:1;" d="M 240.296875 231.296875 C 239.855469 231.296875 239.421875 231.234375 238.980469 231.113281 C 236.714844 230.472656 234.855469 228.179688 234.246094 225.261719 C 233.730469 222.785156 234.285156 219.972656 235.757812 217.539062 C 237.332031 214.957031 239.671875 213.226562 242.347656 212.671875 C 244.886719 212.144531 247.605469 212.710938 249.992188 214.277344 C 252.46875 215.894531 254.273438 218.402344 254.808594 220.984375 C 255.617188 224.878906 254.296875 227.699219 251.195312 228.726562 C 249.421875 229.300781 248.207031 228.851562 247.308594 228.515625 C 246.296875 228.140625 245.832031 227.964844 244.800781 229.0625 C 243.421875 230.535156 241.859375 231.296875 240.296875 231.296875 Z M 244.238281 213.921875 C 243.703125 213.921875 243.171875 213.980469 242.652344 214.082031 C 240.367188 214.554688 238.355469 216.054688 237 218.289062 C 235.726562 220.382812 235.230469 222.882812 235.664062 224.972656 C 236.160156 227.371094 237.617188 229.238281 239.382812 229.726562 C 240.839844 230.136719 242.355469 229.566406 243.765625 228.066406 C 245.457031 226.273438 246.714844 226.746094 247.828125 227.164062 C 248.671875 227.476562 249.472656 227.769531 250.761719 227.355469 C 252.429688 226.800781 254.25 225.304688 253.414062 221.28125 C 252.957031 219.066406 251.386719 216.902344 249.222656 215.484375 C 247.644531 214.453125 245.921875 213.921875 244.238281 213.921875 Z M 244.238281 213.921875 "/></g><path style=" stroke:none;fill-rule:nonzero;fill:#8f9e8b;fill-opacity:1;" d="M 232.089844 218.074219 C 231.824219 218.074219 231.550781 218.042969 231.273438 217.984375 C 230.269531 217.769531 229.355469 217.167969 228.707031 216.304688 C 228.058594 215.4375 227.738281 214.394531 227.816406 213.371094 C 227.898438 212.3125 228.378906 211.390625 229.179688 210.789062 C 229.980469 210.1875 231 209.980469 232.03125 210.203125 C 233.035156 210.421875 233.949219 211.023438 234.597656 211.886719 C 235.246094 212.753906 235.566406 213.792969 235.488281 214.820312 C 235.40625 215.878906 234.925781 216.800781 234.125 217.402344 C 233.539062 217.84375 232.835938 218.074219 232.089844 218.074219 Z M 231.230469 211.566406 C 230.789062 211.566406 230.382812 211.695312 230.046875 211.953125 C 229.582031 212.296875 229.300781 212.839844 229.261719 213.472656 C 229.210938 214.148438 229.429688 214.84375 229.867188 215.4375 C 230.308594 216.03125 230.917969 216.429688 231.585938 216.574219 C 232.210938 216.710938 232.808594 216.589844 233.273438 216.246094 C 233.738281 215.902344 234.019531 215.359375 234.058594 214.722656 C 234.109375 214.050781 233.890625 213.355469 233.453125 212.761719 C 233.011719 212.167969 232.402344 211.765625 231.738281 211.621094 C 231.558594 211.582031 231.390625 211.566406 231.230469 211.566406 Z M 231.230469 211.566406 "/><path style=" stroke:none;fill-rule:nonzero;fill:#8f9e8b;fill-opacity:1;" d="M 237.273438 212.230469 C 235.734375 212.230469 234.210938 211.183594 233.554688 209.515625 C 232.722656 207.398438 233.578125 205.066406 235.464844 204.320312 C 236.394531 203.953125 237.425781 204.027344 238.371094 204.515625 C 239.285156 204.988281 240 205.804688 240.398438 206.8125 C 241.234375 208.929688 240.375 211.261719 238.492188 212.007812 C 238.101562 212.160156 237.683594 212.230469 237.273438 212.230469 Z M 236.6875 205.53125 C 236.449219 205.53125 236.214844 205.570312 235.992188 205.660156 C 234.847656 206.109375 234.355469 207.601562 234.894531 208.976562 C 235.4375 210.355469 236.808594 211.109375 237.957031 210.652344 C 239.101562 210.203125 239.589844 208.714844 239.054688 207.335938 C 238.78125 206.652344 238.300781 206.101562 237.699219 205.789062 C 237.378906 205.621094 237.027344 205.53125 236.6875 205.53125 Z M 236.6875 205.53125 "/><path style=" stroke:none;fill-rule:nonzero;fill:#8f9e8b;fill-opacity:1;" d="M 252.011719 213.921875 C 251.765625 213.921875 251.507812 213.890625 251.25 213.835938 C 250.273438 213.601562 249.464844 212.960938 248.976562 212.015625 C 248.503906 211.109375 248.375 210.027344 248.621094 208.96875 C 248.871094 207.914062 249.464844 207.007812 250.296875 206.40625 C 251.164062 205.78125 252.171875 205.570312 253.148438 205.796875 C 254.128906 206.027344 254.9375 206.671875 255.425781 207.617188 C 255.898438 208.519531 256.027344 209.601562 255.777344 210.660156 C 255.328125 212.59375 253.726562 213.921875 252.011719 213.921875 Z M 252.390625 207.152344 C 251.964844 207.152344 251.53125 207.296875 251.148438 207.574219 C 250.59375 207.96875 250.199219 208.585938 250.03125 209.296875 C 249.863281 210.011719 249.945312 210.742188 250.257812 211.34375 C 250.554688 211.910156 251.027344 212.296875 251.585938 212.425781 C 252.789062 212.703125 254.039062 211.765625 254.375 210.324219 C 254.542969 209.613281 254.464844 208.882812 254.152344 208.28125 C 253.855469 207.710938 253.382812 207.328125 252.820312 207.199219 C 252.675781 207.167969 252.53125 207.152344 252.390625 207.152344 Z M 252.390625 207.152344 "/><path style=" stroke:none;fill-rule:nonzero;fill:#8f9e8b;fill-opacity:1;" d="M 245 210.621094 C 243.019531 210.621094 241.378906 208.851562 241.296875 206.621094 C 241.257812 205.539062 241.59375 204.507812 242.234375 203.703125 C 242.898438 202.878906 243.820312 202.398438 244.824219 202.367188 C 246.851562 202.292969 248.566406 204.089844 248.644531 206.367188 C 248.6875 207.449219 248.351562 208.480469 247.707031 209.28125 C 247.042969 210.109375 246.121094 210.589844 245.121094 210.621094 C 245.070312 210.621094 245.03125 210.621094 245 210.621094 Z M 244.945312 203.808594 C 244.917969 203.808594 244.902344 203.808594 244.878906 203.808594 C 244.300781 203.832031 243.765625 204.113281 243.355469 204.609375 C 242.933594 205.140625 242.707031 205.835938 242.730469 206.566406 C 242.78125 208.015625 243.789062 209.171875 244.992188 209.171875 C 245.015625 209.171875 245.03125 209.171875 245.054688 209.171875 C 245.632812 209.148438 246.167969 208.867188 246.578125 208.371094 C 247.003906 207.839844 247.226562 207.144531 247.203125 206.414062 C 247.15625 204.964844 246.144531 203.808594 244.945312 203.808594 Z M 244.945312 203.808594 "/><g style="fill:#556b2f;fill-opacity:1;"><g transform="translate(95.463723, 243.95152)"><path style="stroke:none" d="M 10.4375 -25.203125 C 8.738281 -25.117188 7.273438 -24.664062 6.046875 -23.84375 C 4.816406 -23.03125 3.835938 -22 3.109375 -20.75 C 2.390625 -19.5 1.929688 -18.1875 1.734375 -16.8125 C 1.546875 -15.445312 1.644531 -14.140625 2.03125 -12.890625 C 2.414062 -11.648438 3.113281 -10.628906 4.125 -9.828125 C 4.144531 -9.347656 4.015625 -9.128906 3.734375 -9.171875 C 3.453125 -9.222656 3.125 -9.390625 2.75 -9.671875 C 1.707031 -10.472656 0.972656 -11.535156 0.546875 -12.859375 C 0.117188 -14.191406 -0.0078125 -15.601562 0.15625 -17.09375 C 0.320312 -18.582031 0.796875 -20 1.578125 -21.34375 C 2.367188 -22.6875 3.457031 -23.8125 4.84375 -24.71875 C 6.238281 -25.625 7.953125 -26.128906 9.984375 -26.234375 C 12.222656 -26.335938 14.085938 -26.03125 15.578125 -25.3125 C 17.066406 -24.601562 18.191406 -23.628906 18.953125 -22.390625 C 19.722656 -21.160156 20.164062 -19.828125 20.28125 -18.390625 C 20.40625 -16.960938 20.210938 -15.578125 19.703125 -14.234375 C 19.191406 -12.890625 18.394531 -11.738281 17.3125 -10.78125 C 16.226562 -9.832031 14.875 -9.226562 13.25 -8.96875 C 13.769531 -8.113281 14.3125 -7.171875 14.875 -6.140625 C 15.445312 -5.109375 16.066406 -4.113281 16.734375 -3.15625 C 17.398438 -2.207031 18.125 -1.394531 18.90625 -0.71875 C 19.695312 -0.0507812 20.578125 0.351562 21.546875 0.5 C 22.515625 0.65625 23.570312 0.429688 24.71875 -0.171875 C 25.164062 0.109375 25.40625 0.46875 25.4375 0.90625 C 25.46875 1.34375 25.363281 1.75 25.125 2.125 C 24.882812 2.5 24.539062 2.765625 24.09375 2.921875 C 22.988281 3.242188 21.914062 3.171875 20.875 2.703125 C 19.832031 2.234375 18.851562 1.519531 17.9375 0.5625 C 17.019531 -0.382812 16.140625 -1.453125 15.296875 -2.640625 C 14.460938 -3.828125 13.675781 -4.984375 12.9375 -6.109375 C 12.207031 -7.242188 11.523438 -8.191406 10.890625 -8.953125 C 10.660156 -8.972656 10.445312 -9.003906 10.25 -9.046875 C 10.050781 -9.097656 9.863281 -9.148438 9.6875 -9.203125 C 9.757812 -7.640625 9.789062 -6.082031 9.78125 -4.53125 C 9.769531 -2.976562 9.710938 -1.625 9.609375 -0.46875 C 9.515625 0.675781 9.367188 1.46875 9.171875 1.90625 C 8.960938 2.414062 8.59375 2.726562 8.0625 2.84375 C 7.539062 2.957031 7.039062 2.90625 6.5625 2.6875 C 6.082031 2.46875 5.785156 2.128906 5.671875 1.671875 C 6.035156 0.285156 6.328125 -1.375 6.546875 -3.3125 C 6.765625 -5.25 6.929688 -7.296875 7.046875 -9.453125 C 7.171875 -11.609375 7.234375 -13.722656 7.234375 -15.796875 C 7.242188 -17.878906 7.207031 -19.742188 7.125 -21.390625 C 7.09375 -21.878906 7.265625 -22.195312 7.640625 -22.34375 C 8.015625 -22.5 8.394531 -22.488281 8.78125 -22.3125 C 9.164062 -22.132812 9.367188 -21.789062 9.390625 -21.28125 C 9.441406 -20.40625 9.460938 -19.125 9.453125 -17.4375 C 9.453125 -15.757812 9.488281 -13.785156 9.5625 -11.515625 C 9.976562 -11.835938 10.5 -11.832031 11.125 -11.5 C 11.613281 -11.1875 12.109375 -10.648438 12.609375 -9.890625 C 13.628906 -10.054688 14.53125 -10.554688 15.3125 -11.390625 C 16.09375 -12.222656 16.703125 -13.234375 17.140625 -14.421875 C 17.585938 -15.609375 17.804688 -16.84375 17.796875 -18.125 C 17.796875 -19.414062 17.546875 -20.609375 17.046875 -21.703125 C 16.554688 -22.796875 15.769531 -23.671875 14.6875 -24.328125 C 13.601562 -24.992188 12.1875 -25.285156 10.4375 -25.203125 Z M 10.4375 -25.203125 "/></g></g><g style="fill:#556b2f;fill-opacity:1;"><g transform="translate(119.042303, 242.78884)"><path style="stroke:none" d="M 8.390625 -9.78125 C 8.554688 -9.9375 8.769531 -9.988281 9.03125 -9.9375 C 9.289062 -9.894531 9.359375 -9.640625 9.234375 -9.171875 C 8.941406 -8.222656 8.617188 -7.1875 8.265625 -6.0625 C 7.910156 -4.945312 7.5 -3.875 7.03125 -2.84375 C 6.570312 -1.820312 6.023438 -0.992188 5.390625 -0.359375 C 4.765625 0.273438 4.023438 0.597656 3.171875 0.609375 C 1.867188 0.617188 0.894531 0.253906 0.25 -0.484375 C -0.394531 -1.234375 -0.804688 -2.175781 -0.984375 -3.3125 C -1.160156 -4.457031 -1.175781 -5.640625 -1.03125 -6.859375 C -0.894531 -8.078125 -0.703125 -9.191406 -0.453125 -10.203125 C -0.203125 -11.222656 0.015625 -11.960938 0.203125 -12.421875 C 0.285156 -12.609375 0.507812 -12.738281 0.875 -12.8125 C 1.238281 -12.882812 1.582031 -12.835938 1.90625 -12.671875 C 2.226562 -12.515625 2.375 -12.160156 2.34375 -11.609375 C 2.300781 -11.128906 2.242188 -10.429688 2.171875 -9.515625 C 2.097656 -8.597656 2.023438 -7.625 1.953125 -6.59375 C 1.878906 -5.570312 1.859375 -4.585938 1.890625 -3.640625 C 1.921875 -2.703125 2.039062 -1.941406 2.25 -1.359375 C 2.46875 -0.773438 2.800781 -0.492188 3.25 -0.515625 C 3.976562 -0.554688 4.648438 -1.054688 5.265625 -2.015625 C 5.890625 -2.972656 6.457031 -4.160156 6.96875 -5.578125 C 7.488281 -6.992188 7.960938 -8.394531 8.390625 -9.78125 Z M 1.78125 -14.78125 C 1.144531 -14.75 0.734375 -14.9375 0.546875 -15.34375 C 0.359375 -15.757812 0.328125 -16.242188 0.453125 -16.796875 C 0.578125 -17.359375 0.820312 -17.832031 1.1875 -18.21875 C 1.5625 -18.613281 2.007812 -18.785156 2.53125 -18.734375 C 3.050781 -18.660156 3.421875 -18.421875 3.640625 -18.015625 C 3.859375 -17.617188 3.929688 -17.175781 3.859375 -16.6875 C 3.796875 -16.195312 3.582031 -15.765625 3.21875 -15.390625 C 2.863281 -15.015625 2.382812 -14.8125 1.78125 -14.78125 Z M 1.78125 -14.78125 "/></g></g><g style="fill:#556b2f;fill-opacity:1;"><g transform="translate(127.884272, 242.352834)"><path style="stroke:none" d="M -2.875 -11.359375 C -3.300781 -11.191406 -3.585938 -11.238281 -3.734375 -11.5 C -3.878906 -11.757812 -3.835938 -12.050781 -3.609375 -12.375 L -2.53125 -12.6875 C -2.144531 -12.894531 -1.726562 -13.109375 -1.28125 -13.328125 C -0.84375 -13.546875 -0.390625 -13.785156 0.078125 -14.046875 C 0.429688 -15.515625 0.878906 -16.851562 1.421875 -18.0625 C 1.972656 -19.269531 2.585938 -20.203125 3.265625 -20.859375 C 3.953125 -21.515625 4.6875 -21.710938 5.46875 -21.453125 C 6.25 -21.210938 6.628906 -20.738281 6.609375 -20.03125 C 6.597656 -19.320312 6.296875 -18.53125 5.703125 -17.65625 C 5.117188 -16.78125 4.347656 -15.9375 3.390625 -15.125 C 3.160156 -14.90625 2.882812 -14.691406 2.5625 -14.484375 L 2.5 -13.90625 C 3.28125 -14.03125 4.046875 -14.117188 4.796875 -14.171875 C 5.546875 -14.222656 6.300781 -14.234375 7.0625 -14.203125 C 7.5 -14.191406 7.703125 -14.019531 7.671875 -13.6875 C 7.640625 -13.351562 7.503906 -13.109375 7.265625 -12.953125 C 6.835938 -12.992188 6.191406 -13.03125 5.328125 -13.0625 C 4.460938 -13.09375 3.460938 -13.019531 2.328125 -12.84375 C 2.234375 -12.207031 2.15625 -11.5625 2.09375 -10.90625 C 2.039062 -10.25 1.984375 -9.566406 1.921875 -8.859375 C 1.847656 -7.796875 1.800781 -6.617188 1.78125 -5.328125 C 1.757812 -4.046875 1.789062 -2.8125 1.875 -1.625 C 1.96875 -0.445312 2.144531 0.507812 2.40625 1.25 C 2.664062 2 3.039062 2.359375 3.53125 2.328125 C 4.070312 2.304688 4.65625 1.859375 5.28125 0.984375 C 5.90625 0.117188 6.523438 -0.953125 7.140625 -2.234375 C 7.753906 -3.523438 8.3125 -4.851562 8.8125 -6.21875 C 9.320312 -7.59375 9.738281 -8.804688 10.0625 -9.859375 C 10.238281 -10.015625 10.453125 -10.066406 10.703125 -10.015625 C 10.960938 -9.972656 11.035156 -9.722656 10.921875 -9.265625 C 10.671875 -8.484375 10.367188 -7.554688 10.015625 -6.484375 C 9.660156 -5.421875 9.242188 -4.316406 8.765625 -3.171875 C 8.296875 -2.023438 7.773438 -0.953125 7.203125 0.046875 C 6.640625 1.046875 6.039062 1.863281 5.40625 2.5 C 4.769531 3.144531 4.113281 3.46875 3.4375 3.46875 C 2.53125 3.488281 1.800781 3.113281 1.25 2.34375 C 0.695312 1.582031 0.269531 0.597656 -0.03125 -0.609375 C -0.332031 -1.828125 -0.523438 -3.128906 -0.609375 -4.515625 C -0.691406 -5.898438 -0.707031 -7.226562 -0.65625 -8.5 C -0.625 -9.113281 -0.578125 -9.738281 -0.515625 -10.375 C -0.453125 -11.019531 -0.363281 -11.664062 -0.25 -12.3125 C -0.632812 -12.164062 -1.050781 -12.019531 -1.5 -11.875 C -1.945312 -11.738281 -2.40625 -11.566406 -2.875 -11.359375 Z M 5.375 -20.3125 C 4.84375 -20.5625 4.359375 -20.257812 3.921875 -19.40625 C 3.492188 -18.550781 3.128906 -17.367188 2.828125 -15.859375 C 2.847656 -15.859375 2.867188 -15.878906 2.890625 -15.921875 C 3.597656 -16.503906 4.171875 -17.113281 4.609375 -17.75 C 5.046875 -18.394531 5.332031 -18.953125 5.46875 -19.421875 C 5.601562 -19.898438 5.570312 -20.195312 5.375 -20.3125 Z M 5.375 -20.3125 "/></g></g><g style="fill:#556b2f;fill-opacity:1;"><g transform="translate(138.403949, 241.8341)"><path style="stroke:none" d="M -0.515625 -1.171875 C -0.492188 -1.984375 -0.5 -2.894531 -0.53125 -3.90625 C -0.5625 -4.925781 -0.585938 -5.953125 -0.609375 -6.984375 C -0.640625 -8.023438 -0.613281 -9.003906 -0.53125 -9.921875 C -0.457031 -10.835938 -0.3125 -11.578125 -0.09375 -12.140625 C 0.0195312 -12.410156 0.253906 -12.597656 0.609375 -12.703125 C 0.960938 -12.816406 1.332031 -12.835938 1.71875 -12.765625 C 2.101562 -12.691406 2.40625 -12.523438 2.625 -12.265625 C 2.851562 -12.003906 2.882812 -11.640625 2.71875 -11.171875 C 2.5625 -10.710938 2.429688 -10.144531 2.328125 -9.46875 C 2.234375 -8.800781 2.140625 -8.085938 2.046875 -7.328125 C 2.410156 -8.679688 2.832031 -10.003906 3.3125 -11.296875 C 3.789062 -12.597656 4.335938 -13.664062 4.953125 -14.5 C 5.578125 -15.332031 6.269531 -15.753906 7.03125 -15.765625 C 8.457031 -15.765625 9.488281 -15.273438 10.125 -14.296875 C 10.769531 -13.316406 11.171875 -12.144531 11.328125 -10.78125 C 12.023438 -12.695312 12.800781 -14.191406 13.65625 -15.265625 C 14.507812 -16.347656 15.53125 -16.914062 16.71875 -16.96875 C 18.1875 -17.039062 19.191406 -16.445312 19.734375 -15.1875 C 20.285156 -13.925781 20.476562 -12.304688 20.3125 -10.328125 C 20.226562 -9.410156 20.164062 -8.410156 20.125 -7.328125 C 20.09375 -6.253906 20.097656 -5.222656 20.140625 -4.234375 C 20.191406 -3.253906 20.335938 -2.457031 20.578125 -1.84375 C 20.828125 -1.238281 21.175781 -0.945312 21.625 -0.96875 C 22.164062 -1 22.679688 -1.320312 23.171875 -1.9375 C 23.660156 -2.5625 24.125 -3.351562 24.5625 -4.3125 C 25 -5.269531 25.410156 -6.304688 25.796875 -7.421875 C 26.179688 -8.546875 26.53125 -9.632812 26.84375 -10.6875 C 27.019531 -10.84375 27.234375 -10.894531 27.484375 -10.84375 C 27.742188 -10.800781 27.816406 -10.550781 27.703125 -10.09375 C 27.410156 -9.132812 27.085938 -8.070312 26.734375 -6.90625 C 26.378906 -5.738281 25.957031 -4.613281 25.46875 -3.53125 C 24.976562 -2.445312 24.414062 -1.5625 23.78125 -0.875 C 23.144531 -0.195312 22.398438 0.144531 21.546875 0.15625 C 20.335938 0.164062 19.414062 -0.148438 18.78125 -0.796875 C 18.144531 -1.453125 17.734375 -2.304688 17.546875 -3.359375 C 17.359375 -4.421875 17.285156 -5.554688 17.328125 -6.765625 C 17.378906 -7.972656 17.472656 -9.128906 17.609375 -10.234375 C 17.722656 -11.328125 17.816406 -12.316406 17.890625 -13.203125 C 17.972656 -14.085938 17.929688 -14.785156 17.765625 -15.296875 C 17.609375 -15.804688 17.226562 -16.046875 16.625 -16.015625 C 15.5 -15.953125 14.457031 -14.882812 13.5 -12.8125 C 12.539062 -10.75 11.644531 -7.734375 10.8125 -3.765625 L 10.71875 -3.578125 C 10.53125 -2.660156 10.351562 -2.015625 10.1875 -1.640625 C 10.132812 -1.484375 9.9375 -1.359375 9.59375 -1.265625 C 9.25 -1.179688 8.925781 -1.21875 8.625 -1.375 C 8.332031 -1.539062 8.207031 -1.898438 8.25 -2.453125 C 8.28125 -2.972656 8.320312 -3.71875 8.375 -4.6875 C 8.4375 -5.664062 8.484375 -6.71875 8.515625 -7.84375 C 8.546875 -8.976562 8.535156 -10.066406 8.484375 -11.109375 C 8.429688 -12.160156 8.289062 -13.015625 8.0625 -13.671875 C 7.84375 -14.328125 7.503906 -14.640625 7.046875 -14.609375 C 6.535156 -14.585938 6.019531 -14.15625 5.5 -13.3125 C 4.988281 -12.476562 4.484375 -11.40625 3.984375 -10.09375 C 3.484375 -8.789062 3.039062 -7.441406 2.65625 -6.046875 C 2.269531 -4.660156 1.953125 -3.414062 1.703125 -2.3125 L 1.640625 -1.03125 C 1.597656 -0.570312 1.394531 -0.28125 1.03125 -0.15625 C 0.675781 -0.0390625 0.328125 -0.0625 -0.015625 -0.21875 C -0.359375 -0.382812 -0.523438 -0.703125 -0.515625 -1.171875 Z M -0.515625 -1.171875 "/></g></g><g style="fill:#556b2f;fill-opacity:1;"><g transform="translate(165.700697, 240.488073)"><path style="stroke:none" d="M 5.765625 -16.609375 C 6.847656 -16.785156 7.75 -16.546875 8.46875 -15.890625 C 9.1875 -15.242188 9.703125 -14.316406 10.015625 -13.109375 C 10.328125 -11.898438 10.40625 -10.503906 10.25 -8.921875 C 10.082031 -7.328125 9.738281 -5.898438 9.21875 -4.640625 C 9.34375 -4.609375 9.539062 -4.601562 9.8125 -4.625 C 11 -4.675781 12.109375 -5.082031 13.140625 -5.84375 C 14.179688 -6.613281 15.019531 -8.046875 15.65625 -10.140625 C 15.820312 -10.296875 16.03125 -10.347656 16.28125 -10.296875 C 16.539062 -10.253906 16.613281 -10 16.5 -9.53125 C 15.914062 -7.632812 15.066406 -6.164062 13.953125 -5.125 C 12.835938 -4.082031 11.4375 -3.535156 9.75 -3.484375 C 9.5625 -3.472656 9.375 -3.472656 9.1875 -3.484375 C 9 -3.492188 8.832031 -3.507812 8.6875 -3.53125 C 8.1875 -2.582031 7.585938 -1.800781 6.890625 -1.1875 C 6.203125 -0.582031 5.390625 -0.257812 4.453125 -0.21875 C 3.328125 -0.164062 2.367188 -0.421875 1.578125 -0.984375 C 0.796875 -1.554688 0.191406 -2.304688 -0.234375 -3.234375 C -0.660156 -4.171875 -0.90625 -5.179688 -0.96875 -6.265625 C -1.039062 -7.359375 -0.929688 -8.378906 -0.640625 -9.328125 C -0.390625 -10.222656 0 -10.992188 0.53125 -11.640625 C 1.070312 -12.285156 1.757812 -12.734375 2.59375 -12.984375 C 2.726562 -13.910156 3.054688 -14.710938 3.578125 -15.390625 C 4.109375 -16.066406 4.835938 -16.472656 5.765625 -16.609375 Z M 4.375 -11.90625 C 4.320312 -11.019531 4.421875 -10.085938 4.671875 -9.109375 C 4.921875 -8.140625 5.316406 -7.269531 5.859375 -6.5 C 6.410156 -5.726562 7.132812 -5.179688 8.03125 -4.859375 C 8.238281 -5.472656 8.410156 -6.128906 8.546875 -6.828125 C 8.679688 -7.535156 8.789062 -8.234375 8.875 -8.921875 C 9.050781 -10.296875 9.035156 -11.507812 8.828125 -12.5625 C 8.628906 -13.625 8.289062 -14.414062 7.8125 -14.9375 C 7.332031 -15.457031 6.742188 -15.609375 6.046875 -15.390625 C 5.671875 -15.285156 5.347656 -15.03125 5.078125 -14.625 C 4.816406 -14.21875 4.625 -13.703125 4.5 -13.078125 C 4.988281 -13.015625 5.445312 -12.867188 5.875 -12.640625 C 6.300781 -12.421875 6.585938 -12.117188 6.734375 -11.734375 C 6.867188 -11.390625 6.804688 -11.101562 6.546875 -10.875 C 6.285156 -10.644531 6.035156 -10.582031 5.796875 -10.6875 C 5.515625 -11.53125 5.039062 -11.9375 4.375 -11.90625 Z M 7.578125 -3.828125 C 6.265625 -4.273438 5.179688 -5.113281 4.328125 -6.34375 C 3.484375 -7.570312 2.921875 -8.878906 2.640625 -10.265625 C 2.359375 -9.671875 2.164062 -8.992188 2.0625 -8.234375 C 1.96875 -7.472656 1.941406 -6.71875 1.984375 -5.96875 C 2.035156 -4.789062 2.289062 -3.738281 2.75 -2.8125 C 3.207031 -1.894531 3.84375 -1.429688 4.65625 -1.421875 C 5.320312 -1.421875 5.894531 -1.632812 6.375 -2.0625 C 6.851562 -2.5 7.253906 -3.085938 7.578125 -3.828125 Z M 7.578125 -3.828125 "/></g></g><g style="fill:#8f9e8b;fill-opacity:1;"><g transform="translate(108.698337, 273.217319)"><path style="stroke:none" d="M 13.578125 -0.5 C 11.328125 -0.382812 9.273438 -0.773438 7.421875 -1.671875 C 5.566406 -2.578125 4.078125 -3.882812 2.953125 -5.59375 C 1.835938 -7.300781 1.226562 -9.25 1.125 -11.4375 C 1.007812 -13.625 1.421875 -15.625 2.359375 -17.4375 C 3.304688 -19.25 4.660156 -20.695312 6.421875 -21.78125 C 8.179688 -22.875 10.191406 -23.476562 12.453125 -23.59375 C 14.140625 -23.675781 15.707031 -23.472656 17.15625 -22.984375 C 18.613281 -22.492188 19.867188 -21.726562 20.921875 -20.6875 L 19.46875 -19.109375 C 17.613281 -20.804688 15.332031 -21.585938 12.625 -21.453125 C 10.820312 -21.359375 9.203125 -20.863281 7.765625 -19.96875 C 6.335938 -19.082031 5.242188 -17.90625 4.484375 -16.4375 C 3.734375 -14.96875 3.40625 -13.34375 3.5 -11.5625 C 3.582031 -9.78125 4.070312 -8.195312 4.96875 -6.8125 C 5.875 -5.4375 7.082031 -4.375 8.59375 -3.625 C 10.113281 -2.875 11.773438 -2.546875 13.578125 -2.640625 C 16.304688 -2.773438 18.492188 -3.796875 20.140625 -5.703125 L 21.75 -4.25 C 20.800781 -3.125 19.625 -2.238281 18.21875 -1.59375 C 16.820312 -0.945312 15.273438 -0.582031 13.578125 -0.5 Z M 13.578125 -0.5 "/></g></g><g style="fill:#8f9e8b;fill-opacity:1;"><g transform="translate(131.780637, 272.059267)"><path style="stroke:none" d="M 8.328125 -17.671875 C 10.554688 -17.773438 12.296875 -17.300781 13.546875 -16.25 C 14.796875 -15.195312 15.472656 -13.578125 15.578125 -11.390625 L 16.109375 -0.8125 L 13.890625 -0.703125 L 13.75 -3.375 C 13.28125 -2.445312 12.554688 -1.707031 11.578125 -1.15625 C 10.597656 -0.613281 9.414062 -0.3125 8.03125 -0.25 C 6.132812 -0.15625 4.597656 -0.53125 3.421875 -1.375 C 2.242188 -2.226562 1.617188 -3.40625 1.546875 -4.90625 C 1.472656 -6.34375 1.9375 -7.53125 2.9375 -8.46875 C 3.945312 -9.414062 5.597656 -9.945312 7.890625 -10.0625 L 13.3125 -10.328125 L 13.265625 -11.359375 C 13.191406 -12.835938 12.722656 -13.9375 11.859375 -14.65625 C 10.992188 -15.382812 9.769531 -15.710938 8.1875 -15.640625 C 7.101562 -15.585938 6.078125 -15.359375 5.109375 -14.953125 C 4.140625 -14.546875 3.3125 -14.007812 2.625 -13.34375 L 1.5 -15.015625 C 2.332031 -15.785156 3.34375 -16.398438 4.53125 -16.859375 C 5.71875 -17.328125 6.984375 -17.597656 8.328125 -17.671875 Z M 8.296875 -2.078125 C 9.585938 -2.140625 10.679688 -2.488281 11.578125 -3.125 C 12.484375 -3.769531 13.140625 -4.671875 13.546875 -5.828125 L 13.40625 -8.609375 L 8.046875 -8.34375 C 5.128906 -8.195312 3.71875 -7.109375 3.8125 -5.078125 C 3.863281 -4.078125 4.28125 -3.304688 5.0625 -2.765625 C 5.851562 -2.234375 6.929688 -2.003906 8.296875 -2.078125 Z M 8.296875 -2.078125 "/></g></g><g style="fill:#8f9e8b;fill-opacity:1;"><g transform="translate(150.934724, 271.098295)"><path style="stroke:none" d="M 11.046875 -17.796875 C 13.191406 -17.910156 14.925781 -17.375 16.25 -16.1875 C 17.582031 -15.007812 18.304688 -13.226562 18.421875 -10.84375 L 18.921875 -0.953125 L 16.625 -0.828125 L 16.140625 -10.5 C 16.046875 -12.269531 15.53125 -13.597656 14.59375 -14.484375 C 13.65625 -15.378906 12.363281 -15.785156 10.71875 -15.703125 C 8.882812 -15.609375 7.460938 -14.988281 6.453125 -13.84375 C 5.441406 -12.695312 4.984375 -11.160156 5.078125 -9.234375 L 5.53125 -0.28125 L 3.21875 -0.15625 L 2.359375 -17.234375 L 4.5625 -17.34375 L 4.71875 -14.1875 C 5.289062 -15.257812 6.117188 -16.109375 7.203125 -16.734375 C 8.296875 -17.367188 9.578125 -17.722656 11.046875 -17.796875 Z M 11.046875 -17.796875 "/></g></g><g style="fill:#8f9e8b;fill-opacity:1;"><g transform="translate(172.91323, 269.99562)"><path style="stroke:none" d="M 2.359375 -17.234375 L 4.671875 -17.359375 L 5.53125 -0.28125 L 3.21875 -0.15625 Z M 3.34375 -21.015625 C 2.863281 -20.992188 2.453125 -21.140625 2.109375 -21.453125 C 1.773438 -21.765625 1.597656 -22.144531 1.578125 -22.59375 C 1.554688 -23.03125 1.695312 -23.414062 2 -23.75 C 2.3125 -24.09375 2.707031 -24.273438 3.1875 -24.296875 C 3.664062 -24.316406 4.070312 -24.175781 4.40625 -23.875 C 4.75 -23.582031 4.929688 -23.21875 4.953125 -22.78125 C 4.972656 -22.3125 4.828125 -21.90625 4.515625 -21.5625 C 4.210938 -21.21875 3.820312 -21.035156 3.34375 -21.015625 Z M 3.34375 -21.015625 "/></g></g><g style="fill:#8f9e8b;fill-opacity:1;"><g transform="translate(181.646197, 269.557482)"><path style="stroke:none" d="M 11.046875 -17.796875 C 13.191406 -17.910156 14.925781 -17.375 16.25 -16.1875 C 17.582031 -15.007812 18.304688 -13.226562 18.421875 -10.84375 L 18.921875 -0.953125 L 16.625 -0.828125 L 16.140625 -10.5 C 16.046875 -12.269531 15.53125 -13.597656 14.59375 -14.484375 C 13.65625 -15.378906 12.363281 -15.785156 10.71875 -15.703125 C 8.882812 -15.609375 7.460938 -14.988281 6.453125 -13.84375 C 5.441406 -12.695312 4.984375 -11.160156 5.078125 -9.234375 L 5.53125 -0.28125 L 3.21875 -0.15625 L 2.359375 -17.234375 L 4.5625 -17.34375 L 4.71875 -14.1875 C 5.289062 -15.257812 6.117188 -16.109375 7.203125 -16.734375 C 8.296875 -17.367188 9.578125 -17.722656 11.046875 -17.796875 Z M 11.046875 -17.796875 "/></g></g><g style="fill:#8f9e8b;fill-opacity:1;"><g transform="translate(203.689635, 268.45155)"><path style="stroke:none" d="M 10.203125 -0.359375 C 8.554688 -0.273438 7.050781 -0.570312 5.6875 -1.25 C 4.332031 -1.925781 3.242188 -2.90625 2.421875 -4.1875 C 1.609375 -5.476562 1.160156 -6.953125 1.078125 -8.609375 C 0.992188 -10.273438 1.296875 -11.785156 1.984375 -13.140625 C 2.671875 -14.503906 3.65625 -15.585938 4.9375 -16.390625 C 6.21875 -17.191406 7.679688 -17.632812 9.328125 -17.71875 C 10.972656 -17.800781 12.472656 -17.503906 13.828125 -16.828125 C 15.191406 -16.160156 16.273438 -15.1875 17.078125 -13.90625 C 17.890625 -12.625 18.335938 -11.148438 18.421875 -9.484375 C 18.503906 -7.828125 18.207031 -6.316406 17.53125 -4.953125 C 16.851562 -3.585938 15.875 -2.5 14.59375 -1.6875 C 13.3125 -0.882812 11.847656 -0.441406 10.203125 -0.359375 Z M 10.09375 -2.40625 C 11.3125 -2.46875 12.390625 -2.796875 13.328125 -3.390625 C 14.265625 -3.992188 14.976562 -4.8125 15.46875 -5.84375 C 15.957031 -6.882812 16.171875 -8.054688 16.109375 -9.359375 C 16.035156 -10.660156 15.703125 -11.804688 15.109375 -12.796875 C 14.523438 -13.785156 13.734375 -14.53125 12.734375 -15.03125 C 11.742188 -15.539062 10.640625 -15.765625 9.421875 -15.703125 C 8.210938 -15.640625 7.144531 -15.304688 6.21875 -14.703125 C 5.289062 -14.109375 4.570312 -13.285156 4.0625 -12.234375 C 3.550781 -11.191406 3.332031 -10.019531 3.40625 -8.71875 C 3.46875 -7.414062 3.800781 -6.273438 4.40625 -5.296875 C 5.019531 -4.316406 5.816406 -3.570312 6.796875 -3.0625 C 7.785156 -2.5625 8.882812 -2.34375 10.09375 -2.40625 Z M 10.09375 -2.40625 "/></g></g></g></svg>