<svg xmlns="http://www.w3.org/2000/svg" xmlns:xlink="http://www.w3.org/1999/xlink" width="128" zoomAndPan="magnify" viewBox="0 0 96 95.999999" height="128" preserveAspectRatio="xMidYMid meet" version="1.2"><defs><clipPath id="d6bacbd0da"><path d="M 14 13 L 89.777344 13 L 89.777344 78.539062 L 14 78.539062 Z M 14 13 "/></clipPath></defs><g id="cd127b4dbb"><path style=" stroke:none;fill-rule:nonzero;fill:#ffffff;fill-opacity:1;" d="M 95.699219 48 C 95.699219 74.34375 74.34375 95.699219 48 95.699219 C 21.65625 95.699219 0.300781 74.34375 0.300781 48 C 0.300781 21.65625 21.65625 0.300781 48 0.300781 C 74.34375 0.300781 95.699219 21.65625 95.699219 48 Z M 95.699219 48 "/><path style=" stroke:none;fill-rule:nonzero;fill:#ffffff;fill-opacity:1;" d="M 48 0 C 21.53125 0 0 21.53125 0 48 C 0 74.46875 21.53125 96 48 96 C 74.46875 96 96 74.46875 96 48 C 96 21.53125 74.46875 0 48 0 Z M 48 95.394531 C 21.863281 95.394531 0.605469 74.136719 0.605469 48 C 0.605469 21.863281 21.863281 0.605469 48 0.605469 C 74.136719 0.605469 95.394531 21.863281 95.394531 48 C 95.394531 74.136719 74.136719 95.394531 48 95.394531 Z M 48 95.394531 "/><g clip-rule="nonzero" clip-path="url(#d6bacbd0da)"><path style=" stroke:none;fill-rule:nonzero;fill:#586a2f;fill-opacity:1;" d="M 87.957031 59.902344 C 87.21875 60.542969 86.4375 61.136719 85.644531 61.710938 C 83.710938 63.058594 81.816406 64.53125 79.621094 65.480469 C 75.617188 67.148438 71.019531 67.082031 66.917969 65.792969 C 66.566406 50.53125 50.433594 51.734375 44.738281 36.695312 C 44.710938 36.652344 44.691406 36.605469 44.679688 36.558594 C 45.265625 35.574219 45.648438 34.4375 45.785156 33.246094 C 46.472656 29.003906 46.355469 24.449219 44.578125 20.476562 C 43.402344 17.957031 41.589844 15.566406 39.195312 14.109375 C 36.230469 12.535156 32.632812 13.285156 29.621094 14.351562 C 27.414062 15.328125 25.792969 17.429688 23.328125 17.867188 C 22.46875 18.070312 21.625 18.015625 20.78125 17.964844 C 19.867188 17.90625 18.953125 17.847656 18.011719 18.113281 C 15.109375 18.976562 14.175781 22.539062 15.230469 25.140625 C 15.988281 27.144531 17.308594 28.921875 18.800781 30.441406 C 21.734375 33.332031 26.15625 34.523438 30.382812 34.835938 C 29.695312 35.679688 29.058594 36.574219 28.507812 37.511719 C 26.324219 41.199219 25.5 45.554688 25.703125 49.808594 C 25.613281 54.535156 26.25 61.164062 23.992188 65.367188 C 22.496094 67.324219 19.710938 67.132812 17.578125 67.898438 C 14.402344 68.613281 13.285156 72.46875 15.964844 74.507812 C 17.78125 75.960938 20.1875 75.894531 22.394531 75.695312 C 26.914062 75.335938 30.96875 72.878906 34.1875 69.800781 C 35.929688 72.40625 38.449219 74.503906 41.175781 76.011719 C 41.246094 76.046875 41.316406 76.0625 41.386719 76.0625 C 41.609375 76.0625 41.828125 75.917969 41.914062 75.714844 C 42.105469 75.234375 41.679688 75.011719 41.324219 74.785156 C 40.871094 74.46875 40.367188 74.082031 39.878906 73.691406 C 38.109375 72.285156 36.382812 70.753906 35.210938 68.792969 C 37.839844 65.992188 39.839844 62.414062 40.21875 58.546875 C 40.597656 55.441406 38.5625 50.289062 34.699219 52.320312 C 32.773438 53.449219 31.953125 55.726562 31.519531 57.804688 C 30.742188 61.390625 31.441406 65.253906 33.328125 68.390625 C 29.453125 72.285156 23.785156 75.140625 18.210938 73.882812 C 16.582031 73.464844 15.25 71.527344 16.707031 70.15625 C 17.886719 69.25 19.472656 69.179688 20.867188 68.808594 C 25.113281 68.105469 26.40625 65.449219 26.980469 61.496094 C 27.960938 55.582031 26.789062 49.535156 27.847656 43.648438 C 28.3125 41.316406 29.195312 39.0625 30.539062 37.09375 C 30.820312 36.445312 32 35.644531 31.816406 34.90625 C 32.609375 34.929688 33.394531 34.925781 34.148438 34.894531 C 34.847656 37.269531 36.558594 39.804688 39.28125 39.84375 C 41.234375 39.769531 42.851562 38.867188 43.992188 37.515625 C 44.257812 38.421875 44.785156 39.304688 45.132812 40.128906 C 50.5625 52.28125 65.238281 52.171875 65.578125 65.335938 C 61.488281 63.863281 57.679688 61.574219 53.433594 60.546875 C 51.558594 60.34375 49.539062 60.476562 47.902344 61.492188 C 45.945312 62.609375 43.96875 64.214844 43.699219 66.597656 C 43.28125 68.351562 43.773438 70.144531 44.347656 71.804688 C 45.667969 75.515625 49.191406 78.402344 53.1875 78.53125 C 53.34375 78.539062 53.5 78.539062 53.65625 78.539062 C 55.933594 78.539062 58.136719 77.714844 60.128906 76.65625 C 63.699219 74.839844 66.457031 71.386719 66.851562 67.332031 C 71.011719 68.527344 75.597656 68.492188 79.65625 66.933594 C 83.003906 65.5 85.9375 63.21875 88.773438 60.964844 C 89.472656 60.441406 88.621094 59.363281 87.953125 59.902344 Z M 33.136719 58.136719 C 33.554688 56.375 34.191406 53.9375 36.222656 53.515625 C 37.914062 53.542969 38.382812 55.707031 38.535156 57.0625 C 38.726562 60.859375 36.929688 64.566406 34.386719 67.308594 C 33.054688 64.480469 32.523438 61.21875 33.136719 58.132812 Z M 44.527344 30.046875 C 44.273438 33.550781 43.726562 37.511719 39.589844 38.199219 C 35.757812 38.082031 35.308594 33.007812 34.773438 30.09375 C 34.5625 29.296875 34.910156 27.675781 33.730469 27.675781 C 33.710938 27.675781 33.691406 27.675781 33.675781 27.675781 C 32.425781 27.917969 33.285156 29.90625 33.261719 30.789062 C 33.425781 31.910156 33.632812 33.03125 33.925781 34.125 C 29.257812 33.929688 23.863281 33.183594 20.203125 30.050781 C 18.164062 28.042969 16.03125 25.449219 16.085938 22.441406 C 16.160156 21.023438 17.113281 19.5625 18.570312 19.292969 C 19.335938 19.195312 20.109375 19.238281 20.886719 19.285156 C 22.007812 19.351562 23.128906 19.417969 24.222656 19.042969 C 26.371094 18.503906 27.945312 16.867188 29.847656 15.851562 C 32.25 14.863281 35.097656 14.316406 37.617188 15.144531 C 39.558594 15.910156 40.84375 17.613281 42.09375 19.222656 C 44.207031 22.390625 44.804688 26.304688 44.527344 30.046875 Z M 54.363281 76.824219 C 51.027344 77.078125 47.789062 75.074219 46.390625 72.058594 C 45.554688 70.21875 44.976562 68.109375 45.632812 66.125 C 46.101562 64.789062 47.269531 63.914062 48.402344 63.144531 C 49.484375 62.359375 50.8125 62.046875 52.136719 62.046875 C 52.5625 62.046875 52.992188 62.078125 53.410156 62.140625 C 57.621094 63.25 61.441406 65.488281 65.550781 66.914062 C 65.074219 72.550781 59.65625 76.28125 54.363281 76.824219 Z M 54.363281 76.824219 "/></g></g></svg>