<svg xmlns="http://www.w3.org/2000/svg" xmlns:xlink="http://www.w3.org/1999/xlink" width="128" zoomAndPan="magnify" viewBox="0 0 96 95.999999" height="128" preserveAspectRatio="xMidYMid meet" version="1.2"><defs><clipPath id="61c80b551b"><path d="M 13 14 L 90.75 14 L 90.75 82.066406 L 13 82.066406 Z M 13 14 "/></clipPath></defs><g id="b9570b4b4e"><path style=" stroke:none;fill-rule:nonzero;fill:#ffffff;fill-opacity:1;" d="M 95.699219 48 C 95.699219 74.34375 74.34375 95.699219 48 95.699219 C 21.65625 95.699219 0.300781 74.34375 0.300781 48 C 0.300781 21.65625 21.65625 0.300781 48 0.300781 C 74.34375 0.300781 95.699219 21.65625 95.699219 48 Z M 95.699219 48 "/><path style=" stroke:none;fill-rule:nonzero;fill:#ffffff;fill-opacity:1;" d="M 48 0 C 21.53125 0 0 21.53125 0 48 C 0 74.46875 21.53125 96 48 96 C 74.46875 96 96 74.46875 96 48 C 96 21.53125 74.46875 0 48 0 Z M 48 95.394531 C 21.863281 95.394531 0.605469 74.136719 0.605469 48 C 0.605469 21.863281 21.863281 0.605469 48 0.605469 C 74.136719 0.605469 95.394531 21.863281 95.394531 48 C 95.394531 74.136719 74.136719 95.394531 48 95.394531 Z M 48 95.394531 "/><g clip-rule="nonzero" clip-path="url(#61c80b551b)"><path style=" stroke:none;fill-rule:nonzero;fill:#586a2f;fill-opacity:1;" d="M 89.1875 62.777344 C 88.421875 63.4375 87.617188 64.050781 86.796875 64.644531 C 84.796875 66.035156 82.839844 67.558594 80.570312 68.539062 C 76.433594 70.265625 71.683594 70.199219 67.441406 68.863281 C 67.078125 53.089844 50.402344 54.332031 44.515625 38.785156 C 44.488281 38.742188 44.46875 38.695312 44.453125 38.644531 C 45.0625 37.628906 45.457031 36.457031 45.597656 35.222656 C 46.308594 30.839844 46.183594 26.128906 44.347656 22.023438 C 43.136719 19.417969 41.257812 16.949219 38.785156 15.441406 C 35.722656 13.816406 32.003906 14.589844 28.890625 15.691406 C 26.609375 16.699219 24.933594 18.875 22.382812 19.324219 C 21.496094 19.535156 20.625 19.480469 19.75 19.425781 C 18.808594 19.367188 17.863281 19.304688 16.890625 19.578125 C 13.886719 20.472656 12.921875 24.152344 14.015625 26.84375 C 14.796875 28.914062 16.164062 30.753906 17.703125 32.324219 C 20.738281 35.3125 25.308594 36.542969 29.679688 36.863281 C 28.964844 37.738281 28.308594 38.660156 27.738281 39.632812 C 25.480469 43.445312 24.628906 47.945312 24.839844 52.339844 C 24.746094 57.226562 25.40625 64.078125 23.070312 68.421875 C 21.523438 70.445312 18.648438 70.246094 16.441406 71.039062 C 13.15625 71.78125 12.003906 75.765625 14.773438 77.871094 C 16.652344 79.371094 19.140625 79.304688 21.421875 79.101562 C 26.09375 78.726562 30.285156 76.1875 33.609375 73.007812 C 35.410156 75.699219 38.015625 77.867188 40.835938 79.425781 C 40.902344 79.460938 40.976562 79.476562 41.050781 79.476562 C 41.28125 79.476562 41.507812 79.328125 41.59375 79.117188 C 41.792969 78.625 41.355469 78.390625 40.984375 78.15625 C 40.515625 77.832031 40 77.433594 39.492188 77.027344 C 37.664062 75.574219 35.878906 73.992188 34.667969 71.964844 C 37.386719 69.070312 39.453125 65.371094 39.84375 61.375 C 40.234375 58.164062 38.128906 52.839844 34.140625 54.9375 C 32.148438 56.105469 31.300781 58.457031 30.851562 60.609375 C 30.046875 64.3125 30.769531 68.304688 32.71875 71.546875 C 28.714844 75.578125 22.859375 78.527344 17.09375 77.226562 C 15.410156 76.796875 14.035156 74.792969 15.542969 73.375 C 16.761719 72.4375 18.398438 72.367188 19.839844 71.984375 C 24.230469 71.253906 25.566406 68.507812 26.160156 64.421875 C 27.171875 58.3125 25.964844 52.058594 27.058594 45.972656 C 27.535156 43.5625 28.449219 41.234375 29.835938 39.199219 C 30.128906 38.527344 31.347656 37.703125 31.15625 36.941406 C 31.980469 36.964844 32.789062 36.957031 33.570312 36.929688 C 34.289062 39.382812 36.058594 42.003906 38.875 42.042969 C 40.894531 41.964844 42.566406 41.035156 43.746094 39.632812 C 44.019531 40.570312 44.566406 41.484375 44.921875 42.335938 C 50.535156 54.898438 65.703125 54.785156 66.054688 68.390625 C 61.828125 66.867188 57.890625 64.503906 53.503906 63.445312 C 51.566406 63.230469 49.476562 63.367188 47.785156 64.417969 C 45.765625 65.574219 43.71875 67.234375 43.441406 69.699219 C 43.011719 71.507812 43.519531 73.363281 44.113281 75.078125 C 45.476562 78.914062 49.117188 81.898438 53.25 82.027344 C 53.410156 82.039062 53.570312 82.039062 53.730469 82.039062 C 56.085938 82.039062 58.363281 81.1875 60.421875 80.089844 C 64.117188 78.214844 66.964844 74.648438 67.371094 70.453125 C 71.671875 71.6875 76.414062 71.65625 80.609375 70.042969 C 84.066406 68.5625 87.101562 66.203125 90.03125 63.871094 C 90.753906 63.332031 89.875 62.21875 89.183594 62.777344 Z M 32.523438 60.949219 C 32.953125 59.128906 33.613281 56.609375 35.714844 56.171875 C 37.460938 56.203125 37.945312 58.4375 38.101562 59.839844 C 38.300781 63.761719 36.441406 67.597656 33.816406 70.429688 C 32.4375 67.507812 31.890625 64.136719 32.523438 60.949219 Z M 44.296875 31.917969 C 44.035156 35.539062 43.46875 39.632812 39.191406 40.339844 C 35.234375 40.21875 34.769531 34.976562 34.214844 31.964844 C 33.996094 31.140625 34.355469 29.464844 33.136719 29.464844 C 33.117188 29.464844 33.097656 29.464844 33.078125 29.464844 C 31.789062 29.714844 32.679688 31.769531 32.652344 32.683594 C 32.824219 33.84375 33.039062 35 33.339844 36.132812 C 28.515625 35.929688 22.941406 35.160156 19.15625 31.917969 C 17.046875 29.84375 14.84375 27.164062 14.898438 24.054688 C 14.976562 22.589844 15.960938 21.078125 17.46875 20.800781 C 18.257812 20.699219 19.058594 20.746094 19.859375 20.792969 C 21.019531 20.859375 22.179688 20.925781 23.308594 20.542969 C 25.53125 19.984375 27.15625 18.292969 29.125 17.242188 C 31.605469 16.222656 34.550781 15.65625 37.15625 16.511719 C 39.160156 17.300781 40.492188 19.0625 41.78125 20.726562 C 43.964844 24 44.582031 28.050781 44.296875 31.914062 Z M 54.464844 80.265625 C 51.015625 80.53125 47.671875 78.457031 46.226562 75.339844 C 45.359375 73.4375 44.761719 71.257812 45.4375 69.207031 C 45.925781 67.828125 47.132812 66.921875 48.300781 66.128906 C 49.421875 65.316406 50.792969 64.988281 52.160156 64.988281 C 52.605469 64.988281 53.046875 65.023438 53.480469 65.085938 C 57.832031 66.234375 61.78125 68.550781 66.027344 70.023438 C 65.535156 75.847656 59.933594 79.703125 54.464844 80.265625 Z M 54.464844 80.265625 "/></g></g></svg>