<svg xmlns="http://www.w3.org/2000/svg" xmlns:xlink="http://www.w3.org/1999/xlink" width="378" zoomAndPan="magnify" viewBox="0 0 283.5 283.500005" height="378" preserveAspectRatio="xMidYMid meet" version="1.2"><defs><clipPath id="3976f5c76a"><path d="M 215 115 L 232 115 L 232 132 L 215 132 Z M 215 115 "/></clipPath><clipPath id="52443644ad"><path d="M 222.222656 102.367188 L 289.140625 154.144531 L 262.109375 189.085938 L 195.1875 137.308594 Z M 222.222656 102.367188 "/></clipPath><clipPath id="9ee5f2c6d4"><path d="M 222.222656 102.367188 L 289.140625 154.144531 L 218.121094 245.9375 L 151.199219 194.160156 Z M 222.222656 102.367188 "/></clipPath><clipPath id="2255d5c9a3"><path d="M 216 109 L 222 109 L 222 116 L 216 116 Z M 216 109 "/></clipPath><clipPath id="40561334b2"><path d="M 222.222656 102.367188 L 289.140625 154.144531 L 262.109375 189.085938 L 195.1875 137.308594 Z M 222.222656 102.367188 "/></clipPath><clipPath id="1f13c41faa"><path d="M 222.222656 102.367188 L 289.140625 154.144531 L 218.121094 245.9375 L 151.199219 194.160156 Z M 222.222656 102.367188 "/></clipPath><clipPath id="3a9e0717e9"><path d="M 223 108 L 229 108 L 229 115 L 223 115 Z M 223 108 "/></clipPath><clipPath id="06949aecc5"><path d="M 222.222656 102.367188 L 289.140625 154.144531 L 262.109375 189.085938 L 195.1875 137.308594 Z M 222.222656 102.367188 "/></clipPath><clipPath id="d4a645df6f"><path d="M 222.222656 102.367188 L 289.140625 154.144531 L 218.121094 245.9375 L 151.199219 194.160156 Z M 222.222656 102.367188 "/></clipPath><clipPath id="e0ae00ea9f"><path d="M 232 117 L 239 117 L 239 124 L 232 124 Z M 232 117 "/></clipPath><clipPath id="c8f92f2071"><path d="M 222.222656 102.367188 L 289.140625 154.144531 L 262.109375 189.085938 L 195.1875 137.308594 Z M 222.222656 102.367188 "/></clipPath><clipPath id="07240fe8c4"><path d="M 222.222656 102.367188 L 289.140625 154.144531 L 218.121094 245.9375 L 151.199219 194.160156 Z M 222.222656 102.367188 "/></clipPath><clipPath id="7ceebb3688"><path d="M 229 111 L 236 111 L 236 118 L 229 118 Z M 229 111 "/></clipPath><clipPath id="16f78cd511"><path d="M 222.222656 102.367188 L 289.140625 154.144531 L 262.109375 189.085938 L 195.1875 137.308594 Z M 222.222656 102.367188 "/></clipPath><clipPath id="72657fde71"><path d="M 222.222656 102.367188 L 289.140625 154.144531 L 218.121094 245.9375 L 151.199219 194.160156 Z M 222.222656 102.367188 "/></clipPath><clipPath id="941f3a8460"><path d="M 236 152 L 255 152 L 255 170 L 236 170 Z M 236 152 "/></clipPath><clipPath id="d72a07e846"><path d="M 222.222656 102.367188 L 289.140625 154.144531 L 262.109375 189.085938 L 195.1875 137.308594 Z M 222.222656 102.367188 "/></clipPath><clipPath id="a20a236f89"><path d="M 222.222656 102.367188 L 289.140625 154.144531 L 218.121094 245.9375 L 151.199219 194.160156 Z M 222.222656 102.367188 "/></clipPath><clipPath id="a9a6acfcca"><path d="M 237 145 L 245 145 L 245 153 L 237 153 Z M 237 145 "/></clipPath><clipPath id="65d46a9dbd"><path d="M 222.222656 102.367188 L 289.140625 154.144531 L 262.109375 189.085938 L 195.1875 137.308594 Z M 222.222656 102.367188 "/></clipPath><clipPath id="2e9fb4bd40"><path d="M 222.222656 102.367188 L 289.140625 154.144531 L 218.121094 245.9375 L 151.199219 194.160156 Z M 222.222656 102.367188 "/></clipPath><clipPath id="a9e243b983"><path d="M 244 143 L 252 143 L 252 152 L 244 152 Z M 244 143 "/></clipPath><clipPath id="729ab0709d"><path d="M 222.222656 102.367188 L 289.140625 154.144531 L 262.109375 189.085938 L 195.1875 137.308594 Z M 222.222656 102.367188 "/></clipPath><clipPath id="ba8f35c935"><path d="M 222.222656 102.367188 L 289.140625 154.144531 L 218.121094 245.9375 L 151.199219 194.160156 Z M 222.222656 102.367188 "/></clipPath><clipPath id="9c256a66b1"><path d="M 254 153 L 261 153 L 261 161 L 254 161 Z M 254 153 "/></clipPath><clipPath id="87e760b524"><path d="M 222.222656 102.367188 L 289.140625 154.144531 L 262.109375 189.085938 L 195.1875 137.308594 Z M 222.222656 102.367188 "/></clipPath><clipPath id="e9d6867e1b"><path d="M 222.222656 102.367188 L 289.140625 154.144531 L 218.121094 245.9375 L 151.199219 194.160156 Z M 222.222656 102.367188 "/></clipPath><clipPath id="5b88b30110"><path d="M 251 147 L 258 147 L 258 155 L 251 155 Z M 251 147 "/></clipPath><clipPath id="f79f672d9d"><path d="M 222.222656 102.367188 L 289.140625 154.144531 L 262.109375 189.085938 L 195.1875 137.308594 Z M 222.222656 102.367188 "/></clipPath><clipPath id="8138ac2fbd"><path d="M 222.222656 102.367188 L 289.140625 154.144531 L 218.121094 245.9375 L 151.199219 194.160156 Z M 222.222656 102.367188 "/></clipPath></defs><g id="cae2ef2e56"><g clip-rule="nonzero" clip-path="url(#3976f5c76a)"><g clip-rule="nonzero" clip-path="url(#52443644ad)"><g clip-rule="nonzero" clip-path="url(#9ee5f2c6d4)"><path style=" stroke:none;fill-rule:nonzero;fill:#556b2f;fill-opacity:1;" d="M 231.125 128.015625 C 229.890625 130.542969 227.90625 132.015625 225.304688 131.09375 C 222.382812 130.050781 223.527344 127.410156 220.429688 127.902344 C 215.46875 128.6875 214.054688 124.289062 215.859375 120.582031 C 217.667969 116.871094 223.0625 114.476562 227.28125 116.527344 C 231.496094 118.578125 232.933594 124.304688 231.125 128.015625 Z M 231.125 128.015625 "/></g></g></g><g clip-rule="nonzero" clip-path="url(#2255d5c9a3)"><g clip-rule="nonzero" clip-path="url(#40561334b2)"><g clip-rule="nonzero" clip-path="url(#1f13c41faa)"><path style=" stroke:none;fill-rule:nonzero;fill:#556b2f;fill-opacity:1;" d="M 221.910156 112.378906 C 221.902344 112.773438 221.832031 113.148438 221.695312 113.507812 C 221.558594 113.867188 221.371094 114.183594 221.125 114.457031 C 220.878906 114.730469 220.597656 114.941406 220.28125 115.085938 C 219.964844 115.230469 219.636719 115.300781 219.296875 115.292969 C 218.957031 115.289062 218.628906 115.207031 218.316406 115.054688 C 218.003906 114.898438 217.730469 114.679688 217.496094 114.398438 C 217.257812 114.117188 217.078125 113.796875 216.953125 113.433594 C 216.832031 113.066406 216.769531 112.691406 216.777344 112.296875 C 216.785156 111.90625 216.855469 111.53125 216.992188 111.171875 C 217.125 110.808594 217.316406 110.492188 217.5625 110.21875 C 217.808594 109.945312 218.089844 109.738281 218.40625 109.59375 C 218.722656 109.449219 219.050781 109.378906 219.390625 109.382812 C 219.730469 109.390625 220.058594 109.46875 220.371094 109.625 C 220.679688 109.777344 220.957031 109.996094 221.191406 110.277344 C 221.425781 110.558594 221.609375 110.882812 221.730469 111.246094 C 221.855469 111.609375 221.914062 111.988281 221.910156 112.378906 Z M 221.910156 112.378906 "/></g></g></g><g clip-rule="nonzero" clip-path="url(#3a9e0717e9)"><g clip-rule="nonzero" clip-path="url(#06949aecc5)"><g clip-rule="nonzero" clip-path="url(#d4a645df6f)"><path style=" stroke:none;fill-rule:nonzero;fill:#556b2f;fill-opacity:1;" d="M 228.617188 111.808594 C 228.507812 112.183594 228.339844 112.527344 228.117188 112.839844 C 227.890625 113.152344 227.621094 113.40625 227.3125 113.605469 C 227.003906 113.804688 226.679688 113.933594 226.335938 113.988281 C 225.992188 114.046875 225.65625 114.027344 225.328125 113.929688 C 225.003906 113.835938 224.710938 113.671875 224.449219 113.441406 C 224.1875 113.210938 223.980469 112.925781 223.828125 112.59375 C 223.675781 112.261719 223.585938 111.902344 223.5625 111.515625 C 223.539062 111.132812 223.582031 110.753906 223.691406 110.375 C 223.800781 110 223.964844 109.65625 224.191406 109.34375 C 224.417969 109.035156 224.6875 108.777344 224.996094 108.578125 C 225.300781 108.378906 225.628906 108.253906 225.972656 108.195312 C 226.316406 108.140625 226.652344 108.160156 226.976562 108.253906 C 227.304688 108.347656 227.597656 108.511719 227.859375 108.742188 C 228.117188 108.976562 228.324219 109.257812 228.480469 109.589844 C 228.632812 109.925781 228.722656 110.285156 228.746094 110.667969 C 228.769531 111.050781 228.726562 111.433594 228.617188 111.808594 Z M 228.617188 111.808594 "/></g></g></g><g clip-rule="nonzero" clip-path="url(#e0ae00ea9f)"><g clip-rule="nonzero" clip-path="url(#c8f92f2071)"><g clip-rule="nonzero" clip-path="url(#07240fe8c4)"><path style=" stroke:none;fill-rule:nonzero;fill:#556b2f;fill-opacity:1;" d="M 238.019531 118.453125 C 238.234375 118.71875 238.378906 119.019531 238.460938 119.359375 C 238.542969 119.699219 238.550781 120.046875 238.488281 120.410156 C 238.421875 120.769531 238.292969 121.117188 238.09375 121.445312 C 237.894531 121.773438 237.640625 122.0625 237.335938 122.308594 C 237.03125 122.554688 236.699219 122.742188 236.335938 122.871094 C 235.972656 122.996094 235.605469 123.054688 235.238281 123.039062 C 234.871094 123.027344 234.53125 122.945312 234.21875 122.796875 C 233.902344 122.644531 233.636719 122.4375 233.425781 122.175781 C 233.210938 121.910156 233.0625 121.609375 232.980469 121.269531 C 232.898438 120.929688 232.890625 120.582031 232.957031 120.21875 C 233.019531 119.859375 233.152344 119.511719 233.351562 119.183594 C 233.550781 118.855469 233.800781 118.566406 234.105469 118.320312 C 234.410156 118.074219 234.746094 117.886719 235.109375 117.761719 C 235.472656 117.632812 235.835938 117.578125 236.203125 117.589844 C 236.570312 117.601562 236.910156 117.683594 237.226562 117.832031 C 237.539062 117.984375 237.804688 118.191406 238.019531 118.453125 Z M 238.019531 118.453125 "/></g></g></g><g clip-rule="nonzero" clip-path="url(#7ceebb3688)"><g clip-rule="nonzero" clip-path="url(#16f78cd511)"><g clip-rule="nonzero" clip-path="url(#72657fde71)"><path style=" stroke:none;fill-rule:nonzero;fill:#556b2f;fill-opacity:1;" d="M 234.609375 115.691406 C 234.378906 116.011719 234.105469 116.277344 233.789062 116.496094 C 233.472656 116.714844 233.132812 116.863281 232.777344 116.949219 C 232.421875 117.035156 232.070312 117.046875 231.726562 116.984375 C 231.382812 116.921875 231.074219 116.792969 230.796875 116.59375 C 230.523438 116.394531 230.300781 116.140625 230.132812 115.835938 C 229.964844 115.53125 229.863281 115.195312 229.832031 114.832031 C 229.796875 114.464844 229.832031 114.097656 229.941406 113.726562 C 230.046875 113.355469 230.210938 113.011719 230.441406 112.695312 C 230.671875 112.375 230.945312 112.109375 231.261719 111.890625 C 231.578125 111.671875 231.914062 111.519531 232.273438 111.4375 C 232.628906 111.351562 232.980469 111.339844 233.320312 111.402344 C 233.664062 111.464844 233.976562 111.59375 234.25 111.792969 C 234.527344 111.992188 234.75 112.246094 234.917969 112.550781 C 235.085938 112.855469 235.183594 113.191406 235.21875 113.554688 C 235.25 113.921875 235.214844 114.289062 235.109375 114.660156 C 235.003906 115.03125 234.835938 115.375 234.609375 115.691406 Z M 234.609375 115.691406 "/></g></g></g><g clip-rule="nonzero" clip-path="url(#941f3a8460)"><g clip-rule="nonzero" clip-path="url(#d72a07e846)"><g clip-rule="nonzero" clip-path="url(#a20a236f89)"><path style=" stroke:none;fill-rule:nonzero;fill:#8f9e8b;fill-opacity:1;" d="M 237.976562 165.105469 C 237.675781 164.871094 237.414062 164.597656 237.171875 164.28125 C 235.957031 162.636719 235.898438 160.074219 237.03125 157.75 C 237.992188 155.777344 239.867188 154.140625 242.171875 153.253906 C 244.625 152.308594 247.144531 152.371094 249.28125 153.40625 C 251.410156 154.449219 253.015625 156.402344 253.785156 158.90625 C 254.507812 161.265625 254.378906 163.753906 253.414062 165.722656 C 251.902344 168.828125 249.496094 170.0625 246.824219 169.117188 C 245.300781 168.574219 244.703125 167.617188 244.265625 166.910156 C 243.773438 166.117188 243.546875 165.75 242.253906 165.953125 C 240.539062 166.242188 239.050781 165.933594 237.976562 165.105469 Z M 249.921875 155.273438 C 249.550781 154.988281 249.160156 154.746094 248.742188 154.535156 C 246.917969 153.652344 244.75 153.613281 242.625 154.429688 C 240.640625 155.1875 238.96875 156.640625 238.15625 158.304688 C 237.226562 160.214844 237.234375 162.269531 238.179688 163.546875 C 238.964844 164.601562 240.308594 165.015625 242.070312 164.738281 C 244.183594 164.402344 244.796875 165.394531 245.339844 166.273438 C 245.75 166.933594 246.144531 167.5625 247.25 167.964844 C 248.6875 168.46875 250.734375 168.40625 252.296875 165.203125 C 253.109375 163.542969 253.21875 161.332031 252.589844 159.300781 C 252.082031 157.613281 251.152344 156.226562 249.921875 155.273438 Z M 249.921875 155.273438 "/></g></g></g><g clip-rule="nonzero" clip-path="url(#a9a6acfcca)"><g clip-rule="nonzero" clip-path="url(#65d46a9dbd)"><g clip-rule="nonzero" clip-path="url(#2e9fb4bd40)"><path style=" stroke:none;fill-rule:nonzero;fill:#8f9e8b;fill-opacity:1;" d="M 239.371094 151.65625 C 238.523438 151 237.972656 149.894531 237.992188 148.65625 C 238.003906 147.714844 238.339844 146.832031 238.9375 146.167969 C 239.554688 145.484375 240.375 145.109375 241.242188 145.121094 C 242.113281 145.132812 242.921875 145.53125 243.511719 146.234375 C 244.085938 146.914062 244.394531 147.8125 244.378906 148.75 C 244.347656 150.722656 242.890625 152.3125 241.132812 152.28125 C 240.476562 152.273438 239.871094 152.042969 239.371094 151.65625 Z M 242.238281 146.746094 C 241.9375 146.511719 241.589844 146.382812 241.222656 146.378906 C 240.71875 146.367188 240.238281 146.59375 239.875 147.007812 C 239.484375 147.441406 239.261719 148.035156 239.25 148.675781 C 239.230469 149.964844 240.082031 151.019531 241.152344 151.039062 C 242.21875 151.054688 243.105469 150.023438 243.128906 148.742188 C 243.140625 148.101562 242.9375 147.503906 242.554688 147.050781 C 242.460938 146.933594 242.347656 146.828125 242.238281 146.746094 Z M 242.238281 146.746094 "/></g></g></g><g clip-rule="nonzero" clip-path="url(#a9e243b983)"><g clip-rule="nonzero" clip-path="url(#729ab0709d)"><g clip-rule="nonzero" clip-path="url(#ba8f35c935)"><path style=" stroke:none;fill-rule:nonzero;fill:#8f9e8b;fill-opacity:1;" d="M 246.027344 150.414062 C 245.636719 150.113281 245.324219 149.710938 245.101562 149.230469 C 244.722656 148.421875 244.667969 147.480469 244.929688 146.574219 C 245.191406 145.667969 245.75 144.914062 246.496094 144.425781 C 247.269531 143.925781 248.160156 143.789062 248.992188 144.027344 C 250.679688 144.515625 251.613281 146.460938 251.058594 148.359375 C 250.503906 150.257812 248.679688 151.402344 246.988281 150.914062 C 246.644531 150.804688 246.316406 150.636719 246.027344 150.414062 Z M 249.195312 145.503906 C 249.035156 145.382812 248.847656 145.28125 248.648438 145.222656 C 248.167969 145.082031 247.644531 145.167969 247.179688 145.476562 C 246.683594 145.796875 246.3125 146.308594 246.140625 146.921875 C 245.964844 147.535156 246 148.167969 246.246094 148.703125 C 246.480469 149.207031 246.871094 149.5625 247.355469 149.699219 C 248.378906 150 249.507812 149.238281 249.871094 148.007812 C 250.144531 147.015625 249.855469 146.015625 249.195312 145.503906 Z M 249.195312 145.503906 "/></g></g></g><g clip-rule="nonzero" clip-path="url(#9c256a66b1)"><g clip-rule="nonzero" clip-path="url(#87e760b524)"><g clip-rule="nonzero" clip-path="url(#e9d6867e1b)"><path style=" stroke:none;fill-rule:nonzero;fill:#8f9e8b;fill-opacity:1;" d="M 255.257812 159.402344 C 255.082031 159.265625 254.921875 159.105469 254.773438 158.933594 C 254.226562 158.253906 254.011719 157.382812 254.179688 156.476562 C 254.335938 155.601562 254.820312 154.792969 255.554688 154.199219 C 256.285156 153.601562 257.175781 153.296875 258.066406 153.328125 C 258.992188 153.359375 259.800781 153.746094 260.347656 154.425781 C 260.894531 155.101562 261.109375 155.972656 260.945312 156.882812 C 260.785156 157.753906 260.300781 158.566406 259.566406 159.160156 C 258.835938 159.753906 257.949219 160.058594 257.058594 160.03125 C 256.375 160.011719 255.757812 159.789062 255.257812 159.402344 Z M 259.101562 154.953125 C 258.808594 154.730469 258.4375 154.597656 258.023438 154.585938 C 257.433594 154.5625 256.839844 154.777344 256.34375 155.175781 C 255.847656 155.578125 255.515625 156.121094 255.414062 156.699219 C 255.3125 157.246094 255.433594 157.761719 255.75 158.148438 C 256.0625 158.539062 256.542969 158.761719 257.101562 158.78125 C 257.6875 158.804688 258.285156 158.589844 258.78125 158.1875 C 259.273438 157.789062 259.605469 157.246094 259.710938 156.667969 C 259.808594 156.117188 259.691406 155.601562 259.371094 155.21875 C 259.289062 155.117188 259.199219 155.03125 259.101562 154.953125 Z M 259.101562 154.953125 "/></g></g></g><g clip-rule="nonzero" clip-path="url(#5b88b30110)"><g clip-rule="nonzero" clip-path="url(#f79f672d9d)"><g clip-rule="nonzero" clip-path="url(#8138ac2fbd)"><path style=" stroke:none;fill-rule:nonzero;fill:#8f9e8b;fill-opacity:1;" d="M 252.191406 153.40625 C 250.832031 152.355469 250.644531 150.269531 251.773438 148.695312 C 252.320312 147.933594 253.101562 147.402344 253.964844 147.191406 C 254.863281 146.976562 255.75 147.136719 256.453125 147.648438 C 257.882812 148.675781 258.109375 150.816406 256.953125 152.421875 C 255.800781 154.027344 253.699219 154.492188 252.269531 153.464844 C 252.242188 153.445312 252.214844 153.425781 252.191406 153.40625 Z M 255.769531 148.703125 C 255.753906 148.6875 255.742188 148.679688 255.726562 148.667969 C 255.316406 148.378906 254.800781 148.285156 254.253906 148.410156 C 253.683594 148.546875 253.160156 148.90625 252.789062 149.417969 C 252.035156 150.460938 252.132812 151.8125 253.003906 152.445312 C 253.875 153.074219 255.195312 152.730469 255.941406 151.683594 C 256.675781 150.667969 256.59375 149.339844 255.769531 148.703125 Z M 255.769531 148.703125 "/></g></g></g><g style="fill:#556b2f;fill-opacity:1;"><g transform="translate(17.138688, 124.249586)"><path style="stroke:none" d="M 9.734375 -23.46875 C 8.148438 -23.394531 6.785156 -22.976562 5.640625 -22.21875 C 4.492188 -21.457031 3.582031 -20.492188 2.90625 -19.328125 C 2.226562 -18.171875 1.800781 -16.945312 1.625 -15.65625 C 1.445312 -14.375 1.535156 -13.15625 1.890625 -12 C 2.242188 -10.851562 2.890625 -9.90625 3.828125 -9.15625 C 3.847656 -8.707031 3.726562 -8.503906 3.46875 -8.546875 C 3.21875 -8.585938 2.914062 -8.738281 2.5625 -9 C 1.59375 -9.75 0.90625 -10.742188 0.5 -11.984375 C 0.101562 -13.222656 -0.015625 -14.535156 0.140625 -15.921875 C 0.296875 -17.316406 0.738281 -18.632812 1.46875 -19.875 C 2.207031 -21.125 3.222656 -22.171875 4.515625 -23.015625 C 5.816406 -23.859375 7.410156 -24.328125 9.296875 -24.421875 C 11.390625 -24.523438 13.128906 -24.242188 14.515625 -23.578125 C 15.910156 -22.910156 16.960938 -22.003906 17.671875 -20.859375 C 18.390625 -19.710938 18.800781 -18.46875 18.90625 -17.125 C 19.007812 -15.789062 18.828125 -14.492188 18.359375 -13.234375 C 17.890625 -11.984375 17.144531 -10.914062 16.125 -10.03125 C 15.113281 -9.15625 13.851562 -8.59375 12.34375 -8.34375 C 12.820312 -7.550781 13.328125 -6.675781 13.859375 -5.71875 C 14.390625 -4.757812 14.960938 -3.832031 15.578125 -2.9375 C 16.203125 -2.050781 16.882812 -1.296875 17.625 -0.671875 C 18.363281 -0.046875 19.175781 0.332031 20.0625 0.46875 C 20.957031 0.613281 21.945312 0.398438 23.03125 -0.171875 C 23.4375 0.0976562 23.65625 0.4375 23.6875 0.84375 C 23.71875 1.25 23.617188 1.628906 23.390625 1.984375 C 23.171875 2.335938 22.859375 2.582031 22.453125 2.71875 C 21.410156 3.019531 20.410156 2.953125 19.453125 2.515625 C 18.492188 2.085938 17.582031 1.425781 16.71875 0.53125 C 15.851562 -0.363281 15.03125 -1.363281 14.25 -2.46875 C 13.476562 -3.570312 12.75 -4.644531 12.0625 -5.6875 C 11.375 -6.738281 10.726562 -7.617188 10.125 -8.328125 C 9.925781 -8.347656 9.734375 -8.378906 9.546875 -8.421875 C 9.367188 -8.472656 9.191406 -8.523438 9.015625 -8.578125 C 9.085938 -7.117188 9.113281 -5.664062 9.09375 -4.21875 C 9.082031 -2.78125 9.03125 -1.519531 8.9375 -0.4375 C 8.851562 0.632812 8.722656 1.375 8.546875 1.78125 C 8.347656 2.238281 8.003906 2.519531 7.515625 2.625 C 7.023438 2.738281 6.554688 2.691406 6.109375 2.484375 C 5.671875 2.285156 5.398438 1.976562 5.296875 1.5625 C 5.628906 0.28125 5.894531 -1.257812 6.09375 -3.0625 C 6.300781 -4.875 6.457031 -6.785156 6.5625 -8.796875 C 6.675781 -10.804688 6.734375 -12.773438 6.734375 -14.703125 C 6.742188 -16.640625 6.707031 -18.378906 6.625 -19.921875 C 6.601562 -20.378906 6.765625 -20.675781 7.109375 -20.8125 C 7.460938 -20.957031 7.820312 -20.945312 8.1875 -20.78125 C 8.550781 -20.625 8.742188 -20.304688 8.765625 -19.828125 C 8.804688 -19.015625 8.820312 -17.820312 8.8125 -16.25 C 8.800781 -14.6875 8.835938 -12.847656 8.921875 -10.734375 C 9.296875 -11.035156 9.773438 -11.023438 10.359375 -10.703125 C 10.816406 -10.421875 11.28125 -9.921875 11.75 -9.203125 C 12.695312 -9.367188 13.53125 -9.835938 14.25 -10.609375 C 14.976562 -11.378906 15.546875 -12.316406 15.953125 -13.421875 C 16.367188 -14.535156 16.578125 -15.691406 16.578125 -16.890625 C 16.578125 -18.085938 16.34375 -19.195312 15.875 -20.21875 C 15.414062 -21.238281 14.6875 -22.054688 13.6875 -22.671875 C 12.6875 -23.285156 11.367188 -23.550781 9.734375 -23.46875 Z M 9.734375 -23.46875 "/></g></g><g style="fill:#556b2f;fill-opacity:1;"><g transform="translate(39.106748, 123.166322)"><path style="stroke:none" d="M 7.8125 -9.109375 C 7.96875 -9.253906 8.164062 -9.300781 8.40625 -9.25 C 8.644531 -9.207031 8.707031 -8.972656 8.59375 -8.546875 C 8.332031 -7.660156 8.035156 -6.691406 7.703125 -5.640625 C 7.367188 -4.597656 6.988281 -3.601562 6.5625 -2.65625 C 6.132812 -1.707031 5.625 -0.929688 5.03125 -0.328125 C 4.4375 0.265625 3.742188 0.566406 2.953125 0.578125 C 1.734375 0.585938 0.820312 0.25 0.21875 -0.4375 C -0.375 -1.132812 -0.753906 -2.015625 -0.921875 -3.078125 C -1.085938 -4.148438 -1.101562 -5.253906 -0.96875 -6.390625 C -0.84375 -7.523438 -0.660156 -8.5625 -0.421875 -9.5 C -0.179688 -10.4375 0.0234375 -11.125 0.203125 -11.5625 C 0.273438 -11.738281 0.476562 -11.863281 0.8125 -11.9375 C 1.144531 -12.007812 1.460938 -11.96875 1.765625 -11.8125 C 2.078125 -11.664062 2.210938 -11.335938 2.171875 -10.828125 C 2.140625 -10.367188 2.085938 -9.710938 2.015625 -8.859375 C 1.941406 -8.003906 1.875 -7.097656 1.8125 -6.140625 C 1.75 -5.179688 1.734375 -4.265625 1.765625 -3.390625 C 1.796875 -2.515625 1.90625 -1.804688 2.09375 -1.265625 C 2.289062 -0.734375 2.601562 -0.476562 3.03125 -0.5 C 3.707031 -0.53125 4.332031 -0.988281 4.90625 -1.875 C 5.488281 -2.769531 6.019531 -3.875 6.5 -5.1875 C 6.988281 -6.507812 7.425781 -7.816406 7.8125 -9.109375 Z M 1.65625 -13.75 C 1.0625 -13.726562 0.675781 -13.910156 0.5 -14.296875 C 0.320312 -14.679688 0.289062 -15.128906 0.40625 -15.640625 C 0.519531 -16.160156 0.753906 -16.601562 1.109375 -16.96875 C 1.460938 -17.34375 1.878906 -17.5 2.359375 -17.4375 C 2.847656 -17.375 3.191406 -17.15625 3.390625 -16.78125 C 3.585938 -16.414062 3.65625 -16.003906 3.59375 -15.546875 C 3.539062 -15.085938 3.34375 -14.679688 3 -14.328125 C 2.664062 -13.972656 2.21875 -13.78125 1.65625 -13.75 Z M 1.65625 -13.75 "/></g></g><g style="fill:#556b2f;fill-opacity:1;"><g transform="translate(47.344774, 122.760098)"><path style="stroke:none" d="M -2.6875 -10.578125 C -3.070312 -10.410156 -3.332031 -10.453125 -3.46875 -10.703125 C -3.601562 -10.953125 -3.570312 -11.222656 -3.375 -11.515625 L -2.375 -11.8125 C -2.007812 -12.007812 -1.617188 -12.207031 -1.203125 -12.40625 C -0.785156 -12.613281 -0.359375 -12.835938 0.078125 -13.078125 C 0.398438 -14.453125 0.816406 -15.703125 1.328125 -16.828125 C 1.835938 -17.960938 2.410156 -18.832031 3.046875 -19.4375 C 3.679688 -20.050781 4.375 -20.226562 5.125 -19.96875 C 5.820312 -19.757812 6.164062 -19.320312 6.15625 -18.65625 C 6.144531 -18 5.867188 -17.257812 5.328125 -16.4375 C 4.785156 -15.625 4.0625 -14.84375 3.15625 -14.09375 C 2.945312 -13.882812 2.691406 -13.6875 2.390625 -13.5 L 2.328125 -12.9375 C 3.054688 -13.0625 3.769531 -13.144531 4.46875 -13.1875 C 5.175781 -13.238281 5.878906 -13.257812 6.578125 -13.25 C 6.972656 -13.238281 7.15625 -13.070312 7.125 -12.75 C 7.101562 -12.4375 6.984375 -12.207031 6.765625 -12.0625 C 6.367188 -12.09375 5.769531 -12.125 4.96875 -12.15625 C 4.164062 -12.195312 3.234375 -12.132812 2.171875 -11.96875 C 2.078125 -11.363281 2.003906 -10.753906 1.953125 -10.140625 C 1.898438 -9.535156 1.847656 -8.90625 1.796875 -8.25 C 1.734375 -7.257812 1.6875 -6.164062 1.65625 -4.96875 C 1.632812 -3.78125 1.664062 -2.632812 1.75 -1.53125 C 1.832031 -0.425781 1.992188 0.46875 2.234375 1.15625 C 2.484375 1.851562 2.832031 2.191406 3.28125 2.171875 C 3.789062 2.148438 4.335938 1.734375 4.921875 0.921875 C 5.503906 0.117188 6.082031 -0.878906 6.65625 -2.078125 C 7.226562 -3.285156 7.75 -4.523438 8.21875 -5.796875 C 8.695312 -7.078125 9.082031 -8.207031 9.375 -9.1875 C 9.53125 -9.332031 9.726562 -9.378906 9.96875 -9.328125 C 10.207031 -9.285156 10.269531 -9.050781 10.15625 -8.625 C 9.9375 -7.90625 9.660156 -7.046875 9.328125 -6.046875 C 8.992188 -5.054688 8.609375 -4.023438 8.171875 -2.953125 C 7.734375 -1.878906 7.25 -0.878906 6.71875 0.046875 C 6.1875 0.984375 5.625 1.742188 5.03125 2.328125 C 4.4375 2.921875 3.832031 3.222656 3.21875 3.234375 C 2.375 3.242188 1.691406 2.894531 1.171875 2.1875 C 0.660156 1.476562 0.265625 0.5625 -0.015625 -0.5625 C -0.304688 -1.695312 -0.488281 -2.910156 -0.5625 -4.203125 C -0.632812 -5.503906 -0.648438 -6.742188 -0.609375 -7.921875 C -0.578125 -8.492188 -0.53125 -9.078125 -0.46875 -9.671875 C -0.414062 -10.265625 -0.332031 -10.863281 -0.21875 -11.46875 C -0.59375 -11.332031 -0.988281 -11.195312 -1.40625 -11.0625 C -1.820312 -10.925781 -2.25 -10.765625 -2.6875 -10.578125 Z M 5 -18.9375 C 4.507812 -19.15625 4.0625 -18.863281 3.65625 -18.0625 C 3.257812 -17.269531 2.914062 -16.179688 2.625 -14.796875 C 2.65625 -14.796875 2.679688 -14.804688 2.703125 -14.828125 C 3.347656 -15.367188 3.875 -15.9375 4.28125 -16.53125 C 4.695312 -17.132812 4.972656 -17.660156 5.109375 -18.109375 C 5.242188 -18.554688 5.207031 -18.832031 5 -18.9375 Z M 5 -18.9375 "/></g></g><g style="fill:#556b2f;fill-opacity:1;"><g transform="translate(57.145911, 122.276795)"><path style="stroke:none" d="M -0.46875 -1.078125 C -0.457031 -1.835938 -0.46875 -2.691406 -0.5 -3.640625 C -0.53125 -4.585938 -0.554688 -5.546875 -0.578125 -6.515625 C -0.597656 -7.484375 -0.570312 -8.390625 -0.5 -9.234375 C -0.425781 -10.085938 -0.289062 -10.773438 -0.09375 -11.296875 C 0.0078125 -11.554688 0.226562 -11.734375 0.5625 -11.828125 C 0.894531 -11.929688 1.238281 -11.953125 1.59375 -11.890625 C 1.945312 -11.828125 2.226562 -11.671875 2.4375 -11.421875 C 2.65625 -11.171875 2.691406 -10.835938 2.546875 -10.421875 C 2.398438 -9.984375 2.273438 -9.453125 2.171875 -8.828125 C 2.066406 -8.203125 1.976562 -7.53125 1.90625 -6.8125 C 2.238281 -8.082031 2.628906 -9.320312 3.078125 -10.53125 C 3.535156 -11.738281 4.054688 -12.726562 4.640625 -13.5 C 5.222656 -14.28125 5.863281 -14.675781 6.5625 -14.6875 C 7.882812 -14.6875 8.84375 -14.226562 9.4375 -13.3125 C 10.03125 -12.394531 10.40625 -11.304688 10.5625 -10.046875 C 11.207031 -11.828125 11.925781 -13.21875 12.71875 -14.21875 C 13.519531 -15.21875 14.472656 -15.742188 15.578125 -15.796875 C 16.960938 -15.867188 17.90625 -15.316406 18.40625 -14.140625 C 18.90625 -12.960938 19.078125 -11.453125 18.921875 -9.609375 C 18.847656 -8.765625 18.796875 -7.84375 18.765625 -6.84375 C 18.734375 -5.84375 18.738281 -4.882812 18.78125 -3.96875 C 18.832031 -3.050781 18.96875 -2.304688 19.1875 -1.734375 C 19.40625 -1.171875 19.722656 -0.898438 20.140625 -0.921875 C 20.648438 -0.941406 21.128906 -1.238281 21.578125 -1.8125 C 22.035156 -2.382812 22.46875 -3.117188 22.875 -4.015625 C 23.289062 -4.910156 23.675781 -5.878906 24.03125 -6.921875 C 24.382812 -7.972656 24.710938 -8.984375 25.015625 -9.953125 C 25.171875 -10.097656 25.367188 -10.144531 25.609375 -10.09375 C 25.847656 -10.050781 25.90625 -9.820312 25.78125 -9.40625 C 25.53125 -8.507812 25.238281 -7.519531 24.90625 -6.4375 C 24.570312 -5.351562 24.175781 -4.304688 23.71875 -3.296875 C 23.257812 -2.285156 22.734375 -1.457031 22.140625 -0.8125 C 21.554688 -0.175781 20.867188 0.144531 20.078125 0.15625 C 18.953125 0.15625 18.09375 -0.144531 17.5 -0.75 C 16.90625 -1.363281 16.519531 -2.160156 16.34375 -3.140625 C 16.164062 -4.117188 16.097656 -5.171875 16.140625 -6.296875 C 16.179688 -7.421875 16.265625 -8.5 16.390625 -9.53125 C 16.515625 -10.550781 16.609375 -11.472656 16.671875 -12.296875 C 16.742188 -13.117188 16.703125 -13.765625 16.546875 -14.234375 C 16.398438 -14.710938 16.046875 -14.9375 15.484375 -14.90625 C 14.441406 -14.851562 13.472656 -13.863281 12.578125 -11.9375 C 11.679688 -10.019531 10.847656 -7.207031 10.078125 -3.5 L 10 -3.328125 C 9.8125 -2.472656 9.644531 -1.875 9.5 -1.53125 C 9.4375 -1.382812 9.242188 -1.269531 8.921875 -1.1875 C 8.609375 -1.101562 8.3125 -1.132812 8.03125 -1.28125 C 7.757812 -1.4375 7.640625 -1.773438 7.671875 -2.296875 C 7.710938 -2.773438 7.753906 -3.46875 7.796875 -4.375 C 7.847656 -5.28125 7.890625 -6.257812 7.921875 -7.3125 C 7.960938 -8.375 7.957031 -9.390625 7.90625 -10.359375 C 7.863281 -11.335938 7.734375 -12.128906 7.515625 -12.734375 C 7.304688 -13.347656 6.988281 -13.644531 6.5625 -13.625 C 6.082031 -13.601562 5.601562 -13.195312 5.125 -12.40625 C 4.644531 -11.625 4.175781 -10.625 3.71875 -9.40625 C 3.257812 -8.195312 2.847656 -6.941406 2.484375 -5.640625 C 2.117188 -4.347656 1.816406 -3.1875 1.578125 -2.15625 L 1.515625 -0.96875 C 1.484375 -0.539062 1.300781 -0.265625 0.96875 -0.140625 C 0.632812 -0.0234375 0.3125 -0.046875 0 -0.203125 C -0.320312 -0.367188 -0.476562 -0.660156 -0.46875 -1.078125 Z M -0.46875 -1.078125 "/></g></g><g style="fill:#556b2f;fill-opacity:1;"><g transform="translate(82.578173, 121.022708)"><path style="stroke:none" d="M 5.390625 -15.46875 C 6.390625 -15.632812 7.222656 -15.414062 7.890625 -14.8125 C 8.554688 -14.207031 9.035156 -13.335938 9.328125 -12.203125 C 9.617188 -11.078125 9.6875 -9.773438 9.53125 -8.296875 C 9.375 -6.828125 9.0625 -5.503906 8.59375 -4.328125 C 8.707031 -4.296875 8.890625 -4.285156 9.140625 -4.296875 C 10.242188 -4.359375 11.28125 -4.742188 12.25 -5.453125 C 13.21875 -6.171875 13.992188 -7.5 14.578125 -9.4375 C 14.734375 -9.582031 14.929688 -9.628906 15.171875 -9.578125 C 15.410156 -9.535156 15.472656 -9.304688 15.359375 -8.890625 C 14.828125 -7.117188 14.039062 -5.75 13 -4.78125 C 11.957031 -3.8125 10.644531 -3.300781 9.0625 -3.25 C 8.894531 -3.238281 8.722656 -3.234375 8.546875 -3.234375 C 8.378906 -3.242188 8.226562 -3.257812 8.09375 -3.28125 C 7.625 -2.414062 7.066406 -1.695312 6.421875 -1.125 C 5.773438 -0.550781 5.015625 -0.242188 4.140625 -0.203125 C 3.097656 -0.148438 2.210938 -0.382812 1.484375 -0.90625 C 0.753906 -1.4375 0.191406 -2.140625 -0.203125 -3.015625 C -0.609375 -3.890625 -0.84375 -4.832031 -0.90625 -5.84375 C -0.96875 -6.851562 -0.863281 -7.800781 -0.59375 -8.6875 C -0.351562 -9.519531 0.0078125 -10.238281 0.5 -10.84375 C 0.988281 -11.445312 1.625 -11.863281 2.40625 -12.09375 C 2.53125 -12.945312 2.84375 -13.691406 3.34375 -14.328125 C 3.84375 -14.960938 4.523438 -15.34375 5.390625 -15.46875 Z M 4.078125 -11.09375 C 4.035156 -10.257812 4.125 -9.390625 4.34375 -8.484375 C 4.570312 -7.578125 4.941406 -6.765625 5.453125 -6.046875 C 5.960938 -5.328125 6.640625 -4.816406 7.484375 -4.515625 C 7.671875 -5.085938 7.828125 -5.703125 7.953125 -6.359375 C 8.078125 -7.015625 8.179688 -7.664062 8.265625 -8.3125 C 8.429688 -9.59375 8.421875 -10.722656 8.234375 -11.703125 C 8.046875 -12.691406 7.722656 -13.425781 7.265625 -13.90625 C 6.816406 -14.394531 6.28125 -14.539062 5.65625 -14.34375 C 5.289062 -14.238281 4.984375 -13.992188 4.734375 -13.609375 C 4.484375 -13.234375 4.300781 -12.757812 4.1875 -12.1875 C 4.644531 -12.125 5.070312 -11.988281 5.46875 -11.78125 C 5.875 -11.582031 6.144531 -11.296875 6.28125 -10.921875 C 6.40625 -10.597656 6.347656 -10.332031 6.109375 -10.125 C 5.867188 -9.914062 5.628906 -9.863281 5.390625 -9.96875 C 5.140625 -10.738281 4.703125 -11.113281 4.078125 -11.09375 Z M 7.0625 -3.578125 C 5.832031 -3.992188 4.820312 -4.769531 4.03125 -5.90625 C 3.238281 -7.050781 2.710938 -8.269531 2.453125 -9.5625 C 2.203125 -9.007812 2.023438 -8.378906 1.921875 -7.671875 C 1.828125 -6.960938 1.800781 -6.257812 1.84375 -5.5625 C 1.894531 -4.46875 2.128906 -3.488281 2.546875 -2.625 C 2.972656 -1.769531 3.578125 -1.332031 4.359375 -1.3125 C 4.972656 -1.320312 5.5 -1.523438 5.9375 -1.921875 C 6.375 -2.328125 6.75 -2.878906 7.0625 -3.578125 Z M 7.0625 -3.578125 "/></g></g><g style="fill:#8f9e8b;fill-opacity:1;"><g transform="translate(99.233796, 122.868762)"><path style="stroke:none" d="M 12.65625 0.1875 C 10.5625 0.1875 8.671875 -0.273438 6.984375 -1.203125 C 5.296875 -2.140625 3.972656 -3.429688 3.015625 -5.078125 C 2.054688 -6.722656 1.578125 -8.5625 1.578125 -10.59375 C 1.578125 -12.632812 2.054688 -14.476562 3.015625 -16.125 C 3.972656 -17.769531 5.296875 -19.054688 6.984375 -19.984375 C 8.679688 -20.910156 10.582031 -21.375 12.6875 -21.375 C 14.257812 -21.375 15.710938 -21.109375 17.046875 -20.578125 C 18.378906 -20.054688 19.507812 -19.296875 20.4375 -18.296875 L 19.015625 -16.859375 C 17.359375 -18.535156 15.269531 -19.375 12.75 -19.375 C 11.070312 -19.375 9.546875 -18.988281 8.171875 -18.21875 C 6.796875 -17.457031 5.71875 -16.410156 4.9375 -15.078125 C 4.164062 -13.742188 3.78125 -12.25 3.78125 -10.59375 C 3.78125 -8.9375 4.164062 -7.441406 4.9375 -6.109375 C 5.71875 -4.785156 6.796875 -3.738281 8.171875 -2.96875 C 9.546875 -2.195312 11.070312 -1.8125 12.75 -1.8125 C 15.289062 -1.8125 17.378906 -2.660156 19.015625 -4.359375 L 20.4375 -2.9375 C 19.507812 -1.925781 18.375 -1.148438 17.03125 -0.609375 C 15.6875 -0.078125 14.226562 0.1875 12.65625 0.1875 Z M 12.65625 0.1875 "/></g></g><g style="fill:#8f9e8b;fill-opacity:1;"><g transform="translate(120.766525, 122.868762)"><path style="stroke:none" d="M 8.5625 -16.046875 C 10.644531 -16.046875 12.238281 -15.523438 13.34375 -14.484375 C 14.457031 -13.453125 15.015625 -11.914062 15.015625 -9.875 L 15.015625 0 L 12.953125 0 L 12.953125 -2.484375 C 12.472656 -1.648438 11.765625 -1 10.828125 -0.53125 C 9.890625 -0.0703125 8.773438 0.15625 7.484375 0.15625 C 5.703125 0.15625 4.285156 -0.265625 3.234375 -1.109375 C 2.191406 -1.960938 1.671875 -3.085938 1.671875 -4.484375 C 1.671875 -5.835938 2.160156 -6.925781 3.140625 -7.75 C 4.117188 -8.582031 5.675781 -9 7.8125 -9 L 12.875 -9 L 12.875 -9.96875 C 12.875 -11.332031 12.488281 -12.375 11.71875 -13.09375 C 10.945312 -13.8125 9.828125 -14.171875 8.359375 -14.171875 C 7.347656 -14.171875 6.378906 -14.003906 5.453125 -13.671875 C 4.523438 -13.335938 3.726562 -12.878906 3.0625 -12.296875 L 2.09375 -13.90625 C 2.894531 -14.582031 3.859375 -15.109375 4.984375 -15.484375 C 6.117188 -15.859375 7.3125 -16.046875 8.5625 -16.046875 Z M 7.8125 -1.546875 C 9.019531 -1.546875 10.054688 -1.820312 10.921875 -2.375 C 11.796875 -2.925781 12.445312 -3.726562 12.875 -4.78125 L 12.875 -7.390625 L 7.875 -7.390625 C 5.144531 -7.390625 3.78125 -6.441406 3.78125 -4.546875 C 3.78125 -3.617188 4.132812 -2.882812 4.84375 -2.34375 C 5.550781 -1.8125 6.539062 -1.546875 7.8125 -1.546875 Z M 7.8125 -1.546875 "/></g></g><g style="fill:#8f9e8b;fill-opacity:1;"><g transform="translate(138.634751, 122.868762)"><path style="stroke:none" d="M 11.109375 -16.046875 C 13.109375 -16.046875 14.695312 -15.460938 15.875 -14.296875 C 17.0625 -13.140625 17.65625 -11.453125 17.65625 -9.234375 L 17.65625 0 L 15.5 0 L 15.5 -9.03125 C 15.5 -10.675781 15.082031 -11.929688 14.25 -12.796875 C 13.425781 -13.671875 12.25 -14.109375 10.71875 -14.109375 C 9 -14.109375 7.640625 -13.597656 6.640625 -12.578125 C 5.640625 -11.554688 5.140625 -10.148438 5.140625 -8.359375 L 5.140625 0 L 3 0 L 3 -15.921875 L 5.0625 -15.921875 L 5.0625 -12.984375 C 5.644531 -13.953125 6.453125 -14.703125 7.484375 -15.234375 C 8.523438 -15.773438 9.734375 -16.046875 11.109375 -16.046875 Z M 11.109375 -16.046875 "/></g></g><g style="fill:#8f9e8b;fill-opacity:1;"><g transform="translate(159.137785, 122.868762)"><path style="stroke:none" d="M 3 -15.921875 L 5.140625 -15.921875 L 5.140625 0 L 3 0 Z M 4.09375 -19.40625 C 3.644531 -19.40625 3.269531 -19.554688 2.96875 -19.859375 C 2.664062 -20.160156 2.515625 -20.523438 2.515625 -20.953125 C 2.515625 -21.359375 2.664062 -21.710938 2.96875 -22.015625 C 3.269531 -22.316406 3.644531 -22.46875 4.09375 -22.46875 C 4.53125 -22.46875 4.898438 -22.320312 5.203125 -22.03125 C 5.503906 -21.738281 5.65625 -21.390625 5.65625 -20.984375 C 5.65625 -20.535156 5.503906 -20.160156 5.203125 -19.859375 C 4.898438 -19.554688 4.53125 -19.40625 4.09375 -19.40625 Z M 4.09375 -19.40625 "/></g></g><g style="fill:#8f9e8b;fill-opacity:1;"><g transform="translate(167.284487, 122.868762)"><path style="stroke:none" d="M 11.109375 -16.046875 C 13.109375 -16.046875 14.695312 -15.460938 15.875 -14.296875 C 17.0625 -13.140625 17.65625 -11.453125 17.65625 -9.234375 L 17.65625 0 L 15.5 0 L 15.5 -9.03125 C 15.5 -10.675781 15.082031 -11.929688 14.25 -12.796875 C 13.425781 -13.671875 12.25 -14.109375 10.71875 -14.109375 C 9 -14.109375 7.640625 -13.597656 6.640625 -12.578125 C 5.640625 -11.554688 5.140625 -10.148438 5.140625 -8.359375 L 5.140625 0 L 3 0 L 3 -15.921875 L 5.0625 -15.921875 L 5.0625 -12.984375 C 5.644531 -13.953125 6.453125 -14.703125 7.484375 -15.234375 C 8.523438 -15.773438 9.734375 -16.046875 11.109375 -16.046875 Z M 11.109375 -16.046875 "/></g></g><g style="fill:#8f9e8b;fill-opacity:1;"><g transform="translate(187.848094, 122.868762)"><path style="stroke:none" d="M 9.515625 0.15625 C 7.972656 0.15625 6.585938 -0.191406 5.359375 -0.890625 C 4.128906 -1.585938 3.160156 -2.550781 2.453125 -3.78125 C 1.742188 -5.007812 1.390625 -6.40625 1.390625 -7.96875 C 1.390625 -9.519531 1.742188 -10.910156 2.453125 -12.140625 C 3.160156 -13.367188 4.128906 -14.328125 5.359375 -15.015625 C 6.585938 -15.703125 7.972656 -16.046875 9.515625 -16.046875 C 11.046875 -16.046875 12.425781 -15.703125 13.65625 -15.015625 C 14.882812 -14.328125 15.847656 -13.367188 16.546875 -12.140625 C 17.242188 -10.910156 17.59375 -9.519531 17.59375 -7.96875 C 17.59375 -6.40625 17.242188 -5.007812 16.546875 -3.78125 C 15.847656 -2.550781 14.882812 -1.585938 13.65625 -0.890625 C 12.425781 -0.191406 11.046875 0.15625 9.515625 0.15625 Z M 9.515625 -1.75 C 10.640625 -1.75 11.648438 -2.003906 12.546875 -2.515625 C 13.453125 -3.035156 14.15625 -3.769531 14.65625 -4.71875 C 15.15625 -5.664062 15.40625 -6.75 15.40625 -7.96875 C 15.40625 -9.175781 15.15625 -10.253906 14.65625 -11.203125 C 14.15625 -12.148438 13.453125 -12.878906 12.546875 -13.390625 C 11.648438 -13.910156 10.640625 -14.171875 9.515625 -14.171875 C 8.378906 -14.171875 7.363281 -13.910156 6.46875 -13.390625 C 5.570312 -12.878906 4.863281 -12.148438 4.34375 -11.203125 C 3.832031 -10.253906 3.578125 -9.175781 3.578125 -7.96875 C 3.578125 -6.75 3.832031 -5.664062 4.34375 -4.71875 C 4.863281 -3.769531 5.570312 -3.035156 6.46875 -2.515625 C 7.363281 -2.003906 8.378906 -1.75 9.515625 -1.75 Z M 9.515625 -1.75 "/></g></g><g style="fill:#f4f5f0;fill-opacity:1;"><g transform="translate(21.590268, 151.804631)"><path style="stroke:none" d="M 10.953125 -9.109375 L 10.953125 0 L 10.015625 0 L 10.015625 -7.28125 L 6.4375 -1.15625 L 5.984375 -1.15625 L 2.40625 -7.25 L 2.40625 0 L 1.484375 0 L 1.484375 -9.109375 L 2.28125 -9.109375 L 6.234375 -2.359375 L 10.15625 -9.109375 Z M 10.953125 -9.109375 "/></g></g><g style="fill:#f4f5f0;fill-opacity:1;"><g transform="translate(34.019247, 151.804631)"><path style="stroke:none" d="M 3.6875 -6.890625 C 4.582031 -6.890625 5.265625 -6.664062 5.734375 -6.21875 C 6.210938 -5.78125 6.453125 -5.125 6.453125 -4.25 L 6.453125 0 L 5.578125 0 L 5.578125 -1.0625 C 5.367188 -0.707031 5.0625 -0.429688 4.65625 -0.234375 C 4.25 -0.0351562 3.769531 0.0625 3.21875 0.0625 C 2.445312 0.0625 1.835938 -0.117188 1.390625 -0.484375 C 0.941406 -0.847656 0.71875 -1.328125 0.71875 -1.921875 C 0.71875 -2.503906 0.925781 -2.972656 1.34375 -3.328125 C 1.769531 -3.679688 2.441406 -3.859375 3.359375 -3.859375 L 5.53125 -3.859375 L 5.53125 -4.28125 C 5.53125 -4.875 5.363281 -5.320312 5.03125 -5.625 C 4.707031 -5.9375 4.226562 -6.09375 3.59375 -6.09375 C 3.15625 -6.09375 2.738281 -6.019531 2.34375 -5.875 C 1.945312 -5.726562 1.601562 -5.53125 1.3125 -5.28125 L 0.890625 -5.96875 C 1.242188 -6.269531 1.660156 -6.5 2.140625 -6.65625 C 2.628906 -6.8125 3.144531 -6.890625 3.6875 -6.890625 Z M 3.359375 -0.65625 C 3.878906 -0.65625 4.328125 -0.773438 4.703125 -1.015625 C 5.078125 -1.253906 5.351562 -1.601562 5.53125 -2.0625 L 5.53125 -3.171875 L 3.390625 -3.171875 C 2.210938 -3.171875 1.625 -2.765625 1.625 -1.953125 C 1.625 -1.554688 1.773438 -1.238281 2.078125 -1 C 2.378906 -0.769531 2.804688 -0.65625 3.359375 -0.65625 Z M 3.359375 -0.65625 "/></g></g><g style="fill:#f4f5f0;fill-opacity:1;"><g transform="translate(41.697888, 151.804631)"><path style="stroke:none" d="M 1.28125 -6.84375 L 2.21875 -6.84375 L 2.21875 0 L 1.28125 0 Z M 1.75 -8.34375 C 1.5625 -8.34375 1.398438 -8.40625 1.265625 -8.53125 C 1.140625 -8.664062 1.078125 -8.820312 1.078125 -9 C 1.078125 -9.175781 1.140625 -9.328125 1.265625 -9.453125 C 1.398438 -9.585938 1.5625 -9.65625 1.75 -9.65625 C 1.9375 -9.65625 2.09375 -9.59375 2.21875 -9.46875 C 2.351562 -9.34375 2.421875 -9.191406 2.421875 -9.015625 C 2.421875 -8.828125 2.351562 -8.664062 2.21875 -8.53125 C 2.09375 -8.40625 1.9375 -8.34375 1.75 -8.34375 Z M 1.75 -8.34375 "/></g></g><g style="fill:#f4f5f0;fill-opacity:1;"><g transform="translate(45.198827, 151.804631)"><path style="stroke:none" d="M 3.125 0.0625 C 2.570312 0.0625 2.039062 -0.015625 1.53125 -0.171875 C 1.019531 -0.335938 0.625 -0.539062 0.34375 -0.78125 L 0.75 -1.515625 C 1.039062 -1.285156 1.398438 -1.097656 1.828125 -0.953125 C 2.265625 -0.804688 2.71875 -0.734375 3.1875 -0.734375 C 3.8125 -0.734375 4.273438 -0.832031 4.578125 -1.03125 C 4.878906 -1.226562 5.03125 -1.503906 5.03125 -1.859375 C 5.03125 -2.109375 4.945312 -2.304688 4.78125 -2.453125 C 4.613281 -2.597656 4.40625 -2.707031 4.15625 -2.78125 C 3.90625 -2.851562 3.570312 -2.925781 3.15625 -3 C 2.59375 -3.101562 2.140625 -3.207031 1.796875 -3.3125 C 1.460938 -3.414062 1.175781 -3.597656 0.9375 -3.859375 C 0.695312 -4.117188 0.578125 -4.484375 0.578125 -4.953125 C 0.578125 -5.523438 0.816406 -5.988281 1.296875 -6.34375 C 1.773438 -6.707031 2.441406 -6.890625 3.296875 -6.890625 C 3.734375 -6.890625 4.171875 -6.832031 4.609375 -6.71875 C 5.054688 -6.601562 5.425781 -6.453125 5.71875 -6.265625 L 5.3125 -5.515625 C 4.75 -5.910156 4.078125 -6.109375 3.296875 -6.109375 C 2.703125 -6.109375 2.253906 -6.003906 1.953125 -5.796875 C 1.660156 -5.585938 1.515625 -5.3125 1.515625 -4.96875 C 1.515625 -4.707031 1.597656 -4.5 1.765625 -4.34375 C 1.929688 -4.1875 2.140625 -4.070312 2.390625 -4 C 2.640625 -3.925781 2.988281 -3.851562 3.4375 -3.78125 C 3.976562 -3.675781 4.414062 -3.570312 4.75 -3.46875 C 5.082031 -3.363281 5.363281 -3.179688 5.59375 -2.921875 C 5.832031 -2.671875 5.953125 -2.328125 5.953125 -1.890625 C 5.953125 -1.285156 5.703125 -0.804688 5.203125 -0.453125 C 4.703125 -0.109375 4.007812 0.0625 3.125 0.0625 Z M 3.125 0.0625 "/></g></g><g style="fill:#f4f5f0;fill-opacity:1;"><g transform="translate(51.562985, 151.804631)"><path style="stroke:none" d=""/></g></g><g style="fill:#f4f5f0;fill-opacity:1;"><g transform="translate(54.972823, 151.804631)"><path style="stroke:none" d="M 7.53125 -9.65625 L 7.53125 0 L 6.65625 0 L 6.65625 -1.359375 C 6.375 -0.890625 6.003906 -0.535156 5.546875 -0.296875 C 5.097656 -0.0546875 4.585938 0.0625 4.015625 0.0625 C 3.367188 0.0625 2.785156 -0.0820312 2.265625 -0.375 C 1.742188 -0.664062 1.332031 -1.078125 1.03125 -1.609375 C 0.738281 -2.140625 0.59375 -2.742188 0.59375 -3.421875 C 0.59375 -4.097656 0.738281 -4.703125 1.03125 -5.234375 C 1.332031 -5.765625 1.742188 -6.171875 2.265625 -6.453125 C 2.785156 -6.742188 3.367188 -6.890625 4.015625 -6.890625 C 4.566406 -6.890625 5.066406 -6.773438 5.515625 -6.546875 C 5.960938 -6.316406 6.328125 -5.984375 6.609375 -5.546875 L 6.609375 -9.65625 Z M 4.09375 -0.75 C 4.5625 -0.75 4.988281 -0.859375 5.375 -1.078125 C 5.769531 -1.304688 6.078125 -1.625 6.296875 -2.03125 C 6.515625 -2.4375 6.625 -2.898438 6.625 -3.421875 C 6.625 -3.941406 6.515625 -4.40625 6.296875 -4.8125 C 6.078125 -5.21875 5.769531 -5.53125 5.375 -5.75 C 4.988281 -5.976562 4.5625 -6.09375 4.09375 -6.09375 C 3.601562 -6.09375 3.164062 -5.976562 2.78125 -5.75 C 2.394531 -5.53125 2.085938 -5.21875 1.859375 -4.8125 C 1.640625 -4.40625 1.53125 -3.941406 1.53125 -3.421875 C 1.53125 -2.898438 1.640625 -2.4375 1.859375 -2.03125 C 2.085938 -1.625 2.394531 -1.304688 2.78125 -1.078125 C 3.164062 -0.859375 3.601562 -0.75 4.09375 -0.75 Z M 4.09375 -0.75 "/></g></g><g style="fill:#f4f5f0;fill-opacity:1;"><g transform="translate(63.796746, 151.804631)"><path style="stroke:none" d="M 4.09375 0.0625 C 3.425781 0.0625 2.828125 -0.0820312 2.296875 -0.375 C 1.773438 -0.675781 1.359375 -1.09375 1.046875 -1.625 C 0.742188 -2.15625 0.59375 -2.753906 0.59375 -3.421875 C 0.59375 -4.085938 0.742188 -4.6875 1.046875 -5.21875 C 1.359375 -5.75 1.773438 -6.160156 2.296875 -6.453125 C 2.828125 -6.742188 3.425781 -6.890625 4.09375 -6.890625 C 4.75 -6.890625 5.335938 -6.742188 5.859375 -6.453125 C 6.390625 -6.160156 6.804688 -5.75 7.109375 -5.21875 C 7.410156 -4.6875 7.5625 -4.085938 7.5625 -3.421875 C 7.5625 -2.753906 7.410156 -2.15625 7.109375 -1.625 C 6.804688 -1.09375 6.390625 -0.675781 5.859375 -0.375 C 5.335938 -0.0820312 4.75 0.0625 4.09375 0.0625 Z M 4.09375 -0.75 C 4.570312 -0.75 5.003906 -0.859375 5.390625 -1.078125 C 5.773438 -1.304688 6.078125 -1.625 6.296875 -2.03125 C 6.515625 -2.4375 6.625 -2.898438 6.625 -3.421875 C 6.625 -3.941406 6.515625 -4.40625 6.296875 -4.8125 C 6.078125 -5.21875 5.773438 -5.53125 5.390625 -5.75 C 5.003906 -5.976562 4.570312 -6.09375 4.09375 -6.09375 C 3.601562 -6.09375 3.164062 -5.976562 2.78125 -5.75 C 2.394531 -5.53125 2.085938 -5.21875 1.859375 -4.8125 C 1.640625 -4.40625 1.53125 -3.941406 1.53125 -3.421875 C 1.53125 -2.898438 1.640625 -2.4375 1.859375 -2.03125 C 2.085938 -1.625 2.394531 -1.304688 2.78125 -1.078125 C 3.164062 -0.859375 3.601562 -0.75 4.09375 -0.75 Z M 4.09375 -0.75 "/></g></g><g style="fill:#f4f5f0;fill-opacity:1;"><g transform="translate(71.956923, 151.804631)"><path style="stroke:none" d=""/></g></g><g style="fill:#f4f5f0;fill-opacity:1;"><g transform="translate(75.366762, 151.804631)"><path style="stroke:none" d="M 7.53125 -6.84375 L 7.53125 2.53125 L 6.609375 2.53125 L 6.609375 -1.28125 C 6.328125 -0.84375 5.960938 -0.507812 5.515625 -0.28125 C 5.066406 -0.0507812 4.566406 0.0625 4.015625 0.0625 C 3.359375 0.0625 2.769531 -0.0820312 2.25 -0.375 C 1.738281 -0.664062 1.332031 -1.070312 1.03125 -1.59375 C 0.738281 -2.125 0.59375 -2.734375 0.59375 -3.421875 C 0.59375 -4.097656 0.738281 -4.703125 1.03125 -5.234375 C 1.332031 -5.765625 1.742188 -6.171875 2.265625 -6.453125 C 2.785156 -6.742188 3.367188 -6.890625 4.015625 -6.890625 C 4.585938 -6.890625 5.097656 -6.769531 5.546875 -6.53125 C 6.003906 -6.289062 6.375 -5.945312 6.65625 -5.5 L 6.65625 -6.84375 Z M 4.09375 -0.75 C 4.5625 -0.75 4.988281 -0.859375 5.375 -1.078125 C 5.769531 -1.304688 6.078125 -1.625 6.296875 -2.03125 C 6.515625 -2.4375 6.625 -2.898438 6.625 -3.421875 C 6.625 -3.941406 6.515625 -4.40625 6.296875 -4.8125 C 6.078125 -5.21875 5.769531 -5.53125 5.375 -5.75 C 4.988281 -5.976562 4.5625 -6.09375 4.09375 -6.09375 C 3.601562 -6.09375 3.164062 -5.976562 2.78125 -5.75 C 2.394531 -5.53125 2.085938 -5.21875 1.859375 -4.8125 C 1.640625 -4.40625 1.53125 -3.941406 1.53125 -3.421875 C 1.53125 -2.898438 1.640625 -2.4375 1.859375 -2.03125 C 2.085938 -1.625 2.394531 -1.304688 2.78125 -1.078125 C 3.164062 -0.859375 3.601562 -0.75 4.09375 -0.75 Z M 4.09375 -0.75 "/></g></g><g style="fill:#f4f5f0;fill-opacity:1;"><g transform="translate(84.190684, 151.804631)"><path style="stroke:none" d="M 7.453125 -6.84375 L 7.453125 0 L 6.578125 0 L 6.578125 -1.25 C 6.328125 -0.832031 5.988281 -0.507812 5.5625 -0.28125 C 5.144531 -0.0507812 4.660156 0.0625 4.109375 0.0625 C 3.210938 0.0625 2.503906 -0.1875 1.984375 -0.6875 C 1.472656 -1.1875 1.21875 -1.914062 1.21875 -2.875 L 1.21875 -6.84375 L 2.140625 -6.84375 L 2.140625 -2.96875 C 2.140625 -2.25 2.316406 -1.703125 2.671875 -1.328125 C 3.035156 -0.953125 3.546875 -0.765625 4.203125 -0.765625 C 4.921875 -0.765625 5.488281 -0.984375 5.90625 -1.421875 C 6.320312 -1.859375 6.53125 -2.46875 6.53125 -3.25 L 6.53125 -6.84375 Z M 7.453125 -6.84375 "/></g></g><g style="fill:#f4f5f0;fill-opacity:1;"><g transform="translate(92.949535, 151.804631)"><path style="stroke:none" d="M 7.25 -3.140625 L 1.515625 -3.140625 C 1.566406 -2.421875 1.835938 -1.84375 2.328125 -1.40625 C 2.828125 -0.96875 3.457031 -0.75 4.21875 -0.75 C 4.644531 -0.75 5.035156 -0.820312 5.390625 -0.96875 C 5.742188 -1.125 6.050781 -1.351562 6.3125 -1.65625 L 6.828125 -1.046875 C 6.523438 -0.679688 6.144531 -0.40625 5.6875 -0.21875 C 5.238281 -0.03125 4.738281 0.0625 4.1875 0.0625 C 3.488281 0.0625 2.867188 -0.0820312 2.328125 -0.375 C 1.785156 -0.675781 1.359375 -1.09375 1.046875 -1.625 C 0.742188 -2.15625 0.59375 -2.753906 0.59375 -3.421875 C 0.59375 -4.085938 0.738281 -4.6875 1.03125 -5.21875 C 1.320312 -5.75 1.722656 -6.160156 2.234375 -6.453125 C 2.742188 -6.742188 3.3125 -6.890625 3.9375 -6.890625 C 4.570312 -6.890625 5.140625 -6.742188 5.640625 -6.453125 C 6.148438 -6.160156 6.546875 -5.75 6.828125 -5.21875 C 7.117188 -4.695312 7.265625 -4.097656 7.265625 -3.421875 Z M 3.9375 -6.109375 C 3.28125 -6.109375 2.726562 -5.894531 2.28125 -5.46875 C 1.832031 -5.050781 1.578125 -4.503906 1.515625 -3.828125 L 6.375 -3.828125 C 6.3125 -4.503906 6.054688 -5.050781 5.609375 -5.46875 C 5.171875 -5.894531 4.613281 -6.109375 3.9375 -6.109375 Z M 3.9375 -6.109375 "/></g></g><g style="fill:#f4f5f0;fill-opacity:1;"><g transform="translate(100.810375, 151.804631)"><path style="stroke:none" d=""/></g></g><g style="fill:#f4f5f0;fill-opacity:1;"><g transform="translate(104.220214, 151.804631)"><path style="stroke:none" d="M 7.453125 -6.84375 L 7.453125 0 L 6.578125 0 L 6.578125 -1.25 C 6.328125 -0.832031 5.988281 -0.507812 5.5625 -0.28125 C 5.144531 -0.0507812 4.660156 0.0625 4.109375 0.0625 C 3.210938 0.0625 2.503906 -0.1875 1.984375 -0.6875 C 1.472656 -1.1875 1.21875 -1.914062 1.21875 -2.875 L 1.21875 -6.84375 L 2.140625 -6.84375 L 2.140625 -2.96875 C 2.140625 -2.25 2.316406 -1.703125 2.671875 -1.328125 C 3.035156 -0.953125 3.546875 -0.765625 4.203125 -0.765625 C 4.921875 -0.765625 5.488281 -0.984375 5.90625 -1.421875 C 6.320312 -1.859375 6.53125 -2.46875 6.53125 -3.25 L 6.53125 -6.84375 Z M 7.453125 -6.84375 "/></g></g><g style="fill:#f4f5f0;fill-opacity:1;"><g transform="translate(112.979064, 151.804631)"><path style="stroke:none" d="M 9.828125 -6.890625 C 10.679688 -6.890625 11.351562 -6.644531 11.84375 -6.15625 C 12.34375 -5.664062 12.59375 -4.9375 12.59375 -3.96875 L 12.59375 0 L 11.65625 0 L 11.65625 -3.875 C 11.65625 -4.59375 11.484375 -5.132812 11.140625 -5.5 C 10.804688 -5.875 10.328125 -6.0625 9.703125 -6.0625 C 8.984375 -6.0625 8.421875 -5.84375 8.015625 -5.40625 C 7.609375 -4.96875 7.40625 -4.363281 7.40625 -3.59375 L 7.40625 0 L 6.484375 0 L 6.484375 -3.875 C 6.484375 -4.59375 6.3125 -5.132812 5.96875 -5.5 C 5.625 -5.875 5.132812 -6.0625 4.5 -6.0625 C 3.800781 -6.0625 3.242188 -5.84375 2.828125 -5.40625 C 2.421875 -4.96875 2.21875 -4.363281 2.21875 -3.59375 L 2.21875 0 L 1.28125 0 L 1.28125 -6.84375 L 2.171875 -6.84375 L 2.171875 -5.59375 C 2.410156 -6.007812 2.75 -6.328125 3.1875 -6.546875 C 3.625 -6.773438 4.125 -6.890625 4.6875 -6.890625 C 5.257812 -6.890625 5.753906 -6.769531 6.171875 -6.53125 C 6.597656 -6.289062 6.914062 -5.929688 7.125 -5.453125 C 7.375 -5.898438 7.734375 -6.25 8.203125 -6.5 C 8.679688 -6.757812 9.222656 -6.890625 9.828125 -6.890625 Z M 9.828125 -6.890625 "/></g></g><g style="fill:#f4f5f0;fill-opacity:1;"><g transform="translate(126.787599, 151.804631)"><path style="stroke:none" d=""/></g></g><g style="fill:#f4f5f0;fill-opacity:1;"><g transform="translate(130.197438, 151.804631)"><path style="stroke:none" d="M 4.8125 -6.890625 C 5.457031 -6.890625 6.039062 -6.742188 6.5625 -6.453125 C 7.082031 -6.171875 7.488281 -5.765625 7.78125 -5.234375 C 8.070312 -4.703125 8.21875 -4.097656 8.21875 -3.421875 C 8.21875 -2.734375 8.070312 -2.125 7.78125 -1.59375 C 7.488281 -1.070312 7.082031 -0.664062 6.5625 -0.375 C 6.050781 -0.0820312 5.46875 0.0625 4.8125 0.0625 C 4.257812 0.0625 3.757812 -0.0507812 3.3125 -0.28125 C 2.863281 -0.507812 2.5 -0.84375 2.21875 -1.28125 L 2.21875 2.53125 L 1.28125 2.53125 L 1.28125 -6.84375 L 2.171875 -6.84375 L 2.171875 -5.5 C 2.453125 -5.945312 2.816406 -6.289062 3.265625 -6.53125 C 3.722656 -6.769531 4.238281 -6.890625 4.8125 -6.890625 Z M 4.75 -0.75 C 5.226562 -0.75 5.660156 -0.859375 6.046875 -1.078125 C 6.441406 -1.304688 6.75 -1.625 6.96875 -2.03125 C 7.1875 -2.4375 7.296875 -2.898438 7.296875 -3.421875 C 7.296875 -3.941406 7.1875 -4.40625 6.96875 -4.8125 C 6.75 -5.21875 6.441406 -5.53125 6.046875 -5.75 C 5.660156 -5.976562 5.226562 -6.09375 4.75 -6.09375 C 4.257812 -6.09375 3.820312 -5.976562 3.4375 -5.75 C 3.050781 -5.53125 2.75 -5.21875 2.53125 -4.8125 C 2.3125 -4.40625 2.203125 -3.941406 2.203125 -3.421875 C 2.203125 -2.898438 2.3125 -2.4375 2.53125 -2.03125 C 2.75 -1.625 3.050781 -1.304688 3.4375 -1.078125 C 3.820312 -0.859375 4.257812 -0.75 4.75 -0.75 Z M 4.75 -0.75 "/></g></g><g style="fill:#f4f5f0;fill-opacity:1;"><g transform="translate(138.982304, 151.804631)"><path style="stroke:none" d="M 3.6875 -6.890625 C 4.582031 -6.890625 5.265625 -6.664062 5.734375 -6.21875 C 6.210938 -5.78125 6.453125 -5.125 6.453125 -4.25 L 6.453125 0 L 5.578125 0 L 5.578125 -1.0625 C 5.367188 -0.707031 5.0625 -0.429688 4.65625 -0.234375 C 4.25 -0.0351562 3.769531 0.0625 3.21875 0.0625 C 2.445312 0.0625 1.835938 -0.117188 1.390625 -0.484375 C 0.941406 -0.847656 0.71875 -1.328125 0.71875 -1.921875 C 0.71875 -2.503906 0.925781 -2.972656 1.34375 -3.328125 C 1.769531 -3.679688 2.441406 -3.859375 3.359375 -3.859375 L 5.53125 -3.859375 L 5.53125 -4.28125 C 5.53125 -4.875 5.363281 -5.320312 5.03125 -5.625 C 4.707031 -5.9375 4.226562 -6.09375 3.59375 -6.09375 C 3.15625 -6.09375 2.738281 -6.019531 2.34375 -5.875 C 1.945312 -5.726562 1.601562 -5.53125 1.3125 -5.28125 L 0.890625 -5.96875 C 1.242188 -6.269531 1.660156 -6.5 2.140625 -6.65625 C 2.628906 -6.8125 3.144531 -6.890625 3.6875 -6.890625 Z M 3.359375 -0.65625 C 3.878906 -0.65625 4.328125 -0.773438 4.703125 -1.015625 C 5.078125 -1.253906 5.351562 -1.601562 5.53125 -2.0625 L 5.53125 -3.171875 L 3.390625 -3.171875 C 2.210938 -3.171875 1.625 -2.765625 1.625 -1.953125 C 1.625 -1.554688 1.773438 -1.238281 2.078125 -1 C 2.378906 -0.769531 2.804688 -0.65625 3.359375 -0.65625 Z M 3.359375 -0.65625 "/></g></g><g style="fill:#f4f5f0;fill-opacity:1;"><g transform="translate(146.660945, 151.804631)"><path style="stroke:none" d="M 3.125 0.0625 C 2.570312 0.0625 2.039062 -0.015625 1.53125 -0.171875 C 1.019531 -0.335938 0.625 -0.539062 0.34375 -0.78125 L 0.75 -1.515625 C 1.039062 -1.285156 1.398438 -1.097656 1.828125 -0.953125 C 2.265625 -0.804688 2.71875 -0.734375 3.1875 -0.734375 C 3.8125 -0.734375 4.273438 -0.832031 4.578125 -1.03125 C 4.878906 -1.226562 5.03125 -1.503906 5.03125 -1.859375 C 5.03125 -2.109375 4.945312 -2.304688 4.78125 -2.453125 C 4.613281 -2.597656 4.40625 -2.707031 4.15625 -2.78125 C 3.90625 -2.851562 3.570312 -2.925781 3.15625 -3 C 2.59375 -3.101562 2.140625 -3.207031 1.796875 -3.3125 C 1.460938 -3.414062 1.175781 -3.597656 0.9375 -3.859375 C 0.695312 -4.117188 0.578125 -4.484375 0.578125 -4.953125 C 0.578125 -5.523438 0.816406 -5.988281 1.296875 -6.34375 C 1.773438 -6.707031 2.441406 -6.890625 3.296875 -6.890625 C 3.734375 -6.890625 4.171875 -6.832031 4.609375 -6.71875 C 5.054688 -6.601562 5.425781 -6.453125 5.71875 -6.265625 L 5.3125 -5.515625 C 4.75 -5.910156 4.078125 -6.109375 3.296875 -6.109375 C 2.703125 -6.109375 2.253906 -6.003906 1.953125 -5.796875 C 1.660156 -5.585938 1.515625 -5.3125 1.515625 -4.96875 C 1.515625 -4.707031 1.597656 -4.5 1.765625 -4.34375 C 1.929688 -4.1875 2.140625 -4.070312 2.390625 -4 C 2.640625 -3.925781 2.988281 -3.851562 3.4375 -3.78125 C 3.976562 -3.675781 4.414062 -3.570312 4.75 -3.46875 C 5.082031 -3.363281 5.363281 -3.179688 5.59375 -2.921875 C 5.832031 -2.671875 5.953125 -2.328125 5.953125 -1.890625 C 5.953125 -1.285156 5.703125 -0.804688 5.203125 -0.453125 C 4.703125 -0.109375 4.007812 0.0625 3.125 0.0625 Z M 3.125 0.0625 "/></g></g><g style="fill:#f4f5f0;fill-opacity:1;"><g transform="translate(153.025103, 151.804631)"><path style="stroke:none" d="M 3.125 0.0625 C 2.570312 0.0625 2.039062 -0.015625 1.53125 -0.171875 C 1.019531 -0.335938 0.625 -0.539062 0.34375 -0.78125 L 0.75 -1.515625 C 1.039062 -1.285156 1.398438 -1.097656 1.828125 -0.953125 C 2.265625 -0.804688 2.71875 -0.734375 3.1875 -0.734375 C 3.8125 -0.734375 4.273438 -0.832031 4.578125 -1.03125 C 4.878906 -1.226562 5.03125 -1.503906 5.03125 -1.859375 C 5.03125 -2.109375 4.945312 -2.304688 4.78125 -2.453125 C 4.613281 -2.597656 4.40625 -2.707031 4.15625 -2.78125 C 3.90625 -2.851562 3.570312 -2.925781 3.15625 -3 C 2.59375 -3.101562 2.140625 -3.207031 1.796875 -3.3125 C 1.460938 -3.414062 1.175781 -3.597656 0.9375 -3.859375 C 0.695312 -4.117188 0.578125 -4.484375 0.578125 -4.953125 C 0.578125 -5.523438 0.816406 -5.988281 1.296875 -6.34375 C 1.773438 -6.707031 2.441406 -6.890625 3.296875 -6.890625 C 3.734375 -6.890625 4.171875 -6.832031 4.609375 -6.71875 C 5.054688 -6.601562 5.425781 -6.453125 5.71875 -6.265625 L 5.3125 -5.515625 C 4.75 -5.910156 4.078125 -6.109375 3.296875 -6.109375 C 2.703125 -6.109375 2.253906 -6.003906 1.953125 -5.796875 C 1.660156 -5.585938 1.515625 -5.3125 1.515625 -4.96875 C 1.515625 -4.707031 1.597656 -4.5 1.765625 -4.34375 C 1.929688 -4.1875 2.140625 -4.070312 2.390625 -4 C 2.640625 -3.925781 2.988281 -3.851562 3.4375 -3.78125 C 3.976562 -3.675781 4.414062 -3.570312 4.75 -3.46875 C 5.082031 -3.363281 5.363281 -3.179688 5.59375 -2.921875 C 5.832031 -2.671875 5.953125 -2.328125 5.953125 -1.890625 C 5.953125 -1.285156 5.703125 -0.804688 5.203125 -0.453125 C 4.703125 -0.109375 4.007812 0.0625 3.125 0.0625 Z M 3.125 0.0625 "/></g></g><g style="fill:#f4f5f0;fill-opacity:1;"><g transform="translate(159.389261, 151.804631)"><path style="stroke:none" d="M 7.25 -3.140625 L 1.515625 -3.140625 C 1.566406 -2.421875 1.835938 -1.84375 2.328125 -1.40625 C 2.828125 -0.96875 3.457031 -0.75 4.21875 -0.75 C 4.644531 -0.75 5.035156 -0.820312 5.390625 -0.96875 C 5.742188 -1.125 6.050781 -1.351562 6.3125 -1.65625 L 6.828125 -1.046875 C 6.523438 -0.679688 6.144531 -0.40625 5.6875 -0.21875 C 5.238281 -0.03125 4.738281 0.0625 4.1875 0.0625 C 3.488281 0.0625 2.867188 -0.0820312 2.328125 -0.375 C 1.785156 -0.675781 1.359375 -1.09375 1.046875 -1.625 C 0.742188 -2.15625 0.59375 -2.753906 0.59375 -3.421875 C 0.59375 -4.085938 0.738281 -4.6875 1.03125 -5.21875 C 1.320312 -5.75 1.722656 -6.160156 2.234375 -6.453125 C 2.742188 -6.742188 3.3125 -6.890625 3.9375 -6.890625 C 4.570312 -6.890625 5.140625 -6.742188 5.640625 -6.453125 C 6.148438 -6.160156 6.546875 -5.75 6.828125 -5.21875 C 7.117188 -4.695312 7.265625 -4.097656 7.265625 -3.421875 Z M 3.9375 -6.109375 C 3.28125 -6.109375 2.726562 -5.894531 2.28125 -5.46875 C 1.832031 -5.050781 1.578125 -4.503906 1.515625 -3.828125 L 6.375 -3.828125 C 6.3125 -4.503906 6.054688 -5.050781 5.609375 -5.46875 C 5.171875 -5.894531 4.613281 -6.109375 3.9375 -6.109375 Z M 3.9375 -6.109375 "/></g></g><g style="fill:#f4f5f0;fill-opacity:1;"><g transform="translate(167.250102, 151.804631)"><path style="stroke:none" d="M 1.28125 -6.84375 L 2.21875 -6.84375 L 2.21875 0 L 1.28125 0 Z M 1.75 -8.34375 C 1.5625 -8.34375 1.398438 -8.40625 1.265625 -8.53125 C 1.140625 -8.664062 1.078125 -8.820312 1.078125 -9 C 1.078125 -9.175781 1.140625 -9.328125 1.265625 -9.453125 C 1.398438 -9.585938 1.5625 -9.65625 1.75 -9.65625 C 1.9375 -9.65625 2.09375 -9.59375 2.21875 -9.46875 C 2.351562 -9.34375 2.421875 -9.191406 2.421875 -9.015625 C 2.421875 -8.828125 2.351562 -8.664062 2.21875 -8.53125 C 2.09375 -8.40625 1.9375 -8.34375 1.75 -8.34375 Z M 1.75 -8.34375 "/></g></g><g style="fill:#f4f5f0;fill-opacity:1;"><g transform="translate(170.75104, 151.804631)"><path style="stroke:none" d="M 4.09375 0.0625 C 3.425781 0.0625 2.828125 -0.0820312 2.296875 -0.375 C 1.773438 -0.675781 1.359375 -1.09375 1.046875 -1.625 C 0.742188 -2.15625 0.59375 -2.753906 0.59375 -3.421875 C 0.59375 -4.085938 0.742188 -4.6875 1.046875 -5.21875 C 1.359375 -5.75 1.773438 -6.160156 2.296875 -6.453125 C 2.828125 -6.742188 3.425781 -6.890625 4.09375 -6.890625 C 4.75 -6.890625 5.335938 -6.742188 5.859375 -6.453125 C 6.390625 -6.160156 6.804688 -5.75 7.109375 -5.21875 C 7.410156 -4.6875 7.5625 -4.085938 7.5625 -3.421875 C 7.5625 -2.753906 7.410156 -2.15625 7.109375 -1.625 C 6.804688 -1.09375 6.390625 -0.675781 5.859375 -0.375 C 5.335938 -0.0820312 4.75 0.0625 4.09375 0.0625 Z M 4.09375 -0.75 C 4.570312 -0.75 5.003906 -0.859375 5.390625 -1.078125 C 5.773438 -1.304688 6.078125 -1.625 6.296875 -2.03125 C 6.515625 -2.4375 6.625 -2.898438 6.625 -3.421875 C 6.625 -3.941406 6.515625 -4.40625 6.296875 -4.8125 C 6.078125 -5.21875 5.773438 -5.53125 5.390625 -5.75 C 5.003906 -5.976562 4.570312 -6.09375 4.09375 -6.09375 C 3.601562 -6.09375 3.164062 -5.976562 2.78125 -5.75 C 2.394531 -5.53125 2.085938 -5.21875 1.859375 -4.8125 C 1.640625 -4.40625 1.53125 -3.941406 1.53125 -3.421875 C 1.53125 -2.898438 1.640625 -2.4375 1.859375 -2.03125 C 2.085938 -1.625 2.394531 -1.304688 2.78125 -1.078125 C 3.164062 -0.859375 3.601562 -0.75 4.09375 -0.75 Z M 4.09375 -0.75 "/></g></g><g style="fill:#f4f5f0;fill-opacity:1;"><g transform="translate(178.715946, 151.804631)"><path style="stroke:none" d="M 1.375 0.0625 C 1.1875 0.0625 1.023438 -0.00390625 0.890625 -0.140625 C 0.753906 -0.273438 0.6875 -0.445312 0.6875 -0.65625 C 0.6875 -0.851562 0.753906 -1.019531 0.890625 -1.15625 C 1.023438 -1.289062 1.1875 -1.359375 1.375 -1.359375 C 1.570312 -1.359375 1.738281 -1.289062 1.875 -1.15625 C 2.007812 -1.019531 2.078125 -0.851562 2.078125 -0.65625 C 2.078125 -0.445312 2.007812 -0.273438 1.875 -0.140625 C 1.738281 -0.00390625 1.570312 0.0625 1.375 0.0625 Z M 1.375 0.0625 "/></g></g><g style="fill:#f4f5f0;fill-opacity:1;"><g transform="translate(181.475047, 151.804631)"><path style="stroke:none" d=""/></g></g><g style="fill:#f4f5f0;fill-opacity:1;"><g transform="translate(184.884885, 151.804631)"><path style="stroke:none" d="M 5.15625 0.078125 C 3.976562 0.078125 3.054688 -0.257812 2.390625 -0.9375 C 1.734375 -1.613281 1.40625 -2.597656 1.40625 -3.890625 L 1.40625 -9.109375 L 2.375 -9.109375 L 2.375 -3.9375 C 2.375 -2.875 2.609375 -2.082031 3.078125 -1.5625 C 3.554688 -1.039062 4.25 -0.78125 5.15625 -0.78125 C 6.0625 -0.78125 6.753906 -1.039062 7.234375 -1.5625 C 7.710938 -2.082031 7.953125 -2.875 7.953125 -3.9375 L 7.953125 -9.109375 L 8.890625 -9.109375 L 8.890625 -3.890625 C 8.890625 -2.597656 8.5625 -1.613281 7.90625 -0.9375 C 7.25 -0.257812 6.332031 0.078125 5.15625 0.078125 Z M 5.15625 0.078125 "/></g></g><g style="fill:#f4f5f0;fill-opacity:1;"><g transform="translate(195.192482, 151.804631)"><path style="stroke:none" d="M 9.828125 -6.890625 C 10.679688 -6.890625 11.351562 -6.644531 11.84375 -6.15625 C 12.34375 -5.664062 12.59375 -4.9375 12.59375 -3.96875 L 12.59375 0 L 11.65625 0 L 11.65625 -3.875 C 11.65625 -4.59375 11.484375 -5.132812 11.140625 -5.5 C 10.804688 -5.875 10.328125 -6.0625 9.703125 -6.0625 C 8.984375 -6.0625 8.421875 -5.84375 8.015625 -5.40625 C 7.609375 -4.96875 7.40625 -4.363281 7.40625 -3.59375 L 7.40625 0 L 6.484375 0 L 6.484375 -3.875 C 6.484375 -4.59375 6.3125 -5.132812 5.96875 -5.5 C 5.625 -5.875 5.132812 -6.0625 4.5 -6.0625 C 3.800781 -6.0625 3.242188 -5.84375 2.828125 -5.40625 C 2.421875 -4.96875 2.21875 -4.363281 2.21875 -3.59375 L 2.21875 0 L 1.28125 0 L 1.28125 -6.84375 L 2.171875 -6.84375 L 2.171875 -5.59375 C 2.410156 -6.007812 2.75 -6.328125 3.1875 -6.546875 C 3.625 -6.773438 4.125 -6.890625 4.6875 -6.890625 C 5.257812 -6.890625 5.753906 -6.769531 6.171875 -6.53125 C 6.597656 -6.289062 6.914062 -5.929688 7.125 -5.453125 C 7.375 -5.898438 7.734375 -6.25 8.203125 -6.5 C 8.679688 -6.757812 9.222656 -6.890625 9.828125 -6.890625 Z M 9.828125 -6.890625 "/></g></g><g style="fill:#f4f5f0;fill-opacity:1;"><g transform="translate(43.219436, 169.972695)"><path style="stroke:none" d="M 9.828125 -6.890625 C 10.679688 -6.890625 11.351562 -6.644531 11.84375 -6.15625 C 12.34375 -5.664062 12.59375 -4.9375 12.59375 -3.96875 L 12.59375 0 L 11.65625 0 L 11.65625 -3.875 C 11.65625 -4.59375 11.484375 -5.132812 11.140625 -5.5 C 10.804688 -5.875 10.328125 -6.0625 9.703125 -6.0625 C 8.984375 -6.0625 8.421875 -5.84375 8.015625 -5.40625 C 7.609375 -4.96875 7.40625 -4.363281 7.40625 -3.59375 L 7.40625 0 L 6.484375 0 L 6.484375 -3.875 C 6.484375 -4.59375 6.3125 -5.132812 5.96875 -5.5 C 5.625 -5.875 5.132812 -6.0625 4.5 -6.0625 C 3.800781 -6.0625 3.242188 -5.84375 2.828125 -5.40625 C 2.421875 -4.96875 2.21875 -4.363281 2.21875 -3.59375 L 2.21875 0 L 1.28125 0 L 1.28125 -6.84375 L 2.171875 -6.84375 L 2.171875 -5.59375 C 2.410156 -6.007812 2.75 -6.328125 3.1875 -6.546875 C 3.625 -6.773438 4.125 -6.890625 4.6875 -6.890625 C 5.257812 -6.890625 5.753906 -6.769531 6.171875 -6.53125 C 6.597656 -6.289062 6.914062 -5.929688 7.125 -5.453125 C 7.375 -5.898438 7.734375 -6.25 8.203125 -6.5 C 8.679688 -6.757812 9.222656 -6.890625 9.828125 -6.890625 Z M 9.828125 -6.890625 "/></g></g><g style="fill:#f4f5f0;fill-opacity:1;"><g transform="translate(57.054008, 169.972695)"><path style="stroke:none" d="M 4.09375 0.0625 C 3.425781 0.0625 2.828125 -0.0820312 2.296875 -0.375 C 1.773438 -0.675781 1.359375 -1.09375 1.046875 -1.625 C 0.742188 -2.15625 0.59375 -2.753906 0.59375 -3.421875 C 0.59375 -4.085938 0.742188 -4.6875 1.046875 -5.21875 C 1.359375 -5.75 1.773438 -6.160156 2.296875 -6.453125 C 2.828125 -6.742188 3.425781 -6.890625 4.09375 -6.890625 C 4.75 -6.890625 5.335938 -6.742188 5.859375 -6.453125 C 6.390625 -6.160156 6.804688 -5.75 7.109375 -5.21875 C 7.410156 -4.6875 7.5625 -4.085938 7.5625 -3.421875 C 7.5625 -2.753906 7.410156 -2.15625 7.109375 -1.625 C 6.804688 -1.09375 6.390625 -0.675781 5.859375 -0.375 C 5.335938 -0.0820312 4.75 0.0625 4.09375 0.0625 Z M 4.09375 -0.75 C 4.570312 -0.75 5.003906 -0.859375 5.390625 -1.078125 C 5.773438 -1.304688 6.078125 -1.625 6.296875 -2.03125 C 6.515625 -2.4375 6.625 -2.898438 6.625 -3.421875 C 6.625 -3.941406 6.515625 -4.40625 6.296875 -4.8125 C 6.078125 -5.21875 5.773438 -5.53125 5.390625 -5.75 C 5.003906 -5.976562 4.570312 -6.09375 4.09375 -6.09375 C 3.601562 -6.09375 3.164062 -5.976562 2.78125 -5.75 C 2.394531 -5.53125 2.085938 -5.21875 1.859375 -4.8125 C 1.640625 -4.40625 1.53125 -3.941406 1.53125 -3.421875 C 1.53125 -2.898438 1.640625 -2.4375 1.859375 -2.03125 C 2.085938 -1.625 2.394531 -1.304688 2.78125 -1.078125 C 3.164062 -0.859375 3.601562 -0.75 4.09375 -0.75 Z M 4.09375 -0.75 "/></g></g><g style="fill:#f4f5f0;fill-opacity:1;"><g transform="translate(65.214185, 169.972695)"><path style="stroke:none" d="M 9.828125 -6.890625 C 10.679688 -6.890625 11.351562 -6.644531 11.84375 -6.15625 C 12.34375 -5.664062 12.59375 -4.9375 12.59375 -3.96875 L 12.59375 0 L 11.65625 0 L 11.65625 -3.875 C 11.65625 -4.59375 11.484375 -5.132812 11.140625 -5.5 C 10.804688 -5.875 10.328125 -6.0625 9.703125 -6.0625 C 8.984375 -6.0625 8.421875 -5.84375 8.015625 -5.40625 C 7.609375 -4.96875 7.40625 -4.363281 7.40625 -3.59375 L 7.40625 0 L 6.484375 0 L 6.484375 -3.875 C 6.484375 -4.59375 6.3125 -5.132812 5.96875 -5.5 C 5.625 -5.875 5.132812 -6.0625 4.5 -6.0625 C 3.800781 -6.0625 3.242188 -5.84375 2.828125 -5.40625 C 2.421875 -4.96875 2.21875 -4.363281 2.21875 -3.59375 L 2.21875 0 L 1.28125 0 L 1.28125 -6.84375 L 2.171875 -6.84375 L 2.171875 -5.59375 C 2.410156 -6.007812 2.75 -6.328125 3.1875 -6.546875 C 3.625 -6.773438 4.125 -6.890625 4.6875 -6.890625 C 5.257812 -6.890625 5.753906 -6.769531 6.171875 -6.53125 C 6.597656 -6.289062 6.914062 -5.929688 7.125 -5.453125 C 7.375 -5.898438 7.734375 -6.25 8.203125 -6.5 C 8.679688 -6.757812 9.222656 -6.890625 9.828125 -6.890625 Z M 9.828125 -6.890625 "/></g></g><g style="fill:#f4f5f0;fill-opacity:1;"><g transform="translate(79.048758, 169.972695)"><path style="stroke:none" d="M 7.25 -3.140625 L 1.515625 -3.140625 C 1.566406 -2.421875 1.835938 -1.84375 2.328125 -1.40625 C 2.828125 -0.96875 3.457031 -0.75 4.21875 -0.75 C 4.644531 -0.75 5.035156 -0.820312 5.390625 -0.96875 C 5.742188 -1.125 6.050781 -1.351562 6.3125 -1.65625 L 6.828125 -1.046875 C 6.523438 -0.679688 6.144531 -0.40625 5.6875 -0.21875 C 5.238281 -0.03125 4.738281 0.0625 4.1875 0.0625 C 3.488281 0.0625 2.867188 -0.0820312 2.328125 -0.375 C 1.785156 -0.675781 1.359375 -1.09375 1.046875 -1.625 C 0.742188 -2.15625 0.59375 -2.753906 0.59375 -3.421875 C 0.59375 -4.085938 0.738281 -4.6875 1.03125 -5.21875 C 1.320312 -5.75 1.722656 -6.160156 2.234375 -6.453125 C 2.742188 -6.742188 3.3125 -6.890625 3.9375 -6.890625 C 4.570312 -6.890625 5.140625 -6.742188 5.640625 -6.453125 C 6.148438 -6.160156 6.546875 -5.75 6.828125 -5.21875 C 7.117188 -4.695312 7.265625 -4.097656 7.265625 -3.421875 Z M 3.9375 -6.109375 C 3.28125 -6.109375 2.726562 -5.894531 2.28125 -5.46875 C 1.832031 -5.050781 1.578125 -4.503906 1.515625 -3.828125 L 6.375 -3.828125 C 6.3125 -4.503906 6.054688 -5.050781 5.609375 -5.46875 C 5.171875 -5.894531 4.613281 -6.109375 3.9375 -6.109375 Z M 3.9375 -6.109375 "/></g></g><g style="fill:#f4f5f0;fill-opacity:1;"><g transform="translate(86.909599, 169.972695)"><path style="stroke:none" d="M 4.78125 -6.890625 C 5.632812 -6.890625 6.316406 -6.640625 6.828125 -6.140625 C 7.335938 -5.648438 7.59375 -4.925781 7.59375 -3.96875 L 7.59375 0 L 6.65625 0 L 6.65625 -3.875 C 6.65625 -4.59375 6.476562 -5.132812 6.125 -5.5 C 5.769531 -5.875 5.265625 -6.0625 4.609375 -6.0625 C 3.867188 -6.0625 3.285156 -5.84375 2.859375 -5.40625 C 2.429688 -4.96875 2.21875 -4.363281 2.21875 -3.59375 L 2.21875 0 L 1.28125 0 L 1.28125 -6.84375 L 2.171875 -6.84375 L 2.171875 -5.578125 C 2.421875 -5.992188 2.769531 -6.316406 3.21875 -6.546875 C 3.664062 -6.773438 4.1875 -6.890625 4.78125 -6.890625 Z M 4.78125 -6.890625 "/></g></g><g style="fill:#f4f5f0;fill-opacity:1;"><g transform="translate(95.720513, 169.972695)"><path style="stroke:none" d="M 4.890625 -0.421875 C 4.722656 -0.265625 4.507812 -0.144531 4.25 -0.0625 C 3.988281 0.0195312 3.722656 0.0625 3.453125 0.0625 C 2.804688 0.0625 2.304688 -0.109375 1.953125 -0.453125 C 1.609375 -0.796875 1.4375 -1.285156 1.4375 -1.921875 L 1.4375 -6.0625 L 0.21875 -6.0625 L 0.21875 -6.84375 L 1.4375 -6.84375 L 1.4375 -8.34375 L 2.375 -8.34375 L 2.375 -6.84375 L 4.453125 -6.84375 L 4.453125 -6.0625 L 2.375 -6.0625 L 2.375 -1.984375 C 2.375 -1.566406 2.472656 -1.253906 2.671875 -1.046875 C 2.878906 -0.835938 3.171875 -0.734375 3.546875 -0.734375 C 3.742188 -0.734375 3.929688 -0.757812 4.109375 -0.8125 C 4.285156 -0.875 4.4375 -0.960938 4.5625 -1.078125 Z M 4.890625 -0.421875 "/></g></g><g style="fill:#f4f5f0;fill-opacity:1;"><g transform="translate(100.757105, 169.972695)"><path style="stroke:none" d="M 4.09375 0.0625 C 3.425781 0.0625 2.828125 -0.0820312 2.296875 -0.375 C 1.773438 -0.675781 1.359375 -1.09375 1.046875 -1.625 C 0.742188 -2.15625 0.59375 -2.753906 0.59375 -3.421875 C 0.59375 -4.085938 0.742188 -4.6875 1.046875 -5.21875 C 1.359375 -5.75 1.773438 -6.160156 2.296875 -6.453125 C 2.828125 -6.742188 3.425781 -6.890625 4.09375 -6.890625 C 4.75 -6.890625 5.335938 -6.742188 5.859375 -6.453125 C 6.390625 -6.160156 6.804688 -5.75 7.109375 -5.21875 C 7.410156 -4.6875 7.5625 -4.085938 7.5625 -3.421875 C 7.5625 -2.753906 7.410156 -2.15625 7.109375 -1.625 C 6.804688 -1.09375 6.390625 -0.675781 5.859375 -0.375 C 5.335938 -0.0820312 4.75 0.0625 4.09375 0.0625 Z M 4.09375 -0.75 C 4.570312 -0.75 5.003906 -0.859375 5.390625 -1.078125 C 5.773438 -1.304688 6.078125 -1.625 6.296875 -2.03125 C 6.515625 -2.4375 6.625 -2.898438 6.625 -3.421875 C 6.625 -3.941406 6.515625 -4.40625 6.296875 -4.8125 C 6.078125 -5.21875 5.773438 -5.53125 5.390625 -5.75 C 5.003906 -5.976562 4.570312 -6.09375 4.09375 -6.09375 C 3.601562 -6.09375 3.164062 -5.976562 2.78125 -5.75 C 2.394531 -5.53125 2.085938 -5.21875 1.859375 -4.8125 C 1.640625 -4.40625 1.53125 -3.941406 1.53125 -3.421875 C 1.53125 -2.898438 1.640625 -2.4375 1.859375 -2.03125 C 2.085938 -1.625 2.394531 -1.304688 2.78125 -1.078125 C 3.164062 -0.859375 3.601562 -0.75 4.09375 -0.75 Z M 4.09375 -0.75 "/></g></g><g style="fill:#f4f5f0;fill-opacity:1;"><g transform="translate(108.917282, 169.972695)"><path style="stroke:none" d=""/></g></g><g style="fill:#f4f5f0;fill-opacity:1;"><g transform="translate(112.327121, 169.972695)"><path style="stroke:none" d="M 4.8125 -6.890625 C 5.457031 -6.890625 6.039062 -6.742188 6.5625 -6.453125 C 7.082031 -6.171875 7.488281 -5.765625 7.78125 -5.234375 C 8.070312 -4.703125 8.21875 -4.097656 8.21875 -3.421875 C 8.21875 -2.734375 8.070312 -2.125 7.78125 -1.59375 C 7.488281 -1.070312 7.082031 -0.664062 6.5625 -0.375 C 6.050781 -0.0820312 5.46875 0.0625 4.8125 0.0625 C 4.257812 0.0625 3.757812 -0.0507812 3.3125 -0.28125 C 2.863281 -0.507812 2.5 -0.84375 2.21875 -1.28125 L 2.21875 2.53125 L 1.28125 2.53125 L 1.28125 -6.84375 L 2.171875 -6.84375 L 2.171875 -5.5 C 2.453125 -5.945312 2.816406 -6.289062 3.265625 -6.53125 C 3.722656 -6.769531 4.238281 -6.890625 4.8125 -6.890625 Z M 4.75 -0.75 C 5.226562 -0.75 5.660156 -0.859375 6.046875 -1.078125 C 6.441406 -1.304688 6.75 -1.625 6.96875 -2.03125 C 7.1875 -2.4375 7.296875 -2.898438 7.296875 -3.421875 C 7.296875 -3.941406 7.1875 -4.40625 6.96875 -4.8125 C 6.75 -5.21875 6.441406 -5.53125 6.046875 -5.75 C 5.660156 -5.976562 5.226562 -6.09375 4.75 -6.09375 C 4.257812 -6.09375 3.820312 -5.976562 3.4375 -5.75 C 3.050781 -5.53125 2.75 -5.21875 2.53125 -4.8125 C 2.3125 -4.40625 2.203125 -3.941406 2.203125 -3.421875 C 2.203125 -2.898438 2.3125 -2.4375 2.53125 -2.03125 C 2.75 -1.625 3.050781 -1.304688 3.4375 -1.078125 C 3.820312 -0.859375 4.257812 -0.75 4.75 -0.75 Z M 4.75 -0.75 "/></g></g><g style="fill:#f4f5f0;fill-opacity:1;"><g transform="translate(121.151044, 169.972695)"><path style="stroke:none" d="M 2.171875 -5.5 C 2.390625 -5.96875 2.710938 -6.316406 3.140625 -6.546875 C 3.566406 -6.773438 4.097656 -6.890625 4.734375 -6.890625 L 4.734375 -6 L 4.515625 -6.015625 C 3.796875 -6.015625 3.234375 -5.789062 2.828125 -5.34375 C 2.421875 -4.90625 2.21875 -4.285156 2.21875 -3.484375 L 2.21875 0 L 1.28125 0 L 1.28125 -6.84375 L 2.171875 -6.84375 Z M 2.171875 -5.5 "/></g></g><g style="fill:#f4f5f0;fill-opacity:1;"><g transform="translate(126.200676, 169.972695)"><path style="stroke:none" d="M 4.09375 0.0625 C 3.425781 0.0625 2.828125 -0.0820312 2.296875 -0.375 C 1.773438 -0.675781 1.359375 -1.09375 1.046875 -1.625 C 0.742188 -2.15625 0.59375 -2.753906 0.59375 -3.421875 C 0.59375 -4.085938 0.742188 -4.6875 1.046875 -5.21875 C 1.359375 -5.75 1.773438 -6.160156 2.296875 -6.453125 C 2.828125 -6.742188 3.425781 -6.890625 4.09375 -6.890625 C 4.75 -6.890625 5.335938 -6.742188 5.859375 -6.453125 C 6.390625 -6.160156 6.804688 -5.75 7.109375 -5.21875 C 7.410156 -4.6875 7.5625 -4.085938 7.5625 -3.421875 C 7.5625 -2.753906 7.410156 -2.15625 7.109375 -1.625 C 6.804688 -1.09375 6.390625 -0.675781 5.859375 -0.375 C 5.335938 -0.0820312 4.75 0.0625 4.09375 0.0625 Z M 4.09375 -0.75 C 4.570312 -0.75 5.003906 -0.859375 5.390625 -1.078125 C 5.773438 -1.304688 6.078125 -1.625 6.296875 -2.03125 C 6.515625 -2.4375 6.625 -2.898438 6.625 -3.421875 C 6.625 -3.941406 6.515625 -4.40625 6.296875 -4.8125 C 6.078125 -5.21875 5.773438 -5.53125 5.390625 -5.75 C 5.003906 -5.976562 4.570312 -6.09375 4.09375 -6.09375 C 3.601562 -6.09375 3.164062 -5.976562 2.78125 -5.75 C 2.394531 -5.53125 2.085938 -5.21875 1.859375 -4.8125 C 1.640625 -4.40625 1.53125 -3.941406 1.53125 -3.421875 C 1.53125 -2.898438 1.640625 -2.4375 1.859375 -2.03125 C 2.085938 -1.625 2.394531 -1.304688 2.78125 -1.078125 C 3.164062 -0.859375 3.601562 -0.75 4.09375 -0.75 Z M 4.09375 -0.75 "/></g></g><g style="fill:#f4f5f0;fill-opacity:1;"><g transform="translate(134.360853, 169.972695)"><path style="stroke:none" d=""/></g></g><g style="fill:#f4f5f0;fill-opacity:1;"><g transform="translate(137.770691, 169.972695)"><path style="stroke:none" d="M 3.125 0.0625 C 2.570312 0.0625 2.039062 -0.015625 1.53125 -0.171875 C 1.019531 -0.335938 0.625 -0.539062 0.34375 -0.78125 L 0.75 -1.515625 C 1.039062 -1.285156 1.398438 -1.097656 1.828125 -0.953125 C 2.265625 -0.804688 2.71875 -0.734375 3.1875 -0.734375 C 3.8125 -0.734375 4.273438 -0.832031 4.578125 -1.03125 C 4.878906 -1.226562 5.03125 -1.503906 5.03125 -1.859375 C 5.03125 -2.109375 4.945312 -2.304688 4.78125 -2.453125 C 4.613281 -2.597656 4.40625 -2.707031 4.15625 -2.78125 C 3.90625 -2.851562 3.570312 -2.925781 3.15625 -3 C 2.59375 -3.101562 2.140625 -3.207031 1.796875 -3.3125 C 1.460938 -3.414062 1.175781 -3.597656 0.9375 -3.859375 C 0.695312 -4.117188 0.578125 -4.484375 0.578125 -4.953125 C 0.578125 -5.523438 0.816406 -5.988281 1.296875 -6.34375 C 1.773438 -6.707031 2.441406 -6.890625 3.296875 -6.890625 C 3.734375 -6.890625 4.171875 -6.832031 4.609375 -6.71875 C 5.054688 -6.601562 5.425781 -6.453125 5.71875 -6.265625 L 5.3125 -5.515625 C 4.75 -5.910156 4.078125 -6.109375 3.296875 -6.109375 C 2.703125 -6.109375 2.253906 -6.003906 1.953125 -5.796875 C 1.660156 -5.585938 1.515625 -5.3125 1.515625 -4.96875 C 1.515625 -4.707031 1.597656 -4.5 1.765625 -4.34375 C 1.929688 -4.1875 2.140625 -4.070312 2.390625 -4 C 2.640625 -3.925781 2.988281 -3.851562 3.4375 -3.78125 C 3.976562 -3.675781 4.414062 -3.570312 4.75 -3.46875 C 5.082031 -3.363281 5.363281 -3.179688 5.59375 -2.921875 C 5.832031 -2.671875 5.953125 -2.328125 5.953125 -1.890625 C 5.953125 -1.285156 5.703125 -0.804688 5.203125 -0.453125 C 4.703125 -0.109375 4.007812 0.0625 3.125 0.0625 Z M 3.125 0.0625 "/></g></g><g style="fill:#f4f5f0;fill-opacity:1;"><g transform="translate(144.134849, 169.972695)"><path style="stroke:none" d="M 7.25 -3.140625 L 1.515625 -3.140625 C 1.566406 -2.421875 1.835938 -1.84375 2.328125 -1.40625 C 2.828125 -0.96875 3.457031 -0.75 4.21875 -0.75 C 4.644531 -0.75 5.035156 -0.820312 5.390625 -0.96875 C 5.742188 -1.125 6.050781 -1.351562 6.3125 -1.65625 L 6.828125 -1.046875 C 6.523438 -0.679688 6.144531 -0.40625 5.6875 -0.21875 C 5.238281 -0.03125 4.738281 0.0625 4.1875 0.0625 C 3.488281 0.0625 2.867188 -0.0820312 2.328125 -0.375 C 1.785156 -0.675781 1.359375 -1.09375 1.046875 -1.625 C 0.742188 -2.15625 0.59375 -2.753906 0.59375 -3.421875 C 0.59375 -4.085938 0.738281 -4.6875 1.03125 -5.21875 C 1.320312 -5.75 1.722656 -6.160156 2.234375 -6.453125 C 2.742188 -6.742188 3.3125 -6.890625 3.9375 -6.890625 C 4.570312 -6.890625 5.140625 -6.742188 5.640625 -6.453125 C 6.148438 -6.160156 6.546875 -5.75 6.828125 -5.21875 C 7.117188 -4.695312 7.265625 -4.097656 7.265625 -3.421875 Z M 3.9375 -6.109375 C 3.28125 -6.109375 2.726562 -5.894531 2.28125 -5.46875 C 1.832031 -5.050781 1.578125 -4.503906 1.515625 -3.828125 L 6.375 -3.828125 C 6.3125 -4.503906 6.054688 -5.050781 5.609375 -5.46875 C 5.171875 -5.894531 4.613281 -6.109375 3.9375 -6.109375 Z M 3.9375 -6.109375 "/></g></g><g style="fill:#f4f5f0;fill-opacity:1;"><g transform="translate(151.99569, 169.972695)"><path style="stroke:none" d="M 7.453125 -6.84375 L 7.453125 0 L 6.578125 0 L 6.578125 -1.25 C 6.328125 -0.832031 5.988281 -0.507812 5.5625 -0.28125 C 5.144531 -0.0507812 4.660156 0.0625 4.109375 0.0625 C 3.210938 0.0625 2.503906 -0.1875 1.984375 -0.6875 C 1.472656 -1.1875 1.21875 -1.914062 1.21875 -2.875 L 1.21875 -6.84375 L 2.140625 -6.84375 L 2.140625 -2.96875 C 2.140625 -2.25 2.316406 -1.703125 2.671875 -1.328125 C 3.035156 -0.953125 3.546875 -0.765625 4.203125 -0.765625 C 4.921875 -0.765625 5.488281 -0.984375 5.90625 -1.421875 C 6.320312 -1.859375 6.53125 -2.46875 6.53125 -3.25 L 6.53125 -6.84375 Z M 7.453125 -6.84375 "/></g></g><g style="fill:#f4f5f0;fill-opacity:1;"><g transform="translate(160.75454, 169.972695)"><path style="stroke:none" d=""/></g></g><g style="fill:#f4f5f0;fill-opacity:1;"><g transform="translate(164.164379, 169.972695)"><path style="stroke:none" d="M 4.125 0.0625 C 3.445312 0.0625 2.84375 -0.0820312 2.3125 -0.375 C 1.78125 -0.664062 1.359375 -1.078125 1.046875 -1.609375 C 0.742188 -2.148438 0.59375 -2.753906 0.59375 -3.421875 C 0.59375 -4.085938 0.742188 -4.6875 1.046875 -5.21875 C 1.359375 -5.75 1.78125 -6.160156 2.3125 -6.453125 C 2.84375 -6.742188 3.445312 -6.890625 4.125 -6.890625 C 4.71875 -6.890625 5.242188 -6.773438 5.703125 -6.546875 C 6.171875 -6.316406 6.539062 -5.984375 6.8125 -5.546875 L 6.125 -5.078125 C 5.894531 -5.410156 5.601562 -5.660156 5.25 -5.828125 C 4.90625 -6.003906 4.53125 -6.09375 4.125 -6.09375 C 3.632812 -6.09375 3.191406 -5.976562 2.796875 -5.75 C 2.398438 -5.53125 2.085938 -5.21875 1.859375 -4.8125 C 1.640625 -4.40625 1.53125 -3.941406 1.53125 -3.421875 C 1.53125 -2.890625 1.640625 -2.421875 1.859375 -2.015625 C 2.085938 -1.617188 2.398438 -1.304688 2.796875 -1.078125 C 3.191406 -0.859375 3.632812 -0.75 4.125 -0.75 C 4.53125 -0.75 4.90625 -0.832031 5.25 -1 C 5.601562 -1.164062 5.894531 -1.414062 6.125 -1.75 L 6.8125 -1.28125 C 6.539062 -0.84375 6.171875 -0.507812 5.703125 -0.28125 C 5.234375 -0.0507812 4.707031 0.0625 4.125 0.0625 Z M 4.125 0.0625 "/></g></g><g style="fill:#f4f5f0;fill-opacity:1;"><g transform="translate(171.491619, 169.972695)"><path style="stroke:none" d="M 3.6875 -6.890625 C 4.582031 -6.890625 5.265625 -6.664062 5.734375 -6.21875 C 6.210938 -5.78125 6.453125 -5.125 6.453125 -4.25 L 6.453125 0 L 5.578125 0 L 5.578125 -1.0625 C 5.367188 -0.707031 5.0625 -0.429688 4.65625 -0.234375 C 4.25 -0.0351562 3.769531 0.0625 3.21875 0.0625 C 2.445312 0.0625 1.835938 -0.117188 1.390625 -0.484375 C 0.941406 -0.847656 0.71875 -1.328125 0.71875 -1.921875 C 0.71875 -2.503906 0.925781 -2.972656 1.34375 -3.328125 C 1.769531 -3.679688 2.441406 -3.859375 3.359375 -3.859375 L 5.53125 -3.859375 L 5.53125 -4.28125 C 5.53125 -4.875 5.363281 -5.320312 5.03125 -5.625 C 4.707031 -5.9375 4.226562 -6.09375 3.59375 -6.09375 C 3.15625 -6.09375 2.738281 -6.019531 2.34375 -5.875 C 1.945312 -5.726562 1.601562 -5.53125 1.3125 -5.28125 L 0.890625 -5.96875 C 1.242188 -6.269531 1.660156 -6.5 2.140625 -6.65625 C 2.628906 -6.8125 3.144531 -6.890625 3.6875 -6.890625 Z M 3.359375 -0.65625 C 3.878906 -0.65625 4.328125 -0.773438 4.703125 -1.015625 C 5.078125 -1.253906 5.351562 -1.601562 5.53125 -2.0625 L 5.53125 -3.171875 L 3.390625 -3.171875 C 2.210938 -3.171875 1.625 -2.765625 1.625 -1.953125 C 1.625 -1.554688 1.773438 -1.238281 2.078125 -1 C 2.378906 -0.769531 2.804688 -0.65625 3.359375 -0.65625 Z M 4.59375 -8 C 4.394531 -8 4.21875 -8.039062 4.0625 -8.125 C 3.90625 -8.21875 3.734375 -8.347656 3.546875 -8.515625 C 3.390625 -8.640625 3.265625 -8.726562 3.171875 -8.78125 C 3.085938 -8.84375 2.992188 -8.875 2.890625 -8.875 C 2.679688 -8.875 2.515625 -8.800781 2.390625 -8.65625 C 2.273438 -8.507812 2.210938 -8.304688 2.203125 -8.046875 L 1.640625 -8.046875 C 1.660156 -8.484375 1.773438 -8.832031 1.984375 -9.09375 C 2.191406 -9.351562 2.46875 -9.484375 2.8125 -9.484375 C 3.019531 -9.484375 3.195312 -9.4375 3.34375 -9.34375 C 3.5 -9.257812 3.675781 -9.128906 3.875 -8.953125 C 4.007812 -8.835938 4.125 -8.75 4.21875 -8.6875 C 4.320312 -8.625 4.425781 -8.59375 4.53125 -8.59375 C 4.71875 -8.59375 4.867188 -8.660156 4.984375 -8.796875 C 5.109375 -8.941406 5.179688 -9.144531 5.203125 -9.40625 L 5.765625 -9.40625 C 5.742188 -8.976562 5.628906 -8.632812 5.421875 -8.375 C 5.210938 -8.125 4.9375 -8 4.59375 -8 Z M 4.59375 -8 "/></g></g><g style="fill:#f4f5f0;fill-opacity:1;"><g transform="translate(179.196298, 169.972695)"><path style="stroke:none" d="M 4.09375 0.0625 C 3.425781 0.0625 2.828125 -0.0820312 2.296875 -0.375 C 1.773438 -0.675781 1.359375 -1.09375 1.046875 -1.625 C 0.742188 -2.15625 0.59375 -2.753906 0.59375 -3.421875 C 0.59375 -4.085938 0.742188 -4.6875 1.046875 -5.21875 C 1.359375 -5.75 1.773438 -6.160156 2.296875 -6.453125 C 2.828125 -6.742188 3.425781 -6.890625 4.09375 -6.890625 C 4.75 -6.890625 5.335938 -6.742188 5.859375 -6.453125 C 6.390625 -6.160156 6.804688 -5.75 7.109375 -5.21875 C 7.410156 -4.6875 7.5625 -4.085938 7.5625 -3.421875 C 7.5625 -2.753906 7.410156 -2.15625 7.109375 -1.625 C 6.804688 -1.09375 6.390625 -0.675781 5.859375 -0.375 C 5.335938 -0.0820312 4.75 0.0625 4.09375 0.0625 Z M 4.09375 -0.75 C 4.570312 -0.75 5.003906 -0.859375 5.390625 -1.078125 C 5.773438 -1.304688 6.078125 -1.625 6.296875 -2.03125 C 6.515625 -2.4375 6.625 -2.898438 6.625 -3.421875 C 6.625 -3.941406 6.515625 -4.40625 6.296875 -4.8125 C 6.078125 -5.21875 5.773438 -5.53125 5.390625 -5.75 C 5.003906 -5.976562 4.570312 -6.09375 4.09375 -6.09375 C 3.601562 -6.09375 3.164062 -5.976562 2.78125 -5.75 C 2.394531 -5.53125 2.085938 -5.21875 1.859375 -4.8125 C 1.640625 -4.40625 1.53125 -3.941406 1.53125 -3.421875 C 1.53125 -2.898438 1.640625 -2.4375 1.859375 -2.03125 C 2.085938 -1.625 2.394531 -1.304688 2.78125 -1.078125 C 3.164062 -0.859375 3.601562 -0.75 4.09375 -0.75 Z M 4.09375 -0.75 "/></g></g></g></svg>