<svg xmlns="http://www.w3.org/2000/svg" xmlns:xlink="http://www.w3.org/1999/xlink" width="500" zoomAndPan="magnify" viewBox="0 0 375 374.999991" height="500" preserveAspectRatio="xMidYMid meet" version="1.2"><defs><clipPath id="487ca406fd"><path d="M 60.386719 83.175781 L 239.613281 83.175781 L 239.613281 224.925781 L 60.386719 224.925781 Z M 60.386719 83.175781 "/></clipPath><clipPath id="5709ca6b49"><path d="M 224 113 L 245 113 L 245 131 L 224 131 Z M 224 113 "/></clipPath><clipPath id="156f5db935"><path d="M 229.058594 98.253906 L 314.472656 145.273438 L 250.089844 262.222656 L 164.675781 215.203125 Z M 229.058594 98.253906 "/></clipPath><clipPath id="e57760857b"><path d="M 229.058594 98.253906 L 314.472656 145.273438 L 250.089844 262.222656 L 164.675781 215.203125 Z M 229.058594 98.253906 "/></clipPath><clipPath id="559f89d5ca"><path d="M 224 106 L 231 106 L 231 114 L 224 114 Z M 224 106 "/></clipPath><clipPath id="b40474f479"><path d="M 229.058594 98.253906 L 314.472656 145.273438 L 250.089844 262.222656 L 164.675781 215.203125 Z M 229.058594 98.253906 "/></clipPath><clipPath id="bcddf18849"><path d="M 229.058594 98.253906 L 314.472656 145.273438 L 250.089844 262.222656 L 164.675781 215.203125 Z M 229.058594 98.253906 "/></clipPath><clipPath id="e343922451"><path d="M 232 104 L 239 104 L 239 111 L 232 111 Z M 232 104 "/></clipPath><clipPath id="2bac9203a4"><path d="M 229.058594 98.253906 L 314.472656 145.273438 L 250.089844 262.222656 L 164.675781 215.203125 Z M 229.058594 98.253906 "/></clipPath><clipPath id="8767db7fa3"><path d="M 229.058594 98.253906 L 314.472656 145.273438 L 250.089844 262.222656 L 164.675781 215.203125 Z M 229.058594 98.253906 "/></clipPath><clipPath id="8852dd8125"><path d="M 244 113 L 251 113 L 251 120 L 244 120 Z M 244 113 "/></clipPath><clipPath id="8efdf781f2"><path d="M 229.058594 98.253906 L 314.472656 145.273438 L 250.089844 262.222656 L 164.675781 215.203125 Z M 229.058594 98.253906 "/></clipPath><clipPath id="73d0787384"><path d="M 229.058594 98.253906 L 314.472656 145.273438 L 250.089844 262.222656 L 164.675781 215.203125 Z M 229.058594 98.253906 "/></clipPath><clipPath id="8ebf39eb11"><path d="M 239 106 L 246 106 L 246 114 L 239 114 Z M 239 106 "/></clipPath><clipPath id="621fe8ff2f"><path d="M 229.058594 98.253906 L 314.472656 145.273438 L 250.089844 262.222656 L 164.675781 215.203125 Z M 229.058594 98.253906 "/></clipPath><clipPath id="b6d07a3ba5"><path d="M 229.058594 98.253906 L 314.472656 145.273438 L 250.089844 262.222656 L 164.675781 215.203125 Z M 229.058594 98.253906 "/></clipPath><clipPath id="eb28472d38"><path d="M 255 151 L 277 151 L 277 170 L 255 170 Z M 255 151 "/></clipPath><clipPath id="58cc0ca69b"><path d="M 229.058594 98.253906 L 314.472656 145.273438 L 250.089844 262.222656 L 164.675781 215.203125 Z M 229.058594 98.253906 "/></clipPath><clipPath id="18b464e9c2"><path d="M 229.058594 98.253906 L 314.472656 145.273438 L 250.089844 262.222656 L 164.675781 215.203125 Z M 229.058594 98.253906 "/></clipPath><clipPath id="def1d4bb16"><path d="M 255 143 L 263 143 L 263 152 L 255 152 Z M 255 143 "/></clipPath><clipPath id="f65b99eac3"><path d="M 229.058594 98.253906 L 314.472656 145.273438 L 250.089844 262.222656 L 164.675781 215.203125 Z M 229.058594 98.253906 "/></clipPath><clipPath id="347d00ea74"><path d="M 229.058594 98.253906 L 314.472656 145.273438 L 250.089844 262.222656 L 164.675781 215.203125 Z M 229.058594 98.253906 "/></clipPath><clipPath id="5c148eceab"><path d="M 262 140 L 271 140 L 271 150 L 262 150 Z M 262 140 "/></clipPath><clipPath id="c9779bc077"><path d="M 229.058594 98.253906 L 314.472656 145.273438 L 250.089844 262.222656 L 164.675781 215.203125 Z M 229.058594 98.253906 "/></clipPath><clipPath id="68e4dadd00"><path d="M 229.058594 98.253906 L 314.472656 145.273438 L 250.089844 262.222656 L 164.675781 215.203125 Z M 229.058594 98.253906 "/></clipPath><clipPath id="8fc9d9f7b6"><path d="M 275 149 L 283 149 L 283 158 L 275 158 Z M 275 149 "/></clipPath><clipPath id="5759c49d3b"><path d="M 229.058594 98.253906 L 314.472656 145.273438 L 250.089844 262.222656 L 164.675781 215.203125 Z M 229.058594 98.253906 "/></clipPath><clipPath id="113c8b8d13"><path d="M 229.058594 98.253906 L 314.472656 145.273438 L 250.089844 262.222656 L 164.675781 215.203125 Z M 229.058594 98.253906 "/></clipPath><clipPath id="23a7b0a525"><path d="M 270 143 L 279 143 L 279 152 L 270 152 Z M 270 143 "/></clipPath><clipPath id="cdbb633722"><path d="M 229.058594 98.253906 L 314.472656 145.273438 L 250.089844 262.222656 L 164.675781 215.203125 Z M 229.058594 98.253906 "/></clipPath><clipPath id="2b45343d2e"><path d="M 229.058594 98.253906 L 314.472656 145.273438 L 250.089844 262.222656 L 164.675781 215.203125 Z M 229.058594 98.253906 "/></clipPath><clipPath id="d1e52ac3b4"><path d="M 211 170 L 232 170 L 232 188 L 211 188 Z M 211 170 "/></clipPath><clipPath id="ed3a24c820"><path d="M 229.058594 98.253906 L 314.472656 145.273438 L 250.089844 262.222656 L 164.675781 215.203125 Z M 229.058594 98.253906 "/></clipPath><clipPath id="3306ec8a2b"><path d="M 229.058594 98.253906 L 314.472656 145.273438 L 250.089844 262.222656 L 164.675781 215.203125 Z M 229.058594 98.253906 "/></clipPath><clipPath id="4f5160c615"><path d="M 211 163 L 218 163 L 218 171 L 211 171 Z M 211 163 "/></clipPath><clipPath id="3094247dd1"><path d="M 229.058594 98.253906 L 314.472656 145.273438 L 250.089844 262.222656 L 164.675781 215.203125 Z M 229.058594 98.253906 "/></clipPath><clipPath id="da716ddead"><path d="M 229.058594 98.253906 L 314.472656 145.273438 L 250.089844 262.222656 L 164.675781 215.203125 Z M 229.058594 98.253906 "/></clipPath><clipPath id="f179281ef9"><path d="M 219 161 L 226 161 L 226 169 L 219 169 Z M 219 161 "/></clipPath><clipPath id="379c9f64c3"><path d="M 229.058594 98.253906 L 314.472656 145.273438 L 250.089844 262.222656 L 164.675781 215.203125 Z M 229.058594 98.253906 "/></clipPath><clipPath id="b11356993f"><path d="M 229.058594 98.253906 L 314.472656 145.273438 L 250.089844 262.222656 L 164.675781 215.203125 Z M 229.058594 98.253906 "/></clipPath><clipPath id="82b1f19685"><path d="M 231 170 L 239 170 L 239 177 L 231 177 Z M 231 170 "/></clipPath><clipPath id="3813609359"><path d="M 229.058594 98.253906 L 314.472656 145.273438 L 250.089844 262.222656 L 164.675781 215.203125 Z M 229.058594 98.253906 "/></clipPath><clipPath id="822045263f"><path d="M 229.058594 98.253906 L 314.472656 145.273438 L 250.089844 262.222656 L 164.675781 215.203125 Z M 229.058594 98.253906 "/></clipPath><clipPath id="212a57fc89"><path d="M 227 163 L 234 163 L 234 171 L 227 171 Z M 227 163 "/></clipPath><clipPath id="663e5743d9"><path d="M 229.058594 98.253906 L 314.472656 145.273438 L 250.089844 262.222656 L 164.675781 215.203125 Z M 229.058594 98.253906 "/></clipPath><clipPath id="1a737589ea"><path d="M 229.058594 98.253906 L 314.472656 145.273438 L 250.089844 262.222656 L 164.675781 215.203125 Z M 229.058594 98.253906 "/></clipPath><clipPath id="74d6e79102"><path d="M 252 204 L 273 204 L 273 222 L 252 222 Z M 252 204 "/></clipPath><clipPath id="ae026dd6e2"><path d="M 229.058594 98.253906 L 314.472656 145.273438 L 250.089844 262.222656 L 164.675781 215.203125 Z M 229.058594 98.253906 "/></clipPath><clipPath id="20cb691590"><path d="M 229.058594 98.253906 L 314.472656 145.273438 L 250.089844 262.222656 L 164.675781 215.203125 Z M 229.058594 98.253906 "/></clipPath><clipPath id="a098302f97"><path d="M 252 198 L 259 198 L 259 205 L 252 205 Z M 252 198 "/></clipPath><clipPath id="586c4071d4"><path d="M 229.058594 98.253906 L 314.472656 145.273438 L 250.089844 262.222656 L 164.675781 215.203125 Z M 229.058594 98.253906 "/></clipPath><clipPath id="3155b81852"><path d="M 229.058594 98.253906 L 314.472656 145.273438 L 250.089844 262.222656 L 164.675781 215.203125 Z M 229.058594 98.253906 "/></clipPath><clipPath id="b0385f9fa2"><path d="M 260 195 L 267 195 L 267 203 L 260 203 Z M 260 195 "/></clipPath><clipPath id="4e9675d6c8"><path d="M 229.058594 98.253906 L 314.472656 145.273438 L 250.089844 262.222656 L 164.675781 215.203125 Z M 229.058594 98.253906 "/></clipPath><clipPath id="173af0427b"><path d="M 229.058594 98.253906 L 314.472656 145.273438 L 250.089844 262.222656 L 164.675781 215.203125 Z M 229.058594 98.253906 "/></clipPath><clipPath id="b25c0eaec2"><path d="M 272 204 L 280 204 L 280 211 L 272 211 Z M 272 204 "/></clipPath><clipPath id="f10327ad18"><path d="M 229.058594 98.253906 L 314.472656 145.273438 L 250.089844 262.222656 L 164.675781 215.203125 Z M 229.058594 98.253906 "/></clipPath><clipPath id="774dbde581"><path d="M 229.058594 98.253906 L 314.472656 145.273438 L 250.089844 262.222656 L 164.675781 215.203125 Z M 229.058594 98.253906 "/></clipPath><clipPath id="def784941c"><path d="M 268 197 L 275 197 L 275 205 L 268 205 Z M 268 197 "/></clipPath><clipPath id="0facb8f44d"><path d="M 229.058594 98.253906 L 314.472656 145.273438 L 250.089844 262.222656 L 164.675781 215.203125 Z M 229.058594 98.253906 "/></clipPath><clipPath id="d3d9a4e3fa"><path d="M 229.058594 98.253906 L 314.472656 145.273438 L 250.089844 262.222656 L 164.675781 215.203125 Z M 229.058594 98.253906 "/></clipPath><clipPath id="aec8ee9a17"><path d="M 211 226 L 233 226 L 233 246 L 211 246 Z M 211 226 "/></clipPath><clipPath id="6c409871b2"><path d="M 229.058594 98.253906 L 314.472656 145.273438 L 250.089844 262.222656 L 164.675781 215.203125 Z M 229.058594 98.253906 "/></clipPath><clipPath id="96e1dd1bab"><path d="M 229.058594 98.253906 L 314.472656 145.273438 L 250.089844 262.222656 L 164.675781 215.203125 Z M 229.058594 98.253906 "/></clipPath><clipPath id="e818c153ef"><path d="M 211 218 L 219 218 L 219 228 L 211 228 Z M 211 218 "/></clipPath><clipPath id="892dd66692"><path d="M 229.058594 98.253906 L 314.472656 145.273438 L 250.089844 262.222656 L 164.675781 215.203125 Z M 229.058594 98.253906 "/></clipPath><clipPath id="c59102662e"><path d="M 229.058594 98.253906 L 314.472656 145.273438 L 250.089844 262.222656 L 164.675781 215.203125 Z M 229.058594 98.253906 "/></clipPath><clipPath id="c10f6a0811"><path d="M 218 216 L 227 216 L 227 225 L 218 225 Z M 218 216 "/></clipPath><clipPath id="d53eedc9fb"><path d="M 229.058594 98.253906 L 314.472656 145.273438 L 250.089844 262.222656 L 164.675781 215.203125 Z M 229.058594 98.253906 "/></clipPath><clipPath id="e4306c8489"><path d="M 229.058594 98.253906 L 314.472656 145.273438 L 250.089844 262.222656 L 164.675781 215.203125 Z M 229.058594 98.253906 "/></clipPath><clipPath id="df1c48382a"><path d="M 231 225 L 239 225 L 239 234 L 231 234 Z M 231 225 "/></clipPath><clipPath id="72eb37d6fd"><path d="M 229.058594 98.253906 L 314.472656 145.273438 L 250.089844 262.222656 L 164.675781 215.203125 Z M 229.058594 98.253906 "/></clipPath><clipPath id="91304f8d4c"><path d="M 229.058594 98.253906 L 314.472656 145.273438 L 250.089844 262.222656 L 164.675781 215.203125 Z M 229.058594 98.253906 "/></clipPath><clipPath id="089d8e7798"><path d="M 226 218 L 235 218 L 235 227 L 226 227 Z M 226 218 "/></clipPath><clipPath id="31bd3a0357"><path d="M 229.058594 98.253906 L 314.472656 145.273438 L 250.089844 262.222656 L 164.675781 215.203125 Z M 229.058594 98.253906 "/></clipPath><clipPath id="beda25b35b"><path d="M 229.058594 98.253906 L 314.472656 145.273438 L 250.089844 262.222656 L 164.675781 215.203125 Z M 229.058594 98.253906 "/></clipPath></defs><g id="80bb99aa74"><g clip-rule="nonzero" clip-path="url(#487ca406fd)"><path style=" stroke:none;fill-rule:nonzero;fill:#556b2f;fill-opacity:1;" d="M 221.738281 159.101562 C 216.757812 158.960938 211.9375 157.996094 207.285156 156.210938 C 204.894531 155.371094 202.457031 154.703125 199.96875 154.214844 C 197.871094 153.78125 195.761719 153.714844 193.636719 154.015625 C 195.339844 157.109375 196.460938 160.40625 196.992188 163.902344 C 198.792969 168.160156 200.289062 172.527344 201.472656 177 C 201.734375 178.734375 203.871094 180.234375 206.15625 181.828125 C 206.90625 182.347656 207.660156 182.867188 208.410156 183.445312 C 211.589844 185.875 214.195312 188.851562 212.691406 194.054688 C 211.441406 199.9375 210.542969 205.875 210 211.863281 C 209.917969 212.648438 209.734375 213.40625 209.453125 214.144531 C 209.175781 214.878906 208.808594 215.570312 208.351562 216.210938 C 207.898438 216.855469 207.367188 217.429688 206.765625 217.9375 C 206.164062 218.445312 205.507812 218.867188 204.796875 219.207031 C 197.019531 222.96875 195.113281 223.257812 194.390625 223.257812 L 194.1875 223.257812 C 193.519531 223.246094 192.898438 223.074219 192.316406 222.746094 C 191.738281 222.417969 191.273438 221.972656 190.921875 221.40625 C 190.507812 220.535156 190.324219 219.617188 190.371094 218.65625 C 190.417969 217.691406 190.6875 216.796875 191.179688 215.96875 C 191.367188 215.503906 191.617188 215.074219 191.925781 214.675781 C 192.234375 214.277344 192.59375 213.933594 193 213.636719 C 193.40625 213.339844 193.84375 213.105469 194.316406 212.929688 C 194.789062 212.757812 195.277344 212.652344 195.777344 212.617188 C 196.628906 212.546875 197.402344 212.257812 198.089844 211.75 C 199.96875 210.1875 199.59375 203.914062 199.417969 200.878906 C 199.273438 198.390625 195.71875 192.753906 193.378906 189.660156 L 191.355469 188.390625 L 179.789062 197.0625 C 179.355469 198.59375 177.9375 203.539062 176.898438 206.429688 C 174.519531 211.503906 171.628906 216.265625 168.226562 220.710938 C 166.980469 222.15625 162.09375 223.199219 158.65625 223.199219 C 157.832031 223.222656 157.019531 223.128906 156.226562 222.910156 C 155.761719 222.832031 155.363281 222.625 155.035156 222.289062 C 154.703125 221.953125 154.503906 221.554688 154.433594 221.089844 C 154.433594 220.855469 154.433594 220.625 154.433594 220.394531 C 154.3125 220.058594 154.230469 219.714844 154.179688 219.363281 C 154.132812 219.007812 154.121094 218.65625 154.144531 218.300781 C 154.171875 217.945312 154.230469 217.59375 154.328125 217.253906 C 154.425781 216.910156 154.558594 216.582031 154.726562 216.265625 C 154.890625 215.949219 155.085938 215.65625 155.3125 215.382812 C 155.539062 215.105469 155.792969 214.859375 156.070312 214.636719 C 156.351562 214.414062 156.648438 214.222656 156.96875 214.0625 C 157.285156 213.902344 157.617188 213.777344 157.960938 213.6875 C 160.59375 212.761719 164.523438 207.90625 166.171875 205.589844 C 165.664062 199.851562 166.058594 194.175781 167.355469 188.5625 C 168.4375 185.015625 168.746094 181.402344 168.28125 177.722656 C 164.234375 180.4375 152.527344 186.394531 128.675781 184.832031 L 126.882812 185.179688 C 124.445312 185.640625 122.171875 186.515625 120.058594 187.8125 C 120.230469 195.066406 120.347656 199.375 120.464844 200.707031 C 120.550781 202.515625 120.457031 204.320312 120.175781 206.113281 C 119.910156 208.03125 119.785156 209.957031 119.796875 211.894531 L 119.796875 213.222656 C 119.972656 217.617188 120.117188 221.898438 117.746094 223.402344 C 116.199219 224.191406 114.5625 224.527344 112.832031 224.414062 C 111.046875 224.40625 109.285156 224.222656 107.539062 223.863281 C 106.976562 223.753906 106.46875 223.523438 106.015625 223.171875 C 105.5625 222.820312 105.214844 222.386719 104.964844 221.867188 C 104.695312 221.148438 104.589844 220.402344 104.652344 219.632812 C 104.710938 218.863281 104.933594 218.144531 105.3125 217.472656 C 105.550781 217.011719 105.84375 216.585938 106.195312 216.203125 C 106.546875 215.820312 106.941406 215.488281 107.382812 215.210938 C 107.820312 214.933594 108.289062 214.71875 108.789062 214.570312 C 109.285156 214.417969 109.796875 214.335938 110.316406 214.324219 L 111.355469 214.148438 C 111.746094 211.46875 111.476562 208.859375 110.546875 206.3125 C 109.773438 202.492188 109.214844 198.636719 108.871094 194.75 L 108.871094 194.34375 L 98.519531 193.738281 L 94.183594 198.335938 L 95.078125 209.609375 L 95.078125 209.8125 L 94.847656 213.746094 C 94.894531 214.777344 94.554688 215.664062 93.835938 216.402344 C 92.789062 217.140625 91.644531 217.664062 90.40625 217.980469 C 89.164062 218.292969 87.90625 218.375 86.636719 218.226562 L 82.648438 218.226562 C 82.335938 218.222656 82.027344 218.191406 81.722656 218.128906 C 81.417969 218.066406 81.125 217.976562 80.835938 217.855469 C 80.550781 217.738281 80.277344 217.589844 80.019531 217.417969 C 79.761719 217.246094 79.523438 217.046875 79.304688 216.828125 C 79.082031 216.609375 78.886719 216.371094 78.714844 216.113281 C 78.539062 215.851562 78.394531 215.582031 78.273438 215.292969 C 78.15625 215.007812 78.0625 214.710938 78 214.40625 C 77.941406 214.101562 77.90625 213.796875 77.90625 213.484375 C 77.761719 212.453125 77.953125 211.488281 78.484375 210.59375 C 79.3125 209.660156 80.34375 209.109375 81.578125 208.945312 L 81.75 208.945312 C 82.011719 208.945312 84.238281 208.539062 84.152344 206.863281 L 83.109375 195.300781 C 83.027344 194.363281 83.140625 193.453125 83.449219 192.566406 C 83.753906 191.679688 84.230469 190.894531 84.875 190.210938 L 91.523438 183.097656 C 92.320312 182.234375 93.285156 181.636719 94.414062 181.304688 L 98.433594 179.890625 C 97.316406 178.933594 96.304688 177.878906 95.394531 176.722656 C 94.488281 175.570312 93.699219 174.335938 93.03125 173.027344 C 92.363281 171.71875 91.832031 170.355469 91.429688 168.941406 C 91.03125 167.527344 90.773438 166.089844 90.65625 164.625 C 90.394531 159.304688 88.71875 148.058594 88.71875 147.941406 L 88.082031 142.160156 C 88.0625 141.882812 88.121094 141.621094 88.257812 141.378906 C 87.386719 139.890625 86.277344 138.609375 84.929688 137.535156 C 84.605469 137.292969 84.246094 137.234375 83.863281 137.359375 C 82.734375 137.835938 81.558594 138.074219 80.335938 138.074219 C 79.109375 138.074219 77.933594 137.835938 76.808594 137.359375 C 73.703125 135.941406 70.523438 134.714844 67.265625 133.6875 C 66.476562 133.421875 65.789062 132.992188 65.199219 132.402344 C 64.609375 131.8125 64.183594 131.125 63.914062 130.335938 L 62.8125 127.15625 L 62.554688 126.925781 C 61.859375 126.257812 61.328125 125.484375 60.949219 124.601562 C 60.574219 123.71875 60.386719 122.796875 60.386719 121.835938 C 60.507812 121.40625 60.6875 121 60.925781 120.621094 C 61.164062 120.242188 61.449219 119.902344 61.78125 119.605469 C 62.113281 119.304688 62.480469 119.058594 62.878906 118.863281 C 63.28125 118.667969 63.703125 118.53125 64.144531 118.453125 L 64.78125 118.078125 C 66.753906 117.167969 68.804688 116.503906 70.9375 116.082031 C 73.359375 115.679688 75.621094 114.847656 77.730469 113.597656 C 78.339844 113.160156 79.292969 112.292969 79.035156 111.570312 C 78.9375 111.277344 78.890625 110.972656 78.890625 110.664062 C 78.894531 110.351562 78.945312 110.050781 79.042969 109.757812 C 79.140625 109.460938 79.285156 109.191406 79.46875 108.941406 C 79.65625 108.695312 79.878906 108.480469 80.132812 108.304688 C 83.882812 105.519531 88.054688 103.710938 92.652344 102.871094 C 93.578125 102.714844 94.503906 102.738281 95.421875 102.9375 C 96.339844 103.136719 97.191406 103.5 97.96875 104.027344 C 99.78125 104.285156 101.59375 104.285156 103.40625 104.027344 C 104.503906 103.863281 105.601562 103.863281 106.703125 104.027344 C 109.851562 104.519531 115.375 110.847656 116.761719 113.507812 C 117.152344 114.746094 117.257812 116.007812 117.082031 117.292969 C 116.902344 118.578125 116.460938 119.765625 115.75 120.851562 C 116.628906 123.890625 117.207031 126.984375 117.484375 130.132812 L 117.484375 131.636719 C 149.199219 117.355469 169.265625 101.828125 178.921875 84.105469 C 179.011719 83.945312 179.132812 83.804688 179.277344 83.691406 C 179.421875 83.574219 179.585938 83.492188 179.761719 83.441406 C 179.941406 83.390625 180.125 83.375 180.308594 83.394531 C 180.492188 83.414062 180.667969 83.46875 180.828125 83.558594 C 180.996094 83.644531 181.136719 83.761719 181.253906 83.90625 C 181.371094 84.054688 181.453125 84.214844 181.507812 84.394531 C 181.558594 84.574219 181.574219 84.757812 181.550781 84.941406 C 181.527344 85.128906 181.472656 85.300781 181.378906 85.464844 C 171.40625 103.765625 150.847656 119.753906 118.640625 134.355469 L 119.507812 136.871094 C 120.65625 137.859375 121.929688 138.648438 123.324219 139.238281 C 124.796875 139.90625 126.339844 140.292969 127.953125 140.398438 C 130.019531 140.65625 131.945312 141.320312 133.734375 142.390625 C 136.015625 143.605469 142.898438 142.390625 149.578125 141.351562 C 156.074219 139.929688 162.644531 139.28125 169.292969 139.414062 C 173.292969 139.808594 177.144531 140.769531 180.859375 142.304688 C 183.433594 143.289062 184.558594 143.664062 186.292969 142.96875 C 191.179688 141.03125 200.027344 143.632812 205.867188 145.3125 L 206.242188 145.3125 C 209.273438 146.171875 212.359375 146.601562 215.507812 146.601562 C 218.65625 146.601562 221.746094 146.171875 224.773438 145.3125 C 230.238281 143.085938 238.421875 146.527344 238.769531 146.699219 C 239.226562 146.875 239.503906 147.203125 239.605469 147.683594 C 239.707031 148.164062 239.59375 148.589844 239.257812 148.953125 C 238.882812 149.53125 230.152344 158.84375 221.738281 159.101562 Z M 195.113281 187.433594 C 195.257812 187.527344 195.382812 187.644531 195.488281 187.78125 C 196.152344 188.648438 201.992188 196.457031 202.253906 200.761719 C 202.542969 206.167969 202.628906 211.664062 199.882812 213.945312 C 198.832031 214.792969 197.636719 215.285156 196.296875 215.421875 C 195.023438 215.679688 194.390625 215.796875 193.753906 217.15625 C 193.1875 218.058594 193.054688 219.023438 193.347656 220.046875 C 193.601562 220.359375 193.929688 220.515625 194.332031 220.507812 C 197.589844 219.675781 200.675781 218.410156 203.582031 216.722656 C 204.578125 216.25 205.394531 215.566406 206.035156 214.671875 C 206.679688 213.777344 207.066406 212.785156 207.195312 211.691406 C 207.804688 205.527344 208.765625 199.414062 210.089844 193.363281 C 211.011719 190.472656 210.089844 188.417969 206.792969 185.816406 L 204.625 184.285156 C 201.734375 182.347656 199.21875 180.496094 198.839844 177.546875 C 198.191406 174.929688 197.34375 172.375 196.296875 169.886719 L 195.71875 172.777344 C 194.988281 177.214844 194.023438 181.597656 192.828125 185.933594 Z M 110.71875 216.953125 C 109.304688 217.15625 108.40625 217.359375 107.828125 218.515625 C 107.472656 219.171875 107.40625 219.855469 107.625 220.566406 C 107.78125 220.859375 108.019531 221.023438 108.347656 221.058594 C 111 221.738281 113.648438 221.738281 116.300781 221.058594 C 117.371094 220.308594 117.226562 216.289062 117.136719 213.339844 L 117.136719 211.980469 C 117.128906 209.898438 117.261719 207.828125 117.542969 205.765625 C 117.804688 204.164062 117.898438 202.554688 117.832031 200.9375 C 117.832031 199.695312 117.601562 196.3125 117.484375 190.644531 L 116.15625 192.003906 C 114.9375 193.292969 113.453125 194.082031 111.703125 194.375 C 112.253906 199.117188 112.859375 204 113.265625 205.332031 C 113.265625 205.332031 115.519531 212.992188 113.726562 215.59375 C 113.351562 216.03125 112.898438 216.371094 112.375 216.609375 C 111.847656 216.84375 111.296875 216.960938 110.71875 216.953125 Z M 115.636719 134.210938 C 107.84375 138.34375 99.632812 141.320312 91.003906 143.144531 L 91.347656 146.035156 C 108.058594 142.507812 114.738281 138.546875 116.648438 137.1875 Z M 64.375 124.957031 C 65.503906 124.292969 66.195312 123.511719 66.167969 122.90625 C 66.140625 122.296875 65.214844 121.515625 64.722656 121.316406 C 64.230469 121.113281 63.335938 121.835938 63.21875 122.472656 C 63.3125 123.4375 63.695312 124.265625 64.375 124.957031 Z M 92.941406 105.789062 C 88.828125 106.59375 85.089844 108.242188 81.722656 110.734375 C 82.097656 111.773438 82.269531 113.828125 79.4375 115.9375 C 77.035156 117.40625 74.441406 118.371094 71.660156 118.828125 C 70.339844 119.117188 69.039062 119.476562 67.757812 119.898438 C 68.578125 120.6875 68.992188 121.652344 69 122.789062 C 68.894531 123.777344 68.554688 124.675781 67.984375 125.488281 C 67.414062 126.296875 66.683594 126.921875 65.792969 127.359375 L 66.542969 129.582031 C 66.671875 129.964844 66.878906 130.296875 67.164062 130.582031 C 67.449219 130.867188 67.78125 131.074219 68.164062 131.203125 C 71.554688 132.289062 74.871094 133.570312 78.109375 135.046875 C 79.71875 135.546875 81.300781 135.457031 82.847656 134.789062 C 83.496094 134.542969 84.15625 134.472656 84.839844 134.582031 C 85.519531 134.691406 86.128906 134.960938 86.664062 135.394531 C 88.390625 136.757812 89.777344 138.40625 90.828125 140.339844 C 99.265625 138.523438 107.273438 135.554688 114.855469 131.433594 C 114.855469 131.058594 114.855469 130.652344 114.855469 130.25 C 114.652344 127.960938 114.257812 125.703125 113.667969 123.484375 C 113.054688 123.933594 112.628906 124.519531 112.398438 125.246094 C 111.972656 126.253906 111.40625 127.167969 110.691406 127.992188 C 107.757812 130.296875 104.445312 131.683594 100.746094 132.15625 C 99.625 132.402344 98.566406 132.808594 97.566406 133.371094 C 96.332031 134.101562 95.003906 134.523438 93.574219 134.644531 C 93.355469 134.671875 93.132812 134.671875 92.910156 134.644531 C 92.429688 134.5625 91.996094 134.367188 91.609375 134.066406 C 91.226562 133.761719 90.9375 133.386719 90.742188 132.9375 C 90.105469 131.238281 89.820312 129.480469 89.886719 127.667969 C 89.953125 125.851562 90.363281 124.121094 91.117188 122.472656 C 92.777344 118.445312 93.597656 114.25 93.574219 109.894531 C 93.515625 109.125 93.609375 108.378906 93.863281 107.648438 C 94.113281 106.917969 94.5 106.269531 95.019531 105.703125 C 94.328125 105.613281 93.632812 105.613281 92.941406 105.703125 Z M 114.332031 114.753906 C 112.378906 111.421875 109.730469 108.789062 106.382812 106.859375 L 105.546875 106.859375 C 104.984375 106.871094 104.421875 106.917969 103.867188 107.003906 C 101.84375 107.265625 99.820312 107.265625 97.796875 107.003906 C 97.25 107.269531 96.828125 107.664062 96.53125 108.195312 C 96.234375 108.722656 96.117188 109.292969 96.175781 109.894531 C 96.238281 114.71875 95.332031 119.355469 93.460938 123.800781 C 92.859375 125.09375 92.527344 126.449219 92.472656 127.875 C 92.417969 129.296875 92.640625 130.679688 93.140625 132.011719 C 94.1875 131.929688 95.152344 131.601562 96.03125 131.027344 C 97.269531 130.371094 98.570312 129.890625 99.9375 129.582031 C 102.992188 129.191406 105.777344 128.101562 108.292969 126.316406 C 108.808594 125.632812 109.222656 124.890625 109.535156 124.089844 C 110.015625 122.875 110.804688 121.910156 111.90625 121.199219 C 112.371094 120.804688 112.78125 120.359375 113.128906 119.859375 C 113.480469 119.359375 113.761719 118.824219 113.976562 118.25 C 114.1875 117.679688 114.324219 117.089844 114.386719 116.480469 C 114.445312 115.875 114.429688 115.269531 114.332031 114.664062 Z M 225.84375 148.085938 C 222.515625 149.046875 219.117188 149.53125 215.652344 149.53125 C 212.1875 149.53125 208.792969 149.046875 205.460938 148.085938 L 204.941406 148.085938 C 199.796875 146.582031 191.179688 144.066406 187.191406 145.660156 C 185.953125 146.089844 184.679688 146.246094 183.375 146.128906 C 182.070312 146.011719 180.84375 145.632812 179.703125 144.992188 C 176.273438 143.59375 172.71875 142.695312 169.035156 142.304688 C 162.585938 142.152344 156.203125 142.75 149.894531 144.097656 C 142.117188 145.398438 135.4375 146.496094 132.257812 144.878906 C 130.882812 144.003906 129.386719 143.4375 127.777344 143.171875 C 125.835938 143.046875 123.976562 142.597656 122.199219 141.8125 C 120.761719 141.191406 119.429688 140.390625 118.207031 139.414062 C 115.78125 141.089844 108.609375 145.195312 91.609375 148.75 C 92.074219 151.902344 93.199219 159.941406 93.402344 164.363281 C 93.507812 165.730469 93.75 167.070312 94.128906 168.382812 C 94.511719 169.699219 95.023438 170.960938 95.664062 172.167969 C 96.304688 173.378906 97.0625 174.507812 97.941406 175.558594 C 98.816406 176.613281 99.789062 177.5625 100.859375 178.414062 L 101.003906 178.414062 C 101.660156 177.820312 102.101562 177.097656 102.335938 176.246094 L 102.828125 174.539062 C 102.878906 174.359375 102.960938 174.199219 103.074219 174.050781 C 103.191406 173.902344 103.328125 173.785156 103.492188 173.691406 C 103.65625 173.601562 103.828125 173.542969 104.015625 173.519531 C 104.199219 173.496094 104.382812 173.507812 104.5625 173.558594 C 104.742188 173.613281 104.90625 173.699219 105.054688 173.816406 C 105.199219 173.933594 105.320312 174.074219 105.414062 174.238281 C 105.503906 174.402344 105.5625 174.582031 105.585938 174.765625 C 105.609375 174.953125 105.59375 175.140625 105.542969 175.320312 L 105.054688 177.027344 C 104.804688 177.917969 104.402344 178.734375 103.847656 179.480469 C 103.296875 180.222656 102.628906 180.839844 101.84375 181.335938 C 101.433594 181.59375 101 181.804688 100.542969 181.972656 L 95.339844 183.878906 C 94.667969 184.082031 94.089844 184.441406 93.605469 184.949219 L 86.953125 192.03125 C 86.207031 192.851562 85.871094 193.816406 85.941406 194.921875 L 86.984375 206.488281 C 86.992188 206.8125 86.96875 207.136719 86.914062 207.457031 C 86.863281 207.777344 86.777344 208.089844 86.664062 208.394531 C 86.550781 208.699219 86.410156 208.988281 86.242188 209.265625 C 86.070312 209.542969 85.878906 209.800781 85.660156 210.042969 C 85.441406 210.28125 85.199219 210.5 84.941406 210.695312 C 84.679688 210.886719 84.402344 211.054688 84.109375 211.195312 C 83.816406 211.339844 83.515625 211.449219 83.199219 211.535156 C 82.886719 211.617188 82.566406 211.667969 82.242188 211.691406 C 81.734375 211.789062 81.25 211.960938 80.796875 212.210938 C 80.757812 212.597656 80.757812 212.984375 80.796875 213.367188 C 80.800781 213.621094 80.851562 213.863281 80.949219 214.09375 C 81.046875 214.328125 81.1875 214.53125 81.363281 214.710938 C 81.542969 214.886719 81.746094 215.027344 81.980469 215.125 C 82.210938 215.222656 82.453125 215.273438 82.703125 215.277344 L 86.609375 215.277344 C 89.5 215.277344 91.148438 214.957031 91.78125 214.292969 C 91.976562 214.097656 92.042969 213.867188 91.984375 213.601562 L 92.1875 209.753906 L 91.261719 197.957031 C 91.234375 197.539062 91.359375 197.175781 91.636719 196.859375 L 96.902344 191.453125 C 97.195312 191.128906 97.5625 190.984375 98 191.019531 L 109.910156 191.742188 C 109.910156 191.742188 109.910156 191.742188 110.054688 191.742188 C 110.800781 191.765625 111.515625 191.632812 112.207031 191.351562 C 112.894531 191.070312 113.5 190.660156 114.015625 190.125 L 117.660156 186.335938 C 117.710938 186.246094 117.777344 186.167969 117.859375 186.105469 L 118.207031 185.671875 C 120.726562 183.9375 123.496094 182.800781 126.503906 182.261719 L 128.53125 181.855469 L 128.875 181.855469 C 153.449219 183.472656 164.640625 177 167.355469 174.917969 L 166.230469 172.027344 C 166.160156 171.851562 166.125 171.667969 166.125 171.480469 C 166.125 171.292969 166.164062 171.113281 166.234375 170.9375 C 166.308594 170.765625 166.414062 170.609375 166.546875 170.476562 C 166.679688 170.347656 166.835938 170.246094 167.007812 170.171875 C 167.183594 170.101562 167.367188 170.066406 167.554688 170.070312 C 167.742188 170.070312 167.921875 170.105469 168.097656 170.179688 C 168.269531 170.253906 168.425781 170.359375 168.554688 170.492188 C 168.6875 170.625 168.789062 170.78125 168.859375 170.957031 L 170.394531 174.65625 C 172.273438 179.109375 171.289062 183.648438 170.160156 188.9375 C 168.730469 194.515625 168.261719 200.171875 168.746094 205.910156 C 168.777344 206.25 168.691406 206.558594 168.484375 206.835938 C 167.933594 207.671875 162.703125 214.957031 158.625 216.433594 C 156.429688 217.183594 156.601562 218.226562 156.921875 219.960938 C 156.921875 219.960938 156.921875 220.191406 156.921875 220.308594 C 160.019531 220.621094 162.996094 220.15625 165.855469 218.917969 C 169.0625 214.761719 171.808594 210.320312 174.09375 205.589844 C 175.222656 202.265625 176.984375 195.964844 176.984375 195.878906 C 177.070312 195.582031 177.234375 195.34375 177.476562 195.15625 L 189.214844 186.480469 C 189.214844 186.480469 189.214844 186.222656 189.359375 186.105469 C 190.742188 181.578125 191.820312 176.984375 192.597656 172.316406 C 193.089844 169.769531 193.523438 167.601562 193.867188 166.128906 C 193.984375 165.625 194.035156 165.113281 194.011719 164.59375 C 193.488281 160.878906 192.3125 157.378906 190.484375 154.101562 C 190.394531 153.953125 190.332031 153.796875 190.300781 153.628906 C 190.269531 153.460938 190.269531 153.289062 190.300781 153.121094 C 190.332031 152.953125 190.394531 152.796875 190.488281 152.648438 C 190.578125 152.503906 190.695312 152.378906 190.832031 152.277344 C 191.238281 151.960938 193.722656 150.371094 200.546875 151.554688 C 203.160156 152.066406 205.722656 152.761719 208.238281 153.636719 C 212.597656 155.285156 217.109375 156.160156 221.769531 156.269531 C 227.117188 156.269531 233.015625 151.265625 235.761719 148.75 C 234.183594 148.136719 232.546875 147.769531 230.855469 147.65625 C 229.164062 147.542969 227.492188 147.6875 225.84375 148.085938 Z M 225.84375 148.085938 "/></g><path style=" stroke:none;fill-rule:nonzero;fill:#556b2f;fill-opacity:1;" d="M 88.199219 117.875 C 87.695312 117.882812 87.300781 117.679688 87.011719 117.265625 C 86.175781 116.054688 85.363281 116.226562 85.191406 116.253906 C 85.019531 116.320312 84.84375 116.351562 84.660156 116.351562 C 84.476562 116.347656 84.300781 116.308594 84.132812 116.234375 C 83.964844 116.160156 83.820312 116.058594 83.691406 115.925781 C 83.5625 115.796875 83.464844 115.644531 83.398438 115.476562 C 83.328125 115.300781 83.292969 115.117188 83.292969 114.929688 C 83.292969 114.742188 83.332031 114.5625 83.40625 114.386719 C 83.476562 114.214844 83.582031 114.0625 83.714844 113.929688 C 83.851562 113.796875 84.003906 113.695312 84.179688 113.625 C 84.664062 113.476562 85.15625 113.410156 85.664062 113.433594 C 86.167969 113.453125 86.65625 113.554688 87.128906 113.742188 C 87.597656 113.929688 88.023438 114.1875 88.40625 114.519531 C 88.789062 114.851562 89.105469 115.238281 89.355469 115.675781 C 89.460938 115.832031 89.53125 115.996094 89.566406 116.179688 C 89.605469 116.359375 89.605469 116.542969 89.570312 116.722656 C 89.535156 116.90625 89.464844 117.074219 89.363281 117.230469 C 89.261719 117.382812 89.132812 117.511719 88.980469 117.613281 C 88.746094 117.785156 88.488281 117.871094 88.199219 117.875 Z M 88.199219 117.875 "/><g clip-rule="nonzero" clip-path="url(#5709ca6b49)"><g clip-rule="nonzero" clip-path="url(#156f5db935)"><g clip-rule="nonzero" clip-path="url(#e57760857b)"><path style=" stroke:none;fill-rule:nonzero;fill:#556b2f;fill-opacity:1;" d="M 243.761719 125.867188 C 242.808594 128.964844 240.8125 130.996094 237.6875 130.410156 C 234.171875 129.746094 235.007812 126.535156 231.570312 127.644531 C 226.0625 129.425781 223.667969 124.667969 225.058594 120.125 C 226.457031 115.582031 232.171875 111.894531 237.339844 113.476562 C 242.507812 115.058594 245.160156 121.320312 243.761719 125.867188 Z M 243.761719 125.867188 "/></g></g></g><g clip-rule="nonzero" clip-path="url(#559f89d5ca)"><g clip-rule="nonzero" clip-path="url(#b40474f479)"><g clip-rule="nonzero" clip-path="url(#bcddf18849)"><path style=" stroke:none;fill-rule:nonzero;fill:#556b2f;fill-opacity:1;" d="M 230.484375 109.710938 C 230.546875 110.15625 230.535156 110.597656 230.445312 111.03125 C 230.351562 111.46875 230.191406 111.859375 229.960938 112.214844 C 229.730469 112.570312 229.449219 112.859375 229.113281 113.082031 C 228.78125 113.300781 228.417969 113.441406 228.03125 113.496094 C 227.640625 113.546875 227.257812 113.515625 226.875 113.394531 C 226.492188 113.273438 226.140625 113.074219 225.820312 112.796875 C 225.503906 112.519531 225.238281 112.183594 225.03125 111.792969 C 224.828125 111.398438 224.691406 110.980469 224.628906 110.53125 C 224.566406 110.085938 224.582031 109.644531 224.671875 109.210938 C 224.761719 108.777344 224.921875 108.382812 225.152344 108.027344 C 225.382812 107.671875 225.664062 107.382812 226 107.164062 C 226.335938 106.941406 226.695312 106.800781 227.085938 106.75 C 227.472656 106.695312 227.859375 106.726562 228.242188 106.847656 C 228.625 106.96875 228.976562 107.167969 229.292969 107.445312 C 229.613281 107.722656 229.875 108.058594 230.082031 108.453125 C 230.289062 108.84375 230.421875 109.261719 230.484375 109.710938 Z M 230.484375 109.710938 "/></g></g></g><g clip-rule="nonzero" clip-path="url(#e343922451)"><g clip-rule="nonzero" clip-path="url(#2bac9203a4)"><g clip-rule="nonzero" clip-path="url(#8767db7fa3)"><path style=" stroke:none;fill-rule:nonzero;fill:#556b2f;fill-opacity:1;" d="M 238.023438 107.863281 C 237.964844 108.3125 237.835938 108.734375 237.632812 109.128906 C 237.429688 109.523438 237.171875 109.863281 236.855469 110.144531 C 236.542969 110.425781 236.191406 110.628906 235.8125 110.753906 C 235.429688 110.878906 235.046875 110.917969 234.65625 110.867188 C 234.265625 110.816406 233.902344 110.683594 233.566406 110.464844 C 233.230469 110.25 232.941406 109.964844 232.707031 109.613281 C 232.472656 109.257812 232.308594 108.867188 232.214844 108.433594 C 232.117188 108 232.097656 107.5625 232.15625 107.113281 C 232.214844 106.664062 232.34375 106.242188 232.542969 105.847656 C 232.746094 105.453125 233.003906 105.117188 233.320312 104.832031 C 233.636719 104.550781 233.984375 104.347656 234.367188 104.222656 C 234.746094 104.097656 235.132812 104.058594 235.523438 104.109375 C 235.910156 104.160156 236.273438 104.292969 236.609375 104.511719 C 236.949219 104.726562 237.234375 105.011719 237.46875 105.363281 C 237.703125 105.71875 237.867188 106.109375 237.964844 106.542969 C 238.058594 106.976562 238.078125 107.417969 238.023438 107.863281 Z M 238.023438 107.863281 "/></g></g></g><g clip-rule="nonzero" clip-path="url(#8852dd8125)"><g clip-rule="nonzero" clip-path="url(#8efdf781f2)"><g clip-rule="nonzero" clip-path="url(#73d0787384)"><path style=" stroke:none;fill-rule:nonzero;fill:#556b2f;fill-opacity:1;" d="M 249.910156 113.753906 C 250.199219 114.019531 250.421875 114.335938 250.574219 114.707031 C 250.726562 115.078125 250.800781 115.476562 250.789062 115.898438 C 250.78125 116.320312 250.695312 116.738281 250.527344 117.148438 C 250.355469 117.558594 250.121094 117.929688 249.820312 118.265625 C 249.515625 118.601562 249.167969 118.871094 248.777344 119.082031 C 248.386719 119.289062 247.980469 119.421875 247.5625 119.472656 C 247.140625 119.523438 246.738281 119.492188 246.355469 119.375 C 245.96875 119.261719 245.632812 119.074219 245.339844 118.808594 C 245.050781 118.546875 244.828125 118.230469 244.675781 117.859375 C 244.523438 117.488281 244.449219 117.089844 244.457031 116.667969 C 244.46875 116.246094 244.554688 115.828125 244.722656 115.417969 C 244.890625 115.007812 245.128906 114.636719 245.429688 114.300781 C 245.734375 113.964844 246.082031 113.691406 246.472656 113.484375 C 246.863281 113.273438 247.269531 113.144531 247.6875 113.09375 C 248.109375 113.042969 248.511719 113.074219 248.894531 113.1875 C 249.28125 113.304688 249.617188 113.492188 249.910156 113.753906 Z M 249.910156 113.753906 "/></g></g></g><g clip-rule="nonzero" clip-path="url(#8ebf39eb11)"><g clip-rule="nonzero" clip-path="url(#621fe8ff2f)"><g clip-rule="nonzero" clip-path="url(#b6d07a3ba5)"><path style=" stroke:none;fill-rule:nonzero;fill:#556b2f;fill-opacity:1;" d="M 245.53125 111.21875 C 245.328125 111.621094 245.066406 111.976562 244.742188 112.28125 C 244.421875 112.585938 244.066406 112.816406 243.671875 112.976562 C 243.28125 113.136719 242.886719 113.210938 242.484375 113.203125 C 242.082031 113.191406 241.707031 113.097656 241.355469 112.921875 C 241.007812 112.746094 240.710938 112.496094 240.464844 112.179688 C 240.21875 111.863281 240.042969 111.5 239.941406 111.089844 C 239.839844 110.679688 239.8125 110.253906 239.867188 109.8125 C 239.921875 109.371094 240.050781 108.953125 240.253906 108.546875 C 240.460938 108.144531 240.722656 107.792969 241.042969 107.488281 C 241.367188 107.183594 241.722656 106.949219 242.117188 106.789062 C 242.507812 106.628906 242.902344 106.554688 243.304688 106.5625 C 243.707031 106.574219 244.082031 106.667969 244.433594 106.84375 C 244.78125 107.019531 245.078125 107.269531 245.324219 107.585938 C 245.570312 107.902344 245.742188 108.269531 245.847656 108.679688 C 245.949219 109.089844 245.976562 109.511719 245.921875 109.953125 C 245.867188 110.394531 245.738281 110.816406 245.53125 111.21875 Z M 245.53125 111.21875 "/></g></g></g><g clip-rule="nonzero" clip-path="url(#eb28472d38)"><g clip-rule="nonzero" clip-path="url(#58cc0ca69b)"><g clip-rule="nonzero" clip-path="url(#18b464e9c2)"><path style=" stroke:none;fill-rule:nonzero;fill:#8f9e8b;fill-opacity:1;" d="M 258.175781 166.875 C 257.789062 166.660156 257.441406 166.394531 257.113281 166.078125 C 255.4375 164.421875 254.914062 161.519531 255.785156 158.667969 C 256.53125 156.25 258.371094 154.054688 260.839844 152.632812 C 263.464844 151.121094 266.34375 150.738281 268.960938 151.539062 C 271.570312 152.347656 273.742188 154.28125 275.066406 156.996094 C 276.308594 159.558594 276.605469 162.410156 275.863281 164.824219 C 274.691406 168.628906 272.171875 170.460938 268.960938 169.863281 C 267.132812 169.515625 266.28125 168.535156 265.65625 167.808594 C 264.953125 166.992188 264.632812 166.613281 263.195312 167.074219 C 261.292969 167.710938 259.546875 167.625 258.175781 166.875 Z M 270.019531 153.550781 C 269.550781 153.292969 269.058594 153.085938 268.546875 152.921875 C 266.3125 152.242188 263.839844 152.582031 261.5625 153.890625 C 259.4375 155.109375 257.796875 157.058594 257.167969 159.101562 C 256.449219 161.4375 256.824219 163.777344 258.128906 165.0625 C 259.210938 166.125 260.8125 166.355469 262.769531 165.722656 C 265.117188 164.96875 265.992188 165.988281 266.765625 166.890625 C 267.351562 167.570312 267.910156 168.214844 269.242188 168.472656 C 270.96875 168.792969 273.285156 168.359375 274.496094 164.429688 C 275.121094 162.398438 274.851562 159.863281 273.777344 157.660156 C 272.898438 155.832031 271.59375 154.417969 270.019531 153.550781 Z M 270.019531 153.550781 "/></g></g></g><g clip-rule="nonzero" clip-path="url(#def1d4bb16)"><g clip-rule="nonzero" clip-path="url(#f65b99eac3)"><g clip-rule="nonzero" clip-path="url(#347d00ea74)"><path style=" stroke:none;fill-rule:nonzero;fill:#8f9e8b;fill-opacity:1;" d="M 257.363281 151.3125 C 256.285156 150.71875 255.457031 149.558594 255.257812 148.140625 C 255.109375 147.070312 255.328125 146.003906 255.894531 145.144531 C 256.476562 144.253906 257.339844 143.679688 258.332031 143.539062 C 259.324219 143.398438 260.316406 143.707031 261.113281 144.402344 C 261.886719 145.074219 262.398438 146.042969 262.550781 147.113281 C 262.867188 149.363281 261.488281 151.433594 259.480469 151.710938 C 258.734375 151.820312 258.003906 151.664062 257.363281 151.3125 Z M 259.753906 145.210938 C 259.367188 144.996094 258.949219 144.914062 258.53125 144.976562 C 257.957031 145.054688 257.449219 145.394531 257.109375 145.929688 C 256.742188 146.496094 256.59375 147.210938 256.695312 147.945312 C 256.902344 149.410156 258.0625 150.460938 259.28125 150.292969 C 260.5 150.121094 261.324219 148.789062 261.125 147.328125 C 261.023438 146.59375 260.683594 145.949219 260.171875 145.503906 C 260.042969 145.386719 259.894531 145.289062 259.753906 145.210938 Z M 259.753906 145.210938 "/></g></g></g><g clip-rule="nonzero" clip-path="url(#5c148eceab)"><g clip-rule="nonzero" clip-path="url(#c9779bc077)"><g clip-rule="nonzero" clip-path="url(#68e4dadd00)"><path style=" stroke:none;fill-rule:nonzero;fill:#8f9e8b;fill-opacity:1;" d="M 264.722656 148.714844 C 264.226562 148.441406 263.796875 148.039062 263.453125 147.53125 C 262.882812 146.675781 262.652344 145.617188 262.789062 144.539062 C 262.921875 143.460938 263.425781 142.5 264.1875 141.8125 C 264.980469 141.105469 265.96875 140.789062 266.960938 140.914062 C 268.96875 141.171875 270.375 143.21875 270.082031 145.480469 C 269.792969 147.734375 267.914062 149.363281 265.90625 149.109375 C 265.492188 149.046875 265.089844 148.914062 264.722656 148.714844 Z M 267.453125 142.558594 C 267.25 142.449219 267.019531 142.367188 266.78125 142.335938 C 266.210938 142.257812 265.628906 142.453125 265.152344 142.882812 C 264.644531 143.335938 264.316406 143.988281 264.226562 144.714844 C 264.136719 145.445312 264.289062 146.160156 264.667969 146.726562 C 265.023438 147.257812 265.53125 147.59375 266.105469 147.664062 C 267.328125 147.824219 268.476562 146.753906 268.667969 145.285156 C 268.804688 144.109375 268.296875 143.023438 267.453125 142.558594 Z M 267.453125 142.558594 "/></g></g></g><g clip-rule="nonzero" clip-path="url(#8fc9d9f7b6)"><g clip-rule="nonzero" clip-path="url(#5759c49d3b)"><g clip-rule="nonzero" clip-path="url(#113c8b8d13)"><path style=" stroke:none;fill-rule:nonzero;fill:#8f9e8b;fill-opacity:1;" d="M 276.832031 157.300781 C 276.605469 157.175781 276.394531 157.023438 276.199219 156.851562 C 275.453125 156.175781 275.054688 155.222656 275.082031 154.160156 C 275.105469 153.140625 275.515625 152.128906 276.242188 151.324219 C 276.96875 150.515625 277.925781 150.007812 278.945312 149.882812 C 280.007812 149.753906 280.996094 150.050781 281.738281 150.726562 C 282.484375 151.402344 282.882812 152.351562 282.855469 153.417969 C 282.832031 154.4375 282.421875 155.449219 281.695312 156.253906 C 280.96875 157.0625 280.011719 157.570312 278.992188 157.695312 C 278.214844 157.796875 277.46875 157.652344 276.832031 157.300781 Z M 280.414062 151.550781 C 280.042969 151.347656 279.59375 151.265625 279.121094 151.324219 C 278.449219 151.402344 277.808594 151.753906 277.316406 152.296875 C 276.824219 152.839844 276.542969 153.519531 276.527344 154.195312 C 276.511719 154.835938 276.742188 155.402344 277.171875 155.785156 C 277.597656 156.175781 278.179688 156.34375 278.820312 156.261719 C 279.492188 156.1875 280.132812 155.835938 280.625 155.289062 C 281.117188 154.746094 281.398438 154.070312 281.414062 153.390625 C 281.429688 152.75 281.199219 152.1875 280.769531 151.804688 C 280.660156 151.707031 280.542969 151.621094 280.414062 151.550781 Z M 280.414062 151.550781 "/></g></g></g><g clip-rule="nonzero" clip-path="url(#23a7b0a525)"><g clip-rule="nonzero" clip-path="url(#cdbb633722)"><g clip-rule="nonzero" clip-path="url(#2b45343d2e)"><path style=" stroke:none;fill-rule:nonzero;fill:#8f9e8b;fill-opacity:1;" d="M 272.273438 151.023438 C 270.539062 150.066406 269.953125 147.722656 270.957031 145.734375 C 271.445312 144.765625 272.238281 144.023438 273.1875 143.628906 C 274.167969 143.226562 275.207031 143.25 276.097656 143.707031 C 277.910156 144.621094 278.546875 147.019531 277.519531 149.050781 C 276.492188 151.085938 274.183594 151.992188 272.371094 151.074219 C 272.335938 151.054688 272.300781 151.039062 272.273438 151.023438 Z M 275.507812 145.027344 C 275.488281 145.015625 275.472656 145.007812 275.453125 144.996094 C 274.933594 144.738281 274.328125 144.726562 273.730469 144.964844 C 273.105469 145.222656 272.570312 145.726562 272.242188 146.375 C 271.570312 147.699219 271.921875 149.21875 273.027344 149.78125 C 274.128906 150.34375 275.570312 149.71875 276.234375 148.390625 C 276.890625 147.105469 276.5625 145.605469 275.507812 145.027344 Z M 275.507812 145.027344 "/></g></g></g><g clip-rule="nonzero" clip-path="url(#d1e52ac3b4)"><g clip-rule="nonzero" clip-path="url(#ed3a24c820)"><g clip-rule="nonzero" clip-path="url(#3306ec8a2b)"><path style=" stroke:none;fill-rule:nonzero;fill:#556b2f;fill-opacity:1;" d="M 230.988281 183.09375 C 230.03125 186.1875 228.035156 188.21875 224.910156 187.632812 C 221.398438 186.96875 222.230469 183.761719 218.792969 184.867188 C 213.285156 186.648438 210.890625 181.890625 212.285156 177.351562 C 213.675781 172.8125 219.394531 169.117188 224.558594 170.707031 C 229.722656 172.296875 232.378906 178.550781 230.988281 183.09375 Z M 230.988281 183.09375 "/></g></g></g><g clip-rule="nonzero" clip-path="url(#4f5160c615)"><g clip-rule="nonzero" clip-path="url(#3094247dd1)"><g clip-rule="nonzero" clip-path="url(#da716ddead)"><path style=" stroke:none;fill-rule:nonzero;fill:#556b2f;fill-opacity:1;" d="M 217.707031 166.941406 C 217.769531 167.390625 217.753906 167.832031 217.664062 168.265625 C 217.574219 168.699219 217.414062 169.09375 217.183594 169.449219 C 216.953125 169.800781 216.667969 170.089844 216.335938 170.3125 C 216 170.535156 215.636719 170.671875 215.25 170.726562 C 214.863281 170.78125 214.476562 170.746094 214.09375 170.625 C 213.710938 170.503906 213.359375 170.304688 213.039062 170.027344 C 212.722656 169.75 212.457031 169.414062 212.253906 169.023438 C 212.046875 168.628906 211.910156 168.210938 211.847656 167.761719 C 211.785156 167.316406 211.800781 166.875 211.890625 166.441406 C 211.980469 166.007812 212.140625 165.613281 212.371094 165.257812 C 212.601562 164.902344 212.882812 164.617188 213.21875 164.394531 C 213.554688 164.171875 213.914062 164.035156 214.304688 163.980469 C 214.691406 163.925781 215.078125 163.957031 215.460938 164.078125 C 215.84375 164.199219 216.195312 164.398438 216.511719 164.675781 C 216.832031 164.957031 217.09375 165.289062 217.300781 165.683594 C 217.507812 166.074219 217.644531 166.496094 217.707031 166.941406 Z M 217.707031 166.941406 "/></g></g></g><g clip-rule="nonzero" clip-path="url(#f179281ef9)"><g clip-rule="nonzero" clip-path="url(#379c9f64c3)"><g clip-rule="nonzero" clip-path="url(#b11356993f)"><path style=" stroke:none;fill-rule:nonzero;fill:#556b2f;fill-opacity:1;" d="M 225.25 165.097656 C 225.191406 165.546875 225.0625 165.964844 224.859375 166.363281 C 224.660156 166.757812 224.398438 167.09375 224.085938 167.375 C 223.769531 167.65625 223.421875 167.859375 223.039062 167.988281 C 222.65625 168.113281 222.273438 168.148438 221.882812 168.101562 C 221.496094 168.050781 221.132812 167.917969 220.792969 167.699219 C 220.457031 167.480469 220.171875 167.195312 219.9375 166.84375 C 219.703125 166.492188 219.535156 166.101562 219.441406 165.667969 C 219.34375 165.234375 219.324219 164.792969 219.382812 164.347656 C 219.441406 163.898438 219.570312 163.476562 219.773438 163.082031 C 219.972656 162.6875 220.234375 162.347656 220.546875 162.066406 C 220.863281 161.785156 221.210938 161.582031 221.59375 161.457031 C 221.976562 161.332031 222.359375 161.292969 222.75 161.34375 C 223.136719 161.394531 223.5 161.527344 223.839844 161.742188 C 224.175781 161.960938 224.460938 162.246094 224.695312 162.597656 C 224.929688 162.949219 225.097656 163.34375 225.191406 163.777344 C 225.289062 164.207031 225.308594 164.648438 225.25 165.097656 Z M 225.25 165.097656 "/></g></g></g><g clip-rule="nonzero" clip-path="url(#82b1f19685)"><g clip-rule="nonzero" clip-path="url(#3813609359)"><g clip-rule="nonzero" clip-path="url(#822045263f)"><path style=" stroke:none;fill-rule:nonzero;fill:#556b2f;fill-opacity:1;" d="M 237.128906 170.992188 C 237.417969 171.253906 237.640625 171.570312 237.792969 171.941406 C 237.945312 172.3125 238.019531 172.710938 238.011719 173.132812 C 238 173.554688 237.914062 173.972656 237.746094 174.382812 C 237.578125 174.792969 237.339844 175.164062 237.039062 175.5 C 236.734375 175.835938 236.386719 176.109375 235.996094 176.316406 C 235.605469 176.527344 235.199219 176.65625 234.78125 176.707031 C 234.359375 176.757812 233.957031 176.726562 233.574219 176.609375 C 233.1875 176.496094 232.851562 176.308594 232.558594 176.042969 C 232.269531 175.78125 232.046875 175.464844 231.894531 175.09375 C 231.742188 174.722656 231.667969 174.324219 231.675781 173.902344 C 231.6875 173.480469 231.773438 173.0625 231.941406 172.652344 C 232.113281 172.242188 232.347656 171.871094 232.648438 171.535156 C 232.953125 171.199219 233.300781 170.929688 233.691406 170.71875 C 234.082031 170.511719 234.488281 170.378906 234.90625 170.328125 C 235.328125 170.277344 235.730469 170.308594 236.113281 170.425781 C 236.5 170.539062 236.835938 170.726562 237.128906 170.992188 Z M 237.128906 170.992188 "/></g></g></g><g clip-rule="nonzero" clip-path="url(#212a57fc89)"><g clip-rule="nonzero" clip-path="url(#663e5743d9)"><g clip-rule="nonzero" clip-path="url(#1a737589ea)"><path style=" stroke:none;fill-rule:nonzero;fill:#556b2f;fill-opacity:1;" d="M 232.753906 168.449219 C 232.550781 168.851562 232.285156 169.207031 231.964844 169.511719 C 231.640625 169.816406 231.285156 170.046875 230.894531 170.207031 C 230.5 170.367188 230.105469 170.441406 229.703125 170.433594 C 229.300781 170.425781 228.925781 170.332031 228.578125 170.152344 C 228.226562 169.976562 227.929688 169.730469 227.683594 169.410156 C 227.4375 169.09375 227.265625 168.730469 227.160156 168.320312 C 227.058594 167.910156 227.035156 167.484375 227.085938 167.042969 C 227.140625 166.605469 227.269531 166.183594 227.476562 165.78125 C 227.679688 165.378906 227.941406 165.023438 228.265625 164.71875 C 228.585938 164.414062 228.945312 164.183594 229.335938 164.023438 C 229.726562 163.863281 230.125 163.785156 230.523438 163.796875 C 230.925781 163.804688 231.300781 163.898438 231.652344 164.074219 C 232 164.253906 232.300781 164.5 232.542969 164.816406 C 232.789062 165.136719 232.964844 165.5 233.066406 165.910156 C 233.171875 166.320312 233.195312 166.746094 233.140625 167.183594 C 233.085938 167.625 232.957031 168.046875 232.753906 168.449219 Z M 232.753906 168.449219 "/></g></g></g><g clip-rule="nonzero" clip-path="url(#74d6e79102)"><g clip-rule="nonzero" clip-path="url(#ae026dd6e2)"><g clip-rule="nonzero" clip-path="url(#20cb691590)"><path style=" stroke:none;fill-rule:nonzero;fill:#556b2f;fill-opacity:1;" d="M 272.074219 217.253906 C 271.117188 220.351562 269.125 222.382812 265.996094 221.796875 C 262.484375 221.132812 263.316406 217.921875 259.878906 219.03125 C 254.371094 220.8125 251.976562 216.054688 253.371094 211.515625 C 254.761719 206.976562 260.480469 203.28125 265.644531 204.871094 C 270.808594 206.460938 273.464844 212.714844 272.074219 217.253906 Z M 272.074219 217.253906 "/></g></g></g><g clip-rule="nonzero" clip-path="url(#a098302f97)"><g clip-rule="nonzero" clip-path="url(#586c4071d4)"><g clip-rule="nonzero" clip-path="url(#3155b81852)"><path style=" stroke:none;fill-rule:nonzero;fill:#556b2f;fill-opacity:1;" d="M 258.800781 201.109375 C 258.863281 201.558594 258.847656 202 258.757812 202.433594 C 258.667969 202.867188 258.507812 203.261719 258.277344 203.617188 C 258.046875 203.96875 257.765625 204.257812 257.429688 204.480469 C 257.09375 204.703125 256.734375 204.839844 256.34375 204.894531 C 255.957031 204.949219 255.570312 204.914062 255.1875 204.792969 C 254.804688 204.671875 254.453125 204.472656 254.136719 204.195312 C 253.816406 203.917969 253.554688 203.582031 253.347656 203.191406 C 253.140625 202.796875 253.007812 202.378906 252.945312 201.929688 C 252.878906 201.484375 252.894531 201.042969 252.984375 200.609375 C 253.074219 200.175781 253.238281 199.78125 253.46875 199.425781 C 253.695312 199.070312 253.980469 198.785156 254.3125 198.5625 C 254.648438 198.339844 255.011719 198.203125 255.398438 198.148438 C 255.789062 198.09375 256.171875 198.125 256.554688 198.246094 C 256.9375 198.367188 257.289062 198.566406 257.609375 198.84375 C 257.925781 199.125 258.191406 199.457031 258.398438 199.851562 C 258.601562 200.242188 258.738281 200.664062 258.800781 201.109375 Z M 258.800781 201.109375 "/></g></g></g><g clip-rule="nonzero" clip-path="url(#b0385f9fa2)"><g clip-rule="nonzero" clip-path="url(#4e9675d6c8)"><g clip-rule="nonzero" clip-path="url(#173af0427b)"><path style=" stroke:none;fill-rule:nonzero;fill:#556b2f;fill-opacity:1;" d="M 266.332031 199.269531 C 266.273438 199.714844 266.144531 200.136719 265.941406 200.53125 C 265.742188 200.925781 265.484375 201.265625 265.167969 201.546875 C 264.851562 201.828125 264.503906 202.03125 264.121094 202.15625 C 263.742188 202.28125 263.355469 202.320312 262.964844 202.269531 C 262.578125 202.222656 262.214844 202.085938 261.875 201.871094 C 261.539062 201.652344 261.253906 201.367188 261.019531 201.015625 C 260.785156 200.664062 260.621094 200.269531 260.523438 199.839844 C 260.425781 199.40625 260.410156 198.964844 260.464844 198.515625 C 260.523438 198.070312 260.652344 197.648438 260.855469 197.253906 C 261.054688 196.859375 261.316406 196.519531 261.628906 196.238281 C 261.945312 195.957031 262.296875 195.753906 262.675781 195.628906 C 263.058594 195.503906 263.441406 195.464844 263.832031 195.515625 C 264.222656 195.5625 264.582031 195.699219 264.921875 195.914062 C 265.257812 196.132812 265.542969 196.417969 265.777344 196.769531 C 266.011719 197.121094 266.179688 197.515625 266.273438 197.945312 C 266.371094 198.378906 266.390625 198.820312 266.332031 199.269531 Z M 266.332031 199.269531 "/></g></g></g><g clip-rule="nonzero" clip-path="url(#b25c0eaec2)"><g clip-rule="nonzero" clip-path="url(#f10327ad18)"><g clip-rule="nonzero" clip-path="url(#774dbde581)"><path style=" stroke:none;fill-rule:nonzero;fill:#556b2f;fill-opacity:1;" d="M 278.21875 205.152344 C 278.511719 205.414062 278.730469 205.734375 278.886719 206.105469 C 279.039062 206.476562 279.109375 206.871094 279.101562 207.296875 C 279.09375 207.71875 279.003906 208.132812 278.835938 208.542969 C 278.667969 208.953125 278.433594 209.328125 278.128906 209.664062 C 277.828125 209.996094 277.480469 210.269531 277.089844 210.480469 C 276.695312 210.6875 276.292969 210.816406 275.871094 210.867188 C 275.453125 210.917969 275.050781 210.886719 274.664062 210.773438 C 274.28125 210.660156 273.941406 210.46875 273.652344 210.207031 C 273.359375 209.945312 273.136719 209.625 272.984375 209.253906 C 272.832031 208.882812 272.761719 208.488281 272.769531 208.0625 C 272.777344 207.640625 272.867188 207.226562 273.035156 206.816406 C 273.203125 206.40625 273.4375 206.03125 273.742188 205.695312 C 274.042969 205.363281 274.390625 205.089844 274.78125 204.878906 C 275.171875 204.671875 275.578125 204.542969 276 204.492188 C 276.417969 204.441406 276.820312 204.472656 277.207031 204.585938 C 277.589844 204.699219 277.929688 204.890625 278.21875 205.152344 Z M 278.21875 205.152344 "/></g></g></g><g clip-rule="nonzero" clip-path="url(#def784941c)"><g clip-rule="nonzero" clip-path="url(#0facb8f44d)"><g clip-rule="nonzero" clip-path="url(#d3d9a4e3fa)"><path style=" stroke:none;fill-rule:nonzero;fill:#556b2f;fill-opacity:1;" d="M 273.839844 202.613281 C 273.636719 203.015625 273.375 203.371094 273.050781 203.675781 C 272.730469 203.980469 272.371094 204.210938 271.980469 204.371094 C 271.589844 204.53125 271.191406 204.605469 270.792969 204.597656 C 270.390625 204.589844 270.015625 204.496094 269.664062 204.316406 C 269.316406 204.140625 269.015625 203.894531 268.773438 203.574219 C 268.527344 203.257812 268.351562 202.894531 268.25 202.484375 C 268.144531 202.074219 268.121094 201.648438 268.175781 201.207031 C 268.230469 200.769531 268.359375 200.347656 268.5625 199.945312 C 268.765625 199.539062 269.03125 199.1875 269.351562 198.882812 C 269.675781 198.578125 270.03125 198.34375 270.421875 198.1875 C 270.8125 198.027344 271.210938 197.949219 271.613281 197.960938 C 272.011719 197.96875 272.390625 198.0625 272.738281 198.238281 C 273.089844 198.417969 273.386719 198.664062 273.632812 198.980469 C 273.878906 199.300781 274.050781 199.664062 274.15625 200.074219 C 274.257812 200.484375 274.28125 200.910156 274.226562 201.347656 C 274.171875 201.789062 274.042969 202.210938 273.839844 202.613281 Z M 273.839844 202.613281 "/></g></g></g><g clip-rule="nonzero" clip-path="url(#aec8ee9a17)"><g clip-rule="nonzero" clip-path="url(#6c409871b2)"><g clip-rule="nonzero" clip-path="url(#96e1dd1bab)"><path style=" stroke:none;fill-rule:nonzero;fill:#8f9e8b;fill-opacity:1;" d="M 214.308594 242.339844 C 213.921875 242.125 213.574219 241.859375 213.246094 241.542969 C 211.566406 239.886719 211.042969 236.984375 211.917969 234.132812 C 212.664062 231.71875 214.503906 229.519531 216.96875 228.097656 C 219.589844 226.59375 222.476562 226.207031 225.085938 227.011719 C 227.566406 227.773438 229.671875 229.582031 231.011719 232.101562 C 232.398438 234.714844 232.769531 237.78125 231.996094 240.300781 C 230.828125 244.105469 228.308594 245.9375 225.097656 245.339844 C 223.265625 244.992188 222.414062 244.011719 221.792969 243.285156 C 221.089844 242.46875 220.765625 242.089844 219.332031 242.550781 C 217.414062 243.179688 215.675781 243.09375 214.308594 242.339844 Z M 226.140625 229.019531 C 225.671875 228.761719 225.179688 228.554688 224.671875 228.394531 C 222.445312 227.707031 219.960938 228.050781 217.695312 229.355469 C 215.570312 230.574219 213.929688 232.523438 213.300781 234.566406 C 212.578125 236.902344 212.957031 239.242188 214.265625 240.523438 C 215.34375 241.582031 216.945312 241.816406 218.90625 241.183594 C 221.253906 240.425781 222.125 241.445312 222.902344 242.347656 C 223.488281 243.027344 224.046875 243.675781 225.378906 243.933594 C 227.105469 244.25 229.421875 243.816406 230.632812 239.890625 C 231.296875 237.730469 230.964844 235.078125 229.753906 232.792969 C 228.871094 231.125 227.613281 229.832031 226.140625 229.019531 Z M 226.140625 229.019531 "/></g></g></g><g clip-rule="nonzero" clip-path="url(#e818c153ef)"><g clip-rule="nonzero" clip-path="url(#892dd66692)"><g clip-rule="nonzero" clip-path="url(#c59102662e)"><path style=" stroke:none;fill-rule:nonzero;fill:#8f9e8b;fill-opacity:1;" d="M 213.496094 226.796875 C 213.265625 226.667969 213.039062 226.511719 212.820312 226.324219 C 212.050781 225.652344 211.539062 224.6875 211.386719 223.613281 C 211.234375 222.542969 211.457031 221.476562 212.023438 220.617188 C 212.601562 219.726562 213.46875 219.152344 214.460938 219.011719 C 215.453125 218.871094 216.445312 219.179688 217.242188 219.875 C 218.015625 220.546875 218.527344 221.515625 218.675781 222.585938 C 218.828125 223.65625 218.605469 224.726562 218.042969 225.585938 C 217.460938 226.472656 216.59375 227.046875 215.605469 227.1875 C 214.878906 227.292969 214.148438 227.15625 213.496094 226.796875 Z M 215.882812 220.683594 C 215.496094 220.46875 215.078125 220.386719 214.65625 220.449219 C 214.085938 220.523438 213.578125 220.867188 213.234375 221.402344 C 212.867188 221.96875 212.722656 222.683594 212.824219 223.417969 C 212.921875 224.148438 213.261719 224.792969 213.777344 225.242188 C 214.257812 225.660156 214.84375 225.847656 215.414062 225.769531 C 215.988281 225.691406 216.496094 225.347656 216.839844 224.8125 C 217.203125 224.246094 217.351562 223.53125 217.25 222.800781 C 217.152344 222.066406 216.8125 221.421875 216.296875 220.976562 C 216.164062 220.855469 216.023438 220.761719 215.882812 220.683594 Z M 215.882812 220.683594 "/></g></g></g><g clip-rule="nonzero" clip-path="url(#c10f6a0811)"><g clip-rule="nonzero" clip-path="url(#d53eedc9fb)"><g clip-rule="nonzero" clip-path="url(#e4306c8489)"><path style=" stroke:none;fill-rule:nonzero;fill:#8f9e8b;fill-opacity:1;" d="M 220.855469 224.179688 C 219.507812 223.4375 218.679688 221.785156 218.90625 220.007812 C 219.199219 217.75 221.074219 216.121094 223.082031 216.375 C 224.074219 216.503906 224.945312 217.0625 225.539062 217.949219 C 226.113281 218.804688 226.34375 219.863281 226.207031 220.941406 C 225.917969 223.195312 224.039062 224.824219 222.03125 224.570312 C 221.613281 224.515625 221.214844 224.375 220.855469 224.179688 Z M 223.574219 218.027344 C 223.363281 217.914062 223.140625 217.835938 222.902344 217.804688 C 221.679688 217.644531 220.535156 218.714844 220.339844 220.179688 C 220.152344 221.652344 220.988281 222.972656 222.214844 223.125 C 223.433594 223.285156 224.582031 222.214844 224.777344 220.746094 C 224.867188 220.019531 224.710938 219.304688 224.335938 218.738281 C 224.136719 218.4375 223.867188 218.191406 223.574219 218.027344 Z M 223.574219 218.027344 "/></g></g></g><g clip-rule="nonzero" clip-path="url(#df1c48382a)"><g clip-rule="nonzero" clip-path="url(#72eb37d6fd)"><g clip-rule="nonzero" clip-path="url(#91304f8d4c)"><path style=" stroke:none;fill-rule:nonzero;fill:#8f9e8b;fill-opacity:1;" d="M 232.949219 232.769531 C 232.734375 232.648438 232.523438 232.496094 232.328125 232.324219 C 231.582031 231.648438 231.183594 230.695312 231.210938 229.632812 C 231.234375 228.613281 231.640625 227.601562 232.371094 226.792969 C 233.097656 225.988281 234.054688 225.480469 235.074219 225.355469 C 236.132812 225.226562 237.117188 225.53125 237.867188 226.199219 C 238.609375 226.875 239.011719 227.824219 238.984375 228.890625 C 238.960938 229.910156 238.550781 230.921875 237.824219 231.726562 C 236.5 233.203125 234.453125 233.59375 232.949219 232.769531 Z M 236.546875 227.019531 C 236.175781 226.8125 235.726562 226.730469 235.253906 226.789062 C 234.578125 226.867188 233.9375 227.21875 233.445312 227.761719 C 232.957031 228.304688 232.675781 228.984375 232.65625 229.660156 C 232.644531 230.304688 232.871094 230.867188 233.300781 231.25 C 234.21875 232.078125 235.765625 231.859375 236.757812 230.757812 C 237.25 230.210938 237.53125 229.535156 237.546875 228.859375 C 237.5625 228.214844 237.332031 227.652344 236.902344 227.269531 C 236.792969 227.171875 236.671875 227.085938 236.546875 227.019531 Z M 236.546875 227.019531 "/></g></g></g><g clip-rule="nonzero" clip-path="url(#089d8e7798)"><g clip-rule="nonzero" clip-path="url(#31bd3a0357)"><g clip-rule="nonzero" clip-path="url(#beda25b35b)"><path style=" stroke:none;fill-rule:nonzero;fill:#8f9e8b;fill-opacity:1;" d="M 228.398438 226.496094 C 226.667969 225.539062 226.082031 223.195312 227.085938 221.207031 C 227.570312 220.238281 228.367188 219.496094 229.3125 219.101562 C 230.292969 218.699219 231.332031 218.722656 232.226562 219.179688 C 234.039062 220.09375 234.675781 222.492188 233.648438 224.523438 C 233.160156 225.492188 232.367188 226.234375 231.417969 226.628906 C 230.4375 227.03125 229.398438 227.007812 228.503906 226.550781 C 228.464844 226.527344 228.429688 226.507812 228.398438 226.496094 Z M 231.636719 220.5 C 231.613281 220.488281 231.601562 220.480469 231.582031 220.46875 C 231.0625 220.210938 230.457031 220.199219 229.859375 220.4375 C 229.234375 220.695312 228.699219 221.199219 228.367188 221.847656 C 227.710938 223.140625 228.039062 224.640625 229.09375 225.21875 C 229.113281 225.230469 229.128906 225.238281 229.148438 225.25 C 229.664062 225.507812 230.273438 225.519531 230.871094 225.28125 C 231.496094 225.023438 232.03125 224.523438 232.359375 223.871094 C 233.015625 222.578125 232.6875 221.078125 231.636719 220.5 Z M 231.636719 220.5 "/></g></g></g><g style="fill:#556b2f;fill-opacity:1;"><g transform="translate(86.791996, 254.136095)"><path style="stroke:none" d="M 10.4375 -25.203125 C 8.738281 -25.117188 7.273438 -24.664062 6.046875 -23.84375 C 4.816406 -23.03125 3.835938 -22 3.109375 -20.75 C 2.390625 -19.5 1.929688 -18.1875 1.734375 -16.8125 C 1.546875 -15.445312 1.644531 -14.140625 2.03125 -12.890625 C 2.414062 -11.648438 3.113281 -10.628906 4.125 -9.828125 C 4.144531 -9.347656 4.015625 -9.128906 3.734375 -9.171875 C 3.453125 -9.222656 3.125 -9.390625 2.75 -9.671875 C 1.707031 -10.472656 0.972656 -11.535156 0.546875 -12.859375 C 0.117188 -14.191406 -0.0078125 -15.601562 0.15625 -17.09375 C 0.320312 -18.582031 0.796875 -20 1.578125 -21.34375 C 2.367188 -22.6875 3.457031 -23.8125 4.84375 -24.71875 C 6.238281 -25.625 7.953125 -26.128906 9.984375 -26.234375 C 12.222656 -26.335938 14.085938 -26.03125 15.578125 -25.3125 C 17.066406 -24.601562 18.191406 -23.628906 18.953125 -22.390625 C 19.722656 -21.160156 20.164062 -19.828125 20.28125 -18.390625 C 20.40625 -16.960938 20.210938 -15.578125 19.703125 -14.234375 C 19.191406 -12.890625 18.394531 -11.738281 17.3125 -10.78125 C 16.226562 -9.832031 14.875 -9.226562 13.25 -8.96875 C 13.769531 -8.113281 14.3125 -7.171875 14.875 -6.140625 C 15.445312 -5.109375 16.066406 -4.113281 16.734375 -3.15625 C 17.398438 -2.207031 18.125 -1.394531 18.90625 -0.71875 C 19.695312 -0.0507812 20.578125 0.351562 21.546875 0.5 C 22.515625 0.65625 23.570312 0.429688 24.71875 -0.171875 C 25.164062 0.109375 25.40625 0.46875 25.4375 0.90625 C 25.46875 1.34375 25.363281 1.75 25.125 2.125 C 24.882812 2.5 24.539062 2.765625 24.09375 2.921875 C 22.988281 3.242188 21.914062 3.171875 20.875 2.703125 C 19.832031 2.234375 18.851562 1.519531 17.9375 0.5625 C 17.019531 -0.382812 16.140625 -1.453125 15.296875 -2.640625 C 14.460938 -3.828125 13.675781 -4.984375 12.9375 -6.109375 C 12.207031 -7.242188 11.523438 -8.191406 10.890625 -8.953125 C 10.660156 -8.972656 10.445312 -9.003906 10.25 -9.046875 C 10.050781 -9.097656 9.863281 -9.148438 9.6875 -9.203125 C 9.757812 -7.640625 9.789062 -6.082031 9.78125 -4.53125 C 9.769531 -2.976562 9.710938 -1.625 9.609375 -0.46875 C 9.515625 0.675781 9.367188 1.46875 9.171875 1.90625 C 8.960938 2.414062 8.59375 2.726562 8.0625 2.84375 C 7.539062 2.957031 7.039062 2.90625 6.5625 2.6875 C 6.082031 2.46875 5.785156 2.128906 5.671875 1.671875 C 6.035156 0.285156 6.328125 -1.375 6.546875 -3.3125 C 6.765625 -5.25 6.929688 -7.296875 7.046875 -9.453125 C 7.171875 -11.609375 7.234375 -13.722656 7.234375 -15.796875 C 7.242188 -17.878906 7.207031 -19.742188 7.125 -21.390625 C 7.09375 -21.878906 7.265625 -22.195312 7.640625 -22.34375 C 8.015625 -22.5 8.394531 -22.488281 8.78125 -22.3125 C 9.164062 -22.132812 9.367188 -21.789062 9.390625 -21.28125 C 9.441406 -20.40625 9.460938 -19.125 9.453125 -17.4375 C 9.453125 -15.757812 9.488281 -13.785156 9.5625 -11.515625 C 9.976562 -11.835938 10.5 -11.832031 11.125 -11.5 C 11.613281 -11.1875 12.109375 -10.648438 12.609375 -9.890625 C 13.628906 -10.054688 14.53125 -10.554688 15.3125 -11.390625 C 16.09375 -12.222656 16.703125 -13.234375 17.140625 -14.421875 C 17.585938 -15.609375 17.804688 -16.84375 17.796875 -18.125 C 17.796875 -19.414062 17.546875 -20.609375 17.046875 -21.703125 C 16.554688 -22.796875 15.769531 -23.671875 14.6875 -24.328125 C 13.601562 -24.992188 12.1875 -25.285156 10.4375 -25.203125 Z M 10.4375 -25.203125 "/></g></g><g style="fill:#556b2f;fill-opacity:1;"><g transform="translate(110.370575, 252.973414)"><path style="stroke:none" d="M 8.390625 -9.78125 C 8.554688 -9.9375 8.769531 -9.988281 9.03125 -9.9375 C 9.289062 -9.894531 9.359375 -9.640625 9.234375 -9.171875 C 8.941406 -8.222656 8.617188 -7.1875 8.265625 -6.0625 C 7.910156 -4.945312 7.5 -3.875 7.03125 -2.84375 C 6.570312 -1.820312 6.023438 -0.992188 5.390625 -0.359375 C 4.765625 0.273438 4.023438 0.597656 3.171875 0.609375 C 1.867188 0.617188 0.894531 0.253906 0.25 -0.484375 C -0.394531 -1.234375 -0.804688 -2.175781 -0.984375 -3.3125 C -1.160156 -4.457031 -1.175781 -5.640625 -1.03125 -6.859375 C -0.894531 -8.078125 -0.703125 -9.191406 -0.453125 -10.203125 C -0.203125 -11.222656 0.015625 -11.960938 0.203125 -12.421875 C 0.285156 -12.609375 0.507812 -12.738281 0.875 -12.8125 C 1.238281 -12.882812 1.582031 -12.835938 1.90625 -12.671875 C 2.226562 -12.515625 2.375 -12.160156 2.34375 -11.609375 C 2.300781 -11.128906 2.242188 -10.429688 2.171875 -9.515625 C 2.097656 -8.597656 2.023438 -7.625 1.953125 -6.59375 C 1.878906 -5.570312 1.859375 -4.585938 1.890625 -3.640625 C 1.921875 -2.703125 2.039062 -1.941406 2.25 -1.359375 C 2.46875 -0.773438 2.800781 -0.492188 3.25 -0.515625 C 3.976562 -0.554688 4.648438 -1.054688 5.265625 -2.015625 C 5.890625 -2.972656 6.457031 -4.160156 6.96875 -5.578125 C 7.488281 -6.992188 7.960938 -8.394531 8.390625 -9.78125 Z M 1.78125 -14.78125 C 1.144531 -14.75 0.734375 -14.9375 0.546875 -15.34375 C 0.359375 -15.757812 0.328125 -16.242188 0.453125 -16.796875 C 0.578125 -17.359375 0.820312 -17.832031 1.1875 -18.21875 C 1.5625 -18.613281 2.007812 -18.785156 2.53125 -18.734375 C 3.050781 -18.660156 3.421875 -18.421875 3.640625 -18.015625 C 3.859375 -17.617188 3.929688 -17.175781 3.859375 -16.6875 C 3.796875 -16.195312 3.582031 -15.765625 3.21875 -15.390625 C 2.863281 -15.015625 2.382812 -14.8125 1.78125 -14.78125 Z M 1.78125 -14.78125 "/></g></g><g style="fill:#556b2f;fill-opacity:1;"><g transform="translate(119.212545, 252.537409)"><path style="stroke:none" d="M -2.875 -11.359375 C -3.300781 -11.191406 -3.585938 -11.238281 -3.734375 -11.5 C -3.878906 -11.757812 -3.835938 -12.050781 -3.609375 -12.375 L -2.53125 -12.6875 C -2.144531 -12.894531 -1.726562 -13.109375 -1.28125 -13.328125 C -0.84375 -13.546875 -0.390625 -13.785156 0.078125 -14.046875 C 0.429688 -15.515625 0.878906 -16.851562 1.421875 -18.0625 C 1.972656 -19.269531 2.585938 -20.203125 3.265625 -20.859375 C 3.953125 -21.515625 4.6875 -21.710938 5.46875 -21.453125 C 6.25 -21.210938 6.628906 -20.738281 6.609375 -20.03125 C 6.597656 -19.320312 6.296875 -18.53125 5.703125 -17.65625 C 5.117188 -16.78125 4.347656 -15.9375 3.390625 -15.125 C 3.160156 -14.90625 2.882812 -14.691406 2.5625 -14.484375 L 2.5 -13.90625 C 3.28125 -14.03125 4.046875 -14.117188 4.796875 -14.171875 C 5.546875 -14.222656 6.300781 -14.234375 7.0625 -14.203125 C 7.5 -14.191406 7.703125 -14.019531 7.671875 -13.6875 C 7.640625 -13.351562 7.503906 -13.109375 7.265625 -12.953125 C 6.835938 -12.992188 6.191406 -13.03125 5.328125 -13.0625 C 4.460938 -13.09375 3.460938 -13.019531 2.328125 -12.84375 C 2.234375 -12.207031 2.15625 -11.5625 2.09375 -10.90625 C 2.039062 -10.25 1.984375 -9.566406 1.921875 -8.859375 C 1.847656 -7.796875 1.800781 -6.617188 1.78125 -5.328125 C 1.757812 -4.046875 1.789062 -2.8125 1.875 -1.625 C 1.96875 -0.445312 2.144531 0.507812 2.40625 1.25 C 2.664062 2 3.039062 2.359375 3.53125 2.328125 C 4.070312 2.304688 4.65625 1.859375 5.28125 0.984375 C 5.90625 0.117188 6.523438 -0.953125 7.140625 -2.234375 C 7.753906 -3.523438 8.3125 -4.851562 8.8125 -6.21875 C 9.320312 -7.59375 9.738281 -8.804688 10.0625 -9.859375 C 10.238281 -10.015625 10.453125 -10.066406 10.703125 -10.015625 C 10.960938 -9.972656 11.035156 -9.722656 10.921875 -9.265625 C 10.671875 -8.484375 10.367188 -7.554688 10.015625 -6.484375 C 9.660156 -5.421875 9.242188 -4.316406 8.765625 -3.171875 C 8.296875 -2.023438 7.773438 -0.953125 7.203125 0.046875 C 6.640625 1.046875 6.039062 1.863281 5.40625 2.5 C 4.769531 3.144531 4.113281 3.46875 3.4375 3.46875 C 2.53125 3.488281 1.800781 3.113281 1.25 2.34375 C 0.695312 1.582031 0.269531 0.597656 -0.03125 -0.609375 C -0.332031 -1.828125 -0.523438 -3.128906 -0.609375 -4.515625 C -0.691406 -5.898438 -0.707031 -7.226562 -0.65625 -8.5 C -0.625 -9.113281 -0.578125 -9.738281 -0.515625 -10.375 C -0.453125 -11.019531 -0.363281 -11.664062 -0.25 -12.3125 C -0.632812 -12.164062 -1.050781 -12.019531 -1.5 -11.875 C -1.945312 -11.738281 -2.40625 -11.566406 -2.875 -11.359375 Z M 5.375 -20.3125 C 4.84375 -20.5625 4.359375 -20.257812 3.921875 -19.40625 C 3.492188 -18.550781 3.128906 -17.367188 2.828125 -15.859375 C 2.847656 -15.859375 2.867188 -15.878906 2.890625 -15.921875 C 3.597656 -16.503906 4.171875 -17.113281 4.609375 -17.75 C 5.046875 -18.394531 5.332031 -18.953125 5.46875 -19.421875 C 5.601562 -19.898438 5.570312 -20.195312 5.375 -20.3125 Z M 5.375 -20.3125 "/></g></g><g style="fill:#556b2f;fill-opacity:1;"><g transform="translate(129.732222, 252.018674)"><path style="stroke:none" d="M -0.515625 -1.171875 C -0.492188 -1.984375 -0.5 -2.894531 -0.53125 -3.90625 C -0.5625 -4.925781 -0.585938 -5.953125 -0.609375 -6.984375 C -0.640625 -8.023438 -0.613281 -9.003906 -0.53125 -9.921875 C -0.457031 -10.835938 -0.3125 -11.578125 -0.09375 -12.140625 C 0.0195312 -12.410156 0.253906 -12.597656 0.609375 -12.703125 C 0.960938 -12.816406 1.332031 -12.835938 1.71875 -12.765625 C 2.101562 -12.691406 2.40625 -12.523438 2.625 -12.265625 C 2.851562 -12.003906 2.882812 -11.640625 2.71875 -11.171875 C 2.5625 -10.710938 2.429688 -10.144531 2.328125 -9.46875 C 2.234375 -8.800781 2.140625 -8.085938 2.046875 -7.328125 C 2.410156 -8.679688 2.832031 -10.003906 3.3125 -11.296875 C 3.789062 -12.597656 4.335938 -13.664062 4.953125 -14.5 C 5.578125 -15.332031 6.269531 -15.753906 7.03125 -15.765625 C 8.457031 -15.765625 9.488281 -15.273438 10.125 -14.296875 C 10.769531 -13.316406 11.171875 -12.144531 11.328125 -10.78125 C 12.023438 -12.695312 12.800781 -14.191406 13.65625 -15.265625 C 14.507812 -16.347656 15.53125 -16.914062 16.71875 -16.96875 C 18.1875 -17.039062 19.191406 -16.445312 19.734375 -15.1875 C 20.285156 -13.925781 20.476562 -12.304688 20.3125 -10.328125 C 20.226562 -9.410156 20.164062 -8.410156 20.125 -7.328125 C 20.09375 -6.253906 20.097656 -5.222656 20.140625 -4.234375 C 20.191406 -3.253906 20.335938 -2.457031 20.578125 -1.84375 C 20.828125 -1.238281 21.175781 -0.945312 21.625 -0.96875 C 22.164062 -1 22.679688 -1.320312 23.171875 -1.9375 C 23.660156 -2.5625 24.125 -3.351562 24.5625 -4.3125 C 25 -5.269531 25.410156 -6.304688 25.796875 -7.421875 C 26.179688 -8.546875 26.53125 -9.632812 26.84375 -10.6875 C 27.019531 -10.84375 27.234375 -10.894531 27.484375 -10.84375 C 27.742188 -10.800781 27.816406 -10.550781 27.703125 -10.09375 C 27.410156 -9.132812 27.085938 -8.070312 26.734375 -6.90625 C 26.378906 -5.738281 25.957031 -4.613281 25.46875 -3.53125 C 24.976562 -2.445312 24.414062 -1.5625 23.78125 -0.875 C 23.144531 -0.195312 22.398438 0.144531 21.546875 0.15625 C 20.335938 0.164062 19.414062 -0.148438 18.78125 -0.796875 C 18.144531 -1.453125 17.734375 -2.304688 17.546875 -3.359375 C 17.359375 -4.421875 17.285156 -5.554688 17.328125 -6.765625 C 17.378906 -7.972656 17.472656 -9.128906 17.609375 -10.234375 C 17.722656 -11.328125 17.816406 -12.316406 17.890625 -13.203125 C 17.972656 -14.085938 17.929688 -14.785156 17.765625 -15.296875 C 17.609375 -15.804688 17.226562 -16.046875 16.625 -16.015625 C 15.5 -15.953125 14.457031 -14.882812 13.5 -12.8125 C 12.539062 -10.75 11.644531 -7.734375 10.8125 -3.765625 L 10.71875 -3.578125 C 10.53125 -2.660156 10.351562 -2.015625 10.1875 -1.640625 C 10.132812 -1.484375 9.9375 -1.359375 9.59375 -1.265625 C 9.25 -1.179688 8.925781 -1.21875 8.625 -1.375 C 8.332031 -1.539062 8.207031 -1.898438 8.25 -2.453125 C 8.28125 -2.972656 8.320312 -3.71875 8.375 -4.6875 C 8.4375 -5.664062 8.484375 -6.71875 8.515625 -7.84375 C 8.546875 -8.976562 8.535156 -10.066406 8.484375 -11.109375 C 8.429688 -12.160156 8.289062 -13.015625 8.0625 -13.671875 C 7.84375 -14.328125 7.503906 -14.640625 7.046875 -14.609375 C 6.535156 -14.585938 6.019531 -14.15625 5.5 -13.3125 C 4.988281 -12.476562 4.484375 -11.40625 3.984375 -10.09375 C 3.484375 -8.789062 3.039062 -7.441406 2.65625 -6.046875 C 2.269531 -4.660156 1.953125 -3.414062 1.703125 -2.3125 L 1.640625 -1.03125 C 1.597656 -0.570312 1.394531 -0.28125 1.03125 -0.15625 C 0.675781 -0.0390625 0.328125 -0.0625 -0.015625 -0.21875 C -0.359375 -0.382812 -0.523438 -0.703125 -0.515625 -1.171875 Z M -0.515625 -1.171875 "/></g></g><g style="fill:#556b2f;fill-opacity:1;"><g transform="translate(157.02897, 250.672648)"><path style="stroke:none" d="M 5.765625 -16.609375 C 6.847656 -16.785156 7.75 -16.546875 8.46875 -15.890625 C 9.1875 -15.242188 9.703125 -14.316406 10.015625 -13.109375 C 10.328125 -11.898438 10.40625 -10.503906 10.25 -8.921875 C 10.082031 -7.328125 9.738281 -5.898438 9.21875 -4.640625 C 9.34375 -4.609375 9.539062 -4.601562 9.8125 -4.625 C 11 -4.675781 12.109375 -5.082031 13.140625 -5.84375 C 14.179688 -6.613281 15.019531 -8.046875 15.65625 -10.140625 C 15.820312 -10.296875 16.03125 -10.347656 16.28125 -10.296875 C 16.539062 -10.253906 16.613281 -10 16.5 -9.53125 C 15.914062 -7.632812 15.066406 -6.164062 13.953125 -5.125 C 12.835938 -4.082031 11.4375 -3.535156 9.75 -3.484375 C 9.5625 -3.472656 9.375 -3.472656 9.1875 -3.484375 C 9 -3.492188 8.832031 -3.507812 8.6875 -3.53125 C 8.1875 -2.582031 7.585938 -1.800781 6.890625 -1.1875 C 6.203125 -0.582031 5.390625 -0.257812 4.453125 -0.21875 C 3.328125 -0.164062 2.367188 -0.421875 1.578125 -0.984375 C 0.796875 -1.554688 0.191406 -2.304688 -0.234375 -3.234375 C -0.660156 -4.171875 -0.90625 -5.179688 -0.96875 -6.265625 C -1.039062 -7.359375 -0.929688 -8.378906 -0.640625 -9.328125 C -0.390625 -10.222656 0 -10.992188 0.53125 -11.640625 C 1.070312 -12.285156 1.757812 -12.734375 2.59375 -12.984375 C 2.726562 -13.910156 3.054688 -14.710938 3.578125 -15.390625 C 4.109375 -16.066406 4.835938 -16.472656 5.765625 -16.609375 Z M 4.375 -11.90625 C 4.320312 -11.019531 4.421875 -10.085938 4.671875 -9.109375 C 4.921875 -8.140625 5.316406 -7.269531 5.859375 -6.5 C 6.410156 -5.726562 7.132812 -5.179688 8.03125 -4.859375 C 8.238281 -5.472656 8.410156 -6.128906 8.546875 -6.828125 C 8.679688 -7.535156 8.789062 -8.234375 8.875 -8.921875 C 9.050781 -10.296875 9.035156 -11.507812 8.828125 -12.5625 C 8.628906 -13.625 8.289062 -14.414062 7.8125 -14.9375 C 7.332031 -15.457031 6.742188 -15.609375 6.046875 -15.390625 C 5.671875 -15.285156 5.347656 -15.03125 5.078125 -14.625 C 4.816406 -14.21875 4.625 -13.703125 4.5 -13.078125 C 4.988281 -13.015625 5.445312 -12.867188 5.875 -12.640625 C 6.300781 -12.421875 6.585938 -12.117188 6.734375 -11.734375 C 6.867188 -11.390625 6.804688 -11.101562 6.546875 -10.875 C 6.285156 -10.644531 6.035156 -10.582031 5.796875 -10.6875 C 5.515625 -11.53125 5.039062 -11.9375 4.375 -11.90625 Z M 7.578125 -3.828125 C 6.265625 -4.273438 5.179688 -5.113281 4.328125 -6.34375 C 3.484375 -7.570312 2.921875 -8.878906 2.640625 -10.265625 C 2.359375 -9.671875 2.164062 -8.992188 2.0625 -8.234375 C 1.96875 -7.472656 1.941406 -6.71875 1.984375 -5.96875 C 2.035156 -4.789062 2.289062 -3.738281 2.75 -2.8125 C 3.207031 -1.894531 3.84375 -1.429688 4.65625 -1.421875 C 5.320312 -1.421875 5.894531 -1.632812 6.375 -2.0625 C 6.851562 -2.5 7.253906 -3.085938 7.578125 -3.828125 Z M 7.578125 -3.828125 "/></g></g><g style="fill:#8f9e8b;fill-opacity:1;"><g transform="translate(100.026595, 283.401908)"><path style="stroke:none" d="M 13.578125 -0.5 C 11.328125 -0.382812 9.273438 -0.773438 7.421875 -1.671875 C 5.566406 -2.578125 4.078125 -3.882812 2.953125 -5.59375 C 1.835938 -7.300781 1.226562 -9.25 1.125 -11.4375 C 1.007812 -13.625 1.421875 -15.625 2.359375 -17.4375 C 3.304688 -19.25 4.660156 -20.695312 6.421875 -21.78125 C 8.179688 -22.875 10.191406 -23.476562 12.453125 -23.59375 C 14.140625 -23.675781 15.707031 -23.472656 17.15625 -22.984375 C 18.613281 -22.492188 19.867188 -21.726562 20.921875 -20.6875 L 19.46875 -19.109375 C 17.613281 -20.804688 15.332031 -21.585938 12.625 -21.453125 C 10.820312 -21.359375 9.203125 -20.863281 7.765625 -19.96875 C 6.335938 -19.082031 5.242188 -17.90625 4.484375 -16.4375 C 3.734375 -14.96875 3.40625 -13.34375 3.5 -11.5625 C 3.582031 -9.78125 4.070312 -8.195312 4.96875 -6.8125 C 5.875 -5.4375 7.082031 -4.375 8.59375 -3.625 C 10.113281 -2.875 11.773438 -2.546875 13.578125 -2.640625 C 16.304688 -2.773438 18.492188 -3.796875 20.140625 -5.703125 L 21.75 -4.25 C 20.800781 -3.125 19.625 -2.238281 18.21875 -1.59375 C 16.820312 -0.945312 15.273438 -0.582031 13.578125 -0.5 Z M 13.578125 -0.5 "/></g></g><g style="fill:#8f9e8b;fill-opacity:1;"><g transform="translate(123.108895, 282.243856)"><path style="stroke:none" d="M 8.328125 -17.671875 C 10.554688 -17.773438 12.296875 -17.300781 13.546875 -16.25 C 14.796875 -15.195312 15.472656 -13.578125 15.578125 -11.390625 L 16.109375 -0.8125 L 13.890625 -0.703125 L 13.75 -3.375 C 13.28125 -2.445312 12.554688 -1.707031 11.578125 -1.15625 C 10.597656 -0.613281 9.414062 -0.3125 8.03125 -0.25 C 6.132812 -0.15625 4.597656 -0.53125 3.421875 -1.375 C 2.242188 -2.226562 1.617188 -3.40625 1.546875 -4.90625 C 1.472656 -6.34375 1.9375 -7.53125 2.9375 -8.46875 C 3.945312 -9.414062 5.597656 -9.945312 7.890625 -10.0625 L 13.3125 -10.328125 L 13.265625 -11.359375 C 13.191406 -12.835938 12.722656 -13.9375 11.859375 -14.65625 C 10.992188 -15.382812 9.769531 -15.710938 8.1875 -15.640625 C 7.101562 -15.585938 6.078125 -15.359375 5.109375 -14.953125 C 4.140625 -14.546875 3.3125 -14.007812 2.625 -13.34375 L 1.5 -15.015625 C 2.332031 -15.785156 3.34375 -16.398438 4.53125 -16.859375 C 5.71875 -17.328125 6.984375 -17.597656 8.328125 -17.671875 Z M 8.296875 -2.078125 C 9.585938 -2.140625 10.679688 -2.488281 11.578125 -3.125 C 12.484375 -3.769531 13.140625 -4.671875 13.546875 -5.828125 L 13.40625 -8.609375 L 8.046875 -8.34375 C 5.128906 -8.195312 3.71875 -7.109375 3.8125 -5.078125 C 3.863281 -4.078125 4.28125 -3.304688 5.0625 -2.765625 C 5.851562 -2.234375 6.929688 -2.003906 8.296875 -2.078125 Z M 8.296875 -2.078125 "/></g></g><g style="fill:#8f9e8b;fill-opacity:1;"><g transform="translate(142.262982, 281.282884)"><path style="stroke:none" d="M 11.046875 -17.796875 C 13.191406 -17.910156 14.925781 -17.375 16.25 -16.1875 C 17.582031 -15.007812 18.304688 -13.226562 18.421875 -10.84375 L 18.921875 -0.953125 L 16.625 -0.828125 L 16.140625 -10.5 C 16.046875 -12.269531 15.53125 -13.597656 14.59375 -14.484375 C 13.65625 -15.378906 12.363281 -15.785156 10.71875 -15.703125 C 8.882812 -15.609375 7.460938 -14.988281 6.453125 -13.84375 C 5.441406 -12.695312 4.984375 -11.160156 5.078125 -9.234375 L 5.53125 -0.28125 L 3.21875 -0.15625 L 2.359375 -17.234375 L 4.5625 -17.34375 L 4.71875 -14.1875 C 5.289062 -15.257812 6.117188 -16.109375 7.203125 -16.734375 C 8.296875 -17.367188 9.578125 -17.722656 11.046875 -17.796875 Z M 11.046875 -17.796875 "/></g></g><g style="fill:#8f9e8b;fill-opacity:1;"><g transform="translate(164.241488, 280.180209)"><path style="stroke:none" d="M 2.359375 -17.234375 L 4.671875 -17.359375 L 5.53125 -0.28125 L 3.21875 -0.15625 Z M 3.34375 -21.015625 C 2.863281 -20.992188 2.453125 -21.140625 2.109375 -21.453125 C 1.773438 -21.765625 1.597656 -22.144531 1.578125 -22.59375 C 1.554688 -23.03125 1.695312 -23.414062 2 -23.75 C 2.3125 -24.09375 2.707031 -24.273438 3.1875 -24.296875 C 3.664062 -24.316406 4.070312 -24.175781 4.40625 -23.875 C 4.75 -23.582031 4.929688 -23.21875 4.953125 -22.78125 C 4.972656 -22.3125 4.828125 -21.90625 4.515625 -21.5625 C 4.210938 -21.21875 3.820312 -21.035156 3.34375 -21.015625 Z M 3.34375 -21.015625 "/></g></g><g style="fill:#8f9e8b;fill-opacity:1;"><g transform="translate(172.974455, 279.742071)"><path style="stroke:none" d="M 11.046875 -17.796875 C 13.191406 -17.910156 14.925781 -17.375 16.25 -16.1875 C 17.582031 -15.007812 18.304688 -13.226562 18.421875 -10.84375 L 18.921875 -0.953125 L 16.625 -0.828125 L 16.140625 -10.5 C 16.046875 -12.269531 15.53125 -13.597656 14.59375 -14.484375 C 13.65625 -15.378906 12.363281 -15.785156 10.71875 -15.703125 C 8.882812 -15.609375 7.460938 -14.988281 6.453125 -13.84375 C 5.441406 -12.695312 4.984375 -11.160156 5.078125 -9.234375 L 5.53125 -0.28125 L 3.21875 -0.15625 L 2.359375 -17.234375 L 4.5625 -17.34375 L 4.71875 -14.1875 C 5.289062 -15.257812 6.117188 -16.109375 7.203125 -16.734375 C 8.296875 -17.367188 9.578125 -17.722656 11.046875 -17.796875 Z M 11.046875 -17.796875 "/></g></g><g style="fill:#8f9e8b;fill-opacity:1;"><g transform="translate(195.017893, 278.636139)"><path style="stroke:none" d="M 10.203125 -0.359375 C 8.554688 -0.273438 7.050781 -0.570312 5.6875 -1.25 C 4.332031 -1.925781 3.242188 -2.90625 2.421875 -4.1875 C 1.609375 -5.476562 1.160156 -6.953125 1.078125 -8.609375 C 0.992188 -10.273438 1.296875 -11.785156 1.984375 -13.140625 C 2.671875 -14.503906 3.65625 -15.585938 4.9375 -16.390625 C 6.21875 -17.191406 7.679688 -17.632812 9.328125 -17.71875 C 10.972656 -17.800781 12.472656 -17.503906 13.828125 -16.828125 C 15.191406 -16.160156 16.273438 -15.1875 17.078125 -13.90625 C 17.890625 -12.625 18.335938 -11.148438 18.421875 -9.484375 C 18.503906 -7.828125 18.207031 -6.316406 17.53125 -4.953125 C 16.851562 -3.585938 15.875 -2.5 14.59375 -1.6875 C 13.3125 -0.882812 11.847656 -0.441406 10.203125 -0.359375 Z M 10.09375 -2.40625 C 11.3125 -2.46875 12.390625 -2.796875 13.328125 -3.390625 C 14.265625 -3.992188 14.976562 -4.8125 15.46875 -5.84375 C 15.957031 -6.882812 16.171875 -8.054688 16.109375 -9.359375 C 16.035156 -10.660156 15.703125 -11.804688 15.109375 -12.796875 C 14.523438 -13.785156 13.734375 -14.53125 12.734375 -15.03125 C 11.742188 -15.539062 10.640625 -15.765625 9.421875 -15.703125 C 8.210938 -15.640625 7.144531 -15.304688 6.21875 -14.703125 C 5.289062 -14.109375 4.570312 -13.285156 4.0625 -12.234375 C 3.550781 -11.191406 3.332031 -10.019531 3.40625 -8.71875 C 3.46875 -7.414062 3.800781 -6.273438 4.40625 -5.296875 C 5.019531 -4.316406 5.816406 -3.570312 6.796875 -3.0625 C 7.785156 -2.5625 8.882812 -2.34375 10.09375 -2.40625 Z M 10.09375 -2.40625 "/></g></g></g></svg>