<svg xmlns="http://www.w3.org/2000/svg" xmlns:xlink="http://www.w3.org/1999/xlink" width="500" zoomAndPan="magnify" viewBox="0 0 375 374.999991" height="500" preserveAspectRatio="xMidYMid meet" version="1.2"><defs><clipPath id="6d9344e60f"><path d="M 233 114.566406 L 239 114.566406 L 239 121 L 233 121 Z M 233 114.566406 "/></clipPath></defs><g id="d655ac3843"><path style=" stroke:none;fill-rule:nonzero;fill:#556b2f;fill-opacity:1;" d="M 242.878906 129.164062 C 243.441406 131.871094 242.78125 134.214844 240.203125 135.0625 C 237.300781 136.011719 236.605469 133.269531 234.488281 135.511719 C 231.101562 139.113281 227.351562 136.539062 226.523438 132.570312 C 225.695312 128.59375 228.453125 123.484375 232.96875 122.539062 C 237.488281 121.59375 242.050781 125.1875 242.878906 129.164062 Z M 242.878906 129.164062 "/><path style=" stroke:none;fill-rule:nonzero;fill:#556b2f;fill-opacity:1;" d="M 226.292969 122.546875 C 226.527344 122.855469 226.695312 123.191406 226.808594 123.550781 C 226.917969 123.914062 226.960938 124.273438 226.933594 124.636719 C 226.910156 124.996094 226.816406 125.328125 226.65625 125.628906 C 226.496094 125.933594 226.285156 126.1875 226.015625 126.386719 C 225.746094 126.585938 225.445312 126.722656 225.109375 126.789062 C 224.773438 126.855469 224.429688 126.851562 224.074219 126.773438 C 223.722656 126.699219 223.386719 126.554688 223.070312 126.347656 C 222.757812 126.140625 222.480469 125.878906 222.25 125.570312 C 222.019531 125.261719 221.847656 124.925781 221.738281 124.566406 C 221.628906 124.203125 221.585938 123.84375 221.609375 123.480469 C 221.636719 123.121094 221.730469 122.789062 221.890625 122.484375 C 222.046875 122.183594 222.261719 121.929688 222.53125 121.730469 C 222.796875 121.53125 223.101562 121.394531 223.4375 121.328125 C 223.773438 121.261719 224.117188 121.265625 224.46875 121.34375 C 224.824219 121.417969 225.15625 121.5625 225.472656 121.769531 C 225.789062 121.976562 226.0625 122.238281 226.292969 122.546875 Z M 226.292969 122.546875 "/><path style=" stroke:none;fill-rule:nonzero;fill:#556b2f;fill-opacity:1;" d="M 231.171875 118.0625 C 231.3125 118.417969 231.390625 118.789062 231.402344 119.167969 C 231.414062 119.546875 231.359375 119.90625 231.238281 120.246094 C 231.117188 120.585938 230.941406 120.882812 230.707031 121.132812 C 230.472656 121.382812 230.199219 121.570312 229.890625 121.691406 C 229.578125 121.816406 229.25 121.867188 228.910156 121.839844 C 228.566406 121.816406 228.238281 121.722656 227.917969 121.554688 C 227.597656 121.390625 227.3125 121.164062 227.0625 120.878906 C 226.8125 120.59375 226.613281 120.273438 226.472656 119.914062 C 226.332031 119.554688 226.253906 119.1875 226.242188 118.808594 C 226.230469 118.429688 226.285156 118.070312 226.40625 117.730469 C 226.527344 117.390625 226.703125 117.09375 226.9375 116.84375 C 227.171875 116.59375 227.441406 116.40625 227.753906 116.28125 C 228.066406 116.160156 228.394531 116.109375 228.734375 116.132812 C 229.078125 116.15625 229.40625 116.253906 229.726562 116.417969 C 230.046875 116.585938 230.332031 116.8125 230.582031 117.097656 C 230.832031 117.378906 231.027344 117.703125 231.171875 118.0625 Z M 231.171875 118.0625 "/><path style=" stroke:none;fill-rule:nonzero;fill:#556b2f;fill-opacity:1;" d="M 242.488281 117.574219 C 242.8125 117.648438 243.109375 117.796875 243.378906 118.011719 C 243.644531 118.226562 243.863281 118.492188 244.03125 118.8125 C 244.199219 119.132812 244.304688 119.480469 244.347656 119.855469 C 244.390625 120.230469 244.367188 120.609375 244.277344 120.984375 C 244.1875 121.359375 244.042969 121.707031 243.835938 122.023438 C 243.628906 122.339844 243.378906 122.605469 243.085938 122.816406 C 242.792969 123.027344 242.480469 123.167969 242.144531 123.242188 C 241.808594 123.3125 241.476562 123.3125 241.152344 123.234375 C 240.828125 123.15625 240.53125 123.011719 240.261719 122.796875 C 239.996094 122.582031 239.777344 122.316406 239.609375 121.996094 C 239.441406 121.675781 239.335938 121.328125 239.292969 120.953125 C 239.25 120.574219 239.273438 120.199219 239.363281 119.824219 C 239.449219 119.449219 239.597656 119.101562 239.804688 118.785156 C 240.011719 118.46875 240.261719 118.203125 240.554688 117.992188 C 240.847656 117.78125 241.160156 117.640625 241.496094 117.566406 C 241.832031 117.496094 242.160156 117.496094 242.488281 117.574219 Z M 242.488281 117.574219 "/><g clip-rule="nonzero" clip-path="url(#6d9344e60f)"><path style=" stroke:none;fill-rule:nonzero;fill:#556b2f;fill-opacity:1;" d="M 238.171875 117.476562 C 238.183594 117.863281 238.132812 118.234375 238.015625 118.59375 C 237.902344 118.957031 237.730469 119.277344 237.503906 119.558594 C 237.277344 119.839844 237.011719 120.058594 236.707031 120.214844 C 236.402344 120.375 236.082031 120.460938 235.75 120.472656 C 235.414062 120.484375 235.089844 120.421875 234.773438 120.285156 C 234.460938 120.148438 234.179688 119.945312 233.933594 119.683594 C 233.6875 119.417969 233.496094 119.109375 233.355469 118.757812 C 233.214844 118.40625 233.136719 118.039062 233.125 117.652344 C 233.109375 117.265625 233.160156 116.894531 233.277344 116.535156 C 233.390625 116.171875 233.5625 115.851562 233.789062 115.570312 C 234.015625 115.292969 234.28125 115.070312 234.585938 114.914062 C 234.890625 114.753906 235.210938 114.671875 235.546875 114.660156 C 235.878906 114.648438 236.203125 114.710938 236.519531 114.847656 C 236.832031 114.984375 237.113281 115.183594 237.359375 115.445312 C 237.605469 115.710938 237.796875 116.019531 237.9375 116.371094 C 238.078125 116.722656 238.15625 117.089844 238.171875 117.476562 Z M 238.171875 117.476562 "/></g><path style=" stroke:none;fill-rule:nonzero;fill:#8f9e8b;fill-opacity:1;" d="M 270.542969 153.898438 C 270.167969 153.898438 269.796875 153.84375 269.421875 153.742188 C 267.484375 153.195312 265.898438 151.238281 265.378906 148.746094 C 264.941406 146.632812 265.414062 144.230469 266.671875 142.152344 C 268.011719 139.941406 270.011719 138.46875 272.296875 137.992188 C 274.582031 137.519531 277.003906 138.074219 279.113281 139.558594 C 281.097656 140.960938 282.492188 142.972656 282.929688 145.085938 C 283.621094 148.410156 282.492188 150.820312 279.84375 151.695312 C 278.332031 152.1875 277.292969 151.804688 276.523438 151.519531 C 275.664062 151.195312 275.265625 151.046875 274.382812 151.984375 C 273.21875 153.242188 271.878906 153.898438 270.542969 153.898438 Z M 273.917969 139.058594 C 273.460938 139.058594 273.007812 139.105469 272.554688 139.195312 C 270.605469 139.605469 268.894531 140.878906 267.730469 142.792969 C 266.644531 144.578125 266.21875 146.714844 266.589844 148.5 C 267.015625 150.546875 268.257812 152.140625 269.765625 152.566406 C 271.011719 152.914062 272.304688 152.429688 273.507812 151.148438 C 274.953125 149.617188 276.027344 150.019531 276.976562 150.375 C 277.695312 150.644531 278.378906 150.894531 279.480469 150.539062 C 280.90625 150.066406 282.457031 148.789062 281.746094 145.351562 C 281.375 143.574219 280.132812 141.789062 278.421875 140.582031 C 277.011719 139.578125 275.449219 139.058594 273.917969 139.058594 Z M 273.917969 139.058594 "/><path style=" stroke:none;fill-rule:nonzero;fill:#8f9e8b;fill-opacity:1;" d="M 263.53125 142.59375 C 262.476562 142.59375 261.382812 142.070312 260.648438 141.089844 C 260.09375 140.351562 259.820312 139.460938 259.890625 138.585938 C 259.957031 137.683594 260.371094 136.894531 261.054688 136.382812 C 261.738281 135.867188 262.605469 135.691406 263.488281 135.882812 C 264.34375 136.066406 265.125 136.582031 265.679688 137.320312 C 266.84375 138.875 266.664062 140.988281 265.277344 142.019531 C 264.761719 142.410156 264.152344 142.59375 263.53125 142.59375 Z M 262.804688 137.046875 C 262.429688 137.046875 262.078125 137.15625 261.792969 137.375 C 261.394531 137.667969 261.15625 138.132812 261.121094 138.675781 C 261.082031 139.25 261.265625 139.84375 261.640625 140.351562 C 262.402344 141.363281 263.703125 141.671875 264.542969 141.042969 C 265.386719 140.414062 265.453125 139.078125 264.699219 138.066406 C 264.324219 137.558594 263.804688 137.21875 263.238281 137.09375 C 263.09375 137.058594 262.941406 137.046875 262.804688 137.046875 Z M 262.804688 137.046875 "/><path style=" stroke:none;fill-rule:nonzero;fill:#8f9e8b;fill-opacity:1;" d="M 267.964844 137.621094 C 267.480469 137.621094 266.992188 137.496094 266.527344 137.257812 C 265.746094 136.855469 265.140625 136.15625 264.796875 135.292969 C 264.453125 134.433594 264.433594 133.507812 264.722656 132.679688 C 265.023438 131.824219 265.632812 131.183594 266.425781 130.867188 C 268.035156 130.230469 269.929688 131.183594 270.640625 132.996094 C 271.351562 134.800781 270.621094 136.792969 269.011719 137.429688 C 268.675781 137.550781 268.320312 137.621094 267.964844 137.621094 Z M 267.472656 131.894531 C 267.273438 131.894531 267.070312 131.925781 266.875 132.003906 C 266.417969 132.179688 266.0625 132.5625 265.882812 133.085938 C 265.691406 133.632812 265.714844 134.253906 265.945312 134.835938 C 266.179688 135.417969 266.589844 135.890625 267.101562 136.15625 C 267.589844 136.410156 268.109375 136.449219 268.566406 136.265625 C 269.546875 135.882812 269.964844 134.609375 269.503906 133.433594 C 269.121094 132.496094 268.292969 131.894531 267.472656 131.894531 Z M 267.472656 131.894531 "/><path style=" stroke:none;fill-rule:nonzero;fill:#8f9e8b;fill-opacity:1;" d="M 280.554688 139.058594 C 280.335938 139.058594 280.117188 139.03125 279.898438 138.984375 C 279.0625 138.785156 278.371094 138.238281 277.957031 137.429688 C 277.550781 136.65625 277.441406 135.730469 277.65625 134.828125 C 277.867188 133.925781 278.371094 133.152344 279.085938 132.640625 C 279.824219 132.105469 280.6875 131.921875 281.519531 132.121094 C 282.355469 132.316406 283.046875 132.863281 283.464844 133.671875 C 283.867188 134.445312 283.976562 135.371094 283.765625 136.273438 C 283.554688 137.175781 283.046875 137.949219 282.335938 138.460938 C 281.792969 138.859375 281.179688 139.058594 280.554688 139.058594 Z M 280.871094 133.28125 C 280.507812 133.28125 280.136719 133.40625 279.808594 133.644531 C 279.335938 133.980469 279.003906 134.507812 278.859375 135.117188 C 278.714844 135.726562 278.785156 136.347656 279.050781 136.859375 C 279.304688 137.347656 279.707031 137.675781 280.1875 137.785156 C 280.664062 137.902344 281.171875 137.785156 281.617188 137.464844 C 282.089844 137.128906 282.421875 136.601562 282.566406 135.992188 C 282.710938 135.382812 282.644531 134.761719 282.375 134.246094 C 282.121094 133.761719 281.71875 133.433594 281.238281 133.324219 C 281.117188 133.296875 280.992188 133.28125 280.871094 133.28125 Z M 280.871094 133.28125 "/><path style=" stroke:none;fill-rule:nonzero;fill:#8f9e8b;fill-opacity:1;" d="M 274.5625 136.238281 C 272.871094 136.238281 271.46875 134.726562 271.398438 132.824219 C 271.367188 131.898438 271.652344 131.015625 272.199219 130.332031 C 272.769531 129.628906 273.554688 129.21875 274.410156 129.191406 C 276.140625 129.128906 277.605469 130.660156 277.675781 132.605469 C 277.742188 134.546875 276.386719 136.175781 274.65625 136.238281 C 274.621094 136.238281 274.589844 136.238281 274.5625 136.238281 Z M 274.511719 130.421875 C 274.492188 130.421875 274.480469 130.421875 274.457031 130.421875 C 273.964844 130.441406 273.507812 130.683594 273.160156 131.105469 C 272.796875 131.558594 272.605469 132.152344 272.625 132.777344 C 272.664062 134.042969 273.554688 135.035156 274.617188 135 C 275.667969 134.964844 276.492188 133.90625 276.441406 132.640625 C 276.402344 131.40625 275.539062 130.421875 274.511719 130.421875 Z M 274.511719 130.421875 "/><g style="fill:#556b2f;fill-opacity:1;"><g transform="translate(86.543, 177.196998)"><path style="stroke:none" d="M 10.4375 -25.203125 C 8.738281 -25.117188 7.273438 -24.664062 6.046875 -23.84375 C 4.816406 -23.03125 3.835938 -22 3.109375 -20.75 C 2.390625 -19.5 1.929688 -18.1875 1.734375 -16.8125 C 1.546875 -15.445312 1.644531 -14.140625 2.03125 -12.890625 C 2.414062 -11.648438 3.113281 -10.628906 4.125 -9.828125 C 4.144531 -9.347656 4.015625 -9.128906 3.734375 -9.171875 C 3.453125 -9.222656 3.125 -9.390625 2.75 -9.671875 C 1.707031 -10.472656 0.972656 -11.535156 0.546875 -12.859375 C 0.117188 -14.191406 -0.0078125 -15.601562 0.15625 -17.09375 C 0.320312 -18.582031 0.796875 -20 1.578125 -21.34375 C 2.367188 -22.6875 3.457031 -23.8125 4.84375 -24.71875 C 6.238281 -25.625 7.953125 -26.128906 9.984375 -26.234375 C 12.222656 -26.335938 14.085938 -26.03125 15.578125 -25.3125 C 17.066406 -24.601562 18.191406 -23.628906 18.953125 -22.390625 C 19.722656 -21.160156 20.164062 -19.828125 20.28125 -18.390625 C 20.40625 -16.960938 20.210938 -15.578125 19.703125 -14.234375 C 19.191406 -12.890625 18.394531 -11.738281 17.3125 -10.78125 C 16.226562 -9.832031 14.875 -9.226562 13.25 -8.96875 C 13.769531 -8.113281 14.3125 -7.171875 14.875 -6.140625 C 15.445312 -5.109375 16.066406 -4.113281 16.734375 -3.15625 C 17.398438 -2.207031 18.125 -1.394531 18.90625 -0.71875 C 19.695312 -0.0507812 20.578125 0.351562 21.546875 0.5 C 22.515625 0.65625 23.570312 0.429688 24.71875 -0.171875 C 25.164062 0.109375 25.40625 0.46875 25.4375 0.90625 C 25.46875 1.34375 25.363281 1.75 25.125 2.125 C 24.882812 2.5 24.539062 2.765625 24.09375 2.921875 C 22.988281 3.242188 21.914062 3.171875 20.875 2.703125 C 19.832031 2.234375 18.851562 1.519531 17.9375 0.5625 C 17.019531 -0.382812 16.140625 -1.453125 15.296875 -2.640625 C 14.460938 -3.828125 13.675781 -4.984375 12.9375 -6.109375 C 12.207031 -7.242188 11.523438 -8.191406 10.890625 -8.953125 C 10.660156 -8.972656 10.445312 -9.003906 10.25 -9.046875 C 10.050781 -9.097656 9.863281 -9.148438 9.6875 -9.203125 C 9.757812 -7.640625 9.789062 -6.082031 9.78125 -4.53125 C 9.769531 -2.976562 9.710938 -1.625 9.609375 -0.46875 C 9.515625 0.675781 9.367188 1.46875 9.171875 1.90625 C 8.960938 2.414062 8.59375 2.726562 8.0625 2.84375 C 7.539062 2.957031 7.039062 2.90625 6.5625 2.6875 C 6.082031 2.46875 5.785156 2.128906 5.671875 1.671875 C 6.035156 0.285156 6.328125 -1.375 6.546875 -3.3125 C 6.765625 -5.25 6.929688 -7.296875 7.046875 -9.453125 C 7.171875 -11.609375 7.234375 -13.722656 7.234375 -15.796875 C 7.242188 -17.878906 7.207031 -19.742188 7.125 -21.390625 C 7.09375 -21.878906 7.265625 -22.195312 7.640625 -22.34375 C 8.015625 -22.5 8.394531 -22.488281 8.78125 -22.3125 C 9.164062 -22.132812 9.367188 -21.789062 9.390625 -21.28125 C 9.441406 -20.40625 9.460938 -19.125 9.453125 -17.4375 C 9.453125 -15.757812 9.488281 -13.785156 9.5625 -11.515625 C 9.976562 -11.835938 10.5 -11.832031 11.125 -11.5 C 11.613281 -11.1875 12.109375 -10.648438 12.609375 -9.890625 C 13.628906 -10.054688 14.53125 -10.554688 15.3125 -11.390625 C 16.09375 -12.222656 16.703125 -13.234375 17.140625 -14.421875 C 17.585938 -15.609375 17.804688 -16.84375 17.796875 -18.125 C 17.796875 -19.414062 17.546875 -20.609375 17.046875 -21.703125 C 16.554688 -22.796875 15.769531 -23.671875 14.6875 -24.328125 C 13.601562 -24.992188 12.1875 -25.285156 10.4375 -25.203125 Z M 10.4375 -25.203125 "/></g></g><g style="fill:#556b2f;fill-opacity:1;"><g transform="translate(110.12158, 176.034318)"><path style="stroke:none" d="M 8.390625 -9.78125 C 8.554688 -9.9375 8.769531 -9.988281 9.03125 -9.9375 C 9.289062 -9.894531 9.359375 -9.640625 9.234375 -9.171875 C 8.941406 -8.222656 8.617188 -7.1875 8.265625 -6.0625 C 7.910156 -4.945312 7.5 -3.875 7.03125 -2.84375 C 6.570312 -1.820312 6.023438 -0.992188 5.390625 -0.359375 C 4.765625 0.273438 4.023438 0.597656 3.171875 0.609375 C 1.867188 0.617188 0.894531 0.253906 0.25 -0.484375 C -0.394531 -1.234375 -0.804688 -2.175781 -0.984375 -3.3125 C -1.160156 -4.457031 -1.175781 -5.640625 -1.03125 -6.859375 C -0.894531 -8.078125 -0.703125 -9.191406 -0.453125 -10.203125 C -0.203125 -11.222656 0.015625 -11.960938 0.203125 -12.421875 C 0.285156 -12.609375 0.507812 -12.738281 0.875 -12.8125 C 1.238281 -12.882812 1.582031 -12.835938 1.90625 -12.671875 C 2.226562 -12.515625 2.375 -12.160156 2.34375 -11.609375 C 2.300781 -11.128906 2.242188 -10.429688 2.171875 -9.515625 C 2.097656 -8.597656 2.023438 -7.625 1.953125 -6.59375 C 1.878906 -5.570312 1.859375 -4.585938 1.890625 -3.640625 C 1.921875 -2.703125 2.039062 -1.941406 2.25 -1.359375 C 2.46875 -0.773438 2.800781 -0.492188 3.25 -0.515625 C 3.976562 -0.554688 4.648438 -1.054688 5.265625 -2.015625 C 5.890625 -2.972656 6.457031 -4.160156 6.96875 -5.578125 C 7.488281 -6.992188 7.960938 -8.394531 8.390625 -9.78125 Z M 1.78125 -14.78125 C 1.144531 -14.75 0.734375 -14.9375 0.546875 -15.34375 C 0.359375 -15.757812 0.328125 -16.242188 0.453125 -16.796875 C 0.578125 -17.359375 0.820312 -17.832031 1.1875 -18.21875 C 1.5625 -18.613281 2.007812 -18.785156 2.53125 -18.734375 C 3.050781 -18.660156 3.421875 -18.421875 3.640625 -18.015625 C 3.859375 -17.617188 3.929688 -17.175781 3.859375 -16.6875 C 3.796875 -16.195312 3.582031 -15.765625 3.21875 -15.390625 C 2.863281 -15.015625 2.382812 -14.8125 1.78125 -14.78125 Z M 1.78125 -14.78125 "/></g></g><g style="fill:#556b2f;fill-opacity:1;"><g transform="translate(118.96355, 175.598312)"><path style="stroke:none" d="M -2.875 -11.359375 C -3.300781 -11.191406 -3.585938 -11.238281 -3.734375 -11.5 C -3.878906 -11.757812 -3.835938 -12.050781 -3.609375 -12.375 L -2.53125 -12.6875 C -2.144531 -12.894531 -1.726562 -13.109375 -1.28125 -13.328125 C -0.84375 -13.546875 -0.390625 -13.785156 0.078125 -14.046875 C 0.429688 -15.515625 0.878906 -16.851562 1.421875 -18.0625 C 1.972656 -19.269531 2.585938 -20.203125 3.265625 -20.859375 C 3.953125 -21.515625 4.6875 -21.710938 5.46875 -21.453125 C 6.25 -21.210938 6.628906 -20.738281 6.609375 -20.03125 C 6.597656 -19.320312 6.296875 -18.53125 5.703125 -17.65625 C 5.117188 -16.78125 4.347656 -15.9375 3.390625 -15.125 C 3.160156 -14.90625 2.882812 -14.691406 2.5625 -14.484375 L 2.5 -13.90625 C 3.28125 -14.03125 4.046875 -14.117188 4.796875 -14.171875 C 5.546875 -14.222656 6.300781 -14.234375 7.0625 -14.203125 C 7.5 -14.191406 7.703125 -14.019531 7.671875 -13.6875 C 7.640625 -13.351562 7.503906 -13.109375 7.265625 -12.953125 C 6.835938 -12.992188 6.191406 -13.03125 5.328125 -13.0625 C 4.460938 -13.09375 3.460938 -13.019531 2.328125 -12.84375 C 2.234375 -12.207031 2.15625 -11.5625 2.09375 -10.90625 C 2.039062 -10.25 1.984375 -9.566406 1.921875 -8.859375 C 1.847656 -7.796875 1.800781 -6.617188 1.78125 -5.328125 C 1.757812 -4.046875 1.789062 -2.8125 1.875 -1.625 C 1.96875 -0.445312 2.144531 0.507812 2.40625 1.25 C 2.664062 2 3.039062 2.359375 3.53125 2.328125 C 4.070312 2.304688 4.65625 1.859375 5.28125 0.984375 C 5.90625 0.117188 6.523438 -0.953125 7.140625 -2.234375 C 7.753906 -3.523438 8.3125 -4.851562 8.8125 -6.21875 C 9.320312 -7.59375 9.738281 -8.804688 10.0625 -9.859375 C 10.238281 -10.015625 10.453125 -10.066406 10.703125 -10.015625 C 10.960938 -9.972656 11.035156 -9.722656 10.921875 -9.265625 C 10.671875 -8.484375 10.367188 -7.554688 10.015625 -6.484375 C 9.660156 -5.421875 9.242188 -4.316406 8.765625 -3.171875 C 8.296875 -2.023438 7.773438 -0.953125 7.203125 0.046875 C 6.640625 1.046875 6.039062 1.863281 5.40625 2.5 C 4.769531 3.144531 4.113281 3.46875 3.4375 3.46875 C 2.53125 3.488281 1.800781 3.113281 1.25 2.34375 C 0.695312 1.582031 0.269531 0.597656 -0.03125 -0.609375 C -0.332031 -1.828125 -0.523438 -3.128906 -0.609375 -4.515625 C -0.691406 -5.898438 -0.707031 -7.226562 -0.65625 -8.5 C -0.625 -9.113281 -0.578125 -9.738281 -0.515625 -10.375 C -0.453125 -11.019531 -0.363281 -11.664062 -0.25 -12.3125 C -0.632812 -12.164062 -1.050781 -12.019531 -1.5 -11.875 C -1.945312 -11.738281 -2.40625 -11.566406 -2.875 -11.359375 Z M 5.375 -20.3125 C 4.84375 -20.5625 4.359375 -20.257812 3.921875 -19.40625 C 3.492188 -18.550781 3.128906 -17.367188 2.828125 -15.859375 C 2.847656 -15.859375 2.867188 -15.878906 2.890625 -15.921875 C 3.597656 -16.503906 4.171875 -17.113281 4.609375 -17.75 C 5.046875 -18.394531 5.332031 -18.953125 5.46875 -19.421875 C 5.601562 -19.898438 5.570312 -20.195312 5.375 -20.3125 Z M 5.375 -20.3125 "/></g></g><g style="fill:#556b2f;fill-opacity:1;"><g transform="translate(129.483227, 175.079578)"><path style="stroke:none" d="M -0.515625 -1.171875 C -0.492188 -1.984375 -0.5 -2.894531 -0.53125 -3.90625 C -0.5625 -4.925781 -0.585938 -5.953125 -0.609375 -6.984375 C -0.640625 -8.023438 -0.613281 -9.003906 -0.53125 -9.921875 C -0.457031 -10.835938 -0.3125 -11.578125 -0.09375 -12.140625 C 0.0195312 -12.410156 0.253906 -12.597656 0.609375 -12.703125 C 0.960938 -12.816406 1.332031 -12.835938 1.71875 -12.765625 C 2.101562 -12.691406 2.40625 -12.523438 2.625 -12.265625 C 2.851562 -12.003906 2.882812 -11.640625 2.71875 -11.171875 C 2.5625 -10.710938 2.429688 -10.144531 2.328125 -9.46875 C 2.234375 -8.800781 2.140625 -8.085938 2.046875 -7.328125 C 2.410156 -8.679688 2.832031 -10.003906 3.3125 -11.296875 C 3.789062 -12.597656 4.335938 -13.664062 4.953125 -14.5 C 5.578125 -15.332031 6.269531 -15.753906 7.03125 -15.765625 C 8.457031 -15.765625 9.488281 -15.273438 10.125 -14.296875 C 10.769531 -13.316406 11.171875 -12.144531 11.328125 -10.78125 C 12.023438 -12.695312 12.800781 -14.191406 13.65625 -15.265625 C 14.507812 -16.347656 15.53125 -16.914062 16.71875 -16.96875 C 18.1875 -17.039062 19.191406 -16.445312 19.734375 -15.1875 C 20.285156 -13.925781 20.476562 -12.304688 20.3125 -10.328125 C 20.226562 -9.410156 20.164062 -8.410156 20.125 -7.328125 C 20.09375 -6.253906 20.097656 -5.222656 20.140625 -4.234375 C 20.191406 -3.253906 20.335938 -2.457031 20.578125 -1.84375 C 20.828125 -1.238281 21.175781 -0.945312 21.625 -0.96875 C 22.164062 -1 22.679688 -1.320312 23.171875 -1.9375 C 23.660156 -2.5625 24.125 -3.351562 24.5625 -4.3125 C 25 -5.269531 25.410156 -6.304688 25.796875 -7.421875 C 26.179688 -8.546875 26.53125 -9.632812 26.84375 -10.6875 C 27.019531 -10.84375 27.234375 -10.894531 27.484375 -10.84375 C 27.742188 -10.800781 27.816406 -10.550781 27.703125 -10.09375 C 27.410156 -9.132812 27.085938 -8.070312 26.734375 -6.90625 C 26.378906 -5.738281 25.957031 -4.613281 25.46875 -3.53125 C 24.976562 -2.445312 24.414062 -1.5625 23.78125 -0.875 C 23.144531 -0.195312 22.398438 0.144531 21.546875 0.15625 C 20.335938 0.164062 19.414062 -0.148438 18.78125 -0.796875 C 18.144531 -1.453125 17.734375 -2.304688 17.546875 -3.359375 C 17.359375 -4.421875 17.285156 -5.554688 17.328125 -6.765625 C 17.378906 -7.972656 17.472656 -9.128906 17.609375 -10.234375 C 17.722656 -11.328125 17.816406 -12.316406 17.890625 -13.203125 C 17.972656 -14.085938 17.929688 -14.785156 17.765625 -15.296875 C 17.609375 -15.804688 17.226562 -16.046875 16.625 -16.015625 C 15.5 -15.953125 14.457031 -14.882812 13.5 -12.8125 C 12.539062 -10.75 11.644531 -7.734375 10.8125 -3.765625 L 10.71875 -3.578125 C 10.53125 -2.660156 10.351562 -2.015625 10.1875 -1.640625 C 10.132812 -1.484375 9.9375 -1.359375 9.59375 -1.265625 C 9.25 -1.179688 8.925781 -1.21875 8.625 -1.375 C 8.332031 -1.539062 8.207031 -1.898438 8.25 -2.453125 C 8.28125 -2.972656 8.320312 -3.71875 8.375 -4.6875 C 8.4375 -5.664062 8.484375 -6.71875 8.515625 -7.84375 C 8.546875 -8.976562 8.535156 -10.066406 8.484375 -11.109375 C 8.429688 -12.160156 8.289062 -13.015625 8.0625 -13.671875 C 7.84375 -14.328125 7.503906 -14.640625 7.046875 -14.609375 C 6.535156 -14.585938 6.019531 -14.15625 5.5 -13.3125 C 4.988281 -12.476562 4.484375 -11.40625 3.984375 -10.09375 C 3.484375 -8.789062 3.039062 -7.441406 2.65625 -6.046875 C 2.269531 -4.660156 1.953125 -3.414062 1.703125 -2.3125 L 1.640625 -1.03125 C 1.597656 -0.570312 1.394531 -0.28125 1.03125 -0.15625 C 0.675781 -0.0390625 0.328125 -0.0625 -0.015625 -0.21875 C -0.359375 -0.382812 -0.523438 -0.703125 -0.515625 -1.171875 Z M -0.515625 -1.171875 "/></g></g><g style="fill:#556b2f;fill-opacity:1;"><g transform="translate(156.779975, 173.733551)"><path style="stroke:none" d="M 5.765625 -16.609375 C 6.847656 -16.785156 7.75 -16.546875 8.46875 -15.890625 C 9.1875 -15.242188 9.703125 -14.316406 10.015625 -13.109375 C 10.328125 -11.898438 10.40625 -10.503906 10.25 -8.921875 C 10.082031 -7.328125 9.738281 -5.898438 9.21875 -4.640625 C 9.34375 -4.609375 9.539062 -4.601562 9.8125 -4.625 C 11 -4.675781 12.109375 -5.082031 13.140625 -5.84375 C 14.179688 -6.613281 15.019531 -8.046875 15.65625 -10.140625 C 15.820312 -10.296875 16.03125 -10.347656 16.28125 -10.296875 C 16.539062 -10.253906 16.613281 -10 16.5 -9.53125 C 15.914062 -7.632812 15.066406 -6.164062 13.953125 -5.125 C 12.835938 -4.082031 11.4375 -3.535156 9.75 -3.484375 C 9.5625 -3.472656 9.375 -3.472656 9.1875 -3.484375 C 9 -3.492188 8.832031 -3.507812 8.6875 -3.53125 C 8.1875 -2.582031 7.585938 -1.800781 6.890625 -1.1875 C 6.203125 -0.582031 5.390625 -0.257812 4.453125 -0.21875 C 3.328125 -0.164062 2.367188 -0.421875 1.578125 -0.984375 C 0.796875 -1.554688 0.191406 -2.304688 -0.234375 -3.234375 C -0.660156 -4.171875 -0.90625 -5.179688 -0.96875 -6.265625 C -1.039062 -7.359375 -0.929688 -8.378906 -0.640625 -9.328125 C -0.390625 -10.222656 0 -10.992188 0.53125 -11.640625 C 1.070312 -12.285156 1.757812 -12.734375 2.59375 -12.984375 C 2.726562 -13.910156 3.054688 -14.710938 3.578125 -15.390625 C 4.109375 -16.066406 4.835938 -16.472656 5.765625 -16.609375 Z M 4.375 -11.90625 C 4.320312 -11.019531 4.421875 -10.085938 4.671875 -9.109375 C 4.921875 -8.140625 5.316406 -7.269531 5.859375 -6.5 C 6.410156 -5.726562 7.132812 -5.179688 8.03125 -4.859375 C 8.238281 -5.472656 8.410156 -6.128906 8.546875 -6.828125 C 8.679688 -7.535156 8.789062 -8.234375 8.875 -8.921875 C 9.050781 -10.296875 9.035156 -11.507812 8.828125 -12.5625 C 8.628906 -13.625 8.289062 -14.414062 7.8125 -14.9375 C 7.332031 -15.457031 6.742188 -15.609375 6.046875 -15.390625 C 5.671875 -15.285156 5.347656 -15.03125 5.078125 -14.625 C 4.816406 -14.21875 4.625 -13.703125 4.5 -13.078125 C 4.988281 -13.015625 5.445312 -12.867188 5.875 -12.640625 C 6.300781 -12.421875 6.585938 -12.117188 6.734375 -11.734375 C 6.867188 -11.390625 6.804688 -11.101562 6.546875 -10.875 C 6.285156 -10.644531 6.035156 -10.582031 5.796875 -10.6875 C 5.515625 -11.53125 5.039062 -11.9375 4.375 -11.90625 Z M 7.578125 -3.828125 C 6.265625 -4.273438 5.179688 -5.113281 4.328125 -6.34375 C 3.484375 -7.570312 2.921875 -8.878906 2.640625 -10.265625 C 2.359375 -9.671875 2.164062 -8.992188 2.0625 -8.234375 C 1.96875 -7.472656 1.941406 -6.71875 1.984375 -5.96875 C 2.035156 -4.789062 2.289062 -3.738281 2.75 -2.8125 C 3.207031 -1.894531 3.84375 -1.429688 4.65625 -1.421875 C 5.320312 -1.421875 5.894531 -1.632812 6.375 -2.0625 C 6.851562 -2.5 7.253906 -3.085938 7.578125 -3.828125 Z M 7.578125 -3.828125 "/></g></g><g style="fill:#8f9e8b;fill-opacity:1;"><g transform="translate(174.656669, 175.714961)"><path style="stroke:none" d="M 13.578125 0.1875 C 11.328125 0.1875 9.296875 -0.304688 7.484375 -1.296875 C 5.679688 -2.296875 4.265625 -3.675781 3.234375 -5.4375 C 2.203125 -7.207031 1.6875 -9.1875 1.6875 -11.375 C 1.6875 -13.5625 2.203125 -15.535156 3.234375 -17.296875 C 4.265625 -19.066406 5.6875 -20.445312 7.5 -21.4375 C 9.320312 -22.4375 11.363281 -22.9375 13.625 -22.9375 C 15.3125 -22.9375 16.867188 -22.65625 18.296875 -22.09375 C 19.722656 -21.53125 20.9375 -20.707031 21.9375 -19.625 L 20.40625 -18.109375 C 18.632812 -19.898438 16.394531 -20.796875 13.6875 -20.796875 C 11.882812 -20.796875 10.242188 -20.382812 8.765625 -19.5625 C 7.296875 -18.738281 6.144531 -17.613281 5.3125 -16.1875 C 4.476562 -14.757812 4.0625 -13.15625 4.0625 -11.375 C 4.0625 -9.59375 4.476562 -7.988281 5.3125 -6.5625 C 6.144531 -5.132812 7.296875 -4.007812 8.765625 -3.1875 C 10.242188 -2.363281 11.882812 -1.953125 13.6875 -1.953125 C 16.414062 -1.953125 18.65625 -2.863281 20.40625 -4.6875 L 21.9375 -3.15625 C 20.9375 -2.070312 19.71875 -1.242188 18.28125 -0.671875 C 16.84375 -0.0976562 15.273438 0.1875 13.578125 0.1875 Z M 13.578125 0.1875 "/></g></g><g style="fill:#8f9e8b;fill-opacity:1;"><g transform="translate(197.768, 175.714961)"><path style="stroke:none" d="M 9.203125 -17.21875 C 11.429688 -17.21875 13.140625 -16.660156 14.328125 -15.546875 C 15.523438 -14.429688 16.125 -12.78125 16.125 -10.59375 L 16.125 0 L 13.90625 0 L 13.90625 -2.671875 C 13.382812 -1.773438 12.617188 -1.078125 11.609375 -0.578125 C 10.609375 -0.0859375 9.414062 0.15625 8.03125 0.15625 C 6.125 0.15625 4.601562 -0.296875 3.46875 -1.203125 C 2.34375 -2.109375 1.78125 -3.3125 1.78125 -4.8125 C 1.78125 -6.257812 2.304688 -7.425781 3.359375 -8.3125 C 4.410156 -9.207031 6.085938 -9.65625 8.390625 -9.65625 L 13.8125 -9.65625 L 13.8125 -10.6875 C 13.8125 -12.164062 13.398438 -13.285156 12.578125 -14.046875 C 11.753906 -14.816406 10.550781 -15.203125 8.96875 -15.203125 C 7.882812 -15.203125 6.84375 -15.023438 5.84375 -14.671875 C 4.851562 -14.316406 4 -13.820312 3.28125 -13.1875 L 2.25 -14.921875 C 3.113281 -15.648438 4.148438 -16.210938 5.359375 -16.609375 C 6.578125 -17.015625 7.859375 -17.21875 9.203125 -17.21875 Z M 8.390625 -1.65625 C 9.679688 -1.65625 10.789062 -1.953125 11.71875 -2.546875 C 12.65625 -3.140625 13.351562 -4.003906 13.8125 -5.140625 L 13.8125 -7.9375 L 8.453125 -7.9375 C 5.523438 -7.9375 4.0625 -6.914062 4.0625 -4.875 C 4.0625 -3.875 4.441406 -3.085938 5.203125 -2.515625 C 5.960938 -1.941406 7.023438 -1.65625 8.390625 -1.65625 Z M 8.390625 -1.65625 "/></g></g><g style="fill:#8f9e8b;fill-opacity:1;"><g transform="translate(216.946178, 175.714961)"><path style="stroke:none" d="M 11.921875 -17.21875 C 14.066406 -17.21875 15.773438 -16.59375 17.046875 -15.34375 C 18.316406 -14.101562 18.953125 -12.289062 18.953125 -9.90625 L 18.953125 0 L 16.640625 0 L 16.640625 -9.6875 C 16.640625 -11.457031 16.191406 -12.804688 15.296875 -13.734375 C 14.410156 -14.671875 13.144531 -15.140625 11.5 -15.140625 C 9.664062 -15.140625 8.210938 -14.59375 7.140625 -13.5 C 6.066406 -12.40625 5.53125 -10.894531 5.53125 -8.96875 L 5.53125 0 L 3.21875 0 L 3.21875 -17.09375 L 5.421875 -17.09375 L 5.421875 -13.9375 C 6.054688 -14.976562 6.929688 -15.785156 8.046875 -16.359375 C 9.160156 -16.929688 10.453125 -17.21875 11.921875 -17.21875 Z M 11.921875 -17.21875 "/></g></g><g style="fill:#8f9e8b;fill-opacity:1;"><g transform="translate(238.952327, 175.714961)"><path style="stroke:none" d="M 3.21875 -17.09375 L 5.53125 -17.09375 L 5.53125 0 L 3.21875 0 Z M 4.390625 -20.828125 C 3.910156 -20.828125 3.507812 -20.988281 3.1875 -21.3125 C 2.863281 -21.644531 2.703125 -22.035156 2.703125 -22.484375 C 2.703125 -22.921875 2.863281 -23.300781 3.1875 -23.625 C 3.507812 -23.945312 3.910156 -24.109375 4.390625 -24.109375 C 4.867188 -24.109375 5.269531 -23.953125 5.59375 -23.640625 C 5.914062 -23.328125 6.078125 -22.953125 6.078125 -22.515625 C 6.078125 -22.046875 5.914062 -21.644531 5.59375 -21.3125 C 5.269531 -20.988281 4.867188 -20.828125 4.390625 -20.828125 Z M 4.390625 -20.828125 "/></g></g><g style="fill:#8f9e8b;fill-opacity:1;"><g transform="translate(247.696278, 175.714961)"><path style="stroke:none" d="M 11.921875 -17.21875 C 14.066406 -17.21875 15.773438 -16.59375 17.046875 -15.34375 C 18.316406 -14.101562 18.953125 -12.289062 18.953125 -9.90625 L 18.953125 0 L 16.640625 0 L 16.640625 -9.6875 C 16.640625 -11.457031 16.191406 -12.804688 15.296875 -13.734375 C 14.410156 -14.671875 13.144531 -15.140625 11.5 -15.140625 C 9.664062 -15.140625 8.210938 -14.59375 7.140625 -13.5 C 6.066406 -12.40625 5.53125 -10.894531 5.53125 -8.96875 L 5.53125 0 L 3.21875 0 L 3.21875 -17.09375 L 5.421875 -17.09375 L 5.421875 -13.9375 C 6.054688 -14.976562 6.929688 -15.785156 8.046875 -16.359375 C 9.160156 -16.929688 10.453125 -17.21875 11.921875 -17.21875 Z M 11.921875 -17.21875 "/></g></g><g style="fill:#8f9e8b;fill-opacity:1;"><g transform="translate(269.76744, 175.714961)"><path style="stroke:none" d="M 10.203125 0.15625 C 8.554688 0.15625 7.070312 -0.210938 5.75 -0.953125 C 4.425781 -1.703125 3.382812 -2.738281 2.625 -4.0625 C 1.875 -5.382812 1.5 -6.878906 1.5 -8.546875 C 1.5 -10.210938 1.875 -11.707031 2.625 -13.03125 C 3.382812 -14.351562 4.425781 -15.378906 5.75 -16.109375 C 7.070312 -16.847656 8.554688 -17.21875 10.203125 -17.21875 C 11.847656 -17.21875 13.332031 -16.847656 14.65625 -16.109375 C 15.976562 -15.378906 17.007812 -14.351562 17.75 -13.03125 C 18.5 -11.707031 18.875 -10.210938 18.875 -8.546875 C 18.875 -6.878906 18.5 -5.382812 17.75 -4.0625 C 17.007812 -2.738281 15.976562 -1.703125 14.65625 -0.953125 C 13.332031 -0.210938 11.847656 0.15625 10.203125 0.15625 Z M 10.203125 -1.890625 C 11.421875 -1.890625 12.507812 -2.164062 13.46875 -2.71875 C 14.4375 -3.269531 15.191406 -4.050781 15.734375 -5.0625 C 16.273438 -6.082031 16.546875 -7.242188 16.546875 -8.546875 C 16.546875 -9.847656 16.273438 -11.003906 15.734375 -12.015625 C 15.191406 -13.035156 14.4375 -13.820312 13.46875 -14.375 C 12.507812 -14.925781 11.421875 -15.203125 10.203125 -15.203125 C 8.992188 -15.203125 7.90625 -14.925781 6.9375 -14.375 C 5.976562 -13.820312 5.21875 -13.035156 4.65625 -12.015625 C 4.101562 -11.003906 3.828125 -9.847656 3.828125 -8.546875 C 3.828125 -7.242188 4.101562 -6.082031 4.65625 -5.0625 C 5.21875 -4.050781 5.976562 -3.269531 6.9375 -2.71875 C 7.90625 -2.164062 8.992188 -1.890625 10.203125 -1.890625 Z M 10.203125 -1.890625 "/></g></g><g style="fill:#213435;fill-opacity:1;"><g transform="translate(86.91875, 206.772202)"><path style="stroke:none" d="M 11.75 -9.78125 L 11.75 0 L 10.75 0 L 10.75 -7.828125 L 6.921875 -1.25 L 6.421875 -1.25 L 2.578125 -7.78125 L 2.578125 0 L 1.59375 0 L 1.59375 -9.78125 L 2.4375 -9.78125 L 6.6875 -2.53125 L 10.890625 -9.78125 Z M 11.75 -9.78125 "/></g></g><g style="fill:#213435;fill-opacity:1;"><g transform="translate(100.258921, 206.772202)"><path style="stroke:none" d="M 3.953125 -7.40625 C 4.910156 -7.40625 5.644531 -7.164062 6.15625 -6.6875 C 6.664062 -6.207031 6.921875 -5.492188 6.921875 -4.546875 L 6.921875 0 L 5.984375 0 L 5.984375 -1.140625 C 5.753906 -0.765625 5.421875 -0.46875 4.984375 -0.25 C 4.554688 -0.0390625 4.046875 0.0625 3.453125 0.0625 C 2.628906 0.0625 1.972656 -0.128906 1.484375 -0.515625 C 1.003906 -0.910156 0.765625 -1.425781 0.765625 -2.0625 C 0.765625 -2.6875 0.988281 -3.191406 1.4375 -3.578125 C 1.894531 -3.960938 2.617188 -4.15625 3.609375 -4.15625 L 5.9375 -4.15625 L 5.9375 -4.59375 C 5.9375 -5.226562 5.757812 -5.707031 5.40625 -6.03125 C 5.050781 -6.363281 4.535156 -6.53125 3.859375 -6.53125 C 3.390625 -6.53125 2.941406 -6.453125 2.515625 -6.296875 C 2.085938 -6.148438 1.71875 -5.941406 1.40625 -5.671875 L 0.96875 -6.40625 C 1.332031 -6.726562 1.773438 -6.972656 2.296875 -7.140625 C 2.828125 -7.316406 3.378906 -7.40625 3.953125 -7.40625 Z M 3.609375 -0.71875 C 4.160156 -0.71875 4.632812 -0.84375 5.03125 -1.09375 C 5.4375 -1.351562 5.738281 -1.722656 5.9375 -2.203125 L 5.9375 -3.40625 L 3.625 -3.40625 C 2.375 -3.40625 1.75 -2.96875 1.75 -2.09375 C 1.75 -1.664062 1.910156 -1.328125 2.234375 -1.078125 C 2.554688 -0.835938 3.015625 -0.71875 3.609375 -0.71875 Z M 3.609375 -0.71875 "/></g></g><g style="fill:#213435;fill-opacity:1;"><g transform="translate(108.500498, 206.772202)"><path style="stroke:none" d="M 1.390625 -7.34375 L 2.375 -7.34375 L 2.375 0 L 1.390625 0 Z M 1.890625 -8.953125 C 1.679688 -8.953125 1.503906 -9.019531 1.359375 -9.15625 C 1.222656 -9.300781 1.15625 -9.472656 1.15625 -9.671875 C 1.15625 -9.859375 1.222656 -10.019531 1.359375 -10.15625 C 1.503906 -10.289062 1.679688 -10.359375 1.890625 -10.359375 C 2.085938 -10.359375 2.253906 -10.289062 2.390625 -10.15625 C 2.535156 -10.019531 2.609375 -9.863281 2.609375 -9.6875 C 2.609375 -9.476562 2.535156 -9.300781 2.390625 -9.15625 C 2.253906 -9.019531 2.085938 -8.953125 1.890625 -8.953125 Z M 1.890625 -8.953125 "/></g></g><g style="fill:#213435;fill-opacity:1;"><g transform="translate(112.258096, 206.772202)"><path style="stroke:none" d="M 3.359375 0.0625 C 2.753906 0.0625 2.179688 -0.0195312 1.640625 -0.1875 C 1.097656 -0.363281 0.671875 -0.582031 0.359375 -0.84375 L 0.8125 -1.625 C 1.113281 -1.375 1.5 -1.171875 1.96875 -1.015625 C 2.4375 -0.867188 2.921875 -0.796875 3.421875 -0.796875 C 4.085938 -0.796875 4.582031 -0.898438 4.90625 -1.109375 C 5.226562 -1.316406 5.390625 -1.613281 5.390625 -2 C 5.390625 -2.269531 5.300781 -2.476562 5.125 -2.625 C 4.945312 -2.78125 4.722656 -2.894531 4.453125 -2.96875 C 4.179688 -3.050781 3.820312 -3.132812 3.375 -3.21875 C 2.78125 -3.320312 2.300781 -3.429688 1.9375 -3.546875 C 1.570312 -3.671875 1.257812 -3.867188 1 -4.140625 C 0.75 -4.421875 0.625 -4.8125 0.625 -5.3125 C 0.625 -5.925781 0.878906 -6.425781 1.390625 -6.8125 C 1.910156 -7.207031 2.625 -7.40625 3.53125 -7.40625 C 4.007812 -7.40625 4.484375 -7.34375 4.953125 -7.21875 C 5.429688 -7.09375 5.820312 -6.925781 6.125 -6.71875 L 5.703125 -5.921875 C 5.097656 -6.335938 4.375 -6.546875 3.53125 -6.546875 C 2.894531 -6.546875 2.414062 -6.429688 2.09375 -6.203125 C 1.78125 -5.984375 1.625 -5.695312 1.625 -5.34375 C 1.625 -5.0625 1.710938 -4.835938 1.890625 -4.671875 C 2.078125 -4.503906 2.300781 -4.378906 2.5625 -4.296875 C 2.832031 -4.210938 3.207031 -4.128906 3.6875 -4.046875 C 4.269531 -3.941406 4.738281 -3.832031 5.09375 -3.71875 C 5.445312 -3.601562 5.75 -3.410156 6 -3.140625 C 6.257812 -2.867188 6.390625 -2.5 6.390625 -2.03125 C 6.390625 -1.382812 6.117188 -0.875 5.578125 -0.5 C 5.046875 -0.125 4.304688 0.0625 3.359375 0.0625 Z M 3.359375 0.0625 "/></g></g><g style="fill:#213435;fill-opacity:1;"><g transform="translate(119.088823, 206.772202)"><path style="stroke:none" d=""/></g></g><g style="fill:#213435;fill-opacity:1;"><g transform="translate(122.748643, 206.772202)"><path style="stroke:none" d="M 8.09375 -10.359375 L 8.09375 0 L 7.140625 0 L 7.140625 -1.453125 C 6.835938 -0.960938 6.441406 -0.585938 5.953125 -0.328125 C 5.460938 -0.0664062 4.910156 0.0625 4.296875 0.0625 C 3.609375 0.0625 2.984375 -0.09375 2.421875 -0.40625 C 1.867188 -0.71875 1.429688 -1.15625 1.109375 -1.71875 C 0.796875 -2.289062 0.640625 -2.941406 0.640625 -3.671875 C 0.640625 -4.398438 0.796875 -5.046875 1.109375 -5.609375 C 1.429688 -6.179688 1.867188 -6.625 2.421875 -6.9375 C 2.984375 -7.25 3.609375 -7.40625 4.296875 -7.40625 C 4.898438 -7.40625 5.441406 -7.28125 5.921875 -7.03125 C 6.398438 -6.78125 6.789062 -6.421875 7.09375 -5.953125 L 7.09375 -10.359375 Z M 4.390625 -0.8125 C 4.898438 -0.8125 5.359375 -0.925781 5.765625 -1.15625 C 6.179688 -1.394531 6.507812 -1.734375 6.75 -2.171875 C 6.988281 -2.609375 7.109375 -3.109375 7.109375 -3.671875 C 7.109375 -4.234375 6.988281 -4.734375 6.75 -5.171875 C 6.507812 -5.609375 6.179688 -5.941406 5.765625 -6.171875 C 5.359375 -6.410156 4.898438 -6.53125 4.390625 -6.53125 C 3.867188 -6.53125 3.398438 -6.410156 2.984375 -6.171875 C 2.566406 -5.941406 2.238281 -5.609375 2 -5.171875 C 1.757812 -4.734375 1.640625 -4.234375 1.640625 -3.671875 C 1.640625 -3.109375 1.757812 -2.609375 2 -2.171875 C 2.238281 -1.734375 2.566406 -1.394531 2.984375 -1.15625 C 3.398438 -0.925781 3.867188 -0.8125 4.390625 -0.8125 Z M 4.390625 -0.8125 "/></g></g><g style="fill:#213435;fill-opacity:1;"><g transform="translate(132.219464, 206.772202)"><path style="stroke:none" d="M 4.390625 0.0625 C 3.679688 0.0625 3.039062 -0.09375 2.46875 -0.40625 C 1.90625 -0.726562 1.457031 -1.171875 1.125 -1.734375 C 0.800781 -2.304688 0.640625 -2.953125 0.640625 -3.671875 C 0.640625 -4.390625 0.800781 -5.03125 1.125 -5.59375 C 1.457031 -6.164062 1.90625 -6.609375 2.46875 -6.921875 C 3.039062 -7.242188 3.679688 -7.40625 4.390625 -7.40625 C 5.097656 -7.40625 5.734375 -7.242188 6.296875 -6.921875 C 6.867188 -6.609375 7.3125 -6.164062 7.625 -5.59375 C 7.945312 -5.03125 8.109375 -4.390625 8.109375 -3.671875 C 8.109375 -2.953125 7.945312 -2.304688 7.625 -1.734375 C 7.3125 -1.171875 6.867188 -0.726562 6.296875 -0.40625 C 5.734375 -0.09375 5.097656 0.0625 4.390625 0.0625 Z M 4.390625 -0.8125 C 4.910156 -0.8125 5.375 -0.925781 5.78125 -1.15625 C 6.195312 -1.394531 6.519531 -1.734375 6.75 -2.171875 C 6.988281 -2.609375 7.109375 -3.109375 7.109375 -3.671875 C 7.109375 -4.234375 6.988281 -4.734375 6.75 -5.171875 C 6.519531 -5.609375 6.195312 -5.941406 5.78125 -6.171875 C 5.375 -6.410156 4.910156 -6.53125 4.390625 -6.53125 C 3.867188 -6.53125 3.398438 -6.410156 2.984375 -6.171875 C 2.566406 -5.941406 2.238281 -5.609375 2 -5.171875 C 1.757812 -4.734375 1.640625 -4.234375 1.640625 -3.671875 C 1.640625 -3.109375 1.757812 -2.609375 2 -2.171875 C 2.238281 -1.734375 2.566406 -1.394531 2.984375 -1.15625 C 3.398438 -0.925781 3.867188 -0.8125 4.390625 -0.8125 Z M 4.390625 -0.8125 "/></g></g><g style="fill:#213435;fill-opacity:1;"><g transform="translate(140.977878, 206.772202)"><path style="stroke:none" d=""/></g></g><g style="fill:#213435;fill-opacity:1;"><g transform="translate(144.637699, 206.772202)"><path style="stroke:none" d="M 8.09375 -7.34375 L 8.09375 2.703125 L 7.09375 2.703125 L 7.09375 -1.390625 C 6.789062 -0.910156 6.398438 -0.546875 5.921875 -0.296875 C 5.441406 -0.0546875 4.898438 0.0625 4.296875 0.0625 C 3.597656 0.0625 2.972656 -0.0859375 2.421875 -0.390625 C 1.867188 -0.703125 1.429688 -1.140625 1.109375 -1.703125 C 0.796875 -2.273438 0.640625 -2.929688 0.640625 -3.671875 C 0.640625 -4.398438 0.796875 -5.046875 1.109375 -5.609375 C 1.429688 -6.179688 1.867188 -6.625 2.421875 -6.9375 C 2.984375 -7.25 3.609375 -7.40625 4.296875 -7.40625 C 4.910156 -7.40625 5.460938 -7.273438 5.953125 -7.015625 C 6.441406 -6.753906 6.835938 -6.378906 7.140625 -5.890625 L 7.140625 -7.34375 Z M 4.390625 -0.8125 C 4.898438 -0.8125 5.359375 -0.925781 5.765625 -1.15625 C 6.179688 -1.394531 6.507812 -1.734375 6.75 -2.171875 C 6.988281 -2.609375 7.109375 -3.109375 7.109375 -3.671875 C 7.109375 -4.234375 6.988281 -4.726562 6.75 -5.15625 C 6.507812 -5.59375 6.179688 -5.929688 5.765625 -6.171875 C 5.359375 -6.410156 4.898438 -6.53125 4.390625 -6.53125 C 3.867188 -6.53125 3.398438 -6.410156 2.984375 -6.171875 C 2.566406 -5.929688 2.238281 -5.59375 2 -5.15625 C 1.757812 -4.726562 1.640625 -4.234375 1.640625 -3.671875 C 1.640625 -3.109375 1.757812 -2.609375 2 -2.171875 C 2.238281 -1.734375 2.566406 -1.394531 2.984375 -1.15625 C 3.398438 -0.925781 3.867188 -0.8125 4.390625 -0.8125 Z M 4.390625 -0.8125 "/></g></g><g style="fill:#213435;fill-opacity:1;"><g transform="translate(154.108519, 206.772202)"><path style="stroke:none" d="M 8 -7.34375 L 8 0 L 7.046875 0 L 7.046875 -1.34375 C 6.785156 -0.894531 6.425781 -0.546875 5.96875 -0.296875 C 5.519531 -0.0546875 5.003906 0.0625 4.421875 0.0625 C 3.453125 0.0625 2.691406 -0.203125 2.140625 -0.734375 C 1.585938 -1.265625 1.3125 -2.050781 1.3125 -3.09375 L 1.3125 -7.34375 L 2.3125 -7.34375 L 2.3125 -3.1875 C 2.3125 -2.414062 2.5 -1.828125 2.875 -1.421875 C 3.257812 -1.023438 3.804688 -0.828125 4.515625 -0.828125 C 5.285156 -0.828125 5.894531 -1.0625 6.34375 -1.53125 C 6.789062 -2 7.015625 -2.648438 7.015625 -3.484375 L 7.015625 -7.34375 Z M 8 -7.34375 "/></g></g><g style="fill:#213435;fill-opacity:1;"><g transform="translate(163.509497, 206.772202)"><path style="stroke:none" d="M 7.78125 -3.359375 L 1.640625 -3.359375 C 1.691406 -2.597656 1.984375 -1.984375 2.515625 -1.515625 C 3.046875 -1.046875 3.71875 -0.8125 4.53125 -0.8125 C 4.976562 -0.8125 5.394531 -0.890625 5.78125 -1.046875 C 6.164062 -1.210938 6.5 -1.457031 6.78125 -1.78125 L 7.328125 -1.125 C 7.003906 -0.738281 6.597656 -0.441406 6.109375 -0.234375 C 5.617188 -0.0351562 5.082031 0.0625 4.5 0.0625 C 3.738281 0.0625 3.066406 -0.09375 2.484375 -0.40625 C 1.910156 -0.726562 1.457031 -1.171875 1.125 -1.734375 C 0.800781 -2.304688 0.640625 -2.953125 0.640625 -3.671875 C 0.640625 -4.390625 0.796875 -5.03125 1.109375 -5.59375 C 1.421875 -6.164062 1.847656 -6.609375 2.390625 -6.921875 C 2.941406 -7.242188 3.554688 -7.40625 4.234375 -7.40625 C 4.910156 -7.40625 5.519531 -7.242188 6.0625 -6.921875 C 6.601562 -6.609375 7.023438 -6.171875 7.328125 -5.609375 C 7.640625 -5.046875 7.796875 -4.398438 7.796875 -3.671875 Z M 4.234375 -6.546875 C 3.523438 -6.546875 2.929688 -6.320312 2.453125 -5.875 C 1.972656 -5.425781 1.703125 -4.835938 1.640625 -4.109375 L 6.84375 -4.109375 C 6.78125 -4.835938 6.507812 -5.425781 6.03125 -5.875 C 5.550781 -6.320312 4.953125 -6.546875 4.234375 -6.546875 Z M 4.234375 -6.546875 "/></g></g><g style="fill:#213435;fill-opacity:1;"><g transform="translate(171.94663, 206.772202)"><path style="stroke:none" d=""/></g></g><g style="fill:#213435;fill-opacity:1;"><g transform="translate(175.60645, 206.772202)"><path style="stroke:none" d="M 8 -7.34375 L 8 0 L 7.046875 0 L 7.046875 -1.34375 C 6.785156 -0.894531 6.425781 -0.546875 5.96875 -0.296875 C 5.519531 -0.0546875 5.003906 0.0625 4.421875 0.0625 C 3.453125 0.0625 2.691406 -0.203125 2.140625 -0.734375 C 1.585938 -1.265625 1.3125 -2.050781 1.3125 -3.09375 L 1.3125 -7.34375 L 2.3125 -7.34375 L 2.3125 -3.1875 C 2.3125 -2.414062 2.5 -1.828125 2.875 -1.421875 C 3.257812 -1.023438 3.804688 -0.828125 4.515625 -0.828125 C 5.285156 -0.828125 5.894531 -1.0625 6.34375 -1.53125 C 6.789062 -2 7.015625 -2.648438 7.015625 -3.484375 L 7.015625 -7.34375 Z M 8 -7.34375 "/></g></g><g style="fill:#213435;fill-opacity:1;"><g transform="translate(185.007428, 206.772202)"><path style="stroke:none" d="M 10.546875 -7.40625 C 11.460938 -7.40625 12.179688 -7.140625 12.703125 -6.609375 C 13.234375 -6.078125 13.5 -5.296875 13.5 -4.265625 L 13.5 0 L 12.515625 0 L 12.515625 -4.15625 C 12.515625 -4.925781 12.328125 -5.507812 11.953125 -5.90625 C 11.585938 -6.3125 11.070312 -6.515625 10.40625 -6.515625 C 9.644531 -6.515625 9.046875 -6.273438 8.609375 -5.796875 C 8.171875 -5.328125 7.953125 -4.679688 7.953125 -3.859375 L 7.953125 0 L 6.953125 0 L 6.953125 -4.15625 C 6.953125 -4.925781 6.769531 -5.507812 6.40625 -5.90625 C 6.039062 -6.3125 5.515625 -6.515625 4.828125 -6.515625 C 4.078125 -6.515625 3.476562 -6.273438 3.03125 -5.796875 C 2.59375 -5.328125 2.375 -4.679688 2.375 -3.859375 L 2.375 0 L 1.390625 0 L 1.390625 -7.34375 L 2.328125 -7.34375 L 2.328125 -6 C 2.585938 -6.445312 2.953125 -6.789062 3.421875 -7.03125 C 3.890625 -7.28125 4.425781 -7.40625 5.03125 -7.40625 C 5.644531 -7.40625 6.175781 -7.273438 6.625 -7.015625 C 7.082031 -6.753906 7.421875 -6.367188 7.640625 -5.859375 C 7.910156 -6.335938 8.296875 -6.710938 8.796875 -6.984375 C 9.304688 -7.265625 9.890625 -7.40625 10.546875 -7.40625 Z M 10.546875 -7.40625 "/></g></g><g style="fill:#213435;fill-opacity:1;"><g transform="translate(199.828292, 206.772202)"><path style="stroke:none" d=""/></g></g><g style="fill:#213435;fill-opacity:1;"><g transform="translate(203.488113, 206.772202)"><path style="stroke:none" d="M 5.171875 -7.40625 C 5.859375 -7.40625 6.476562 -7.25 7.03125 -6.9375 C 7.59375 -6.625 8.03125 -6.179688 8.34375 -5.609375 C 8.664062 -5.046875 8.828125 -4.398438 8.828125 -3.671875 C 8.828125 -2.929688 8.664062 -2.273438 8.34375 -1.703125 C 8.03125 -1.140625 7.597656 -0.703125 7.046875 -0.390625 C 6.492188 -0.0859375 5.867188 0.0625 5.171875 0.0625 C 4.578125 0.0625 4.035156 -0.0546875 3.546875 -0.296875 C 3.066406 -0.546875 2.675781 -0.910156 2.375 -1.390625 L 2.375 2.703125 L 1.390625 2.703125 L 1.390625 -7.34375 L 2.328125 -7.34375 L 2.328125 -5.890625 C 2.628906 -6.378906 3.023438 -6.753906 3.515625 -7.015625 C 4.003906 -7.273438 4.554688 -7.40625 5.171875 -7.40625 Z M 5.09375 -0.8125 C 5.601562 -0.8125 6.066406 -0.925781 6.484375 -1.15625 C 6.910156 -1.394531 7.242188 -1.734375 7.484375 -2.171875 C 7.722656 -2.609375 7.84375 -3.109375 7.84375 -3.671875 C 7.84375 -4.234375 7.722656 -4.726562 7.484375 -5.15625 C 7.242188 -5.59375 6.910156 -5.929688 6.484375 -6.171875 C 6.066406 -6.410156 5.601562 -6.53125 5.09375 -6.53125 C 4.570312 -6.53125 4.101562 -6.410156 3.6875 -6.171875 C 3.28125 -5.929688 2.957031 -5.59375 2.71875 -5.15625 C 2.476562 -4.726562 2.359375 -4.234375 2.359375 -3.671875 C 2.359375 -3.109375 2.476562 -2.609375 2.71875 -2.171875 C 2.957031 -1.734375 3.28125 -1.394531 3.6875 -1.15625 C 4.101562 -0.925781 4.570312 -0.8125 5.09375 -0.8125 Z M 5.09375 -0.8125 "/></g></g><g style="fill:#213435;fill-opacity:1;"><g transform="translate(212.917014, 206.772202)"><path style="stroke:none" d="M 3.953125 -7.40625 C 4.910156 -7.40625 5.644531 -7.164062 6.15625 -6.6875 C 6.664062 -6.207031 6.921875 -5.492188 6.921875 -4.546875 L 6.921875 0 L 5.984375 0 L 5.984375 -1.140625 C 5.753906 -0.765625 5.421875 -0.46875 4.984375 -0.25 C 4.554688 -0.0390625 4.046875 0.0625 3.453125 0.0625 C 2.628906 0.0625 1.972656 -0.128906 1.484375 -0.515625 C 1.003906 -0.910156 0.765625 -1.425781 0.765625 -2.0625 C 0.765625 -2.6875 0.988281 -3.191406 1.4375 -3.578125 C 1.894531 -3.960938 2.617188 -4.15625 3.609375 -4.15625 L 5.9375 -4.15625 L 5.9375 -4.59375 C 5.9375 -5.226562 5.757812 -5.707031 5.40625 -6.03125 C 5.050781 -6.363281 4.535156 -6.53125 3.859375 -6.53125 C 3.390625 -6.53125 2.941406 -6.453125 2.515625 -6.296875 C 2.085938 -6.148438 1.71875 -5.941406 1.40625 -5.671875 L 0.96875 -6.40625 C 1.332031 -6.726562 1.773438 -6.972656 2.296875 -7.140625 C 2.828125 -7.316406 3.378906 -7.40625 3.953125 -7.40625 Z M 3.609375 -0.71875 C 4.160156 -0.71875 4.632812 -0.84375 5.03125 -1.09375 C 5.4375 -1.351562 5.738281 -1.722656 5.9375 -2.203125 L 5.9375 -3.40625 L 3.625 -3.40625 C 2.375 -3.40625 1.75 -2.96875 1.75 -2.09375 C 1.75 -1.664062 1.910156 -1.328125 2.234375 -1.078125 C 2.554688 -0.835938 3.015625 -0.71875 3.609375 -0.71875 Z M 3.609375 -0.71875 "/></g></g><g style="fill:#213435;fill-opacity:1;"><g transform="translate(221.15859, 206.772202)"><path style="stroke:none" d="M 3.359375 0.0625 C 2.753906 0.0625 2.179688 -0.0195312 1.640625 -0.1875 C 1.097656 -0.363281 0.671875 -0.582031 0.359375 -0.84375 L 0.8125 -1.625 C 1.113281 -1.375 1.5 -1.171875 1.96875 -1.015625 C 2.4375 -0.867188 2.921875 -0.796875 3.421875 -0.796875 C 4.085938 -0.796875 4.582031 -0.898438 4.90625 -1.109375 C 5.226562 -1.316406 5.390625 -1.613281 5.390625 -2 C 5.390625 -2.269531 5.300781 -2.476562 5.125 -2.625 C 4.945312 -2.78125 4.722656 -2.894531 4.453125 -2.96875 C 4.179688 -3.050781 3.820312 -3.132812 3.375 -3.21875 C 2.78125 -3.320312 2.300781 -3.429688 1.9375 -3.546875 C 1.570312 -3.671875 1.257812 -3.867188 1 -4.140625 C 0.75 -4.421875 0.625 -4.8125 0.625 -5.3125 C 0.625 -5.925781 0.878906 -6.425781 1.390625 -6.8125 C 1.910156 -7.207031 2.625 -7.40625 3.53125 -7.40625 C 4.007812 -7.40625 4.484375 -7.34375 4.953125 -7.21875 C 5.429688 -7.09375 5.820312 -6.925781 6.125 -6.71875 L 5.703125 -5.921875 C 5.097656 -6.335938 4.375 -6.546875 3.53125 -6.546875 C 2.894531 -6.546875 2.414062 -6.429688 2.09375 -6.203125 C 1.78125 -5.984375 1.625 -5.695312 1.625 -5.34375 C 1.625 -5.0625 1.710938 -4.835938 1.890625 -4.671875 C 2.078125 -4.503906 2.300781 -4.378906 2.5625 -4.296875 C 2.832031 -4.210938 3.207031 -4.128906 3.6875 -4.046875 C 4.269531 -3.941406 4.738281 -3.832031 5.09375 -3.71875 C 5.445312 -3.601562 5.75 -3.410156 6 -3.140625 C 6.257812 -2.867188 6.390625 -2.5 6.390625 -2.03125 C 6.390625 -1.382812 6.117188 -0.875 5.578125 -0.5 C 5.046875 -0.125 4.304688 0.0625 3.359375 0.0625 Z M 3.359375 0.0625 "/></g></g><g style="fill:#213435;fill-opacity:1;"><g transform="translate(227.989316, 206.772202)"><path style="stroke:none" d="M 3.359375 0.0625 C 2.753906 0.0625 2.179688 -0.0195312 1.640625 -0.1875 C 1.097656 -0.363281 0.671875 -0.582031 0.359375 -0.84375 L 0.8125 -1.625 C 1.113281 -1.375 1.5 -1.171875 1.96875 -1.015625 C 2.4375 -0.867188 2.921875 -0.796875 3.421875 -0.796875 C 4.085938 -0.796875 4.582031 -0.898438 4.90625 -1.109375 C 5.226562 -1.316406 5.390625 -1.613281 5.390625 -2 C 5.390625 -2.269531 5.300781 -2.476562 5.125 -2.625 C 4.945312 -2.78125 4.722656 -2.894531 4.453125 -2.96875 C 4.179688 -3.050781 3.820312 -3.132812 3.375 -3.21875 C 2.78125 -3.320312 2.300781 -3.429688 1.9375 -3.546875 C 1.570312 -3.671875 1.257812 -3.867188 1 -4.140625 C 0.75 -4.421875 0.625 -4.8125 0.625 -5.3125 C 0.625 -5.925781 0.878906 -6.425781 1.390625 -6.8125 C 1.910156 -7.207031 2.625 -7.40625 3.53125 -7.40625 C 4.007812 -7.40625 4.484375 -7.34375 4.953125 -7.21875 C 5.429688 -7.09375 5.820312 -6.925781 6.125 -6.71875 L 5.703125 -5.921875 C 5.097656 -6.335938 4.375 -6.546875 3.53125 -6.546875 C 2.894531 -6.546875 2.414062 -6.429688 2.09375 -6.203125 C 1.78125 -5.984375 1.625 -5.695312 1.625 -5.34375 C 1.625 -5.0625 1.710938 -4.835938 1.890625 -4.671875 C 2.078125 -4.503906 2.300781 -4.378906 2.5625 -4.296875 C 2.832031 -4.210938 3.207031 -4.128906 3.6875 -4.046875 C 4.269531 -3.941406 4.738281 -3.832031 5.09375 -3.71875 C 5.445312 -3.601562 5.75 -3.410156 6 -3.140625 C 6.257812 -2.867188 6.390625 -2.5 6.390625 -2.03125 C 6.390625 -1.382812 6.117188 -0.875 5.578125 -0.5 C 5.046875 -0.125 4.304688 0.0625 3.359375 0.0625 Z M 3.359375 0.0625 "/></g></g><g style="fill:#213435;fill-opacity:1;"><g transform="translate(234.820043, 206.772202)"><path style="stroke:none" d="M 7.78125 -3.359375 L 1.640625 -3.359375 C 1.691406 -2.597656 1.984375 -1.984375 2.515625 -1.515625 C 3.046875 -1.046875 3.71875 -0.8125 4.53125 -0.8125 C 4.976562 -0.8125 5.394531 -0.890625 5.78125 -1.046875 C 6.164062 -1.210938 6.5 -1.457031 6.78125 -1.78125 L 7.328125 -1.125 C 7.003906 -0.738281 6.597656 -0.441406 6.109375 -0.234375 C 5.617188 -0.0351562 5.082031 0.0625 4.5 0.0625 C 3.738281 0.0625 3.066406 -0.09375 2.484375 -0.40625 C 1.910156 -0.726562 1.457031 -1.171875 1.125 -1.734375 C 0.800781 -2.304688 0.640625 -2.953125 0.640625 -3.671875 C 0.640625 -4.390625 0.796875 -5.03125 1.109375 -5.59375 C 1.421875 -6.164062 1.847656 -6.609375 2.390625 -6.921875 C 2.941406 -7.242188 3.554688 -7.40625 4.234375 -7.40625 C 4.910156 -7.40625 5.519531 -7.242188 6.0625 -6.921875 C 6.601562 -6.609375 7.023438 -6.171875 7.328125 -5.609375 C 7.640625 -5.046875 7.796875 -4.398438 7.796875 -3.671875 Z M 4.234375 -6.546875 C 3.523438 -6.546875 2.929688 -6.320312 2.453125 -5.875 C 1.972656 -5.425781 1.703125 -4.835938 1.640625 -4.109375 L 6.84375 -4.109375 C 6.78125 -4.835938 6.507812 -5.425781 6.03125 -5.875 C 5.550781 -6.320312 4.953125 -6.546875 4.234375 -6.546875 Z M 4.234375 -6.546875 "/></g></g><g style="fill:#213435;fill-opacity:1;"><g transform="translate(243.257176, 206.772202)"><path style="stroke:none" d="M 1.390625 -7.34375 L 2.375 -7.34375 L 2.375 0 L 1.390625 0 Z M 1.890625 -8.953125 C 1.679688 -8.953125 1.503906 -9.019531 1.359375 -9.15625 C 1.222656 -9.300781 1.15625 -9.472656 1.15625 -9.671875 C 1.15625 -9.859375 1.222656 -10.019531 1.359375 -10.15625 C 1.503906 -10.289062 1.679688 -10.359375 1.890625 -10.359375 C 2.085938 -10.359375 2.253906 -10.289062 2.390625 -10.15625 C 2.535156 -10.019531 2.609375 -9.863281 2.609375 -9.6875 C 2.609375 -9.476562 2.535156 -9.300781 2.390625 -9.15625 C 2.253906 -9.019531 2.085938 -8.953125 1.890625 -8.953125 Z M 1.890625 -8.953125 "/></g></g><g style="fill:#213435;fill-opacity:1;"><g transform="translate(247.014774, 206.772202)"><path style="stroke:none" d="M 4.390625 0.0625 C 3.679688 0.0625 3.039062 -0.09375 2.46875 -0.40625 C 1.90625 -0.726562 1.457031 -1.171875 1.125 -1.734375 C 0.800781 -2.304688 0.640625 -2.953125 0.640625 -3.671875 C 0.640625 -4.390625 0.800781 -5.03125 1.125 -5.59375 C 1.457031 -6.164062 1.90625 -6.609375 2.46875 -6.921875 C 3.039062 -7.242188 3.679688 -7.40625 4.390625 -7.40625 C 5.097656 -7.40625 5.734375 -7.242188 6.296875 -6.921875 C 6.867188 -6.609375 7.3125 -6.164062 7.625 -5.59375 C 7.945312 -5.03125 8.109375 -4.390625 8.109375 -3.671875 C 8.109375 -2.953125 7.945312 -2.304688 7.625 -1.734375 C 7.3125 -1.171875 6.867188 -0.726562 6.296875 -0.40625 C 5.734375 -0.09375 5.097656 0.0625 4.390625 0.0625 Z M 4.390625 -0.8125 C 4.910156 -0.8125 5.375 -0.925781 5.78125 -1.15625 C 6.195312 -1.394531 6.519531 -1.734375 6.75 -2.171875 C 6.988281 -2.609375 7.109375 -3.109375 7.109375 -3.671875 C 7.109375 -4.234375 6.988281 -4.734375 6.75 -5.171875 C 6.519531 -5.609375 6.195312 -5.941406 5.78125 -6.171875 C 5.375 -6.410156 4.910156 -6.53125 4.390625 -6.53125 C 3.867188 -6.53125 3.398438 -6.410156 2.984375 -6.171875 C 2.566406 -5.941406 2.238281 -5.609375 2 -5.171875 C 1.757812 -4.734375 1.640625 -4.234375 1.640625 -3.671875 C 1.640625 -3.109375 1.757812 -2.609375 2 -2.171875 C 2.238281 -1.734375 2.566406 -1.394531 2.984375 -1.15625 C 3.398438 -0.925781 3.867188 -0.8125 4.390625 -0.8125 Z M 4.390625 -0.8125 "/></g></g><g style="fill:#213435;fill-opacity:1;"><g transform="translate(255.563602, 206.772202)"><path style="stroke:none" d="M 1.484375 0.0625 C 1.273438 0.0625 1.097656 -0.0078125 0.953125 -0.15625 C 0.804688 -0.300781 0.734375 -0.484375 0.734375 -0.703125 C 0.734375 -0.910156 0.804688 -1.085938 0.953125 -1.234375 C 1.097656 -1.378906 1.273438 -1.453125 1.484375 -1.453125 C 1.679688 -1.453125 1.851562 -1.378906 2 -1.234375 C 2.15625 -1.085938 2.234375 -0.910156 2.234375 -0.703125 C 2.234375 -0.484375 2.15625 -0.300781 2 -0.15625 C 1.851562 -0.0078125 1.679688 0.0625 1.484375 0.0625 Z M 1.484375 0.0625 "/></g></g><g style="fill:#213435;fill-opacity:1;"><g transform="translate(258.524978, 206.772202)"><path style="stroke:none" d=""/></g></g><g style="fill:#213435;fill-opacity:1;"><g transform="translate(262.184798, 206.772202)"><path style="stroke:none" d="M 5.53125 0.078125 C 4.257812 0.078125 3.269531 -0.28125 2.5625 -1 C 1.863281 -1.726562 1.515625 -2.785156 1.515625 -4.171875 L 1.515625 -9.78125 L 2.546875 -9.78125 L 2.546875 -4.21875 C 2.546875 -3.082031 2.800781 -2.234375 3.3125 -1.671875 C 3.820312 -1.117188 4.5625 -0.84375 5.53125 -0.84375 C 6.507812 -0.84375 7.253906 -1.117188 7.765625 -1.671875 C 8.273438 -2.234375 8.53125 -3.082031 8.53125 -4.21875 L 8.53125 -9.78125 L 9.546875 -9.78125 L 9.546875 -4.171875 C 9.546875 -2.785156 9.191406 -1.726562 8.484375 -1 C 7.785156 -0.28125 6.800781 0.078125 5.53125 0.078125 Z M 5.53125 0.078125 "/></g></g><g style="fill:#213435;fill-opacity:1;"><g transform="translate(273.248064, 206.772202)"><path style="stroke:none" d="M 10.546875 -7.40625 C 11.460938 -7.40625 12.179688 -7.140625 12.703125 -6.609375 C 13.234375 -6.078125 13.5 -5.296875 13.5 -4.265625 L 13.5 0 L 12.515625 0 L 12.515625 -4.15625 C 12.515625 -4.925781 12.328125 -5.507812 11.953125 -5.90625 C 11.585938 -6.3125 11.070312 -6.515625 10.40625 -6.515625 C 9.644531 -6.515625 9.046875 -6.273438 8.609375 -5.796875 C 8.171875 -5.328125 7.953125 -4.679688 7.953125 -3.859375 L 7.953125 0 L 6.953125 0 L 6.953125 -4.15625 C 6.953125 -4.925781 6.769531 -5.507812 6.40625 -5.90625 C 6.039062 -6.3125 5.515625 -6.515625 4.828125 -6.515625 C 4.078125 -6.515625 3.476562 -6.273438 3.03125 -5.796875 C 2.59375 -5.328125 2.375 -4.679688 2.375 -3.859375 L 2.375 0 L 1.390625 0 L 1.390625 -7.34375 L 2.328125 -7.34375 L 2.328125 -6 C 2.585938 -6.445312 2.953125 -6.789062 3.421875 -7.03125 C 3.890625 -7.28125 4.425781 -7.40625 5.03125 -7.40625 C 5.644531 -7.40625 6.175781 -7.273438 6.625 -7.015625 C 7.082031 -6.753906 7.421875 -6.367188 7.640625 -5.859375 C 7.910156 -6.335938 8.296875 -6.710938 8.796875 -6.984375 C 9.304688 -7.265625 9.890625 -7.40625 10.546875 -7.40625 Z M 10.546875 -7.40625 "/></g></g><g style="fill:#213435;fill-opacity:1;"><g transform="translate(110.133592, 226.272201)"><path style="stroke:none" d="M 10.546875 -7.40625 C 11.460938 -7.40625 12.179688 -7.140625 12.703125 -6.609375 C 13.234375 -6.078125 13.5 -5.296875 13.5 -4.265625 L 13.5 0 L 12.515625 0 L 12.515625 -4.15625 C 12.515625 -4.925781 12.328125 -5.507812 11.953125 -5.90625 C 11.585938 -6.3125 11.070312 -6.515625 10.40625 -6.515625 C 9.644531 -6.515625 9.046875 -6.273438 8.609375 -5.796875 C 8.171875 -5.328125 7.953125 -4.679688 7.953125 -3.859375 L 7.953125 0 L 6.953125 0 L 6.953125 -4.15625 C 6.953125 -4.925781 6.769531 -5.507812 6.40625 -5.90625 C 6.039062 -6.3125 5.515625 -6.515625 4.828125 -6.515625 C 4.078125 -6.515625 3.476562 -6.273438 3.03125 -5.796875 C 2.59375 -5.328125 2.375 -4.679688 2.375 -3.859375 L 2.375 0 L 1.390625 0 L 1.390625 -7.34375 L 2.328125 -7.34375 L 2.328125 -6 C 2.585938 -6.445312 2.953125 -6.789062 3.421875 -7.03125 C 3.890625 -7.28125 4.425781 -7.40625 5.03125 -7.40625 C 5.644531 -7.40625 6.175781 -7.273438 6.625 -7.015625 C 7.082031 -6.753906 7.421875 -6.367188 7.640625 -5.859375 C 7.910156 -6.335938 8.296875 -6.710938 8.796875 -6.984375 C 9.304688 -7.265625 9.890625 -7.40625 10.546875 -7.40625 Z M 10.546875 -7.40625 "/></g></g><g style="fill:#213435;fill-opacity:1;"><g transform="translate(124.982403, 226.272201)"><path style="stroke:none" d="M 4.390625 0.0625 C 3.679688 0.0625 3.039062 -0.09375 2.46875 -0.40625 C 1.90625 -0.726562 1.457031 -1.171875 1.125 -1.734375 C 0.800781 -2.304688 0.640625 -2.953125 0.640625 -3.671875 C 0.640625 -4.390625 0.800781 -5.03125 1.125 -5.59375 C 1.457031 -6.164062 1.90625 -6.609375 2.46875 -6.921875 C 3.039062 -7.242188 3.679688 -7.40625 4.390625 -7.40625 C 5.097656 -7.40625 5.734375 -7.242188 6.296875 -6.921875 C 6.867188 -6.609375 7.3125 -6.164062 7.625 -5.59375 C 7.945312 -5.03125 8.109375 -4.390625 8.109375 -3.671875 C 8.109375 -2.953125 7.945312 -2.304688 7.625 -1.734375 C 7.3125 -1.171875 6.867188 -0.726562 6.296875 -0.40625 C 5.734375 -0.09375 5.097656 0.0625 4.390625 0.0625 Z M 4.390625 -0.8125 C 4.910156 -0.8125 5.375 -0.925781 5.78125 -1.15625 C 6.195312 -1.394531 6.519531 -1.734375 6.75 -2.171875 C 6.988281 -2.609375 7.109375 -3.109375 7.109375 -3.671875 C 7.109375 -4.234375 6.988281 -4.734375 6.75 -5.171875 C 6.519531 -5.609375 6.195312 -5.941406 5.78125 -6.171875 C 5.375 -6.410156 4.910156 -6.53125 4.390625 -6.53125 C 3.867188 -6.53125 3.398438 -6.410156 2.984375 -6.171875 C 2.566406 -5.941406 2.238281 -5.609375 2 -5.171875 C 1.757812 -4.734375 1.640625 -4.234375 1.640625 -3.671875 C 1.640625 -3.109375 1.757812 -2.609375 2 -2.171875 C 2.238281 -1.734375 2.566406 -1.394531 2.984375 -1.15625 C 3.398438 -0.925781 3.867188 -0.8125 4.390625 -0.8125 Z M 4.390625 -0.8125 "/></g></g><g style="fill:#213435;fill-opacity:1;"><g transform="translate(133.740818, 226.272201)"><path style="stroke:none" d="M 10.546875 -7.40625 C 11.460938 -7.40625 12.179688 -7.140625 12.703125 -6.609375 C 13.234375 -6.078125 13.5 -5.296875 13.5 -4.265625 L 13.5 0 L 12.515625 0 L 12.515625 -4.15625 C 12.515625 -4.925781 12.328125 -5.507812 11.953125 -5.90625 C 11.585938 -6.3125 11.070312 -6.515625 10.40625 -6.515625 C 9.644531 -6.515625 9.046875 -6.273438 8.609375 -5.796875 C 8.171875 -5.328125 7.953125 -4.679688 7.953125 -3.859375 L 7.953125 0 L 6.953125 0 L 6.953125 -4.15625 C 6.953125 -4.925781 6.769531 -5.507812 6.40625 -5.90625 C 6.039062 -6.3125 5.515625 -6.515625 4.828125 -6.515625 C 4.078125 -6.515625 3.476562 -6.273438 3.03125 -5.796875 C 2.59375 -5.328125 2.375 -4.679688 2.375 -3.859375 L 2.375 0 L 1.390625 0 L 1.390625 -7.34375 L 2.328125 -7.34375 L 2.328125 -6 C 2.585938 -6.445312 2.953125 -6.789062 3.421875 -7.03125 C 3.890625 -7.28125 4.425781 -7.40625 5.03125 -7.40625 C 5.644531 -7.40625 6.175781 -7.273438 6.625 -7.015625 C 7.082031 -6.753906 7.421875 -6.367188 7.640625 -5.859375 C 7.910156 -6.335938 8.296875 -6.710938 8.796875 -6.984375 C 9.304688 -7.265625 9.890625 -7.40625 10.546875 -7.40625 Z M 10.546875 -7.40625 "/></g></g><g style="fill:#213435;fill-opacity:1;"><g transform="translate(148.589629, 226.272201)"><path style="stroke:none" d="M 7.78125 -3.359375 L 1.640625 -3.359375 C 1.691406 -2.597656 1.984375 -1.984375 2.515625 -1.515625 C 3.046875 -1.046875 3.71875 -0.8125 4.53125 -0.8125 C 4.976562 -0.8125 5.394531 -0.890625 5.78125 -1.046875 C 6.164062 -1.210938 6.5 -1.457031 6.78125 -1.78125 L 7.328125 -1.125 C 7.003906 -0.738281 6.597656 -0.441406 6.109375 -0.234375 C 5.617188 -0.0351562 5.082031 0.0625 4.5 0.0625 C 3.738281 0.0625 3.066406 -0.09375 2.484375 -0.40625 C 1.910156 -0.726562 1.457031 -1.171875 1.125 -1.734375 C 0.800781 -2.304688 0.640625 -2.953125 0.640625 -3.671875 C 0.640625 -4.390625 0.796875 -5.03125 1.109375 -5.59375 C 1.421875 -6.164062 1.847656 -6.609375 2.390625 -6.921875 C 2.941406 -7.242188 3.554688 -7.40625 4.234375 -7.40625 C 4.910156 -7.40625 5.519531 -7.242188 6.0625 -6.921875 C 6.601562 -6.609375 7.023438 -6.171875 7.328125 -5.609375 C 7.640625 -5.046875 7.796875 -4.398438 7.796875 -3.671875 Z M 4.234375 -6.546875 C 3.523438 -6.546875 2.929688 -6.320312 2.453125 -5.875 C 1.972656 -5.425781 1.703125 -4.835938 1.640625 -4.109375 L 6.84375 -4.109375 C 6.78125 -4.835938 6.507812 -5.425781 6.03125 -5.875 C 5.550781 -6.320312 4.953125 -6.546875 4.234375 -6.546875 Z M 4.234375 -6.546875 "/></g></g><g style="fill:#213435;fill-opacity:1;"><g transform="translate(157.026762, 226.272201)"><path style="stroke:none" d="M 5.125 -7.40625 C 6.050781 -7.40625 6.785156 -7.132812 7.328125 -6.59375 C 7.867188 -6.0625 8.140625 -5.285156 8.140625 -4.265625 L 8.140625 0 L 7.15625 0 L 7.15625 -4.15625 C 7.15625 -4.925781 6.960938 -5.507812 6.578125 -5.90625 C 6.191406 -6.3125 5.644531 -6.515625 4.9375 -6.515625 C 4.144531 -6.515625 3.519531 -6.273438 3.0625 -5.796875 C 2.601562 -5.328125 2.375 -4.679688 2.375 -3.859375 L 2.375 0 L 1.390625 0 L 1.390625 -7.34375 L 2.328125 -7.34375 L 2.328125 -6 C 2.597656 -6.4375 2.972656 -6.78125 3.453125 -7.03125 C 3.929688 -7.28125 4.488281 -7.40625 5.125 -7.40625 Z M 5.125 -7.40625 "/></g></g><g style="fill:#213435;fill-opacity:1;"><g transform="translate(166.483621, 226.272201)"><path style="stroke:none" d="M 5.25 -0.453125 C 5.0625 -0.285156 4.832031 -0.15625 4.5625 -0.0625 C 4.289062 0.0195312 4.003906 0.0625 3.703125 0.0625 C 3.015625 0.0625 2.484375 -0.117188 2.109375 -0.484375 C 1.734375 -0.859375 1.546875 -1.382812 1.546875 -2.0625 L 1.546875 -6.515625 L 0.234375 -6.515625 L 0.234375 -7.34375 L 1.546875 -7.34375 L 1.546875 -8.953125 L 2.546875 -8.953125 L 2.546875 -7.34375 L 4.78125 -7.34375 L 4.78125 -6.515625 L 2.546875 -6.515625 L 2.546875 -2.125 C 2.546875 -1.6875 2.65625 -1.351562 2.875 -1.125 C 3.09375 -0.894531 3.40625 -0.78125 3.8125 -0.78125 C 4.019531 -0.78125 4.21875 -0.8125 4.40625 -0.875 C 4.59375 -0.945312 4.757812 -1.039062 4.90625 -1.15625 Z M 5.25 -0.453125 "/></g></g><g style="fill:#213435;fill-opacity:1;"><g transform="translate(171.889455, 226.272201)"><path style="stroke:none" d="M 4.390625 0.0625 C 3.679688 0.0625 3.039062 -0.09375 2.46875 -0.40625 C 1.90625 -0.726562 1.457031 -1.171875 1.125 -1.734375 C 0.800781 -2.304688 0.640625 -2.953125 0.640625 -3.671875 C 0.640625 -4.390625 0.800781 -5.03125 1.125 -5.59375 C 1.457031 -6.164062 1.90625 -6.609375 2.46875 -6.921875 C 3.039062 -7.242188 3.679688 -7.40625 4.390625 -7.40625 C 5.097656 -7.40625 5.734375 -7.242188 6.296875 -6.921875 C 6.867188 -6.609375 7.3125 -6.164062 7.625 -5.59375 C 7.945312 -5.03125 8.109375 -4.390625 8.109375 -3.671875 C 8.109375 -2.953125 7.945312 -2.304688 7.625 -1.734375 C 7.3125 -1.171875 6.867188 -0.726562 6.296875 -0.40625 C 5.734375 -0.09375 5.097656 0.0625 4.390625 0.0625 Z M 4.390625 -0.8125 C 4.910156 -0.8125 5.375 -0.925781 5.78125 -1.15625 C 6.195312 -1.394531 6.519531 -1.734375 6.75 -2.171875 C 6.988281 -2.609375 7.109375 -3.109375 7.109375 -3.671875 C 7.109375 -4.234375 6.988281 -4.734375 6.75 -5.171875 C 6.519531 -5.609375 6.195312 -5.941406 5.78125 -6.171875 C 5.375 -6.410156 4.910156 -6.53125 4.390625 -6.53125 C 3.867188 -6.53125 3.398438 -6.410156 2.984375 -6.171875 C 2.566406 -5.941406 2.238281 -5.609375 2 -5.171875 C 1.757812 -4.734375 1.640625 -4.234375 1.640625 -3.671875 C 1.640625 -3.109375 1.757812 -2.609375 2 -2.171875 C 2.238281 -1.734375 2.566406 -1.394531 2.984375 -1.15625 C 3.398438 -0.925781 3.867188 -0.8125 4.390625 -0.8125 Z M 4.390625 -0.8125 "/></g></g><g style="fill:#213435;fill-opacity:1;"><g transform="translate(180.64787, 226.272201)"><path style="stroke:none" d=""/></g></g><g style="fill:#213435;fill-opacity:1;"><g transform="translate(184.30769, 226.272201)"><path style="stroke:none" d="M 5.171875 -7.40625 C 5.859375 -7.40625 6.476562 -7.25 7.03125 -6.9375 C 7.59375 -6.625 8.03125 -6.179688 8.34375 -5.609375 C 8.664062 -5.046875 8.828125 -4.398438 8.828125 -3.671875 C 8.828125 -2.929688 8.664062 -2.273438 8.34375 -1.703125 C 8.03125 -1.140625 7.597656 -0.703125 7.046875 -0.390625 C 6.492188 -0.0859375 5.867188 0.0625 5.171875 0.0625 C 4.578125 0.0625 4.035156 -0.0546875 3.546875 -0.296875 C 3.066406 -0.546875 2.675781 -0.910156 2.375 -1.390625 L 2.375 2.703125 L 1.390625 2.703125 L 1.390625 -7.34375 L 2.328125 -7.34375 L 2.328125 -5.890625 C 2.628906 -6.378906 3.023438 -6.753906 3.515625 -7.015625 C 4.003906 -7.273438 4.554688 -7.40625 5.171875 -7.40625 Z M 5.09375 -0.8125 C 5.601562 -0.8125 6.066406 -0.925781 6.484375 -1.15625 C 6.910156 -1.394531 7.242188 -1.734375 7.484375 -2.171875 C 7.722656 -2.609375 7.84375 -3.109375 7.84375 -3.671875 C 7.84375 -4.234375 7.722656 -4.726562 7.484375 -5.15625 C 7.242188 -5.59375 6.910156 -5.929688 6.484375 -6.171875 C 6.066406 -6.410156 5.601562 -6.53125 5.09375 -6.53125 C 4.570312 -6.53125 4.101562 -6.410156 3.6875 -6.171875 C 3.28125 -5.929688 2.957031 -5.59375 2.71875 -5.15625 C 2.476562 -4.726562 2.359375 -4.234375 2.359375 -3.671875 C 2.359375 -3.109375 2.476562 -2.609375 2.71875 -2.171875 C 2.957031 -1.734375 3.28125 -1.394531 3.6875 -1.15625 C 4.101562 -0.925781 4.570312 -0.8125 5.09375 -0.8125 Z M 5.09375 -0.8125 "/></g></g><g style="fill:#213435;fill-opacity:1;"><g transform="translate(193.778511, 226.272201)"><path style="stroke:none" d="M 2.328125 -5.90625 C 2.566406 -6.40625 2.914062 -6.78125 3.375 -7.03125 C 3.832031 -7.28125 4.398438 -7.40625 5.078125 -7.40625 L 5.078125 -6.4375 L 4.84375 -6.453125 C 4.070312 -6.453125 3.46875 -6.210938 3.03125 -5.734375 C 2.59375 -5.265625 2.375 -4.601562 2.375 -3.75 L 2.375 0 L 1.390625 0 L 1.390625 -7.34375 L 2.328125 -7.34375 Z M 2.328125 -5.90625 "/></g></g><g style="fill:#213435;fill-opacity:1;"><g transform="translate(199.198341, 226.272201)"><path style="stroke:none" d="M 4.390625 0.0625 C 3.679688 0.0625 3.039062 -0.09375 2.46875 -0.40625 C 1.90625 -0.726562 1.457031 -1.171875 1.125 -1.734375 C 0.800781 -2.304688 0.640625 -2.953125 0.640625 -3.671875 C 0.640625 -4.390625 0.800781 -5.03125 1.125 -5.59375 C 1.457031 -6.164062 1.90625 -6.609375 2.46875 -6.921875 C 3.039062 -7.242188 3.679688 -7.40625 4.390625 -7.40625 C 5.097656 -7.40625 5.734375 -7.242188 6.296875 -6.921875 C 6.867188 -6.609375 7.3125 -6.164062 7.625 -5.59375 C 7.945312 -5.03125 8.109375 -4.390625 8.109375 -3.671875 C 8.109375 -2.953125 7.945312 -2.304688 7.625 -1.734375 C 7.3125 -1.171875 6.867188 -0.726562 6.296875 -0.40625 C 5.734375 -0.09375 5.097656 0.0625 4.390625 0.0625 Z M 4.390625 -0.8125 C 4.910156 -0.8125 5.375 -0.925781 5.78125 -1.15625 C 6.195312 -1.394531 6.519531 -1.734375 6.75 -2.171875 C 6.988281 -2.609375 7.109375 -3.109375 7.109375 -3.671875 C 7.109375 -4.234375 6.988281 -4.734375 6.75 -5.171875 C 6.519531 -5.609375 6.195312 -5.941406 5.78125 -6.171875 C 5.375 -6.410156 4.910156 -6.53125 4.390625 -6.53125 C 3.867188 -6.53125 3.398438 -6.410156 2.984375 -6.171875 C 2.566406 -5.941406 2.238281 -5.609375 2 -5.171875 C 1.757812 -4.734375 1.640625 -4.234375 1.640625 -3.671875 C 1.640625 -3.109375 1.757812 -2.609375 2 -2.171875 C 2.238281 -1.734375 2.566406 -1.394531 2.984375 -1.15625 C 3.398438 -0.925781 3.867188 -0.8125 4.390625 -0.8125 Z M 4.390625 -0.8125 "/></g></g><g style="fill:#213435;fill-opacity:1;"><g transform="translate(207.956755, 226.272201)"><path style="stroke:none" d=""/></g></g><g style="fill:#213435;fill-opacity:1;"><g transform="translate(211.616576, 226.272201)"><path style="stroke:none" d="M 3.359375 0.0625 C 2.753906 0.0625 2.179688 -0.0195312 1.640625 -0.1875 C 1.097656 -0.363281 0.671875 -0.582031 0.359375 -0.84375 L 0.8125 -1.625 C 1.113281 -1.375 1.5 -1.171875 1.96875 -1.015625 C 2.4375 -0.867188 2.921875 -0.796875 3.421875 -0.796875 C 4.085938 -0.796875 4.582031 -0.898438 4.90625 -1.109375 C 5.226562 -1.316406 5.390625 -1.613281 5.390625 -2 C 5.390625 -2.269531 5.300781 -2.476562 5.125 -2.625 C 4.945312 -2.78125 4.722656 -2.894531 4.453125 -2.96875 C 4.179688 -3.050781 3.820312 -3.132812 3.375 -3.21875 C 2.78125 -3.320312 2.300781 -3.429688 1.9375 -3.546875 C 1.570312 -3.671875 1.257812 -3.867188 1 -4.140625 C 0.75 -4.421875 0.625 -4.8125 0.625 -5.3125 C 0.625 -5.925781 0.878906 -6.425781 1.390625 -6.8125 C 1.910156 -7.207031 2.625 -7.40625 3.53125 -7.40625 C 4.007812 -7.40625 4.484375 -7.34375 4.953125 -7.21875 C 5.429688 -7.09375 5.820312 -6.925781 6.125 -6.71875 L 5.703125 -5.921875 C 5.097656 -6.335938 4.375 -6.546875 3.53125 -6.546875 C 2.894531 -6.546875 2.414062 -6.429688 2.09375 -6.203125 C 1.78125 -5.984375 1.625 -5.695312 1.625 -5.34375 C 1.625 -5.0625 1.710938 -4.835938 1.890625 -4.671875 C 2.078125 -4.503906 2.300781 -4.378906 2.5625 -4.296875 C 2.832031 -4.210938 3.207031 -4.128906 3.6875 -4.046875 C 4.269531 -3.941406 4.738281 -3.832031 5.09375 -3.71875 C 5.445312 -3.601562 5.75 -3.410156 6 -3.140625 C 6.257812 -2.867188 6.390625 -2.5 6.390625 -2.03125 C 6.390625 -1.382812 6.117188 -0.875 5.578125 -0.5 C 5.046875 -0.125 4.304688 0.0625 3.359375 0.0625 Z M 3.359375 0.0625 "/></g></g><g style="fill:#213435;fill-opacity:1;"><g transform="translate(218.447302, 226.272201)"><path style="stroke:none" d="M 7.78125 -3.359375 L 1.640625 -3.359375 C 1.691406 -2.597656 1.984375 -1.984375 2.515625 -1.515625 C 3.046875 -1.046875 3.71875 -0.8125 4.53125 -0.8125 C 4.976562 -0.8125 5.394531 -0.890625 5.78125 -1.046875 C 6.164062 -1.210938 6.5 -1.457031 6.78125 -1.78125 L 7.328125 -1.125 C 7.003906 -0.738281 6.597656 -0.441406 6.109375 -0.234375 C 5.617188 -0.0351562 5.082031 0.0625 4.5 0.0625 C 3.738281 0.0625 3.066406 -0.09375 2.484375 -0.40625 C 1.910156 -0.726562 1.457031 -1.171875 1.125 -1.734375 C 0.800781 -2.304688 0.640625 -2.953125 0.640625 -3.671875 C 0.640625 -4.390625 0.796875 -5.03125 1.109375 -5.59375 C 1.421875 -6.164062 1.847656 -6.609375 2.390625 -6.921875 C 2.941406 -7.242188 3.554688 -7.40625 4.234375 -7.40625 C 4.910156 -7.40625 5.519531 -7.242188 6.0625 -6.921875 C 6.601562 -6.609375 7.023438 -6.171875 7.328125 -5.609375 C 7.640625 -5.046875 7.796875 -4.398438 7.796875 -3.671875 Z M 4.234375 -6.546875 C 3.523438 -6.546875 2.929688 -6.320312 2.453125 -5.875 C 1.972656 -5.425781 1.703125 -4.835938 1.640625 -4.109375 L 6.84375 -4.109375 C 6.78125 -4.835938 6.507812 -5.425781 6.03125 -5.875 C 5.550781 -6.320312 4.953125 -6.546875 4.234375 -6.546875 Z M 4.234375 -6.546875 "/></g></g><g style="fill:#213435;fill-opacity:1;"><g transform="translate(226.884435, 226.272201)"><path style="stroke:none" d="M 8 -7.34375 L 8 0 L 7.046875 0 L 7.046875 -1.34375 C 6.785156 -0.894531 6.425781 -0.546875 5.96875 -0.296875 C 5.519531 -0.0546875 5.003906 0.0625 4.421875 0.0625 C 3.453125 0.0625 2.691406 -0.203125 2.140625 -0.734375 C 1.585938 -1.265625 1.3125 -2.050781 1.3125 -3.09375 L 1.3125 -7.34375 L 2.3125 -7.34375 L 2.3125 -3.1875 C 2.3125 -2.414062 2.5 -1.828125 2.875 -1.421875 C 3.257812 -1.023438 3.804688 -0.828125 4.515625 -0.828125 C 5.285156 -0.828125 5.894531 -1.0625 6.34375 -1.53125 C 6.789062 -2 7.015625 -2.648438 7.015625 -3.484375 L 7.015625 -7.34375 Z M 8 -7.34375 "/></g></g><g style="fill:#213435;fill-opacity:1;"><g transform="translate(236.285413, 226.272201)"><path style="stroke:none" d=""/></g></g><g style="fill:#213435;fill-opacity:1;"><g transform="translate(239.945233, 226.272201)"><path style="stroke:none" d="M 4.421875 0.0625 C 3.703125 0.0625 3.054688 -0.09375 2.484375 -0.40625 C 1.910156 -0.71875 1.457031 -1.160156 1.125 -1.734375 C 0.800781 -2.304688 0.640625 -2.953125 0.640625 -3.671875 C 0.640625 -4.390625 0.800781 -5.03125 1.125 -5.59375 C 1.457031 -6.164062 1.910156 -6.609375 2.484375 -6.921875 C 3.054688 -7.242188 3.703125 -7.40625 4.421875 -7.40625 C 5.054688 -7.40625 5.625 -7.28125 6.125 -7.03125 C 6.625 -6.78125 7.019531 -6.421875 7.3125 -5.953125 L 6.5625 -5.453125 C 6.320312 -5.816406 6.015625 -6.085938 5.640625 -6.265625 C 5.265625 -6.441406 4.859375 -6.53125 4.421875 -6.53125 C 3.890625 -6.53125 3.410156 -6.410156 2.984375 -6.171875 C 2.566406 -5.941406 2.238281 -5.609375 2 -5.171875 C 1.757812 -4.734375 1.640625 -4.234375 1.640625 -3.671875 C 1.640625 -3.109375 1.757812 -2.609375 2 -2.171875 C 2.238281 -1.734375 2.566406 -1.394531 2.984375 -1.15625 C 3.410156 -0.925781 3.890625 -0.8125 4.421875 -0.8125 C 4.859375 -0.8125 5.265625 -0.898438 5.640625 -1.078125 C 6.015625 -1.253906 6.320312 -1.523438 6.5625 -1.890625 L 7.3125 -1.390625 C 7.019531 -0.910156 6.617188 -0.546875 6.109375 -0.296875 C 5.609375 -0.0546875 5.046875 0.0625 4.421875 0.0625 Z M 4.421875 0.0625 "/></g></g><g style="fill:#213435;fill-opacity:1;"><g transform="translate(247.809647, 226.272201)"><path style="stroke:none" d="M 3.953125 -7.40625 C 4.910156 -7.40625 5.644531 -7.164062 6.15625 -6.6875 C 6.664062 -6.207031 6.921875 -5.492188 6.921875 -4.546875 L 6.921875 0 L 5.984375 0 L 5.984375 -1.140625 C 5.753906 -0.765625 5.421875 -0.46875 4.984375 -0.25 C 4.554688 -0.0390625 4.046875 0.0625 3.453125 0.0625 C 2.628906 0.0625 1.972656 -0.128906 1.484375 -0.515625 C 1.003906 -0.910156 0.765625 -1.425781 0.765625 -2.0625 C 0.765625 -2.6875 0.988281 -3.191406 1.4375 -3.578125 C 1.894531 -3.960938 2.617188 -4.15625 3.609375 -4.15625 L 5.9375 -4.15625 L 5.9375 -4.59375 C 5.9375 -5.226562 5.757812 -5.707031 5.40625 -6.03125 C 5.050781 -6.363281 4.535156 -6.53125 3.859375 -6.53125 C 3.390625 -6.53125 2.941406 -6.453125 2.515625 -6.296875 C 2.085938 -6.148438 1.71875 -5.941406 1.40625 -5.671875 L 0.96875 -6.40625 C 1.332031 -6.726562 1.773438 -6.972656 2.296875 -7.140625 C 2.828125 -7.316406 3.378906 -7.40625 3.953125 -7.40625 Z M 3.609375 -0.71875 C 4.160156 -0.71875 4.632812 -0.84375 5.03125 -1.09375 C 5.4375 -1.351562 5.738281 -1.722656 5.9375 -2.203125 L 5.9375 -3.40625 L 3.625 -3.40625 C 2.375 -3.40625 1.75 -2.96875 1.75 -2.09375 C 1.75 -1.664062 1.910156 -1.328125 2.234375 -1.078125 C 2.554688 -0.835938 3.015625 -0.71875 3.609375 -0.71875 Z M 4.9375 -8.578125 C 4.71875 -8.578125 4.523438 -8.625 4.359375 -8.71875 C 4.191406 -8.820312 4.007812 -8.960938 3.8125 -9.140625 C 3.644531 -9.273438 3.507812 -9.375 3.40625 -9.4375 C 3.3125 -9.5 3.207031 -9.53125 3.09375 -9.53125 C 2.882812 -9.53125 2.710938 -9.445312 2.578125 -9.28125 C 2.453125 -9.125 2.382812 -8.910156 2.375 -8.640625 L 1.78125 -8.640625 C 1.789062 -9.097656 1.90625 -9.46875 2.125 -9.75 C 2.351562 -10.03125 2.65625 -10.171875 3.03125 -10.171875 C 3.25 -10.171875 3.4375 -10.125 3.59375 -10.03125 C 3.757812 -9.9375 3.945312 -9.796875 4.15625 -9.609375 C 4.3125 -9.484375 4.4375 -9.382812 4.53125 -9.3125 C 4.632812 -9.25 4.742188 -9.21875 4.859375 -9.21875 C 5.066406 -9.21875 5.234375 -9.296875 5.359375 -9.453125 C 5.492188 -9.609375 5.570312 -9.820312 5.59375 -10.09375 L 6.1875 -10.09375 C 6.164062 -9.632812 6.039062 -9.265625 5.8125 -8.984375 C 5.59375 -8.710938 5.300781 -8.578125 4.9375 -8.578125 Z M 4.9375 -8.578125 "/></g></g><g style="fill:#213435;fill-opacity:1;"><g transform="translate(256.07917, 226.272201)"><path style="stroke:none" d="M 4.390625 0.0625 C 3.679688 0.0625 3.039062 -0.09375 2.46875 -0.40625 C 1.90625 -0.726562 1.457031 -1.171875 1.125 -1.734375 C 0.800781 -2.304688 0.640625 -2.953125 0.640625 -3.671875 C 0.640625 -4.390625 0.800781 -5.03125 1.125 -5.59375 C 1.457031 -6.164062 1.90625 -6.609375 2.46875 -6.921875 C 3.039062 -7.242188 3.679688 -7.40625 4.390625 -7.40625 C 5.097656 -7.40625 5.734375 -7.242188 6.296875 -6.921875 C 6.867188 -6.609375 7.3125 -6.164062 7.625 -5.59375 C 7.945312 -5.03125 8.109375 -4.390625 8.109375 -3.671875 C 8.109375 -2.953125 7.945312 -2.304688 7.625 -1.734375 C 7.3125 -1.171875 6.867188 -0.726562 6.296875 -0.40625 C 5.734375 -0.09375 5.097656 0.0625 4.390625 0.0625 Z M 4.390625 -0.8125 C 4.910156 -0.8125 5.375 -0.925781 5.78125 -1.15625 C 6.195312 -1.394531 6.519531 -1.734375 6.75 -2.171875 C 6.988281 -2.609375 7.109375 -3.109375 7.109375 -3.671875 C 7.109375 -4.234375 6.988281 -4.734375 6.75 -5.171875 C 6.519531 -5.609375 6.195312 -5.941406 5.78125 -6.171875 C 5.375 -6.410156 4.910156 -6.53125 4.390625 -6.53125 C 3.867188 -6.53125 3.398438 -6.410156 2.984375 -6.171875 C 2.566406 -5.941406 2.238281 -5.609375 2 -5.171875 C 1.757812 -4.734375 1.640625 -4.234375 1.640625 -3.671875 C 1.640625 -3.109375 1.757812 -2.609375 2 -2.171875 C 2.238281 -1.734375 2.566406 -1.394531 2.984375 -1.15625 C 3.398438 -0.925781 3.867188 -0.8125 4.390625 -0.8125 Z M 4.390625 -0.8125 "/></g></g></g></svg>